<?xml version="1.0" encoding="UTF-8"?>
<svg version="1.1" xmlns="http://www.w3.org/2000/svg" width="256" height="256">
<path d="M0 0 C17.31056173 15.10415461 29.03370002 33.98470284 34.56298828 56.36376953 C34.89943359 57.68054688 34.89943359 57.68054688 35.24267578 59.02392578 C41.08935947 86.85574199 33.78634353 114.88510216 18.56298828 138.36376953 C1.57834345 161.8113215 -22.84177049 178.0080915 -51.46972656 182.96020508 C-79.22298751 186.73477644 -106.77200412 180.11359964 -129.36352539 163.50634766 C-151.84902644 146.04213656 -165.96678896 123.14500443 -171.01904297 95.13720703 C-174.23009161 66.14773989 -167.52762858 37.36765265 -149.56201172 14.11376953 C-131.60348594 -7.19236494 -107.60246763 -20.76229533 -79.86279297 -24.35498047 C-50.61704369 -26.75599979 -22.5827866 -19.14642868 0 0 Z " fill="#ACACAC" transform="translate(195.43701171875,47.63623046875)"/>
<path d="M0 0 C15.2642986 -1.60676827 32.14937393 9.14746369 43.6875 18.3125 C62.29352979 34.29565334 75.08867681 53.07469721 81 77 C81.33644531 78.31677734 81.33644531 78.31677734 81.6796875 79.66015625 C87.52637119 107.49197246 80.22335524 135.52133263 65 159 C48.01535517 182.44755197 23.59524123 198.64432196 -5.03271484 203.59643555 C-26.09612369 206.4611562 -46.32741903 203.3369474 -65.5625 194.5625 C-66.75057251 194.02411499 -66.75057251 194.02411499 -67.96264648 193.47485352 C-72.88659462 191.05360221 -75.37631502 188.83676675 -78 184 C-74.84198444 184.97748101 -71.98714077 186.00684002 -69.0625 187.5625 C-65.67072642 189.15455699 -62.71029243 189.62897076 -59 190 C-59 190.66 -59 191.32 -59 192 C-58.34 192 -57.68 192 -57 192 C-56.67 191.01 -56.34 190.02 -56 189 C-55.01 189.33 -54.02 189.66 -53 190 C-52.01 189.34 -51.02 188.68 -50 188 C-44.25 190.75 -44.25 190.75 -42 193 C-39.99131696 193.20534422 -39.99131696 193.20534422 -37.75 193.0625 C-34.90554323 192.98956521 -32.57762241 193.07310381 -29.75 193.5625 C-26.77296709 194.03611887 -24.92577114 193.62695096 -22 193 C-19.3269253 192.90357646 -16.67668854 192.95751288 -14 193 C-8.87899759 193 -4.66923461 191.60092446 0.125 189.875 C2.9319208 189.02071976 5.08933374 188.82878434 8 189 C8 188.01 8 187.02 8 186 C11 184 11 184 13.5625 183.25 C22.72817455 179.91702744 39.55732068 170.88535864 44 162 C44.66 162 45.32 162 46 162 C46.24105469 161.46632812 46.48210937 160.93265625 46.73046875 160.3828125 C48.34601235 157.35056143 50.31083569 154.66723761 52.3125 151.875 C59.17268931 142.07140477 63.04415182 132.63391525 66 121 C66.45246094 119.45119141 66.45246094 119.45119141 66.9140625 117.87109375 C70.0007093 106.11587347 69.27698062 94.05931004 69 82 C68.34 82 67.68 82 67 82 C66.67 83.32 66.34 84.64 66 86 C65.516941 84.60550891 65.03874483 83.20933293 64.5625 81.8125 C64.29566406 81.03519531 64.02882812 80.25789063 63.75390625 79.45703125 C63 77 63 77 62.5859375 74.57421875 C61.86522591 71.40789251 60.56312673 68.87650698 59.0625 66 C56.15821698 60.40550888 56.15821698 60.40550888 55.0078125 57.45703125 C47.39405941 38.89481926 30.71987973 26.6675591 12.95458984 18.80908203 C5.10048599 15.55795785 -3.32360035 12.87896819 -11.87890625 12.8671875 C-12.79397949 12.86493164 -13.70905273 12.86267578 -14.65185547 12.86035156 C-15.61236816 12.86518555 -16.57288086 12.87001953 -17.5625 12.875 C-18.5539502 12.87983398 -19.54540039 12.88466797 -20.56689453 12.88964844 C-33.36973932 12.99467588 -44.68355067 14.63954746 -57 18 C-57 18.66 -57 19.32 -57 20 C-58.6953125 21.12109375 -58.6953125 21.12109375 -61.125 22.4375 C-72.64717331 29.14516746 -84.80819655 38.3961876 -92.64453125 49.28515625 C-93.09183594 49.85105469 -93.53914063 50.41695312 -94 51 C-94.66 51 -95.32 51 -96 51 C-96.66 53.97 -97.32 56.94 -98 60 C-98.66 60 -99.32 60 -100 60 C-100.20496094 60.68707031 -100.40992188 61.37414062 -100.62109375 62.08203125 C-100.89050781 62.98308594 -101.15992188 63.88414063 -101.4375 64.8125 C-101.70433594 65.70582031 -101.97117187 66.59914063 -102.24609375 67.51953125 C-102.80387873 69.35473055 -103.39344575 71.18033726 -104 73 C-104.66 73 -105.32 73 -106 73 C-108.81969764 98.89847289 -110.22815521 120.57829465 -97.50390625 144.0012207 C-96.61792228 145.64075426 -95.80188673 147.31773499 -95 149 C-95.33 149.66 -95.66 150.32 -96 151 C-109.69411852 130.13277178 -115.68245913 106.55095651 -110.76635742 81.76953125 C-105.17847105 56.53289265 -90.638332 36.06473716 -69.08203125 21.8984375 C-60.40153518 16.55151596 -51.90876969 13.44884926 -42 11 C-41.14148438 10.7834375 -40.28296875 10.566875 -39.3984375 10.34375 C-29.79096374 8.26975566 -19.79034449 8.33538849 -10 8 C-10.20625 7.38125 -10.4125 6.7625 -10.625 6.125 C-10.74875 5.42375 -10.8725 4.7225 -11 4 C-9 2 -9 2 -6.35546875 1.953125 C-5.31003906 2.05109375 -4.26460938 2.1490625 -3.1875 2.25 C-2.14980469 2.33765625 -1.11210937 2.4253125 -0.04296875 2.515625 C2.93703087 2.98997667 5.24664375 3.79707737 8 5 C9.59979042 5.55445837 11.20385302 6.09678756 12.8125 6.625 C13.99779297 7.01558594 13.99779297 7.01558594 15.20703125 7.4140625 C15.79871094 7.60742188 16.39039063 7.80078125 17 8 C17 8.66 17 9.32 17 10 C17.99 9.67 18.98 9.34 20 9 C22.1875 9.9375 22.1875 9.9375 24 11 C24 11.99 24 12.98 24 14 C28.48133574 14.72256829 28.48133574 14.72256829 33 15 C22.37086206 8.82318532 11.75968473 4.55619332 0 1 C0 0.67 0 0.34 0 0 Z " fill="#A6A6A7" transform="translate(149,27)"/>
<path d="M0 0 C-0.66 0.66 -1.32 1.32 -2 2 C-0.63681641 2.4021875 -0.63681641 2.4021875 0.75390625 2.8125 C7.93757203 5.05233015 14.65981814 7.58691236 21.3125 11.125 C21.95195557 11.46144531 22.59141113 11.79789063 23.25024414 12.14453125 C26.37668705 13.86057747 27.98462844 14.97694266 30 18 C26.37 17.01 22.74 16.02 19 15 C19 14.01 19 13.02 19 12 C16.69 11.67 14.38 11.34 12 11 C12 10.34 12 9.68 12 9 C8.04 8.34 4.08 7.68 0 7 C0 6.34 0 5.68 0 5 C-6.93 4.505 -6.93 4.505 -14 4 C-14 5.32 -14 6.64 -14 8 C-14.33 8.66 -14.66 9.32 -15 10 C-16.29550781 10.02578125 -17.59101563 10.0515625 -18.92578125 10.078125 C-34.27083704 10.51568296 -50.22164919 11.61480397 -64 19 C-64.76828125 19.34546875 -65.5365625 19.6909375 -66.328125 20.046875 C-83.52889908 27.94408574 -97.02938736 41.5611346 -106 58 C-106.40734375 58.69480469 -106.8146875 59.38960937 -107.234375 60.10546875 C-110.66475317 66.29334321 -112.24565751 73.19221962 -114 80 C-114.22945312 80.81082031 -114.45890625 81.62164062 -114.6953125 82.45703125 C-120.20774399 104.62321703 -114.16165047 128.69359565 -103 148 C-98.42691049 155.5173589 -93.44502505 162.36231281 -86.3984375 167.765625 C-85.70621094 168.37664062 -85.70621094 168.37664062 -85 169 C-85 169.66 -85 170.32 -85 171 C-84.38125 171.28875 -83.7625 171.5775 -83.125 171.875 C-81 173 -81 173 -79 175 C-79.3125 177.3125 -79.3125 177.3125 -80 180 C-81.15412928 184.6032066 -81.15412928 184.6032066 -80 189 C-97.35499455 182.79742272 -112.09398063 163.00734795 -120.03125 147.01953125 C-132.40018579 120.7355427 -133.2978018 92.11153284 -123.97949219 64.77392578 C-114.60322594 38.7601215 -95.89591423 18.95385455 -71.23071289 6.75097656 C-48.45583194 -3.95063715 -24.31275717 -5.17030785 0 0 Z " fill="#BBBBBB" transform="translate(154,26)"/>
<path d="M0 0 C0.33 0.66 0.66 1.32 1 2 C0.34 2 -0.32 2 -1 2 C0.4906365 5.82389027 1.98408506 9.6466697 3.47998047 13.46850586 C3.98691137 14.76476385 4.49311556 16.0613063 4.99853516 17.3581543 C7.61108949 24.0602615 10.2227836 30.73923441 13.30273438 37.24414062 C14.21891547 39.55127453 14.31611873 41.55007987 14 44 C14.99 44 15.98 44 17 44 C17.14695313 43.45142334 17.29390625 42.90284668 17.4453125 42.33764648 C19.51454116 35.01879066 22.27437009 28.03266353 25.18847656 21.02026367 C26.00719829 19.04513444 26.81245415 17.06484772 27.6171875 15.08398438 C28.13982372 13.81737741 28.66323304 12.5510891 29.1875 11.28515625 C29.65542969 10.14957275 30.12335938 9.01398926 30.60546875 7.84399414 C31.90906171 5.1854587 32.71826534 3.80510703 35 2 C36.99291992 1.7512207 36.99291992 1.7512207 39.23046875 1.92578125 C40.43413086 2.00795898 40.43413086 2.00795898 41.66210938 2.09179688 C42.49548828 2.16462891 43.32886719 2.23746094 44.1875 2.3125 C45.03248047 2.37373047 45.87746094 2.43496094 46.74804688 2.49804688 C48.83312095 2.65118791 50.91675276 2.82374157 53 3 C53.0465038 10.68483135 53.08196042 18.36964796 53.10362434 26.05458832 C53.11402613 29.62368265 53.12811875 33.19268014 53.15087891 36.76171875 C53.17273682 40.21117596 53.18459569 43.66054048 53.18975449 47.11006165 C53.19520476 49.05529846 53.21079671 51.0004984 53.22659302 52.94567871 C53.22739593 59.32718913 52.92436483 64.90062913 51 71 C50.38511719 70.98839844 49.77023438 70.97679687 49.13671875 70.96484375 C48.32847656 70.95582031 47.52023438 70.94679688 46.6875 70.9375 C45.48673828 70.92009766 45.48673828 70.92009766 44.26171875 70.90234375 C41.83138666 70.90342145 41.83138666 70.90342145 39 72 C39 57.81 39 43.62 39 29 C35.82804736 32.17195264 34.46025649 35.13117107 32.8125 39.1875 C32.53986328 39.84169922 32.26722656 40.49589844 31.98632812 41.16992188 C31.31760202 42.77721092 30.65790075 44.38824962 30 46 C29.34 46 28.68 46 28 46 C26.07794619 50.58335908 24.54269924 55.27934033 23 60 C22.01 60 21.02 60 20 60 C19.34 61.98 18.68 63.96 18 66 C14.535 66.495 14.535 66.495 11 67 C7.40466589 59.31637702 4.14146289 51.55313767 1.125 43.625 C0.50238281 42.04525391 0.50238281 42.04525391 -0.1328125 40.43359375 C-0.51953125 39.41652344 -0.90625 38.39945313 -1.3046875 37.3515625 C-1.65515137 36.44229004 -2.00561523 35.53301758 -2.36669922 34.59619141 C-3.07653034 31.6862669 -2.79981346 29.85831805 -2 27 C-3.98 27.33 -5.96 27.66 -8 28 C-8 42.19 -8 56.38 -8 71 C-13.625 73.25 -13.625 73.25 -17.3125 73.125 C-18.529375 73.08375 -19.74625 73.0425 -21 73 C-21.1535914 63.89049329 -21.3017731 54.78091962 -21.4429636 45.6712122 C-21.50868908 41.44164764 -21.57630906 37.21213074 -21.64819336 32.98266602 C-21.71743964 28.90437755 -21.78179482 24.82603906 -21.84269524 20.74761772 C-21.86685314 19.18819797 -21.89280202 17.62880494 -21.92053413 16.06944466 C-21.95894479 13.89277455 -21.99110362 11.71609819 -22.02172852 9.53930664 C-22.04171402 8.29798477 -22.06169952 7.0566629 -22.08229065 5.77772522 C-22 3 -22 3 -21 2 C-15.30074305 1.18582044 -9.81866531 0.91846847 -4.06640625 1.0625 C-1.93567487 1.14282449 -1.93567487 1.14282449 0 0 Z " fill="#BDBCBD" transform="translate(84,82)"/>
<path d="M0 0 C0.68964844 0.04640625 1.37929687 0.0928125 2.08984375 0.140625 C4.06678327 0.26614497 6.04642347 0.390625 8.02734375 0.390625 C12.02734375 0.390625 16.02734375 0.390625 20.02734375 0.390625 C20.35734375 1.050625 20.68734375 1.710625 21.02734375 2.390625 C21.89359375 1.8646875 21.89359375 1.8646875 22.77734375 1.328125 C25.44121151 0.2181801 26.36162712 0.44472555 29.02734375 1.390625 C31.97463912 2.54873888 31.97463912 2.54873888 35.02734375 2.390625 C35.02734375 1.730625 35.02734375 1.070625 35.02734375 0.390625 C38.40835771 0.99437749 40.47695559 2.0870486 43.02734375 4.390625 C46.02734375 8.78348214 46.02734375 8.78348214 46.02734375 11.390625 C46.68734375 11.390625 47.34734375 11.390625 48.02734375 11.390625 C51.52862503 19.93612507 51.31257773 25.63000105 48.02734375 34.390625 C47.36734375 34.390625 46.70734375 34.390625 46.02734375 34.390625 C45.69734375 36.040625 45.36734375 37.690625 45.02734375 39.390625 C44.03734375 39.720625 43.04734375 40.050625 42.02734375 40.390625 C41.69734375 41.380625 41.36734375 42.370625 41.02734375 43.390625 C40.36734375 43.390625 39.70734375 43.390625 39.02734375 43.390625 C39.02734375 44.380625 39.02734375 45.370625 39.02734375 46.390625 C38.03734375 46.390625 37.04734375 46.390625 36.02734375 46.390625 C35.80046875 47.174375 35.57359375 47.958125 35.33984375 48.765625 C34.02734375 51.390625 34.02734375 51.390625 31.71484375 52.765625 C28.74059126 53.45731162 26.95827424 53.10355404 24.02734375 52.390625 C23.03734375 52.885625 23.03734375 52.885625 22.02734375 53.390625 C21.36734375 53.060625 20.70734375 52.730625 20.02734375 52.390625 C19.69734375 53.050625 19.36734375 53.710625 19.02734375 54.390625 C19.02734375 53.730625 19.02734375 53.070625 19.02734375 52.390625 C17.37734375 53.050625 15.72734375 53.710625 14.02734375 54.390625 C14.02734375 55.710625 14.02734375 57.030625 14.02734375 58.390625 C14.68734375 58.720625 15.34734375 59.050625 16.02734375 59.390625 C16.35734375 58.400625 16.68734375 57.410625 17.02734375 56.390625 C18.34734375 56.390625 19.66734375 56.390625 21.02734375 56.390625 C20.69734375 57.710625 20.36734375 59.030625 20.02734375 60.390625 C19.36734375 60.390625 18.70734375 60.390625 18.02734375 60.390625 C16.11107222 63.14005806 14.84588058 65.84033807 13.58984375 68.953125 C12.05588559 72.32783294 10.94887923 74.15650963 8.02734375 76.390625 C3.70381434 77.72886029 3.70381434 77.72886029 1.02734375 76.390625 C-1.08949466 77.28226077 -1.08949466 77.28226077 -2.97265625 78.390625 C-2.97265625 77.730625 -2.97265625 77.070625 -2.97265625 76.390625 C-4.95265625 76.885625 -4.95265625 76.885625 -6.97265625 77.390625 C-7.30265625 73.760625 -7.63265625 70.130625 -7.97265625 66.390625 C-6.98265625 66.720625 -5.99265625 67.050625 -4.97265625 67.390625 C-4.97931808 66.61023865 -4.98597992 65.82985229 -4.99284363 65.02581787 C-5.05297144 57.66901062 -5.09863898 50.31232262 -5.12809277 42.95533371 C-5.14374437 39.17307802 -5.16497304 35.39102549 -5.19897461 31.60888672 C-5.23158666 27.95843765 -5.24951307 24.30818391 -5.25728798 20.6576004 C-5.26282823 19.26533178 -5.27364709 17.87307377 -5.28984642 16.48088837 C-5.31164248 14.53000832 -5.31288184 12.57893146 -5.31323242 10.62792969 C-5.31989426 9.5176239 -5.32655609 8.40731812 -5.3334198 7.2633667 C-4.8780108 3.63696808 -3.83964128 0.76032501 0 0 Z " fill="#A5A5A5" transform="translate(154.97265625,86.609375)"/>
<path d="M0 0 C15.03449422 6.53526438 25.72741981 27.65185595 31.609375 42.078125 C40.15307552 65.30851732 40.96121901 96.19205991 30.95947266 118.9296875 C18.60047651 145.59744508 -2.47120501 166.07651728 -30.04296875 176.61328125 C-56.30533003 185.93165554 -84.36510624 184.05676959 -109.5625 172.5625 C-110.75057251 172.02411499 -110.75057251 172.02411499 -111.96264648 171.47485352 C-116.88659462 169.05360221 -119.37631502 166.83676675 -122 162 C-118.84198444 162.97748101 -115.98714077 164.00684002 -113.0625 165.5625 C-109.67072642 167.15455699 -106.71029243 167.62897076 -103 168 C-103 168.66 -103 169.32 -103 170 C-102.34 170 -101.68 170 -101 170 C-100.67 169.01 -100.34 168.02 -100 167 C-99.01 167.33 -98.02 167.66 -97 168 C-95.515 167.01 -95.515 167.01 -94 166 C-88.25 168.75 -88.25 168.75 -86 171 C-83.99131696 171.20534422 -83.99131696 171.20534422 -81.75 171.0625 C-78.90554323 170.98956521 -76.57762241 171.07310381 -73.75 171.5625 C-70.77296709 172.03611887 -68.92577114 171.62695096 -66 171 C-63.3269253 170.90357646 -60.67668854 170.95751288 -58 171 C-52.87899759 171 -48.66923461 169.60092446 -43.875 167.875 C-41.0680792 167.02071976 -38.91066626 166.82878434 -36 167 C-36 166.01 -36 165.02 -36 164 C-33 162 -33 162 -30.4375 161.25 C-21.27182545 157.91702744 -4.44267932 148.88535864 0 140 C0.66 140 1.32 140 2 140 C2.24105469 139.46632812 2.48210937 138.93265625 2.73046875 138.3828125 C4.34601235 135.35056143 6.31083569 132.66723761 8.3125 129.875 C14.0249555 121.74828402 18.16372245 113.54649516 21 104 C21.66 104 22.32 104 23 104 C23.13277344 103.39671875 23.26554688 102.7934375 23.40234375 102.171875 C23.66724609 100.97304687 23.66724609 100.97304687 23.9375 99.75 C24.11152344 98.96109375 24.28554687 98.1721875 24.46484375 97.359375 C24.64144531 96.58078125 24.81804687 95.8021875 25 95 C25.13664063 94.278125 25.27328125 93.55625 25.4140625 92.8125 C26 91 26 91 28.4375 89.25 C31 88 31 88 33 88 C35.94731711 59.26365821 29.63726276 35.90620789 11.5 13.25 C8.25786341 9.3683339 4.88508321 5.72100858 1.21484375 2.2421875 C0 1 0 1 0 0 Z " fill="#898889" transform="translate(193,49)"/>
<path d="M0 0 C15.03449422 6.53526438 25.72741981 27.65185595 31.609375 42.078125 C40.15307552 65.30851732 40.96121901 96.19205991 30.95947266 118.9296875 C18.60047651 145.59744508 -2.47120501 166.07651728 -30.04296875 176.61328125 C-56.30533003 185.93165554 -84.36510624 184.05676959 -109.5625 172.5625 C-110.75057251 172.02411499 -110.75057251 172.02411499 -111.96264648 171.47485352 C-116.88659462 169.05360221 -119.37631502 166.83676675 -122 162 C-117.03894613 163.50617285 -112.57121102 165.59708324 -107.9375 167.875 C-85.9523872 178.44320701 -59.72566334 181.15253654 -36.26171875 173.546875 C-34.83732677 173.04189575 -33.41665056 172.52630576 -32 172 C-30.93386475 171.60651367 -30.93386475 171.60651367 -29.84619141 171.20507812 C-3.99666677 161.36325957 15.38311142 142.02099079 27 117 C27 116.34 27 115.68 27 115 C26.67 115.66 26.34 116.32 26 117 C25.01 117 24.02 117 23 117 C22.67 116.01 22.34 115.02 22 114 C21.34 113.67 20.68 113.34 20 113 C19.690625 113.94875 19.38125 114.8975 19.0625 115.875 C18 119 18 119 17 121 C16.34 120.67 15.68 120.34 15 120 C16.98 114.72 18.96 109.44 21 104 C21.66 104 22.32 104 23 104 C23.13277344 103.39671875 23.26554688 102.7934375 23.40234375 102.171875 C23.66724609 100.97304687 23.66724609 100.97304687 23.9375 99.75 C24.11152344 98.96109375 24.28554687 98.1721875 24.46484375 97.359375 C24.64144531 96.58078125 24.81804687 95.8021875 25 95 C25.13664063 94.278125 25.27328125 93.55625 25.4140625 92.8125 C26 91 26 91 28.4375 89.25 C31 88 31 88 33 88 C35.94731711 59.26365821 29.63726276 35.90620789 11.5 13.25 C8.25786341 9.3683339 4.88508321 5.72100858 1.21484375 2.2421875 C0 1 0 1 0 0 Z " fill="#898889" transform="translate(193,49)"/>
<path d="M0 0 C-0.66 0.66 -1.32 1.32 -2 2 C-0.63681641 2.4021875 -0.63681641 2.4021875 0.75390625 2.8125 C7.93757203 5.05233015 14.65981814 7.58691236 21.3125 11.125 C21.95195557 11.46144531 22.59141113 11.79789063 23.25024414 12.14453125 C26.37668705 13.86057747 27.98462844 14.97694266 30 18 C26.37 17.01 22.74 16.02 19 15 C19 14.01 19 13.02 19 12 C16.69 11.67 14.38 11.34 12 11 C12 10.34 12 9.68 12 9 C8.04 8.34 4.08 7.68 0 7 C0 6.34 0 5.68 0 5 C-8.77144644 3.01133198 -17.41522867 2.77996997 -26.375 2.75 C-27.50405762 2.74097656 -28.63311523 2.73195313 -29.79638672 2.72265625 C-35.61855765 2.74339725 -40.49384905 3.1119619 -46 5 C-47.175625 4.9690625 -47.175625 4.9690625 -48.375 4.9375 C-69.55197328 5.44171365 -89.21864495 23.45533333 -102.921875 37.55859375 C-107.40157154 42.31599916 -111.04061105 47.14463758 -114 53 C-114.350625 53.65355469 -114.70125 54.30710938 -115.0625 54.98046875 C-116.12074114 57.26009654 -116.81467152 59.52022727 -117.5 61.9375 C-118.50149382 65.37918181 -119.57244342 68.70563866 -121 72 C-121.66 72 -122.32 72 -123 72 C-123.04898438 72.71285156 -123.09796875 73.42570312 -123.1484375 74.16015625 C-123.22320312 75.11792969 -123.29796875 76.07570313 -123.375 77.0625 C-123.44460937 78.00222656 -123.51421875 78.94195312 -123.5859375 79.91015625 C-124 83 -124 83 -125.015625 86.37109375 C-126.08363996 90.30833939 -126.38327136 93.95117152 -126.375 98 C-126.37483887 98.75821045 -126.37467773 99.5164209 -126.37451172 100.29760742 C-126.17124092 110.95862615 -125.1258244 123.754385 -120.87060547 133.61791992 C-120 136 -120 136 -121 139 C-121.33 138.34 -121.66 137.68 -122 137 C-122.66 137.33 -123.32 137.66 -124 138 C-133.46254863 109.52048471 -132.30107636 80.21395228 -119.07714844 53.10839844 C-106.80663402 29.25391924 -86.09159852 11.1070583 -60.66015625 2.4609375 C-40.24946766 -4.0251512 -20.82507948 -4.4286245 0 0 Z " fill="#EAEBEB" transform="translate(154,26)"/>
<path d="M0 0 C1.05380859 0.45826172 1.05380859 0.45826172 2.12890625 0.92578125 C11.46455216 5.20697644 19.48343567 12.10802125 27 19 C26.67 19.66 26.34 20.32 26 21 C25.21496094 20.33613281 24.42992187 19.67226562 23.62109375 18.98828125 C22.56000934 18.09621914 21.49880494 17.20429974 20.4375 16.3125 C19.92380859 15.87744141 19.41011719 15.44238281 18.88085938 14.99414062 C12.68283132 9.79703636 6.66858479 5.52407168 -0.8125 2.375 C-1.85917847 1.92616455 -1.85917847 1.92616455 -2.92700195 1.46826172 C-11.22215672 -2.02776583 -19.78482169 -5.12028991 -28.87890625 -5.1328125 C-29.79397949 -5.13506836 -30.70905273 -5.13732422 -31.65185547 -5.13964844 C-32.61236816 -5.13481445 -33.57288086 -5.12998047 -34.5625 -5.125 C-36.04967529 -5.11774902 -36.04967529 -5.11774902 -37.56689453 -5.11035156 C-50.36973932 -5.00532412 -61.68355067 -3.36045254 -74 0 C-74 0.66 -74 1.32 -74 2 C-75.6953125 3.12109375 -75.6953125 3.12109375 -78.125 4.4375 C-89.64717331 11.14516746 -101.80819655 20.3961876 -109.64453125 31.28515625 C-110.09183594 31.85105469 -110.53914063 32.41695312 -111 33 C-111.66 33 -112.32 33 -113 33 C-113.66 35.97 -114.32 38.94 -115 42 C-115.66 42 -116.32 42 -117 42 C-117.20496094 42.68707031 -117.40992188 43.37414062 -117.62109375 44.08203125 C-117.89050781 44.98308594 -118.15992188 45.88414063 -118.4375 46.8125 C-118.70433594 47.70582031 -118.97117187 48.59914062 -119.24609375 49.51953125 C-119.80387873 51.35473055 -120.39344575 53.18033726 -121 55 C-121.66 55 -122.32 55 -123 55 C-125.81969764 80.89847289 -127.22815521 102.57829465 -114.50390625 126.0012207 C-113.61792228 127.64075426 -112.80188673 129.31773499 -112 131 C-112.33 131.66 -112.66 132.32 -113 133 C-126.69411852 112.13277178 -132.68245913 88.55095651 -127.76635742 63.76953125 C-122.17847105 38.53289265 -107.638332 18.06473716 -86.08203125 3.8984375 C-77.39913927 -1.44995984 -68.90838309 -4.54272099 -59 -7 C-57.69482422 -7.34224609 -57.69482422 -7.34224609 -56.36328125 -7.69140625 C-36.83324733 -12.07569958 -17.85904311 -8.29841251 0 0 Z " fill="#373536" transform="translate(166,45)"/>
<path d="M0 0 C1.32 0.33 2.64 0.66 4 1 C4.33 9.91 4.66 18.82 5 28 C6.98 27.01 8.96 26.02 11 25 C11 37.87 11 50.74 11 64 C10.34 63.01 9.68 62.02 9 61 C8.01 61.495 8.01 61.495 7 62 C7.268125 62.66 7.53625 63.32 7.8125 64 C8.06362512 68.01800188 6.59796099 69.98756723 4.51953125 73.328125 C2.70327759 75.32647093 1.61952279 75.55747867 -1 76 C-2.485 76.5878125 -2.485 76.5878125 -4 77.1875 C-7 78 -7 78 -9.25 77.25 C-12.98484129 74.58225622 -13.01639407 73.91802967 -14 69 C-9.38 69 -4.76 69 0 69 C0 46.23 0 23.46 0 0 Z " fill="#A09FA0" transform="translate(137,86)"/>
<path d="M0 0 C1.31079811 3.60678206 0.68377822 5.53159537 -0.8125 9 C-1.16957031 9.845625 -1.52664062 10.69125 -1.89453125 11.5625 C-2.88072155 13.73699733 -3.91268707 15.87457383 -5 18 C-5.66 18 -6.32 18 -7 18 C-7.36351562 19.05574219 -7.36351562 19.05574219 -7.734375 20.1328125 C-10.1759209 25.66396896 -14.2919573 30.26053927 -18 35 C-18.50789062 35.66644531 -19.01578125 36.33289063 -19.5390625 37.01953125 C-28.85914353 48.65600669 -42.60796847 56.74320144 -55.9765625 62.89453125 C-58.03922045 63.87054936 -58.03922045 63.87054936 -59.31640625 65.50390625 C-61.90653731 67.80557724 -65.0234905 68.32592092 -68.3125 69.125 C-69.28993164 69.37830078 -69.28993164 69.37830078 -70.28710938 69.63671875 C-93.64308049 75.57507377 -117.82622642 72.4779139 -139.5625 62.5625 C-140.35454834 62.20357666 -141.14659668 61.84465332 -141.96264648 61.47485352 C-146.88659462 59.05360221 -149.37631502 56.83676675 -152 52 C-147.03894613 53.50617285 -142.57121102 55.59708324 -137.9375 57.875 C-115.9523872 68.44320701 -89.72566334 71.15253654 -66.26171875 63.546875 C-64.83732677 63.04189575 -63.41665056 62.52630576 -62 62 C-61.28924316 61.73767578 -60.57848633 61.47535156 -59.84619141 61.20507812 C-33.24456745 51.07690904 -14.37865055 31.34092372 -2.5 5.6875 C-1.65809676 3.79545682 -0.82139668 1.9010355 0 0 Z " fill="#373636" transform="translate(223,159)"/>
<path d="M0 0 C3.38101396 0.60375249 5.44961184 1.6964236 8 4 C11 8.39285714 11 8.39285714 11 11 C11.66 11 12.32 11 13 11 C16.50128128 19.54550007 16.28523398 25.23937605 13 34 C12.34 34 11.68 34 11 34 C10.67 35.65 10.34 37.3 10 39 C9.01 39.33 8.02 39.66 7 40 C6.67 40.99 6.34 41.98 6 43 C5.34 43 4.68 43 4 43 C4 43.99 4 44.98 4 46 C-5.5176733 48.21157554 -14.17747938 49.44723112 -24 49 C-23.98428955 49.61520508 -23.9685791 50.23041016 -23.95239258 50.86425781 C-23.88992074 53.65941121 -23.85097132 56.45441755 -23.8125 59.25 C-23.78736328 60.21808594 -23.76222656 61.18617188 -23.73632812 62.18359375 C-23.72666016 63.11816406 -23.71699219 64.05273438 -23.70703125 65.015625 C-23.6913208 65.87446289 -23.67561035 66.73330078 -23.65942383 67.61816406 C-24.07539974 70.52731173 -24.99871649 71.87790015 -27 74 C-30.3870704 74.83241561 -33.58495144 74.65255705 -37 74 C-40.125 71.5625 -40.125 71.5625 -42 69 C-42 68.67 -42 68.34 -42 68 C-37.05 68 -32.1 68 -27 68 C-27 60.08 -27 52.16 -27 44 C-16.9375 43.6875 -16.9375 43.6875 -13.80834961 43.61206055 C-7.35019042 43.35602665 -2.15213111 42.69817308 2.92578125 38.3515625 C3.38339844 37.78179687 3.84101563 37.21203125 4.3125 36.625 C5.01826172 35.77808594 5.01826172 35.77808594 5.73828125 34.9140625 C9.98954629 28.46477498 9.8217643 21.47888523 9 14 C7.08529143 8.65254697 3.71164714 4.26152079 0 0 Z " fill="#4D4B4C" transform="translate(190,87)"/>
<path d="M0 0 C6.19485188 9.29227782 6.63037082 22.24429788 6 33 C5.979375 33.96292969 5.95875 34.92585938 5.9375 35.91796875 C5.72491207 40.41553213 5.4157067 42.4530175 2.625 46.125 C0 48 0 48 -3 48 C-3.12375 48.845625 -3.2475 49.69125 -3.375 50.5625 C-4.02770327 54.15236798 -4.95247463 57.50824875 -6 61 C-6.33 61 -6.66 61 -7 61 C-6.62019265 56.21242839 -6.21998512 51.57627597 -4.9375 46.9375 C-2.43667875 36.2949073 -3.74503668 24.60547944 -5.5625 13.953125 C-6.17183371 9.84012246 -6.49725967 7.0418774 -4.6875 3.25 C-3 1 -3 1 0 0 Z " fill="#959495" transform="translate(222,92)"/>
<path d="M0 0 C13.96683673 -0.68877551 13.96683673 -0.68877551 17.8125 1.875 C20.74617393 4.72485467 21.18541445 6.33271566 21.3125 10.3125 C21.25962218 13.60150042 21.02496593 14.95306404 19.4375 17.9375 C14.50077624 22.11472779 9.01058497 22.22042869 2.8203125 22.16796875 C1 22 1 22 0 21 C-0.08685603 19.43827255 -0.10702219 17.87270656 -0.09765625 16.30859375 C-0.09443359 15.36435547 -0.09121094 14.42011719 -0.08789062 13.44726562 C-0.07951172 12.45404297 -0.07113281 11.46082031 -0.0625 10.4375 C-0.05798828 9.44041016 -0.05347656 8.44332031 -0.04882812 7.41601562 C-0.03700007 4.94395151 -0.02051849 2.47200482 0 0 Z " fill="#9C9B9C" transform="translate(163,97)"/>
<path d="M0 0 C0.495 1.485 0.495 1.485 1 3 C-0.19267461 4.47116716 -1.40493939 5.92646362 -2.625 7.375 C-3.63433594 8.59316406 -3.63433594 8.59316406 -4.6640625 9.8359375 C-10.18658784 14.95212318 -16.79532753 14.2487437 -23.875 14.125 C-27.21625 14.08375 -30.5575 14.0425 -34 14 C-34 21.92 -34 29.84 -34 38 C-38.62 38.33 -43.24 38.66 -48 39 C-47.34 40.32 -46.68 41.64 -46 43 C-44.04233719 43.08082094 -42.08373272 43.13910778 -40.125 43.1875 C-39.03445312 43.22230469 -37.94390625 43.25710937 -36.8203125 43.29296875 C-35.42425781 43.14794922 -35.42425781 43.14794922 -34 43 C-31.87719437 39.81579155 -31.71980463 38.79462745 -31.5859375 35.11328125 C-31.55032715 34.26805908 -31.5147168 33.42283691 -31.47802734 32.55200195 C-31.44402832 31.48296631 -31.4100293 30.41393066 -31.375 29.3125 C-31.25125 25.909375 -31.1275 22.50625 -31 19 C-18.625 18.01 -18.625 18.01 -6 17 C-8 21 -8 21 -10.3125 22.3125 C-13.31044337 23.07941575 -15.03400679 22.72145781 -18 22 C-18.66 22.33 -19.32 22.66 -20 23 C-20.66 22.67 -21.32 22.34 -22 22 C-22.33 22.66 -22.66 23.32 -23 24 C-23 23.34 -23 22.68 -23 22 C-24.65 22.66 -26.3 23.32 -28 24 C-28 25.32 -28 26.64 -28 28 C-27.34 28.33 -26.68 28.66 -26 29 C-25.67 28.01 -25.34 27.02 -25 26 C-23.68 26 -22.36 26 -21 26 C-21.33 27.32 -21.66 28.64 -22 30 C-22.66 30 -23.32 30 -24 30 C-25.91627153 32.74943306 -27.18146317 35.44971307 -28.4375 38.5625 C-29.97145816 41.93720794 -31.07846452 43.76588463 -34 46 C-38.32352941 47.33823529 -38.32352941 47.33823529 -41 46 C-43.11683841 46.89163577 -43.11683841 46.89163577 -45 48 C-45 47.34 -45 46.68 -45 46 C-46.98 46.495 -46.98 46.495 -49 47 C-49.33 43.37 -49.66 39.74 -50 36 C-45.38 36 -40.76 36 -36 36 C-35.67 28.41 -35.34 20.82 -35 13 C-24.605 12.505 -24.605 12.505 -14 12 C-14 11.34 -14 10.68 -14 10 C-13.278125 9.938125 -12.55625 9.87625 -11.8125 9.8125 C-8.14043984 8.75168262 -6.60572158 6.73934833 -4 4 C-1.6875 2.6875 -1.6875 2.6875 0 2 C0 1.34 0 0.68 0 0 Z " fill="#8D8C8D" transform="translate(197,117)"/>
<path d="M0 0 C0.66 0.33 1.32 0.66 2 1 C1.16855469 1.81984375 0.33710937 2.6396875 -0.51953125 3.484375 C-1.61732105 4.57278198 -2.71496989 5.66133115 -3.8125 6.75 C-4.35970703 7.28882812 -4.90691406 7.82765625 -5.47070312 8.3828125 C-7.74610724 10.64442628 -9.85450789 12.80256946 -11.76171875 15.390625 C-12.17035156 15.92171875 -12.57898438 16.4528125 -13 17 C-13.66 17 -14.32 17 -15 17 C-15.66 19.97 -16.32 22.94 -17 26 C-17.66 26 -18.32 26 -19 26 C-19.20496094 26.68707031 -19.40992188 27.37414062 -19.62109375 28.08203125 C-19.89050781 28.98308594 -20.15992188 29.88414063 -20.4375 30.8125 C-20.83775391 32.15248047 -20.83775391 32.15248047 -21.24609375 33.51953125 C-21.80387873 35.35473055 -22.39344575 37.18033726 -23 39 C-23.66 39 -24.32 39 -25 39 C-27.81969764 64.89847289 -29.22815521 86.57829465 -16.50390625 110.0012207 C-15.61792228 111.64075426 -14.80188673 113.31773499 -14 115 C-14.33 115.66 -14.66 116.32 -15 117 C-28.69411852 96.13277178 -34.68245913 72.55095651 -29.76635742 47.76953125 C-26.50041149 33.01950027 -20.63390945 18.06598704 -10 7 C-6.8125 5.1875 -6.8125 5.1875 -4 4 C-1.68581709 1.93832739 -1.68581709 1.93832739 0 0 Z " fill="#4C4B4C" transform="translate(68,61)"/>
<path d="M0 0 C0.66 0 1.32 0 2 0 C2 4.62 2 9.24 2 14 C1.01 14 0.02 14 -1 14 C-1 14.99 -1 15.98 -1 17 C-1.66 17 -2.32 17 -3 17 C-2.690625 18.175625 -2.690625 18.175625 -2.375 19.375 C-2.25125 20.24125 -2.1275 21.1075 -2 22 C-2.66 22.66 -3.32 23.32 -4 24 C-4.55941326 25.60551606 -5.05224024 27.23483653 -5.5 28.875 C-6.39899694 32.14852147 -7.46831975 34.97918617 -9 38 C-9.42403093 39.39361385 -9.84081605 40.78945483 -10.25 42.1875 C-11.0234375 44.28515625 -11.0234375 44.28515625 -12 46 C-15.39365069 47.32795027 -17.20428711 47.22205941 -20.6875 46.25 C-22.95512511 45.0242567 -24.44286071 44.04886748 -26 42 C-26 41.01 -26 40.02 -26 39 C-21.545 38.505 -21.545 38.505 -17 38 C-16.67 37.01 -16.34 36.02 -16 35 C-15.01 34.505 -15.01 34.505 -14 34 C-13.17692567 32.11194552 -12.44547244 30.18366242 -11.7578125 28.2421875 C-11.11779297 26.46714844 -11.11779297 26.46714844 -10.46484375 24.65625 C-10.0174542 23.3961082 -9.57084549 22.13568892 -9.125 20.875 C-3.87383382 6.0720093 -3.87383382 6.0720093 0 0 Z " fill="#8C8B8C" transform="translate(121,111)"/>
<path d="M0 0 C1.5 1.375 1.5 1.375 3 3 C3 3.66 3 4.32 3 5 C3.5775 5.144375 4.155 5.28875 4.75 5.4375 C6.83333333 5.95833333 8.91666667 6.47916667 11 7 C11 7.66 11 8.32 11 9 C15.455 9.99 15.455 9.99 20 11 C20.33 10.01 20.66 9.02 21 8 C21.66 8.33 22.32 8.66 23 9 C23 9.99 23 10.98 23 12 C26.65079826 13.61064629 30.0507432 14.44894091 34 15 C34 15.66 34 16.32 34 17 C55.73788583 17.72844843 55.73788583 17.72844843 77.0078125 13.875 C80 13 80 13 83 13 C83 13.66 83 14.32 83 15 C82.32453125 15.12117187 81.6490625 15.24234375 80.953125 15.3671875 C79.61507812 15.61855469 79.61507812 15.61855469 78.25 15.875 C77.36828125 16.03742188 76.4865625 16.19984375 75.578125 16.3671875 C73.11084229 16.97279326 71.23052028 17.81316002 69 19 C64.42640008 20.57997088 61.65934653 21.13642598 57 20 C51.85143982 19.61611415 51.85143982 19.61611415 47 21 C45.41243054 20.91148444 43.82819421 20.75618747 42.25 20.5625 C38.47241713 20.13546889 34.80744696 19.89980403 31 20 C30.67 19.01 30.34 18.02 30 17 C26.99152582 15.77479736 26.99152582 15.77479736 24 15 C23.34 15.66 22.68 16.32 22 17 C21.01 16.67 20.02 16.34 19 16 C18.67 16.66 18.34 17.32 18 18 C17.34 18 16.68 18 16 18 C16 17.34 16 16.68 16 16 C15.05125 16.103125 14.1025 16.20625 13.125 16.3125 C7.81142972 16.36705411 3.51093167 13.54136995 -1 11 C-1.02688151 9.35425434 -1.04634123 7.70838587 -1.0625 6.0625 C-1.07410156 5.14597656 -1.08570312 4.22945312 -1.09765625 3.28515625 C-1 1 -1 1 0 0 Z " fill="#9B9A9B" transform="translate(74,201)"/>
<path d="M0 0 C6.75 2.75 6.75 2.75 9 5 C11.00868304 5.20534422 11.00868304 5.20534422 13.25 5.0625 C16.09445677 4.98956521 18.42237759 5.07310381 21.25 5.5625 C24.22703291 6.03611887 26.07422886 5.62695096 29 5 C31.6730747 4.90357646 34.32331146 4.95751288 37 5 C40.11257569 5 42.10765685 4.82638376 45 4 C44.34 5.32 43.68 6.64 43 8 C42.01 8 41.02 8 40 8 C40 8.66 40 9.32 40 10 C38.34385343 10.38218767 36.67542976 10.71395102 35 11 C34.505 10.505 34.505 10.505 34 10 C33.67 10.66 33.34 11.32 33 12 C14.62487639 12.37973849 14.62487639 12.37973849 7 10 C5.68251359 9.61902338 4.36477971 9.23890208 3.046875 8.859375 C1.59308989 8.42930849 0.13996816 7.99699349 -1.3125 7.5625 C-2.00738525 7.35729736 -2.70227051 7.15209473 -3.41821289 6.94067383 C-7.12717992 5.7873443 -10.07229795 4.58149564 -13 2 C-11.35 2 -9.7 2 -8 2 C-8 2.66 -8 3.32 -8 4 C-7.34 4 -6.68 4 -6 4 C-5.67 3.01 -5.34 2.02 -5 1 C-4.01 1.33 -3.02 1.66 -2 2 C-1.34 1.34 -0.68 0.68 0 0 Z " fill="#8C8B8C" transform="translate(98,215)"/>
<path d="M0 0 C1.32 0.33 2.64 0.66 4 1 C6.40322483 5.00537471 5.75433153 7.55877832 5 12 C4.87893594 14.46844686 4.8001933 16.93917589 4.75390625 19.41015625 C4.72098992 20.82617857 4.68777793 22.24219404 4.65429688 23.65820312 C4.60683925 25.86559723 4.56231465 28.07295929 4.52319336 30.28051758 C4.48335583 32.42816616 4.43187419 34.57529686 4.37890625 36.72265625 C4.3538501 37.99890869 4.32879395 39.27516113 4.30297852 40.59008789 C4.01328537 43.85047802 3.49978772 46.10809653 2 49 C-2.40405216 51.93603478 -7.05122403 50.79784188 -12 50 C-12.33 48.35 -12.66 46.7 -13 45 C-8.71 45 -4.42 45 0 45 C0 30.15 0 15.3 0 0 Z " fill="#747273" transform="translate(77,111)"/>
<path d="M0 0 C0.33 0 0.66 0 1 0 C1.99069727 16.84185354 -5.32235026 32.68612962 -15 46 C-15.58652344 46.83402344 -16.17304688 47.66804688 -16.77734375 48.52734375 C-19.69681993 52.5889133 -19.69681993 52.5889133 -21 54 C-21.66 54 -22.32 54 -23 54 C-23.2165625 54.56976563 -23.433125 55.13953125 -23.65625 55.7265625 C-25.45072996 58.7625722 -27.6622299 60.29055547 -30.5 62.375 C-31.03173828 62.7663916 -31.56347656 63.1577832 -32.11132812 63.56103516 C-36.21220447 66.53649222 -40.44455574 69.20339677 -44.84375 71.7109375 C-47.02470589 72.94650382 -47.02470589 72.94650382 -48.90625 74.5390625 C-51.50084613 76.34947099 -53.97203215 77.09685613 -57 78 C-58.0621875 78.34160156 -59.124375 78.68320313 -60.21875 79.03515625 C-61.84296875 79.54369141 -61.84296875 79.54369141 -63.5 80.0625 C-65.12421875 80.57490234 -65.12421875 80.57490234 -66.78125 81.09765625 C-73.05163197 82.85549391 -78.91009995 83.15549481 -85.375 83.125 C-86.18710938 83.12886719 -86.99921875 83.13273437 -87.8359375 83.13671875 C-92.97776555 83.12847864 -97.91095197 82.73703454 -103 82 C-103 81.67 -103 81.34 -103 81 C-101.92069214 80.97812622 -101.92069214 80.97812622 -100.81958008 80.95581055 C-82.15445953 80.79882128 -82.15445953 80.79882128 -64 77 C-63.07960937 76.71125 -62.15921875 76.4225 -61.2109375 76.125 C-39.02527276 68.62562037 -21.36872283 54.36944631 -10.234375 33.7265625 C-5.05878727 22.93101839 -1.80001652 11.81852951 0 0 Z " fill="#DADADA" transform="translate(216,135)"/>
<path d="M0 0 C0.66 0 1.32 0 2 0 C3.43872134 2.87744268 3.11937153 5.34565922 3.11352539 8.56103516 C3.11367142 9.23432358 3.11381744 9.907612 3.1139679 10.6013031 C3.11327027 12.83058881 3.10548489 15.05979135 3.09765625 17.2890625 C3.09579154 18.83320063 3.09436789 20.37733934 3.09336853 21.92147827 C3.08954754 25.98870472 3.07972082 30.05589555 3.06866455 34.12310791 C3.05844144 38.2721712 3.05386898 42.42124025 3.04882812 46.5703125 C3.03809819 54.71355803 3.02102677 62.85677458 3 71 C0.00982876 72.57274222 -2.0978929 73.31674474 -5.5 73.375 C-6.2528125 73.40335937 -7.005625 73.43171875 -7.78125 73.4609375 C-10 73 -10 73 -14 69 C-9.38 69 -4.76 69 0 69 C0 46.23 0 23.46 0 0 Z " fill="#4F4D4E" transform="translate(137,86)"/>
<path d="M0 0 C0.77907715 0.00128906 1.5581543 0.00257812 2.36083984 0.00390625 C10.66583609 0.13750764 18.64665134 1.58925624 26.75 3.3125 C26.09 3.9725 25.43 4.6325 24.75 5.3125 C26.11318359 5.7146875 26.11318359 5.7146875 27.50390625 6.125 C34.68757203 8.36483015 41.40981814 10.89941236 48.0625 14.4375 C48.70195557 14.77394531 49.34141113 15.11039063 50.00024414 15.45703125 C53.12668705 17.17307747 54.73462844 18.28944266 56.75 21.3125 C53.12 20.3225 49.49 19.3325 45.75 18.3125 C45.75 17.3225 45.75 16.3325 45.75 15.3125 C43.44 14.9825 41.13 14.6525 38.75 14.3125 C38.75 13.6525 38.75 12.9925 38.75 12.3125 C32.81 11.3225 32.81 11.3225 26.75 10.3125 C26.75 9.6525 26.75 8.9925 26.75 8.3125 C17.97855356 6.32383198 9.33477133 6.09246997 0.375 6.0625 C-0.75405762 6.05347656 -1.88311523 6.04445313 -3.04638672 6.03515625 C-8.88346325 6.05595035 -13.72015978 6.4766826 -19.25 8.3125 C-22.1875 7.9375 -22.1875 7.9375 -24.25 7.3125 C-24.25 6.9825 -24.25 6.6525 -24.25 6.3125 C-18.805 5.3225 -18.805 5.3225 -13.25 4.3125 C-13.25 3.6525 -13.25 2.9925 -13.25 2.3125 C-8.87481073 0.1507431 -4.78845248 -0.03294571 0 0 Z " fill="#E2E2E2" transform="translate(127.25,22.6875)"/>
<path d="M0 0 C17.84556298 4.11820684 32.87571687 14.63203149 46 27 C46.61617187 27.55171875 47.23234375 28.1034375 47.8671875 28.671875 C61.22159562 41.10316735 69.68286778 59.52697539 74 77 C74.22429687 77.87785156 74.44859375 78.75570312 74.6796875 79.66015625 C76.13385043 86.58237017 76.20275178 93.51689079 76.25 100.5625 C76.2593457 101.5201123 76.26869141 102.47772461 76.27832031 103.46435547 C76.24850511 110.16245612 75.40030083 116.45383286 74 123 C73.67 123 73.34 123 73 123 C73.02094727 122.00895264 73.04189453 121.01790527 73.06347656 119.99682617 C73.5275843 95.90219048 73.69762846 74.68883755 62 53 C61.44183594 51.94167969 60.88367188 50.88335937 60.30859375 49.79296875 C56.29035326 42.53030206 51.48968774 36.21175477 46 30 C45.18982422 29.06414063 45.18982422 29.06414063 44.36328125 28.109375 C32.42221225 15.23587995 15.85420612 7.79465977 0 1 C0 0.67 0 0.34 0 0 Z " fill="#A8A7A7" transform="translate(156,27)"/>
<path d="M0 0 C6.001875 -0.061875 12.00375 -0.12375 18.1875 -0.1875 C21.01671021 -0.22846802 21.01671021 -0.22846802 23.90307617 -0.27026367 C25.40803386 -0.27903042 26.91299869 -0.28667391 28.41796875 -0.29296875 C29.57794373 -0.3159906 29.57794373 -0.3159906 30.76135254 -0.33947754 C35.37459807 -0.3417058 38.29017863 0.20068309 42 3 C41.01 3.66 40.02 4.32 39 5 C38.46375 4.649375 37.9275 4.29875 37.375 3.9375 C34.2365758 2.69864834 32.23787556 3.22572541 29 4 C28.01 4.495 28.01 4.495 27 5 C26.67 4.34 26.34 3.68 26 3 C24.20841511 2.97303635 22.41671527 2.95362083 20.625 2.9375 C19.12839844 2.92009766 19.12839844 2.92009766 17.6015625 2.90234375 C15.01567547 2.81993398 15.01567547 2.81993398 13 4 C13 3.34 13 2.68 13 2 C11.081875 2.1546875 11.081875 2.1546875 9.125 2.3125 C8.40570313 2.37050781 7.68640625 2.42851563 6.9453125 2.48828125 C4.60480784 2.87393036 4.60480784 2.87393036 3 6 C2.67048702 8.85049895 2.67048702 8.85049895 2.68115234 12.1237793 C2.66128265 13.38486008 2.64141296 14.64594086 2.62094116 15.94523621 C2.60906478 17.32156194 2.59740192 18.69788953 2.5859375 20.07421875 C2.56722711 21.48241819 2.54765379 22.8906064 2.5272522 24.29878235 C2.47591107 28.00258773 2.43629615 31.70642946 2.39910889 35.41040039 C2.35908153 39.1910096 2.30798344 42.97146732 2.2578125 46.75195312 C2.16102983 54.16786484 2.07663274 61.5838498 2 69 C1.34 69 0.68 69 0 69 C0 46.23 0 23.46 0 0 Z " fill="#CACACA" transform="translate(148,85)"/>
<path d="M0 0 C15.03449422 6.53526438 25.72741981 27.65185595 31.609375 42.078125 C38.60435916 61.09754475 40.00505133 84.32983883 35 104 C32.875 107.25 32.875 107.25 31 109 C31.11455681 107.08268082 31.24206258 105.1661325 31.375 103.25 C31.44460937 102.18265625 31.51421875 101.1153125 31.5859375 100.015625 C32 97 32 97 33.00488281 95.22460938 C35.29504593 90.10489241 34.39154582 83.78581647 34.375 78.25 C34.37368576 77.1947261 34.37368576 77.1947261 34.37234497 76.11813354 C34.3288428 65.58263147 33.79537456 55.97960252 30 46 C29.74798828 45.33516602 29.49597656 44.67033203 29.23632812 43.98535156 C23.02454973 27.94942964 13.73135198 14.10590732 1.21484375 2.2421875 C0 1 0 1 0 0 Z " fill="#4E4C4D" transform="translate(193,49)"/>
<path d="M0 0 C14.19642857 -0.53571429 14.19642857 -0.53571429 17.8125 1.625 C20.40585533 4.44064293 20.82814891 6.21927601 21 10 C20.505 9.67 20.01 9.34 19.5 9 C16.97066836 7.98826734 15.55151396 7.8937025 12.875 7.9375 C9 8 9 8 7 7 C7 7.66 7 8.32 7 9 C6.01 9 5.02 9 4 9 C4.33 12.96 4.66 16.92 5 21 C3.35 21 1.7 21 0 21 C0 14.07 0 7.14 0 0 Z " fill="#818081" transform="translate(163,97)"/>
<path d="M0 0 C1.32 0.66 2.64 1.32 4 2 C3.67 2.66 3.34 3.32 3 4 C3.99 4 4.98 4 6 4 C6.33 3.01 6.66 2.02 7 1 C8 4 8 4 6.84765625 6.75 C-3.5676359 25.71175727 -3.5676359 25.71175727 -10 30 C-10 27 -10 27 -9 26 C-9.66 24.68 -10.32 23.36 -11 22 C-10.505 21.5875 -10.01 21.175 -9.5 20.75 C-7.56613908 18.87797662 -7.56613908 18.87797662 -8 15 C-7.34 14.67 -6.68 14.34 -6 14 C-5.34227572 10.97065509 -5.34227572 10.97065509 -5 8 C-4.34 8 -3.68 8 -3 8 C-2.690625 7.05125 -2.38125 6.1025 -2.0625 5.125 C-1 2 -1 2 0 0 Z " fill="#868586" transform="translate(213,162)"/>
<path d="M0 0 C0.33 0 0.66 0 1 0 C1 3.96 1 7.92 1 12 C0.34 12 -0.32 12 -1 12 C-1.226875 12.886875 -1.45375 13.77375 -1.6875 14.6875 C-4.04637837 20.64085971 -8.65317226 23.7454092 -14 27 C-16.82411765 27.94137255 -18.52918032 28.11725382 -21.44921875 28.09765625 C-22.29677734 28.09443359 -23.14433594 28.09121094 -24.01757812 28.08789062 C-24.89865234 28.07951172 -25.77972656 28.07113281 -26.6875 28.0625 C-27.58017578 28.05798828 -28.47285156 28.05347656 -29.39257812 28.04882812 C-31.59511987 28.03704983 -33.79752599 28.02060164 -36 28 C-35.98952637 28.61520508 -35.97905273 29.23041016 -35.96826172 29.86425781 C-35.92661305 32.65946343 -35.90064584 35.45460366 -35.875 38.25 C-35.84986328 39.70212891 -35.84986328 39.70212891 -35.82421875 41.18359375 C-35.81777344 42.11816406 -35.81132812 43.05273438 -35.8046875 44.015625 C-35.79421387 44.87446289 -35.78374023 45.73330078 -35.77294922 46.61816406 C-36.01706677 49.17903596 -36.71009488 50.79511029 -38 53 C-40.12438339 53.08078641 -42.2496323 53.13909141 -44.375 53.1875 C-45.55835938 53.22230469 -46.74171875 53.25710937 -47.9609375 53.29296875 C-49.46527344 53.14794922 -49.46527344 53.14794922 -51 53 C-51.66 52.01 -52.32 51.02 -53 50 C-48.05 50 -43.1 50 -38 50 C-38 42.08 -38 34.16 -38 26 C-27.9375 25.6875 -27.9375 25.6875 -24.80834961 25.61206055 C-18.36167531 25.35648197 -13.29830267 24.63046452 -8.109375 20.4921875 C-2.9813754 14.39163625 -1.00734633 7.85730141 0 0 Z " fill="#212020" transform="translate(201,105)"/>
<path d="M0 0 C0.66 0 1.32 0 2 0 C2.75566922 14.74668781 3.23674823 29.27318264 2 44 C3.485 44.495 3.485 44.495 5 45 C4.34 45 3.68 45 3 45 C3.33 45.66 3.66 46.32 4 47 C4.02013791 48.89584085 3.99219091 50.79234118 3.9375 52.6875 C3.87200663 56.61242399 3.99884969 58.9967134 5.3125 62.75 C6.10477837 66.49531591 5.73244239 67.1795216 3.875 70.375 C2.37808266 72.66909225 1.63355087 73.79254315 -0.9921875 74.65234375 C-1.65476563 74.76707031 -2.31734375 74.88179688 -3 75 C-4.485 75.5878125 -4.485 75.5878125 -6 76.1875 C-9 77 -9 77 -11.25 76.25 C-13 75 -13 75 -15 73 C-14.67 72.01 -14.34 71.02 -14 70 C-13.34 70.33 -12.68 70.66 -12 71 C-10.52331663 71.0952699 -9.04224543 71.12985959 -7.5625 71.125 C-6.78003906 71.12757813 -5.99757812 71.13015625 -5.19140625 71.1328125 C-2.82104653 71.08382548 -2.82104653 71.08382548 0 70 C0 46.9 0 23.8 0 0 Z " fill="#959495" transform="translate(139,87)"/>
<path d="M0 0 C1.23835814 3.71507441 0.29052423 5.01235906 -1.3996582 8.39355469 C-1.94432739 9.43624512 -1.94432739 9.43624512 -2.5 10.5 C-3.05530396 11.57749512 -3.05530396 11.57749512 -3.62182617 12.67675781 C-15.11375707 34.68101188 -33.95022536 55.50365104 -58 64 C-58.99 63.67 -59.98 63.34 -61 63 C-58.20129174 60.64908506 -55.40772286 59.31958443 -52.046875 57.93359375 C-44.30348987 54.40178259 -37.55988813 49.35148769 -31 44 C-30.41734375 43.56429687 -29.8346875 43.12859375 -29.234375 42.6796875 C-21.73325251 36.8260078 -15.87443326 28.27790551 -11 20.1875 C-10.34 19.135625 -9.68 18.08375 -9 17 C-8.34 17 -7.68 17 -7 17 C-6.7525 16.195625 -6.505 15.39125 -6.25 14.5625 C-4.4968485 9.56601823 -2.36815184 4.73630368 0 0 Z " fill="#A5A4A5" transform="translate(225,160)"/>
<path d="M0 0 C4.42184851 1.35112038 8.6732743 2.73362906 12.75 4.9375 C34.62326328 16.24084315 58.7552227 15.56326322 82 10 C82.66 9.67 83.32 9.34 84 9 C85.99960012 8.960008 88.00047242 8.95653201 90 9 C87.3088099 11.6911901 84.33343149 12.15804464 80.75 13.0625 C80.09386719 13.23587891 79.43773437 13.40925781 78.76171875 13.58789062 C52.23185809 20.47088628 26.45610464 15.165659 2.52441406 2.97387695 C1 2 1 2 0 0 Z " fill="#A1A0A0" transform="translate(74,215)"/>
<path d="M0 0 C1.78266877 2.67400316 2.92026873 5.01042651 4.12890625 7.96484375 C4.52400391 8.92970703 4.91910156 9.89457031 5.32617188 10.88867188 C5.9381543 12.3978418 5.9381543 12.3978418 6.5625 13.9375 C6.97435547 14.93974609 7.38621094 15.94199219 7.81054688 16.97460938 C11.13824123 25.13862548 11.13824123 25.13862548 12 29 C12.99 29 13.98 29 15 29 C15.33 28.34 15.66 27.68 16 27 C16.99 27.33 17.98 27.66 19 28 C19.268125 27.030625 19.53625 26.06125 19.8125 25.0625 C20.204375 24.051875 20.59625 23.04125 21 22 C21.99 21.67 22.98 21.34 24 21 C24.49185072 19.03259712 24.97693167 17.06261531 25.39453125 15.078125 C26.25284935 12.13215578 27.92680209 10.2114111 30 8 C29.41347648 12.48993869 28.2356462 16.22543184 26.4375 20.375 C25.98246094 21.43460938 25.52742188 22.49421875 25.05859375 23.5859375 C24.70925781 24.38257813 24.35992187 25.17921875 24 26 C23.34 26 22.68 26 22 26 C21.67 27.32 21.34 28.64 21 30 C18.03 30 15.06 30 12 30 C12 30.66 12 31.32 12 32 C11.34 32 10.68 32 10 32 C9.49440092 30.56445975 8.9957251 29.1264798 8.5 27.6875 C8.2215625 26.88699219 7.943125 26.08648437 7.65625 25.26171875 C7 23 7 23 7 20 C6.34 19.67 5.68 19.34 5 19 C4.15542392 16.74042735 3.53109494 14.450698 2.87890625 12.12890625 C2.09008134 9.6574796 2.09008134 9.6574796 -1 8 C-0.835 8.86625 -0.67 9.7325 -0.5 10.625 C-0.02781452 13.81225199 0.07655118 16.78485027 0 20 C-0.66 20.33 -1.32 20.66 -2 21 C-2.05390357 18.06225537 -2.0936255 15.12549768 -2.125 12.1875 C-2.14175781 11.35412109 -2.15851563 10.52074219 -2.17578125 9.66210938 C-2.18222656 8.85966797 -2.18867187 8.05722656 -2.1953125 7.23046875 C-2.20578613 6.49207764 -2.21625977 5.75368652 -2.22705078 4.99291992 C-2 3 -2 3 0 0 Z " fill="#949394" transform="translate(83,120)"/>
<path d="M0 0 C0.66 0 1.32 0 2 0 C2.125 6.75 2.125 6.75 1 9 C0.34 9 -0.32 9 -1 9 C-3.15004862 13.0590604 -4.57951388 17.31144522 -6.09765625 21.63671875 C-7 24 -7 24 -8 25 C-8.12375 26.216875 -8.2475 27.43375 -8.375 28.6875 C-8.93106564 33.46110967 -10.20993822 37.30042486 -13.77734375 40.6875 C-16.59135393 42.34920021 -18.05200351 42.15036791 -21.25 41.6875 C-22.14203125 41.56761719 -23.0340625 41.44773438 -23.953125 41.32421875 C-24.62859375 41.21722656 -25.3040625 41.11023438 -26 41 C-26 40.34 -26 39.68 -26 39 C-21.545 38.505 -21.545 38.505 -17 38 C-16.67 37.01 -16.34 36.02 -16 35 C-15.01 34.505 -15.01 34.505 -14 34 C-13.17692567 32.11194552 -12.44547244 30.18366242 -11.7578125 28.2421875 C-11.11779297 26.46714844 -11.11779297 26.46714844 -10.46484375 24.65625 C-10.0174542 23.3961082 -9.57084549 22.13568892 -9.125 20.875 C-3.87383382 6.0720093 -3.87383382 6.0720093 0 0 Z " fill="#343333" transform="translate(121,111)"/>
<path d="M0 0 C0 0.66 0 1.32 0 2 C-7.92 2.495 -7.92 2.495 -16 3 C-16.91932618 5.75797853 -17.11784853 7.33414914 -17.09765625 10.16992188 C-17.09435303 11.00930298 -17.0910498 11.84868408 -17.08764648 12.71350098 C-17.07934814 13.62273315 -17.0710498 14.53196533 -17.0625 15.46875 C-17.05871338 16.41826538 -17.05492676 17.36778076 -17.05102539 18.34606934 C-17.03478692 22.39922526 -17.00714935 26.45227923 -16.97949219 30.50537109 C-16.89712999 43.71149866 -17.13422991 56.82019634 -18 70 C-18.33 70 -18.66 70 -19 70 C-19.15359279 61.02087841 -19.30177448 52.04168888 -19.4429636 43.06236362 C-19.5086885 38.8933325 -19.57630824 34.72434974 -19.64819336 30.55541992 C-19.71744068 26.53548705 -19.78179563 22.51550342 -19.84269524 18.49543571 C-19.86685276 16.95834423 -19.89280159 15.42127987 -19.92053413 13.88424873 C-19.95894595 11.73871227 -19.99110421 9.59316947 -20.02172852 7.44750977 C-20.05170677 5.6121743 -20.05170677 5.6121743 -20.08229065 3.73976135 C-20 1 -20 1 -19 0 C-12.49376737 -1.20485789 -6.54637991 -0.78219613 0 0 Z " fill="#DADADA" transform="translate(82,84)"/>
<path d="M0 0 C0.68860107 0.27021973 1.37720215 0.54043945 2.08666992 0.81884766 C15.45398162 6.14695618 26.38473253 13.51680347 37 23.25 C36.67 23.91 36.34 24.57 36 25.25 C35.21496094 24.58613281 34.42992187 23.92226562 33.62109375 23.23828125 C32.56000934 22.34621914 31.49880494 21.45429974 30.4375 20.5625 C29.92380859 20.12744141 29.41011719 19.69238281 28.88085938 19.24414062 C22.68283132 14.04703636 16.66858479 9.77407168 9.1875 6.625 C8.14082153 6.17616455 8.14082153 6.17616455 7.07299805 5.71826172 C-2.14560227 1.8330442 -10.98533794 -0.89048792 -21.05078125 -0.84765625 C-22.03899117 -0.84553383 -22.03899117 -0.84553383 -23.04716492 -0.84336853 C-25.13565762 -0.837805 -27.22404011 -0.82525947 -29.3125 -0.8125 C-30.73502449 -0.80748028 -32.15755066 -0.8029182 -33.58007812 -0.79882812 C-37.05342077 -0.78784757 -40.52669961 -0.77060835 -44 -0.75 C-44 -1.08 -44 -1.41 -44 -1.75 C-38.93262895 -2.84889384 -33.97989668 -3.12737282 -28.8125 -3.375 C-27.46961914 -3.45234375 -27.46961914 -3.45234375 -26.09960938 -3.53125 C-16.88325932 -3.9837495 -8.603894 -3.47533657 0 0 Z " fill="#515051" transform="translate(156,40.75)"/>
<path d="M0 0 C0.66 0.33 1.32 0.66 2 1 C1.55197021 1.42708252 1.10394043 1.85416504 0.64233398 2.29418945 C-11.64288553 13.97898621 -11.64288553 13.97898621 -21 28 C-21.54527344 29.04414062 -21.54527344 29.04414062 -22.1015625 30.109375 C-23.11588962 32.14506065 -23.11588962 32.14506065 -24 35 C-24.66 35 -25.32 35 -26 35 C-26.33 35.66 -26.66 36.32 -27 37 C-28.28583753 33.39827229 -28.01870064 32.04506954 -26.5234375 28.44140625 C-25.82198384 27.14040824 -25.10528087 25.84753809 -24.375 24.5625 C-24.03082031 23.91990234 -23.68664063 23.27730469 -23.33203125 22.61523438 C-20.96608034 18.31548964 -18.44320688 14.51380892 -15 11 C-13.68 11 -12.36 11 -11 11 C-8.92714539 9.21665022 -7.10700368 7.48372834 -5.25 5.5 C-4.74339844 4.97535156 -4.23679687 4.45070313 -3.71484375 3.91015625 C-2.46734913 2.61558637 -1.23242693 1.3089224 0 0 Z " fill="#EBEBEB" transform="translate(61,51)"/>
<path d="M0 0 C4.96105387 1.50617285 9.42878898 3.59708324 14.0625 5.875 C27.17543779 12.1783673 39.44380685 14.95818333 53.9375 15.5625 C55.3925293 15.62727539 55.3925293 15.62727539 56.87695312 15.69335938 C59.25118601 15.79862093 61.62550921 15.90075707 64 16 C63.505 17.485 63.505 17.485 63 19 C46.20971889 20.17688886 29.08506132 16.43290086 14 9 C12.906875 8.49082031 11.81375 7.98164063 10.6875 7.45703125 C2.30118224 3.45177336 2.30118224 3.45177336 0 0 Z " fill="#4B494A" transform="translate(71,211)"/>
<path d="M0 0 C2.83062504 2.74737136 5.47663913 5.52923719 8 8.5625 C10.41864101 11.43228649 12.96465016 13.76812511 16 16 C16.66 15.67 17.32 15.34 18 15 C18.66 15.66 19.32 16.32 20 17 C20.66 17 21.32 17 22 17 C22 17.66 22 18.32 22 19 C22.66 19.33 23.32 19.66 24 20 C23.34 20 22.68 20 22 20 C22.61875 20.61875 23.2375 21.2375 23.875 21.875 C26.54031933 24.54031933 28.40571888 26.58368332 30 30 C21.21800348 26.86136392 14.60048312 19.81496902 8 13.4375 C7.43603516 12.90793701 6.87207031 12.37837402 6.29101562 11.83276367 C2.52103716 8.10239064 1.05065315 5.20729968 0 0 Z " fill="#9D9C9D" transform="translate(44,185)"/>
<path d="M0 0 C3.38101396 0.60375249 5.44961184 1.6964236 8 4 C11 8.39285714 11 8.39285714 11 11 C11.66 11 12.32 11 13 11 C16.50128128 19.54550007 16.28523398 25.23937605 13 34 C12.34 34 11.68 34 11 34 C11 30.7 11 27.4 11 24 C10.67 24 10.34 24 10 24 C9.98582031 23.38253906 9.97164062 22.76507813 9.95703125 22.12890625 C9.44723863 13.07664276 5.91390635 6.79004063 0 0 Z " fill="#7A787A" transform="translate(190,87)"/>
<path d="M0 0 C0.99 0 1.98 0 3 0 C2.90786673 6.37234102 2.8005798 12.74429602 2.68261719 19.11621094 C2.64427009 21.28509693 2.60942745 23.45404777 2.578125 25.62304688 C2.53259862 28.73591332 2.47458427 31.84833106 2.4140625 34.9609375 C2.39673569 36.42193375 2.39673569 36.42193375 2.37905884 37.91244507 C2.35918915 38.81322784 2.33931946 39.71401062 2.31884766 40.64208984 C2.30552399 41.43706879 2.29220032 42.23204773 2.2784729 43.05111694 C2 45 2 45 0 47 C-2.8203125 47.1953125 -2.8203125 47.1953125 -6.125 47.125 C-7.22070312 47.10695312 -8.31640625 47.08890625 -9.4453125 47.0703125 C-10.28835937 47.04710937 -11.13140625 47.02390625 -12 47 C-12.33 46.34 -12.66 45.68 -13 45 C-8.71 45 -4.42 45 0 45 C0 30.15 0 15.3 0 0 Z " fill="#3E3D3E" transform="translate(77,111)"/>
<path d="M0 0 C0.66 0 1.32 0 2 0 C-1.3292623 7.56650522 -9.08073723 13.71200617 -16 18 C-16.66 18 -17.32 18 -18 18 C-18 15 -18 15 -16.5 13.3125 C-16.005 12.879375 -15.51 12.44625 -15 12 C-15.33 11.34 -15.66 10.68 -16 10 C-15.67 9.34 -15.34 8.68 -15 8 C-14.34 8 -13.68 8 -13 8 C-12.731875 7.38125 -12.46375 6.7625 -12.1875 6.125 C-11 4 -11 4 -8 2 C-6.65938457 2.30271961 -5.32594105 2.63837971 -4 3 C-1.81296615 2.62092718 -1.81296615 2.62092718 0 2 C0 1.34 0 0.68 0 0 Z " fill="#7F7E7F" transform="translate(201,192)"/>
<path d="M0 0 C0.495 1.485 0.495 1.485 1 3 C-0.19267461 4.47116716 -1.40493939 5.92646362 -2.625 7.375 C-3.63433594 8.59316406 -3.63433594 8.59316406 -4.6640625 9.8359375 C-10.18658784 14.95212318 -16.79532753 14.2487437 -23.875 14.125 C-27.21625 14.08375 -30.5575 14.0425 -34 14 C-34 21.92 -34 29.84 -34 38 C-37.3 38 -40.6 38 -44 38 C-44 37.67 -44 37.34 -44 37 C-41.36 36.67 -38.72 36.34 -36 36 C-35.67 28.41 -35.34 20.82 -35 13 C-24.605 12.505 -24.605 12.505 -14 12 C-14 11.34 -14 10.68 -14 10 C-13.278125 9.938125 -12.55625 9.87625 -11.8125 9.8125 C-8.14043984 8.75168262 -6.60572158 6.73934833 -4 4 C-1.6875 2.6875 -1.6875 2.6875 0 2 C0 1.34 0 0.68 0 0 Z " fill="#727071" transform="translate(197,117)"/>
<path d="M0 0 C17.83526316 4.11582996 32.89268816 14.62456851 46 27 C46.62777344 27.57492188 47.25554687 28.14984375 47.90234375 28.7421875 C53.02155033 33.59440598 56.98051104 39.22655222 61 45 C60.505 45.99 60.505 45.99 60 47 C57.54467694 44.73538164 55.58307475 42.19268477 53.58886719 39.52075195 C39.40399397 20.53613873 21.4467539 10.19146596 0 1 C0 0.67 0 0.34 0 0 Z " fill="#C5C5C6" transform="translate(156,27)"/>
<path d="M0 0 C-1 2 -1 2 -3.65625 2.99609375 C-4.7596875 3.32738281 -5.863125 3.65867188 -7 4 C-8.0621875 4.34160156 -9.124375 4.68320313 -10.21875 5.03515625 C-11.3015625 5.37417969 -12.384375 5.71320313 -13.5 6.0625 C-14.5828125 6.40410156 -15.665625 6.74570313 -16.78125 7.09765625 C-23.05163197 8.85549391 -28.91009995 9.15549481 -35.375 9.125 C-36.18710938 9.12886719 -36.99921875 9.13273438 -37.8359375 9.13671875 C-42.97776555 9.12847864 -47.91095197 8.73703454 -53 8 C-53 7.67 -53 7.34 -53 7 C-52.28046143 6.98541748 -51.56092285 6.97083496 -50.81958008 6.95581055 C-34.56413426 6.58758104 -20.42143426 5.88770898 -5.2421875 -0.328125 C-3 -1 -3 -1 0 0 Z " fill="#C6C6C7" transform="translate(166,209)"/>
<path d="M0 0 C0.33 0 0.66 0 1 0 C0.97381592 0.88034912 0.94763184 1.76069824 0.9206543 2.66772461 C0.37079323 23.96196433 1.15985017 40.95208446 11.49609375 60.00390625 C12.3826664 61.6422116 13.19845765 63.31845745 14 65 C13.505 65.99 13.505 65.99 13 67 C9.21809574 61.23709827 6.05923682 55.28340818 3.25 49 C2.95665771 48.360625 2.66331543 47.72125 2.36108398 47.0625 C-1.55197272 38.09512548 -2.31545627 29.62693279 -1.6875 19.9375 C-1.63916016 19.00873047 -1.59082031 18.07996094 -1.54101562 17.12304688 C-1.22300444 11.38676922 -0.6830604 5.70384622 0 0 Z " fill="#636263" transform="translate(40,111)"/>
<path d="M0 0 C1.27728434 3.83185301 0.43765643 5.18326799 -0.8125 9 C-4.31155393 20.612824 -4.35487523 32.96684953 -5 45 C-7.5696264 41.1455604 -7.38345544 37.91354228 -7.375 33.4375 C-7.37411377 32.60138184 -7.37322754 31.76526367 -7.37231445 30.90380859 C-7.25991777 24.82069485 -6.50964386 19.05986105 -5.1875 13.125 C-5.02233887 12.38306396 -4.85717773 11.64112793 -4.68701172 10.87670898 C-3.68731306 6.79562496 -2.37420959 3.46947533 0 0 Z " fill="#444243" transform="translate(44,93)"/>
<path d="M0 0 C15.73083377 6.83795252 25.49763576 28.04447739 31.8984375 42.99609375 C33 46 33 46 33 49 C32.34 49 31.68 49 31 49 C30.64808594 48.05640625 30.29617187 47.1128125 29.93359375 46.140625 C23.56689854 29.42695538 14.48995075 14.70596157 1.3984375 2.390625 C0.93695313 1.93171875 0.47546875 1.4728125 0 1 C0 0.67 0 0.34 0 0 Z " fill="#575556" transform="translate(193,49)"/>
<path d="M0 0 C8.5511272 -0.27733386 16.58481953 0.47983837 25 2 C24.67 2.99 24.34 3.98 24 5 C24.99 5.33 25.98 5.66 27 6 C25.78570312 5.83886719 24.57140625 5.67773438 23.3203125 5.51171875 C17.17505276 4.83225265 11.05194676 4.81601362 4.875 4.8125 C3.73417969 4.80025391 2.59335938 4.78800781 1.41796875 4.77539062 C-4.501781 4.76507747 -9.39555425 5.12171221 -15 7 C-17.9375 6.625 -17.9375 6.625 -20 6 C-20 5.67 -20 5.34 -20 5 C-10.39937232 2.82188403 -0.79867033 2.40962538 9 2 C6.03 1.67 3.06 1.34 0 1 C0 0.67 0 0.34 0 0 Z " fill="#CECECE" transform="translate(123,24)"/>
<path d="M0 0 C14.46428571 -0.26785714 14.46428571 -0.26785714 18 2 C18 2.66 18 3.32 18 4 C13.05 4 8.1 4 3 4 C2.67 9.61 2.34 15.22 2 21 C1.34 21 0.68 21 0 21 C0 14.07 0 7.14 0 0 Z " fill="#312F30" transform="translate(163,97)"/>
<path d="M0 0 C0.33 0 0.66 0 1 0 C1.11069824 0.6705542 1.22139648 1.3411084 1.33544922 2.03198242 C1.84280419 5.08482334 2.35881322 8.13614053 2.875 11.1875 C3.04902344 12.24259766 3.22304688 13.29769531 3.40234375 14.38476562 C3.57636719 15.40634766 3.75039063 16.42792969 3.9296875 17.48046875 C4.08679199 18.41785889 4.24389648 19.35524902 4.40576172 20.32104492 C4.92533448 23.04892056 4.92533448 23.04892056 6.12939453 25.6574707 C7 28 7 28 6 31 C5.67 30.34 5.34 29.68 5 29 C4.34 29.33 3.68 29.66 3 30 C0.38945025 22.45970675 -1.53371691 16.00575369 -1 8 C-1 7.67 -1 7.34 -1 7 C-0.67240066 4.66585471 -0.33926947 2.33247761 0 0 Z " fill="#D4D4D5" transform="translate(27,134)"/>
<path d="M0 0 C-1.34005569 3.75348932 -3.00567159 6.65896767 -5.4375 9.8125 C-6.33275391 10.99779297 -6.33275391 10.99779297 -7.24609375 12.20703125 C-7.82488281 12.79871094 -8.40367187 13.39039063 -9 14 C-9.99 14 -10.98 14 -12 14 C-11 12 -11 12 -10 11 C-10.66 9.68 -11.32 8.36 -12 7 C-11.01 6.01 -10.02 5.02 -9 4 C-9.33 3.34 -9.66 2.68 -10 2 C-3.375 -1.125 -3.375 -1.125 0 0 Z " fill="#7E7D7E" transform="translate(214,177)"/>
<path d="M0 0 C-1.01940388 2.7801924 -1.69720287 3.82814217 -4.3125 5.3125 C-7.31044337 6.07941575 -9.03400679 5.72145781 -12 5 C-12.99 5.495 -12.99 5.495 -14 6 C-14.66 5.67 -15.32 5.34 -16 5 C-16 4.34 -16 3.68 -16 3 C-19.79547921 3.96776098 -19.79547921 3.96776098 -23 6 C-23.36760731 8.32817964 -23.70241581 10.6618385 -24 13 C-24.33 13 -24.66 13 -25 13 C-25 9.37 -25 5.74 -25 2 C-21.7711264 1.66359643 -18.54195168 1.33076737 -15.3125 1 C-13.94448242 0.85691406 -13.94448242 0.85691406 -12.54882812 0.7109375 C-11.21948242 0.57558594 -11.21948242 0.57558594 -9.86328125 0.4375 C-9.05157471 0.35371094 -8.23986816 0.26992187 -7.40356445 0.18359375 C-4.92615534 -0.00564055 -2.4836252 -0.03092452 0 0 Z " fill="#706F70" transform="translate(191,134)"/>
<path d="M0 0 C0.33 0 0.66 0 1 0 C1.05401695 2.91691525 1.09368066 5.83282724 1.125 8.75 C1.15013672 9.9875 1.15013672 9.9875 1.17578125 11.25 C1.18222656 12.04921875 1.18867188 12.8484375 1.1953125 13.671875 C1.20578613 14.4050293 1.21625977 15.13818359 1.22705078 15.89355469 C0.96777544 18.29896076 0.19225925 19.91251494 -1 22 C-3.12438339 22.08078641 -5.2496323 22.13909141 -7.375 22.1875 C-8.55835938 22.22230469 -9.74171875 22.25710937 -10.9609375 22.29296875 C-12.46527344 22.14794922 -12.46527344 22.14794922 -14 22 C-14.66 21.01 -15.32 20.02 -16 19 C-11.05 19 -6.1 19 -1 19 C-1.01160156 17.71222656 -1.02320313 16.42445313 -1.03515625 15.09765625 C-1.0445327 13.41927228 -1.05363305 11.74088674 -1.0625 10.0625 C-1.07087891 9.21236328 -1.07925781 8.36222656 -1.08789062 7.48632812 C-1.09111328 6.67744141 -1.09433594 5.86855469 -1.09765625 5.03515625 C-1.10289307 4.2862915 -1.10812988 3.53742676 -1.11352539 2.76586914 C-1 1 -1 1 0 0 Z " fill="#343233" transform="translate(164,136)"/>
<path d="M0 0 C-0.33 0.99 -0.66 1.98 -1 3 C-2.32 2.67 -3.64 2.34 -5 2 C-5 16.85 -5 31.7 -5 47 C-9.62 47.33 -14.24 47.66 -19 48 C-19 47.34 -19 46.68 -19 46 C-17.07942708 45.77213542 -15.15885417 45.54427083 -13.23828125 45.31640625 C-10.81008489 44.97315336 -8.40471494 44.48094299 -6 44 C-6 29.81 -6 15.62 -6 1 C-4 0 -4 0 0 0 Z " fill="#A9A8A9" transform="translate(82,109)"/>
<path d="M0 0 C0.33 0.99 0.66 1.98 1 3 C-1.77723925 3.78688445 -4.22610077 4.11949924 -7.109375 4.09765625 C-7.86347656 4.09443359 -8.61757812 4.09121094 -9.39453125 4.08789062 C-10.17183594 4.07951172 -10.94914063 4.07113281 -11.75 4.0625 C-12.54277344 4.05798828 -13.33554688 4.05347656 -14.15234375 4.04882812 C-16.10159508 4.03708565 -18.05080738 4.01915146 -20 4 C-20 6.64 -20 9.28 -20 12 C-21.70840281 10.36587557 -22.93453047 9.13093906 -24 7 C-24.66 7 -25.32 7 -26 7 C-25.67 5.35 -25.34 3.7 -25 2 C-23.68 1.67 -22.36 1.34 -21 1 C-21 1.66 -21 2.32 -21 3 C-20.13375 2.814375 -19.2675 2.62875 -18.375 2.4375 C-14.94847372 1.99332067 -12.35787629 2.28045508 -9 3 C-9 2.34 -9 1.68 -9 1 C-7.700625 1.020625 -6.40125 1.04125 -5.0625 1.0625 C-3.70834367 1.08399454 -2.35243917 1.07148199 -1 1 C-0.67 0.67 -0.34 0.34 0 0 Z " fill="#908F90" transform="translate(182,126)"/>
<path d="M0 0 C0.33 0 0.66 0 1 0 C1.0578304 4.45827926 1.09353855 8.9164628 1.125 13.375 C1.14175781 14.64601562 1.15851563 15.91703125 1.17578125 17.2265625 C1.18222656 18.43828125 1.18867188 19.65 1.1953125 20.8984375 C1.20578613 22.01911621 1.21625977 23.13979492 1.22705078 24.29443359 C1 27 1 27 -1 29 C-6.9362004 30.94275649 -10.26150866 31.48150977 -16 29 C-15.67 27.68 -15.34 26.36 -15 25 C-14.34 25.33 -13.68 25.66 -13 26 C-11.52331663 26.0952699 -10.04224543 26.12985959 -8.5625 26.125 C-7.78003906 26.12757813 -6.99757812 26.13015625 -6.19140625 26.1328125 C-3.82104653 26.08382548 -3.82104653 26.08382548 -1 25 C-0.67 16.75 -0.34 8.5 0 0 Z " fill="#828081" transform="translate(140,132)"/>
<path d="M0 0 C0.33 0.99 0.66 1.98 1 3 C3.00016466 4.20882096 3.00016466 4.20882096 5 5 C3.10958518 6.154751 1.21242401 7.29846233 -0.6875 8.4375 C-1.74324219 9.07558594 -2.79898438 9.71367187 -3.88671875 10.37109375 C-6.71009314 11.84831724 -8.86866977 12.58752422 -12 13 C-12 12.34 -12 11.68 -12 11 C-11.01 11 -10.02 11 -9 11 C-8.71125 10.4225 -8.4225 9.845 -8.125 9.25 C-7.39161932 7.78323864 -6.64228395 6.32431413 -5.875 4.875 C-4.85903818 3.04279198 -4.85903818 3.04279198 -5 1 C-2 0 -2 0 0 0 Z " fill="#7B7A7B" transform="translate(178,206)"/>
<path d="M0 0 C6.49672474 -0.43602179 10.44951653 0.6662113 16.125 3.75 C16.80175781 4.09804688 17.47851562 4.44609375 18.17578125 4.8046875 C22.30412874 6.96069103 26.17047762 9.35154527 30 12 C28 13 28 13 25.8359375 12.44140625 C24.61777344 12.00634766 24.61777344 12.00634766 23.375 11.5625 C22.14910156 11.13130859 22.14910156 11.13130859 20.8984375 10.69140625 C20.27195313 10.46324219 19.64546875 10.23507813 19 10 C19 9.01 19 8.02 19 7 C16.69 6.67 14.38 6.34 12 6 C12 5.34 12 4.68 12 4 C6.06 3.01 6.06 3.01 0 2 C0 1.34 0 0.68 0 0 Z " fill="#C8C8C8" transform="translate(154,31)"/>
<path d="M0 0 C6.35583327 0.86670454 12.67551301 1.93034128 19 3 C19 3.33 19 3.66 19 4 C23.79593617 4.9001836 28.51399614 5.29439762 33.375 5.5625 C34.11105469 5.60568359 34.84710938 5.64886719 35.60546875 5.69335938 C37.40348068 5.79843799 39.20171958 5.89962093 41 6 C41 6.33 41 6.66 41 7 C36.72918086 7.02897435 32.45838691 7.04678996 28.1875 7.0625 C26.36508789 7.07506836 26.36508789 7.07506836 24.50585938 7.08789062 C22.76079102 7.09272461 22.76079102 7.09272461 20.98046875 7.09765625 C19.90692139 7.10289307 18.83337402 7.10812988 17.72729492 7.11352539 C15 7 15 7 12 6 C12 5.34 12 4.68 12 4 C10.700625 4.0928125 10.700625 4.0928125 9.375 4.1875 C5.55800967 3.97544498 3.28922464 2.87955693 0 1 C0 0.67 0 0.34 0 0 Z " fill="#B3B3B4" transform="translate(96,212)"/>
<path d="M0 0 C0 0.66 0 1.32 0 2 C-0.66 2 -1.32 2 -2 2 C-1.731875 2.556875 -1.46375 3.11375 -1.1875 3.6875 C-1.125625 4.450625 -1.06375 5.21375 -1 6 C-3.4375 8.75 -3.4375 8.75 -6 11 C-6.99 10.67 -7.98 10.34 -9 10 C-8.34 9.34 -7.68 8.68 -7 8 C-8.66611905 7.957279 -10.33382885 7.95936168 -12 8 C-12.33 8.33 -12.66 8.66 -13 9 C-14.66617115 9.04063832 -16.33388095 9.042721 -18 9 C-15.43308747 5.86266246 -12.78469002 5.23730251 -9 4 C-7.73558015 3.31774012 -6.48539198 2.60851399 -5.25 1.875 C-2 0 -2 0 0 0 Z " fill="#989798" transform="translate(175,205)"/>
<path d="M0 0 C7.87502594 2.62500865 12.65175047 15.24884103 16.33203125 22.4140625 C18.30765908 26.661431 19.35151805 30.37956613 20 35 C17.60256954 32.60256954 16.49967715 30.22809542 15 27.1875 C14.484375 26.14980469 13.96875 25.11210938 13.4375 24.04296875 C12 21 12 21 11.02734375 18.46484375 C9.81254804 15.55025785 8.26495579 13.03302774 6.5625 10.375 C5.96566406 9.43398437 5.36882812 8.49296875 4.75390625 7.5234375 C3.13245329 5.02865183 3.13245329 5.02865183 1.27734375 3.2890625 C0 2 0 2 0 0 Z " fill="#8A898A" transform="translate(193,66)"/>
<path d="M0 0 C1.5 1.375 1.5 1.375 3 3 C3 3.66 3 4.32 3 5 C3.86625 5.185625 3.86625 5.185625 4.75 5.375 C7.02335767 6.00648824 8.9253529 6.88858191 11 8 C9.75 9.5 9.75 9.5 8 11 C5 11 2 11 -1 11 C-1.02688151 9.35425434 -1.04634123 7.70838587 -1.0625 6.0625 C-1.07410156 5.14597656 -1.08570312 4.22945312 -1.09765625 3.28515625 C-1 1 -1 1 0 0 Z " fill="#A09FA0" transform="translate(74,201)"/>
<path d="M0 0 C0.625 1.8125 0.625 1.8125 1 4 C0.01 5.485 0.01 5.485 -1 7 C-1.66 7 -2.32 7 -3 7 C-3 7.99 -3 8.98 -3 10 C-4.65 9.67 -6.3 9.34 -8 9 C-8 8.01 -8 7.02 -8 6 C-8.99 6.33 -9.98 6.66 -11 7 C-11 6.34 -11 5.68 -11 5 C-9.35546875 3.7109375 -9.35546875 3.7109375 -7.1875 2.375 C-6.47980469 1.92898437 -5.77210938 1.48296875 -5.04296875 1.0234375 C-3 0 -3 0 0 0 Z " fill="#878687" transform="translate(186,200)"/>
<path d="M0 0 C0.66 0.33 1.32 0.66 2 1 C1.52578613 1.46897705 1.05157227 1.9379541 0.56298828 2.42114258 C-1.58563085 4.54896523 -3.73034798 6.68067923 -5.875 8.8125 C-6.99455078 9.91948242 -6.99455078 9.91948242 -8.13671875 11.04882812 C-8.85214844 11.76103516 -9.56757812 12.47324219 -10.3046875 13.20703125 C-10.96452637 13.8616333 -11.62436523 14.51623535 -12.30419922 15.19067383 C-14.18168292 17.0945646 -14.18168292 17.0945646 -16 20 C-17.32 19.67 -18.64 19.34 -20 19 C-18.62901008 16.04709864 -17.22467373 13.39580248 -15 11 C-13.68 11 -12.36 11 -11 11 C-8.92714539 9.21665022 -7.10700368 7.48372834 -5.25 5.5 C-4.49009766 4.71302734 -4.49009766 4.71302734 -3.71484375 3.91015625 C-2.46734913 2.61558637 -1.23242693 1.3089224 0 0 Z " fill="#E1E2E2" transform="translate(61,51)"/>
<path d="M0 0 C-1.83498047 0.03867187 -1.83498047 0.03867187 -3.70703125 0.078125 C-17.29422772 0.49117577 -29.83656267 2.69818331 -43 6 C-35.2999628 -1.95670511 -23.40842382 -1.17267781 -12.875 -1.75 C-11.95033936 -1.80671875 -11.02567871 -1.8634375 -10.07299805 -1.921875 C-9.20070557 -1.963125 -8.32841309 -2.004375 -7.4296875 -2.046875 C-6.25768799 -2.10633301 -6.25768799 -2.10633301 -5.06201172 -2.16699219 C-3 -2 -3 -2 0 0 Z " fill="#8F8E8F" transform="translate(138,36)"/>
<path d="M0 0 C0.99 0 1.98 0 3 0 C2.3125 2.4375 2.3125 2.4375 1 5 C-1.375 5.6875 -1.375 5.6875 -4 6 C-4.639375 6.33 -5.27875 6.66 -5.9375 7 C-8.57152412 8.2771026 -11.11484648 8.60656997 -14 9 C-14 8.34 -14 7.68 -14 7 C-13.34 7 -12.68 7 -12 7 C-11.77570313 6.35546875 -11.55140625 5.7109375 -11.3203125 5.046875 C-10 3 -10 3 -7.6171875 2.390625 C-6.71226562 2.34421875 -5.80734375 2.2978125 -4.875 2.25 C-3.96492187 2.19328125 -3.05484375 2.1365625 -2.1171875 2.078125 C-1.41851562 2.05234375 -0.71984375 2.0265625 0 2 C0 1.34 0 0.68 0 0 Z " fill="#8C8B8C" transform="translate(157,214)"/>
<path d="M0 0 C0.33 0 0.66 0 1 0 C1 2.64 1 5.28 1 8 C0.360625 8.268125 -0.27875 8.53625 -0.9375 8.8125 C-3.33131686 9.88667752 -3.33131686 9.88667752 -4 13 C-4.66 13 -5.32 13 -6 13 C-6 13.99 -6 14.98 -6 16 C-9.96 16.495 -9.96 16.495 -14 17 C-13.34 16.34 -12.68 15.68 -12 15 C-11.01 15 -10.02 15 -9 15 C-8.938125 14.443125 -8.87625 13.88625 -8.8125 13.3125 C-7.67344149 10.07056423 -5.4156959 8.4156959 -3 6 C-1.20679176 2.83354526 -1.20679176 2.83354526 0 0 Z " fill="#565455" transform="translate(200,117)"/>
<path d="M0 0 C0.33 0 0.66 0 1 0 C1.70673949 12.01457139 -2.46530801 23.04862923 -7 34 C-7.99 34 -8.98 34 -10 34 C-9.61328125 33.05382812 -9.2265625 32.10765625 -8.828125 31.1328125 C-4.77091629 20.92586686 -2.11857066 10.76732385 0 0 Z " fill="#C7C7C8" transform="translate(216,135)"/>
<path d="M0 0 C1.2518241 2.95885695 1.00203521 3.99475129 -0.1875 7.0625 C-1.99609146 9.99366547 -3.07145036 11.28522314 -6 13 C-8.578125 13.07421875 -8.578125 13.07421875 -11.25 12.6875 C-12.58804688 12.50767578 -12.58804688 12.50767578 -13.953125 12.32421875 C-14.62859375 12.21722656 -15.3040625 12.11023438 -16 12 C-16 11.34 -16 10.68 -16 10 C-11.545 9.505 -11.545 9.505 -7 9 C-6.67 8.01 -6.34 7.02 -6 6 C-4.68 6 -3.36 6 -2 6 C-1.855625 5.195625 -1.71125 4.39125 -1.5625 3.5625 C-1 1 -1 1 0 0 Z " fill="#474546" transform="translate(111,140)"/>
<path d="M0 0 C0.99 0 1.98 0 3 0 C3 4.62 3 9.24 3 14 C2.34 14 1.68 14 1 14 C0.67 13.01 0.34 12.02 0 11 C-0.66 11 -1.32 11 -2 11 C-2.66 11.66 -3.32 12.32 -4 13 C-3.835 12.38125 -3.67 11.7625 -3.5 11.125 C-2.92365356 9.03936614 -2.92365356 9.03936614 -3 7 C-2.68521554 5.66216607 -2.35412344 4.32796291 -2 3 C-1.34 3 -0.68 3 0 3 C0 2.01 0 1.02 0 0 Z " fill="#949293" transform="translate(120,125)"/>
<path d="M0 0 C0.66 0 1.32 0 2 0 C2.7943887 5.58593961 3.15542376 10.98646366 3.125 16.625 C3.12886719 17.34945312 3.13273438 18.07390625 3.13671875 18.8203125 C3.12916736 22.98867989 2.81605475 26.89381977 2 31 C1.67 31 1.34 31 1 31 C-0.02250405 24.30139078 -0.11756273 17.7684802 -0.0625 11 C-0.05573242 9.40865234 -0.05573242 9.40865234 -0.04882812 7.78515625 C-0.03713843 5.19004402 -0.02075276 2.59505291 0 0 Z " fill="#B9B9B9" transform="translate(216,109)"/>
<path d="M0 0 C0.99 0.33 1.98 0.66 3 1 C-0.02323757 4.13786269 -3.23354778 6.89172718 -6.625 9.625 C-10.42947898 12.68273226 -10.42947898 12.68273226 -14 16 C-14.99 15.67 -15.98 15.34 -17 15 C-5.88615783 3.48364443 -5.88615783 3.48364443 0 0 Z " fill="#373536" transform="translate(77,51)"/>
<path d="M0 0 C0.33 0 0.66 0 1 0 C1 3.3 1 6.6 1 10 C0.08476562 10.06058594 -0.83046875 10.12117187 -1.7734375 10.18359375 C-2.96195313 10.26738281 -4.15046875 10.35117188 -5.375 10.4375 C-7.15003906 10.55931641 -7.15003906 10.55931641 -8.9609375 10.68359375 C-11.91518901 10.81084936 -11.91518901 10.81084936 -14 12 C-14.33 9.69 -14.66 7.38 -15 5 C-14.34 4.67 -13.68 4.34 -13 4 C-12.67 5.32 -12.34 6.64 -12 8 C-10.948125 7.7215625 -10.948125 7.7215625 -9.875 7.4375 C-6.66111302 6.94843024 -4.16439664 7.33768442 -1 8 C-0.67 5.36 -0.34 2.72 0 0 Z " fill="#8C8B8C" transform="translate(136,145)"/>
<path d="M0 0 C0.33 0 0.66 0 1 0 C1 2.31 1 4.62 1 7 C0.01 7 -0.98 7 -2 7 C-2 7.99 -2 8.98 -2 10 C-2.66 10 -3.32 10 -4 10 C-4.27263672 10.92232422 -4.27263672 10.92232422 -4.55078125 11.86328125 C-4.80214844 12.67152344 -5.05351563 13.47976562 -5.3125 14.3125 C-5.55613281 15.11300781 -5.79976563 15.91351563 -6.05078125 16.73828125 C-7.04182023 19.09964573 -8.08074943 20.33879993 -10 22 C-9.34715354 18.0242384 -8.12819283 14.58248629 -6.5625 10.875 C-5.91474609 9.32425781 -5.91474609 9.32425781 -5.25390625 7.7421875 C-4 5 -4 5 -2 2 C-1.34 2 -0.68 2 0 2 C0 1.34 0 0.68 0 0 Z " fill="#636163" transform="translate(122,118)"/>
<path d="M0 0 C1.65 0 3.3 0 5 0 C5 0.66 5 1.32 5 2 C4.57074219 2.38800781 4.14148438 2.77601562 3.69921875 3.17578125 C1.25831705 5.79624353 0.14183678 8.9150339 -1.1875 12.1875 C-1.46013672 12.84169922 -1.73277344 13.49589844 -2.01367188 14.16992188 C-2.68239798 15.77721092 -3.34209925 17.38824962 -4 19 C-4.33 19 -4.66 19 -5 19 C-4.70245971 11.87391001 -3.28874656 6.3327492 0 0 Z " fill="#8F8E8F" transform="translate(118,109)"/>
<path d="M0 0 C0.33 0.66 0.66 1.32 1 2 C2.32 1.67 3.64 1.34 5 1 C5 1.66 5 2.32 5 3 C5.99 3.33 6.98 3.66 8 4 C7.375 5.9375 7.375 5.9375 6 8 C2.875 8.75 2.875 8.75 0 9 C0 8.01 0 7.02 0 6 C-0.66 6 -1.32 6 -2 6 C-1.125 1.125 -1.125 1.125 0 0 Z " fill="#9A999A" transform="translate(141,206)"/>
<path d="M0 0 C0.33 0 0.66 0 1 0 C1.08153933 1.58246707 1.13943557 3.16616273 1.1875 4.75 C1.22230469 5.63171875 1.25710937 6.5134375 1.29296875 7.421875 C0.93710168 10.55350518 0.29691673 11.84726203 -2 14 C-4.41015625 14.42578125 -4.41015625 14.42578125 -7.0625 14.3125 C-7.94035156 14.28800781 -8.81820312 14.26351562 -9.72265625 14.23828125 C-12 14 -12 14 -14 13 C-14 12.34 -14 11.68 -14 11 C-8.06 10.505 -8.06 10.505 -2 10 C-1.34 6.7 -0.68 3.4 0 0 Z " fill="#696869" transform="translate(165,147)"/>
<path d="M0 0 C0.59425781 0.35449219 1.18851563 0.70898438 1.80078125 1.07421875 C1.08792969 1.50992188 0.37507813 1.945625 -0.359375 2.39453125 C-6.05658603 5.937077 -11.23967996 9.55552785 -16.19921875 14.07421875 C-16.85921875 13.74421875 -17.51921875 13.41421875 -18.19921875 13.07421875 C-17.56113281 12.53152344 -16.92304687 11.98882812 -16.265625 11.4296875 C-15.43933594 10.71425781 -14.61304687 9.99882813 -13.76171875 9.26171875 C-12.93800781 8.55402344 -12.11429687 7.84632812 -11.265625 7.1171875 C-8.97757116 5.16312189 -8.97757116 5.16312189 -8.19921875 2.07421875 C-3.012682 -1.26821605 -3.012682 -1.26821605 0 0 Z " fill="#535152" transform="translate(88.19921875,46.92578125)"/>
<path d="M0 0 C1.65 0 3.3 0 5 0 C5 0.66 5 1.32 5 2 C5.99 2.33 6.98 2.66 8 3 C3.02638346 4.75734451 -1.7415998 6.32584613 -7 7 C-6.3125 5.0625 -6.3125 5.0625 -5 3 C-2.375 2.25 -2.375 2.25 0 2 C0 1.34 0 0.68 0 0 Z " fill="#E6E6E7" transform="translate(95,28)"/>
<path d="M0 0 C0.66 0.33 1.32 0.66 2 1 C0.44844789 5.74085366 0.44844789 5.74085366 -1 8 C-4.37278456 9.24646386 -6.24153096 9.21166578 -9.6875 8.25 C-11.90775862 7.04986021 -13.35933173 5.89972115 -15 4 C-12 4 -12 4 -10 5 C-8.62657169 5.0689472 -7.24997898 5.08467708 -5.875 5.0625 C-4.59625 5.041875 -3.3175 5.02125 -2 5 C-2 4.01 -2 3.02 -2 2 C-1.34 2 -0.68 2 0 2 C0 1.34 0 0.68 0 0 Z " fill="#949293" transform="translate(110,149)"/>
<path d="M0 0 C8.55511612 3.68854894 14.63083291 12.69724219 20 20 C19.34 20.66 18.68 21.32 18 22 C17.3709375 21.154375 16.741875 20.30875 16.09375 19.4375 C11.52176086 13.35705936 6.95849369 7.62103359 1.3984375 2.390625 C0.93695313 1.93171875 0.47546875 1.4728125 0 1 C0 0.67 0 0.34 0 0 Z " fill="#737273" transform="translate(193,49)"/>
<path d="M0 0 C0 0.66 0 1.32 0 2 C-2.76203532 3.53723734 -5.53585152 5.05184161 -8.3125 6.5625 C-9.09818359 7.00013672 -9.88386719 7.43777344 -10.69335938 7.88867188 C-11.45068359 8.29794922 -12.20800781 8.70722656 -12.98828125 9.12890625 C-14.03302612 9.70233765 -14.03302612 9.70233765 -15.09887695 10.28735352 C-17 11 -17 11 -20 10 C-17.1625816 7.61656855 -14.29912288 6.21548513 -10.875 4.828125 C-8.88513855 3.94926953 -7.0589229 2.91975855 -5.1875 1.8125 C-2 0 -2 0 0 0 Z " fill="#8F8E8F" transform="translate(184,213)"/>
<path d="M0 0 C0.33 0.66 0.66 1.32 1 2 C-1.375 2.625 -1.375 2.625 -4 3 C-4.66 2.34 -5.32 1.68 -6 1 C-8.9425963 1.30652045 -11.34542308 1.67271154 -14 3 C-14.33 2.34 -14.66 1.68 -15 1 C-15.66 1 -16.32 1 -17 1 C-17 0.34 -17 -0.32 -17 -1 C-5.12676056 -2.56338028 -5.12676056 -2.56338028 0 0 Z " fill="#BBBBBC" transform="translate(189,87)"/>
<path d="M0 0 C0 0.66 0 1.32 0 2 C-2.41626418 2.19534474 -4.83265229 2.38153404 -7.25 2.5625 C-7.93191406 2.61857422 -8.61382812 2.67464844 -9.31640625 2.73242188 C-12.7420581 2.98186254 -15.72701177 3.13879745 -19 2 C-19 1.34 -19 0.68 -19 0 C-12.46837378 -1.10914408 -6.56492112 -0.78441153 0 0 Z " fill="#E0E0E0" transform="translate(82,84)"/>
<path d="M0 0 C1.48831242 0.00667405 2.97660807 0.01863442 4.46484375 0.03515625 C5.22345703 0.03966797 5.98207031 0.04417969 6.76367188 0.04882812 C8.64326246 0.06064945 10.52281274 0.07858547 12.40234375 0.09765625 C12.40234375 1.08765625 12.40234375 2.07765625 12.40234375 3.09765625 C11.850625 2.93394531 11.29890625 2.77023438 10.73046875 2.6015625 C8.13620368 2.04005211 5.80398964 2.00026617 3.15234375 2.03515625 C1.81429687 2.04869141 1.81429687 2.04869141 0.44921875 2.0625 C-0.22625 2.07410156 -0.90171875 2.08570312 -1.59765625 2.09765625 C-3.07844105 5.05922585 -2.95079662 7.9327192 -3.16015625 11.22265625 C-3.24394531 12.50398438 -3.32773438 13.7853125 -3.4140625 15.10546875 C-3.47464844 16.09289062 -3.53523437 17.0803125 -3.59765625 18.09765625 C-3.92765625 18.09765625 -4.25765625 18.09765625 -4.59765625 18.09765625 C-4.62449937 15.28509344 -4.64441813 12.47278384 -4.66015625 9.66015625 C-4.66853516 8.85771484 -4.67691406 8.05527344 -4.68554688 7.22851562 C-4.69417055 5.18470404 -4.64993775 3.14081723 -4.59765625 1.09765625 C-3.59765625 0.09765625 -3.59765625 0.09765625 0 0 Z " fill="#5C5A5B" transform="translate(169.59765625,99.90234375)"/>
<path d="M0 0 C-4.04481931 4.04481931 -10.00064897 4.8922242 -15.55078125 5.19140625 C-18.7060693 5.18795785 -21.84771143 5.13340406 -25 5 C-25 4.67 -25 4.34 -25 4 C-23.79601562 3.79503906 -22.59203125 3.59007812 -21.3515625 3.37890625 C-19.77601308 3.10693641 -18.20049379 2.83479193 -16.625 2.5625 C-15.8309375 2.42779297 -15.036875 2.29308594 -14.21875 2.15429688 C-1.61617136 -0.03513416 -1.61617136 -0.03513416 0 0 Z " fill="#868485" transform="translate(164,224)"/>
<path d="M0 0 C1.65 0 3.3 0 5 0 C3.98059612 2.7801924 3.30279713 3.82814217 0.6875 5.3125 C-2.3308575 6.08463797 -4.02063625 5.78404309 -7 5 C-7.99 5 -8.98 5 -10 5 C-6.99382731 1.99382731 -4.17618402 2.40414684 0 2 C0 1.34 0 0.68 0 0 Z " fill="#888788" transform="translate(186,134)"/>
<path d="M0 0 C0 0.66 0 1.32 0 2 C0.66 2.33 1.32 2.66 2 3 C1.67 5.64 1.34 8.28 1 11 C-0.70840281 9.36587557 -1.93453047 8.13093906 -3 6 C-3.66 6 -4.32 6 -5 6 C-4.625 3.5625 -4.625 3.5625 -4 1 C-2 0 -2 0 0 0 Z " fill="#999899" transform="translate(161,127)"/>
<path d="M0 0 C0.33 0 0.66 0 1 0 C1 3.96 1 7.92 1 12 C0.34 12 -0.32 12 -1 12 C-1.2475 12.9075 -1.495 13.815 -1.75 14.75 C-3.03981342 18.10351489 -4.31971042 19.67708236 -7 22 C-7 19 -7 19 -5.1875 16.0625 C-2.19606787 11.12291101 -1.21111105 5.58762599 0 0 Z " fill="#2E2C2D" transform="translate(201,105)"/>
<path d="M0 0 C0.66 0 1.32 0 2 0 C1.55397709 6.69034366 -1.07345542 12.02812122 -4 18 C-4.66 17.67 -5.32 17.34 -6 17 C-4.02 11.39 -2.04 5.78 0 0 Z " fill="#282627" transform="translate(113,128)"/>
<path d="M0 0 C5.44009389 0.32245298 8.45725252 3.58840984 12.3125 7.0625 C12.95767578 7.63033203 13.60285156 8.19816406 14.26757812 8.78320312 C15.85255763 10.18033321 17.42731117 11.58904913 19 13 C18.67 13.66 18.34 14.32 18 15 C17.20335937 14.32453125 16.40671875 13.6490625 15.5859375 12.953125 C14.51576005 12.05192294 13.4454399 11.15089032 12.375 10.25 C11.85292969 9.8065625 11.33085937 9.363125 10.79296875 8.90625 C8.1476271 6.68546935 5.49907702 4.61835564 2.6015625 2.734375 C1.74304688 2.16203125 0.88453125 1.5896875 0 1 C0 0.67 0 0.34 0 0 Z " fill="#6D6C6D" transform="translate(174,51)"/>
<path d="M0 0 C1.29522558 3.58677852 0.70762204 5.53550702 -0.75 9 C-1.09546875 9.845625 -1.4409375 10.69125 -1.796875 11.5625 C-2.97968777 13.95884794 -4.3271744 15.92338891 -6 18 C-5.55397709 11.30965634 -2.92654458 5.97187878 0 0 Z " fill="#4B494A" transform="translate(223,159)"/>
<path d="M0 0 C1.65 0.33 3.3 0.66 5 1 C5 1.66 5 2.32 5 3 C-4.22551253 7.59225513 -4.22551253 7.59225513 -10 7 C-9.34 6.01 -8.68 5.02 -8 4 C-8 4.66 -8 5.32 -8 6 C-6.35 5.67 -4.7 5.34 -3 5 C-3 4.34 -3 3.68 -3 3 C-2.34 3 -1.68 3 -1 3 C-0.67 2.01 -0.34 1.02 0 0 Z " fill="#A1A0A1" transform="translate(165,203)"/>
<path d="M0 0 C0.33 0.66 0.66 1.32 1 2 C0.34 1.67 -0.32 1.34 -1 1 C-0.67 0.67 -0.34 0.34 0 0 Z M-3 2 C-2.34 2 -1.68 2 -1 2 C-1.08047228 4.8165298 -1.47561721 6.48909749 -3.51953125 8.48046875 C-6.95445919 11.06208827 -6.95445919 11.06208827 -9 12 C-9.99 11.67 -10.98 11.34 -12 11 C-10.68 10.67 -9.36 10.34 -8 10 C-7.67 8.68 -7.34 7.36 -7 6 C-6.01 6 -5.02 6 -4 6 C-3.67 4.68 -3.34 3.36 -3 2 Z " fill="#A6A6A6" transform="translate(189,187)"/>
<path d="M0 0 C1.98 0 3.96 0 6 0 C4.64531705 4.87685861 2.28324091 6.48592381 -2 9 C-2.20140476 5.37471432 -1.85776765 3.13498292 0 0 Z " fill="#989798" transform="translate(128,169)"/>
<path d="M0 0 C0 0.66 0 1.32 0 2 C-1.01320312 2.18175781 -1.01320312 2.18175781 -2.046875 2.3671875 C-2.93890625 2.53476563 -3.8309375 2.70234375 -4.75 2.875 C-6.07257813 3.11863281 -6.07257813 3.11863281 -7.421875 3.3671875 C-9.99345289 3.8924719 -9.99345289 3.8924719 -12.125 5.09375 C-14.91350265 6.44152628 -17.06391712 5.66729156 -20 5 C-16.59733941 2.73155961 -13.9907882 2.19810007 -10 1.375 C-8.14375 0.98441406 -8.14375 0.98441406 -6.25 0.5859375 C-3 0 -3 0 0 0 Z " fill="#A09FA0" transform="translate(157,214)"/>
<path d="M0 0 C0.99 0.33 1.98 0.66 3 1 C2.3503125 1.5259375 2.3503125 1.5259375 1.6875 2.0625 C-0.68358456 4.78485635 -1.6716835 7.64758216 -3 11 C-3.33 10.01 -3.66 9.02 -4 8 C-6.01508358 7.26676204 -6.01508358 7.26676204 -8 7 C-7.01 7 -6.02 7 -5 7 C-5 6.01 -5 5.02 -5 4 C-2.6875 1.75 -2.6875 1.75 0 0 Z " fill="#8B898B" transform="translate(199,126)"/>
<path d="M0 0 C1.31600093 3.94800278 0.07613159 6.39940306 -1.3125 10.125 C-1.53873047 10.77082031 -1.76496094 11.41664063 -1.99804688 12.08203125 C-3.73948991 16.86974496 -3.73948991 16.86974496 -6 18 C-3.609375 5.25 -3.609375 5.25 0 0 Z " fill="#797778" transform="translate(112,128)"/>
<path d="M0 0 C0.99 0.33 1.98 0.66 3 1 C4.2077558 4.62326739 3.54311128 5.64146369 2 9 C0.35 8.67 -1.3 8.34 -3 8 C-3 7.01 -3 6.02 -3 5 C-2.34 5 -1.68 5 -1 5 C-0.67 3.35 -0.34 1.7 0 0 Z " fill="#949393" transform="translate(204,116)"/>
<path d="M0 0 C1.19587778 3.58763335 0.68815865 5.03021679 -0.3125 8.625 C-0.57675781 9.60726562 -0.84101562 10.58953125 -1.11328125 11.6015625 C-2 14 -2 14 -4 15 C-4.50610724 8.92671312 -3.04157942 5.22771463 0 0 Z " fill="#3C3A3B" transform="translate(44,93)"/>
<path d="M0 0 C4.95 0 9.9 0 15 0 C15.66 1.32 16.32 2.64 17 4 C16.01 3.67 15.02 3.34 14 3 C11.60745424 2.77439324 9.21071877 2.59151405 6.8125 2.4375 C5.54019531 2.35371094 4.26789063 2.26992187 2.95703125 2.18359375 C1.98121094 2.12300781 1.00539062 2.06242187 0 2 C0 1.34 0 0.68 0 0 Z " fill="#7F7E7F" transform="translate(163,95)"/>
<path d="M0 0 C0.33 0 0.66 0 1 0 C1 2.97 1 5.94 1 9 C-3.62 9.33 -8.24 9.66 -13 10 C-13 9.34 -13 8.68 -13 8 C-11.1746875 7.7834375 -11.1746875 7.7834375 -9.3125 7.5625 C-6.17329623 7.17219047 -3.0924866 6.67648144 0 6 C0 4.02 0 2.04 0 0 Z " fill="#7F7D7E" transform="translate(76,147)"/>
<path d="M0 0 C0.66 0.33 1.32 0.66 2 1 C2 6.48662694 1.62124186 11.14111265 -1 16 C-1.02685095 13.52076199 -1.04676547 11.0418116 -1.0625 8.5625 C-1.07506836 7.50192383 -1.07506836 7.50192383 -1.08789062 6.41992188 C-1.09653588 4.61306441 -1.05220011 2.80612397 -1 1 C-0.67 0.67 -0.34 0.34 0 0 Z " fill="#AAAAAA" transform="translate(126,137)"/>
<path d="M0 0 C0.33 1.32 0.66 2.64 1 4 C1.639375 4.12375 2.27875 4.2475 2.9375 4.375 C3.618125 4.58125 4.29875 4.7875 5 5 C5.33 5.66 5.66 6.32 6 7 C4.41375765 6.57316761 2.8310902 6.13303842 1.25 5.6875 C0.36828125 5.44386719 -0.5134375 5.20023438 -1.421875 4.94921875 C-4.05772505 3.97874669 -5.85407326 2.78994356 -8 1 C-6.35 1 -4.7 1 -3 1 C-3 1.66 -3 2.32 -3 3 C-2.34 3 -1.68 3 -1 3 C-0.67 2.01 -0.34 1.02 0 0 Z " fill="#848283" transform="translate(93,216)"/>
<path d="M0 0 C0.93423645 3.01031744 1.04449911 3.86650268 0 7 C-2.78462997 10.01041078 -5.64675101 12.64030627 -9 15 C-7.38325319 11.57053707 -5.42402323 8.43736948 -3.375 5.25 C-2.74335938 4.26515625 -2.11171875 3.2803125 -1.4609375 2.265625 C-0.97882813 1.51796875 -0.49671875 0.7703125 0 0 Z " fill="#9F9E9F" transform="translate(207,170)"/>
<path d="M0 0 C-0.33 1.32 -0.66 2.64 -1 4 C-1 3.34 -1 2.68 -1 2 C-3.53744315 2.54708727 -3.53744315 2.54708727 -6 4 C-6.89830839 7.05272465 -6.89830839 7.05272465 -7 10 C-7.33 10 -7.66 10 -8 10 C-8.36272727 3.59181818 -8.36272727 3.59181818 -6.8125 1.0625 C-4.43958382 -0.32851983 -2.70313576 -0.21917317 0 0 Z " fill="#818081" transform="translate(175,137)"/>
<path d="M0 0 C0.66 0 1.32 0 2 0 C7.55580866 11.52164009 7.55580866 11.52164009 8 17 C5.57558606 14.57558606 4.41255096 12.12646026 2.875 9.0625 C2.33617187 8.00160156 1.79734375 6.94070312 1.2421875 5.84765625 C0 3 0 3 0 0 Z " fill="#929192" transform="translate(205,84)"/>
<path d="M0 0 C5.73842251 -0.20413361 10.60539047 -0.27141454 16 2 C15.67 3.32 15.34 4.64 15 6 C14.34 5.67 13.68 5.34 13 5 C13 4.34 13 3.68 13 3 C8.71 2.34 4.42 1.68 0 1 C0 0.67 0 0.34 0 0 Z " fill="#757375" transform="translate(168,101)"/>
<path d="M0 0 C1 3 1 3 -0.21484375 5.69921875 C-0.78332031 6.68535156 -1.35179687 7.67148438 -1.9375 8.6875 C-2.50339844 9.68136719 -3.06929687 10.67523438 -3.65234375 11.69921875 C-4.31943359 12.83810547 -4.31943359 12.83810547 -5 14 C-6 11 -6 11 -5.0390625 8.5546875 C-4.57242188 7.67039063 -4.10578125 6.78609375 -3.625 5.875 C-3.16351563 4.98554688 -2.70203125 4.09609375 -2.2265625 3.1796875 C-1 1 -1 1 0 0 Z " fill="#6D6C6D" transform="translate(220,163)"/>
<path d="M0 0 C1.11581881 4.46327524 0.68986512 5.60761606 -0.9375 9.75 C-1.31777344 10.73484375 -1.69804687 11.7196875 -2.08984375 12.734375 C-2.39019531 13.48203125 -2.69054687 14.2296875 -3 15 C-3.99 15 -4.98 15 -6 15 C-4.02 10.05 -2.04 5.1 0 0 Z " fill="#CECECF" transform="translate(212,154)"/>
<path d="M0 0 C2 3 2 3 1.6875 5.75 C1.460625 6.8225 1.23375 7.895 1 9 C0.66140041 11.33257494 0.3267961 13.66574212 0 16 C-0.33 16 -0.66 16 -1 16 C-1.02685095 13.52076199 -1.04676547 11.0418116 -1.0625 8.5625 C-1.07506836 7.50192383 -1.07506836 7.50192383 -1.08789062 6.41992188 C-1.09653588 4.61306441 -1.05220011 2.80612397 -1 1 C-0.67 0.67 -0.34 0.34 0 0 Z " fill="#767475" transform="translate(81,114)"/>
<path d="M0 0 C1.32 0.99 2.64 1.98 4 3 C3.67 4.32 3.34 5.64 3 7 C2.34 6.34 1.68 5.68 1 5 C-1.58354218 4.83312552 -1.58354218 4.83312552 -4 5 C-2.25 1.125 -2.25 1.125 0 0 Z " fill="#ADACAD" transform="translate(190,88)"/>
<path d="M0 0 C-2.57146057 2.57146057 -4.6050417 2.80117997 -8.125 3.625 C-9.76855469 4.01558594 -9.76855469 4.01558594 -11.4453125 4.4140625 C-12.28835937 4.60742188 -13.13140625 4.80078125 -14 5 C-9.10666796 -0.05644311 -6.85563609 -0.11057478 0 0 Z " fill="#9D9C9D" transform="translate(109,37)"/>
<path d="M0 0 C2.02408755 0.09002398 4.04544287 0.24641038 6.0625 0.4375 C7.71958984 0.59025391 7.71958984 0.59025391 9.41015625 0.74609375 C10.26480469 0.82988281 11.11945313 0.91367188 12 1 C11 3 11 3 8.1875 4.25 C5 5 5 5 2.75 4.25 C1 3 1 3 -1 1 C-0.67 0.67 -0.34 0.34 0 0 Z " fill="#8D8C8D" transform="translate(125,159)"/>
<path d="M0 0 C0.33 0 0.66 0 1 0 C1.02692484 2.29160319 1.04636124 4.58329546 1.0625 6.875 C1.07410156 8.15117188 1.08570313 9.42734375 1.09765625 10.7421875 C1 14 1 14 0 16 C-0.66 16 -1.32 16 -2 16 C-2.33 16.66 -2.66 17.32 -3 18 C-3.33 17.01 -3.66 16.02 -4 15 C-2.68 14.34 -1.36 13.68 0 13 C0 8.71 0 4.42 0 0 Z " fill="#848283" transform="translate(199,101)"/>
<path d="M0 0 C0.33 0.66 0.66 1.32 1 2 C1.66 2 2.32 2 3 2 C5.125 6.625 5.125 6.625 4 10 C3.67 9.34 3.34 8.68 3 8 C2.01 8.495 2.01 8.495 1 9 C0.67 6.03 0.34 3.06 0 0 Z " fill="#CBCBCB" transform="translate(29,155)"/>
<path d="M0 0 C0.33 1.32 0.66 2.64 1 4 C-1.79870027 5.39935013 -3.90498792 5.25265405 -7 5 C-8.875 3.5 -8.875 3.5 -10 2 C-8.72125 2.04125 -7.4425 2.0825 -6.125 2.125 C-3.98128508 2.24212873 -3.98128508 2.24212873 -2 2 C-1.34 1.34 -0.68 0.68 0 0 Z " fill="#6F6E6F" transform="translate(107,150)"/>
<path d="M0 0 C0.66 0 1.32 0 2 0 C1.67 2.31 1.34 4.62 1 7 C-1.31 7 -3.62 7 -6 7 C-5.67 6.34 -5.34 5.68 -5 5 C-4.01 5.33 -3.02 5.66 -2 6 C-1.34 4.02 -0.68 2.04 0 0 Z " fill="#A1A0A1" transform="translate(104,142)"/>
<path d="M0 0 C0.33 0 0.66 0 1 0 C1 2.31 1 4.62 1 7 C0.01 7 -0.98 7 -2 7 C-2 7.99 -2 8.98 -2 10 C-2.66 10 -3.32 10 -4 10 C-3.33333333 7.33333333 -2.66666667 4.66666667 -2 2 C-1.34 2 -0.68 2 0 2 C0 1.34 0 0.68 0 0 Z " fill="#797879" transform="translate(122,118)"/>
<path d="M0 0 C-1.65 0.66 -3.3 1.32 -5 2 C-5 2.66 -5 3.32 -5 4 C-6.8125 4.625 -6.8125 4.625 -9 5 C-9.99 4.34 -10.98 3.68 -12 3 C-10.5682384 2.30062798 -9.12932968 1.61587282 -7.6875 0.9375 C-6.48673828 0.36322266 -6.48673828 0.36322266 -5.26171875 -0.22265625 C-3 -1 -3 -1 0 0 Z " fill="#F2F3F3" transform="translate(95,30)"/>
<path d="M0 0 C0.33 0.99 0.66 1.98 1 3 C-1.31 5.31 -3.62 7.62 -6 10 C-6.99 9.67 -7.98 9.34 -9 9 C-8.51789063 8.60167969 -8.03578125 8.20335937 -7.5390625 7.79296875 C-6.90742188 7.26316406 -6.27578125 6.73335937 -5.625 6.1875 C-4.99851563 5.66542969 -4.37203125 5.14335937 -3.7265625 4.60546875 C-1.7778952 2.91774261 -1.7778952 2.91774261 0 0 Z " fill="#8A898A" transform="translate(203,195)"/>
<path d="M0 0 C0.33 0 0.66 0 1 0 C1 1.65 1 3.3 1 5 C-2.82989106 6.80230168 -5.78121808 7.19622241 -10 7 C-7.92506906 5.88842985 -6.20564274 5.03628989 -3.875 4.625 C-1.78940378 4.15459658 -1.78940378 4.15459658 -0.75 1.9375 C-0.37875 0.9784375 -0.37875 0.9784375 0 0 Z " fill="#AAAAAB" transform="translate(75,148)"/>
<path d="M0 0 C0.33 0 0.66 0 1 0 C1.02691685 2.45840605 1.04679802 4.91651882 1.0625 7.375 C1.07087891 8.07367188 1.07925781 8.77234375 1.08789062 9.4921875 C1.11328125 14.7734375 1.11328125 14.7734375 0 17 C-0.66 17 -1.32 17 -2 17 C-2 15.68 -2 14.36 -2 13 C-1.34 13 -0.68 13 0 13 C0 8.71 0 4.42 0 0 Z " fill="#7F7E7F" transform="translate(203,104)"/>
<path d="M0 0 C4.51478398 0.53115106 7.34666857 2.36620292 11 5 C9 6 9 6 6.8359375 5.44140625 C6.02382812 5.15136719 5.21171875 4.86132812 4.375 4.5625 C3.55773437 4.27503906 2.74046875 3.98757812 1.8984375 3.69140625 C1.27195313 3.46324219 0.64546875 3.23507813 0 3 C0 2.01 0 1.02 0 0 Z " fill="#BEBEBE" transform="translate(173,38)"/>
<path d="M0 0 C3.72433382 1.2125738 7.37802806 2.50859979 11 4 C9.02 4.99 9.02 4.99 7 6 C1.125 2.25 1.125 2.25 0 0 Z " fill="#5B595A" transform="translate(71,211)"/>
<path d="M0 0 C-1 2 -1 2 -3.75 3.125 C-6.70186896 3.91973395 -8.97219837 4.17810598 -12 4 C-8.59914501 0.59914501 -4.67235329 -1.5574511 0 0 Z " fill="#CFCFCF" transform="translate(166,209)"/>
<path d="M0 0 C4.81690742 1.7746501 6.82641707 3.3423223 9 8 C4.12314139 6.64531705 2.51407619 4.28324091 0 0 Z " fill="#807F80" transform="translate(65,207)"/>
<path d="M0 0 C0.66 0 1.32 0 2 0 C1.8125 2.875 1.8125 2.875 1 6 C-1.5625 7.375 -1.5625 7.375 -4 8 C-2.87548273 5.0280615 -1.77706209 2.66559313 0 0 Z " fill="#979697" transform="translate(214,130)"/>
<path d="M0 0 C1.78409802 3.06246747 2.22880021 5.22079273 2.125 8.75 C2.10695312 9.54921875 2.08890625 10.3484375 2.0703125 11.171875 C2.04710937 11.77515625 2.02390625 12.3784375 2 13 C-0.80390987 10.19609013 -0.66520791 7.88358829 -1 4 C-0.5625 1.5625 -0.5625 1.5625 0 0 Z " fill="#7F7E7F" transform="translate(226,107)"/>
<path d="M0 0 C1.98 0 3.96 0 6 0 C6.33 0.99 6.66 1.98 7 3 C8.32303717 3.3721042 9.65737935 3.70630173 11 4 C11.33 4.66 11.66 5.32 12 6 C7.76570244 4.68938409 3.92592596 3.05643741 0 1 C0 0.67 0 0.34 0 0 Z " fill="#8C8B8C" transform="translate(162,43)"/>
<path d="M0 0 C2.41486943 2.41486943 2.2961925 3.12707789 2.3125 6.4375 C2.32925781 7.21996094 2.34601563 8.00242188 2.36328125 8.80859375 C1.92353251 11.46127163 1.04371546 12.322967 -1 14 C-1.66 13.67 -2.32 13.34 -3 13 C-2.34 12.01 -1.68 11.02 -1 10 C-0.54398739 7.49103314 -0.54398739 7.49103314 -0.375 4.8125 C-0.30023438 3.91144531 -0.22546875 3.01039063 -0.1484375 2.08203125 C-0.09945312 1.39496094 -0.05046875 0.70789063 0 0 Z " fill="#828182" transform="translate(166,147)"/>
<path d="M0 0 C0.33 0 0.66 0 1 0 C1 2.64 1 5.28 1 8 C-0.98 8.99 -0.98 8.99 -3 10 C-2.69201674 8.51988629 -2.378482 7.04092675 -2.0625 5.5625 C-1.88847656 4.73878906 -1.71445313 3.91507813 -1.53515625 3.06640625 C-1 1 -1 1 0 0 Z " fill="#9E9D9E" transform="translate(211,148)"/>
<path d="M0 0 C0.33 0 0.66 0 1 0 C1.29296875 6.0546875 1.29296875 6.0546875 1 8 C0.01 8.66 -0.98 9.32 -2 10 C-2.17942163 6.05272412 -2.09350689 3.4019487 0 0 Z " fill="#666466" transform="translate(200,117)"/>
<path d="M0 0 C0.99 0.33 1.98 0.66 3 1 C2.67 4.96 2.34 8.92 2 13 C1.67 13 1.34 13 1 13 C0.67 8.71 0.34 4.42 0 0 Z " fill="#ECECED" transform="translate(25,109)"/>
<path d="M0 0 C0.99 0.33 1.98 0.66 3 1 C1.02 2.98 -0.96 4.96 -3 7 C-3.99 6.67 -4.98 6.34 -6 6 C-4.02 4.02 -2.04 2.04 0 0 Z " fill="#302E2F" transform="translate(66,60)"/>
<path d="M0 0 C1.98 0.66 3.96 1.32 6 2 C3.31158141 4.25245881 1.35358125 5.88213958 -2 7 C-2 6.34 -2 5.68 -2 5 C-1.34 4.67 -0.68 4.34 0 4 C-0.33 3.34 -0.66 2.68 -1 2 C-0.67 1.34 -0.34 0.68 0 0 Z " fill="#E5E5E5" transform="translate(82,33)"/>
<path d="M0 0 C1.32 0.66 2.64 1.32 4 2 C-0.75 6 -0.75 6 -3 6 C-3 3 -3 3 -1.5 1.3125 C-0.7575 0.6628125 -0.7575 0.6628125 0 0 Z " fill="#757374" transform="translate(186,204)"/>
<path d="M0 0 C2.625 0.9375 2.625 0.9375 5 2 C3.25 3.5625 3.25 3.5625 1 5 C-1.25 4.6875 -1.25 4.6875 -3 4 C-2.67 3.01 -2.34 2.02 -2 1 C-1.34 0.67 -0.68 0.34 0 0 Z " fill="#858384" transform="translate(196,191)"/>
<path d="M0 0 C2.66735273 2.48952921 4.55746343 4.63408134 6 8 C4.125 7.6875 4.125 7.6875 2 7 C0 4 0 4 0 0 Z " fill="#A3A2A3" transform="translate(38,176)"/>
<path d="M0 0 C1.53690745 2.41040161 2.09752136 3.50082285 1.5390625 6.359375 C1.23742187 7.14828125 0.93578125 7.9371875 0.625 8.75 C0.32851562 9.54921875 0.03203125 10.3484375 -0.2734375 11.171875 C-0.51320312 11.77515625 -0.75296875 12.3784375 -1 13 C-1.33 13 -1.66 13 -2 13 C-1.85851011 11.3954444 -1.71164314 9.79136233 -1.5625 8.1875 C-1.48128906 7.29417969 -1.40007812 6.40085938 -1.31640625 5.48046875 C-1 3 -1 3 0 0 Z " fill="#A3A2A3" transform="translate(217,140)"/>
<path d="M0 0 C-0.39803561 2.88575819 -0.79009069 3.82189513 -3.0625 5.75 C-3.701875 6.1625 -4.34125 6.575 -5 7 C-5.33 6.01 -5.66 5.02 -6 4 C-2.25 0 -2.25 0 0 0 Z " fill="#979697" transform="translate(190,120)"/>
<path d="M0 0 C2 3 2 3 1.7578125 5.26171875 C1.54898438 6.06222656 1.34015625 6.86273438 1.125 7.6875 C0.92132813 8.49574219 0.71765625 9.30398437 0.5078125 10.13671875 C0.25644531 11.05904297 0.25644531 11.05904297 0 12 C-0.15082031 11.38125 -0.30164062 10.7625 -0.45703125 10.125 C-0.96842838 8.00418549 -0.96842838 8.00418549 -1.6875 6 C-2.09205762 3.41083122 -1.33413341 2.19739621 0 0 Z " fill="#5F5D5E" transform="translate(45,88)"/>
<path d="M0 0 C-3.33333333 1.66666667 -6.66666667 3.33333333 -10 5 C-9.875 3.125 -9.875 3.125 -9 1 C-5.3931275 -0.64661571 -3.8148779 -1.27162597 0 0 Z " fill="#A09FA0" transform="translate(88,46)"/>
<path d="M0 0 C0.33 0.66 0.66 1.32 1 2 C1.66 2.33 2.32 2.66 3 3 C2.01 4.32 1.02 5.64 0 7 C-0.66 6.67 -1.32 6.34 -2 6 C-1.125 1.125 -1.125 1.125 0 0 Z " fill="#939293" transform="translate(141,206)"/>
<path d="M0 0 C3.7952131 1.49097658 5.61042731 3.75700849 8 7 C5.33333333 5.66666667 2.66666667 4.33333333 0 3 C0 2.01 0 1.02 0 0 Z " fill="#7A797A" transform="translate(55,198)"/>
<path d="M0 0 C0.66 0 1.32 0 2 0 C1.67 1.98 1.34 3.96 1 6 C0.01 6 -0.98 6 -2 6 C-2.66 6.66 -3.32 7.32 -4 8 C-3.40312566 4.65750371 -2.26396123 2.53563658 0 0 Z " fill="#9F9E9F" transform="translate(120,130)"/>
<path d="M0 0 C0.33 0.66 0.66 1.32 1 2 C1.99 2.33 2.98 2.66 4 3 C4 5.31 4 7.62 4 10 C1.7448078 7.7448078 1.02276532 5.9952413 0 3 C0 2.01 0 1.02 0 0 Z " fill="#9E9D9E" transform="translate(93,105)"/>
<path d="M0 0 C0 3.3 0 6.6 0 10 C-2.76223278 7.23776722 -2.57856291 4.79293383 -3 1 C-1 0 -1 0 0 0 Z " fill="#969596" transform="translate(199,104)"/>
<path d="M0 0 C-2.95183101 2.95183101 -5.95511947 3.08663988 -10 4 C-10 3.34 -10 2.68 -10 2 C-6.5980513 -0.09350689 -3.94727588 -0.17942163 0 0 Z " fill="#A3A2A3" transform="translate(164,224)"/>
<path d="M0 0 C0.66 0 1.32 0 2 0 C0.60667426 3.36720387 -0.9789286 4.9859524 -4 7 C-3.67 5.35 -3.34 3.7 -3 2 C-2.01 2 -1.02 2 0 2 C0 1.34 0 0.68 0 0 Z " fill="#737172" transform="translate(201,192)"/>
<path d="M0 0 C0.99 0 1.98 0 3 0 C1.8141763 3.37503669 0.72426311 5.64722731 -2 8 C-2 6.35 -2 4.7 -2 3 C-1.34 3 -0.68 3 0 3 C0 2.01 0 1.02 0 0 Z " fill="#6D6C6D" transform="translate(211,177)"/>
<path d="M0 0 C0.4125 0.45375 0.825 0.9075 1.25 1.375 C3.06408095 3.05950374 4.75285627 3.99265971 7 5 C6.01 5.66 5.02 6.32 4 7 C4 6.34 4 5.68 4 5 C2.68 5.33 1.36 5.66 0 6 C0 4.02 0 2.04 0 0 Z " fill="#939293" transform="translate(148,158)"/>
<path d="M0 0 C1.10844919 3.32534757 0.84454356 5.62182575 0 9 C-0.99 8.34 -1.98 7.68 -3 7 C-2.67 5.35 -2.34 3.7 -2 2 C-1.34 2 -0.68 2 0 2 C0 1.34 0 0.68 0 0 Z " fill="#DDDEDE" transform="translate(29,105)"/>
<path d="M0 0 C3.99996286 1.33332095 4.83782337 3.4957827 7 7 C6.67 7.66 6.34 8.32 6 9 C4.99406757 7.8803014 3.9954151 6.7540588 3 5.625 C2.443125 4.99851562 1.88625 4.37203125 1.3125 3.7265625 C0 2 0 2 0 0 Z " fill="#7E7C7D" transform="translate(193,66)"/>
<path d="M0 0 C0.66 0 1.32 0 2 0 C4 2 4 2 4 5 C3.34 5.66 2.68 6.32 2 7 C0.5393715 4.35261084 0 3.10551666 0 0 Z " fill="#C6C5C6" transform="translate(32,166)"/>
<path d="M0 0 C0.99 0 1.98 0 3 0 C3 0.99 3 1.98 3 3 C0.36 3.33 -2.28 3.66 -5 4 C-4.34 3.34 -3.68 2.68 -3 2 C-2.01 2 -1.02 2 0 2 C0 1.34 0 0.68 0 0 Z " fill="#6E6C6E" transform="translate(191,130)"/>
<path d="M0 0 C2.64752004 2.57784846 4.94432065 4.91648098 7 8 C6.01 8 5.02 8 4 8 C0 2.74285714 0 2.74285714 0 0 Z " fill="#666465" transform="translate(206,62)"/>
<path d="M0 0 C3.78786597 0.5260925 6.17152224 1.38103911 9 4 C9 4.66 9 5.32 9 6 C5.06326356 4.68775452 2.77280706 3.08089673 0 0 Z " fill="#5F5D5E" transform="translate(174,51)"/>
<path d="M0 0 C0 0.66 0 1.32 0 2 C-2.95664519 3.4783226 -5.74229737 3.06032783 -9 3 C-6.15236477 0.15236477 -3.96383452 0 0 0 Z " fill="#A6A5A6" transform="translate(97,46)"/>
</svg>
