<?xml version="1.0" encoding="UTF-8"?>
<svg version="1.1" xmlns="http://www.w3.org/2000/svg" width="256" height="256">
<path d="M0 0 C0.70382813 0.60070312 1.40765625 1.20140625 2.1328125 1.8203125 C2.91914063 2.46226563 3.70546875 3.10421875 4.515625 3.765625 C20.70367173 17.51785279 31.15597298 35.62121251 37.1328125 55.8203125 C37.47441406 56.96371094 37.81601563 58.10710937 38.16796875 59.28515625 C44.80618578 86.23940492 39.77894929 115.39937442 26.15234375 139.29296875 C24.25091946 142.23429375 22.25519296 145.03494081 20.1328125 147.8203125 C19.44574219 148.73941406 18.75867188 149.65851563 18.05078125 150.60546875 C2.63153183 170.35877747 -18.60191475 183.67681469 -42.8671875 189.8203125 C-43.73601562 190.04589844 -44.60484375 190.27148438 -45.5 190.50390625 C-73.09903218 196.33752092 -101.20595884 189.36839973 -124.8671875 174.8203125 C-128.41153078 172.36343818 -131.64328067 169.68089015 -134.8671875 166.8203125 C-135.84429687 165.98628906 -136.82140625 165.15226563 -137.828125 164.29296875 C-156.91727767 147.71626104 -170.4813499 123.24219662 -172.8671875 97.8203125 C-175.04581992 64.36147797 -166.3164008 35.76705586 -144.1796875 10.2578125 C-129.49747856 -5.40321037 -110.64245384 -15.32010017 -89.8671875 -20.1796875 C-88.90425781 -20.42332031 -87.94132812 -20.66695312 -86.94921875 -20.91796875 C-57.18094682 -27.23245067 -23.45763456 -19.30277678 0 0 Z " fill="#A9722F" transform="translate(193.8671875,41.1796875)"/>
<path d="M0 0 C6.27 0 12.54 0 19 0 C23.50071327 6.7510699 23.50071327 6.7510699 24.78125 10.13671875 C25.06395752 10.8738208 25.34666504 11.61092285 25.63793945 12.37036133 C25.92241943 13.13501709 26.20689941 13.89967285 26.5 14.6875 C26.80188232 15.48115967 27.10376465 16.27481934 27.41479492 17.0925293 C29.38433996 22.28948452 31.31240592 27.50228088 33.17578125 32.73828125 C34.0659067 35.18085299 35.02352727 37.59079872 36 40 C36.66 40 37.32 40 38 40 C38.47179687 38.65808594 38.47179687 38.65808594 38.953125 37.2890625 C41.15901904 31.05674742 43.39249279 24.84903406 45.890625 18.7265625 C46.78934659 16.51773269 47.6722246 14.30433047 48.546875 12.0859375 C48.95305054 11.05907837 48.95305054 11.05907837 49.36743164 10.01147461 C49.90743445 8.6457932 50.4457282 7.27943458 50.98217773 5.91235352 C52.88761981 1.11238019 52.88761981 1.11238019 54 0 C55.34267413 -0.08631874 56.68974322 -0.10706473 58.03515625 -0.09765625 C58.84404297 -0.09443359 59.65292969 -0.09121094 60.48632812 -0.08789062 C61.33646484 -0.07951172 62.18660156 -0.07113281 63.0625 -0.0625 C63.91650391 -0.05798828 64.77050781 -0.05347656 65.65039062 -0.04882812 C67.76695663 -0.03700373 69.88348685 -0.01906769 72 0 C71.99214478 1.44620728 71.99214478 1.44620728 71.98413086 2.92163086 C71.96607882 6.48672564 71.95456726 10.05181636 71.94506836 13.61694336 C71.9400286 15.16219766 71.9331968 16.70744716 71.92456055 18.25268555 C71.91247924 20.46925029 71.90676827 22.68575218 71.90234375 24.90234375 C71.89718246 25.5971434 71.89202118 26.29194305 71.88670349 27.00779724 C71.88650723 28.6722933 71.93810871 30.33665499 72 32 C72.33 32.33 72.66 32.66 73 33 C73.08865208 35.8843382 73.11521296 38.74462158 73.09765625 41.62890625 C73.0962413 42.49313705 73.09482635 43.35736786 73.09336853 44.24778748 C73.08775239 47.01939292 73.07519719 49.7909188 73.0625 52.5625 C73.05748708 54.4368478 73.05292381 56.31119685 73.04882812 58.18554688 C73.03777772 62.79039544 73.0205023 67.39518421 73 72 C68.71 72 64.42 72 60 72 C59.67 55.83 59.34 39.66 59 23 C57.35 27.29 55.7 31.58 54 36 C51.375 41.25 51.375 41.25 50.1171875 43.67578125 C48.71925526 46.58406685 47.77803206 49.54072608 46.82421875 52.6171875 C45.23139385 57.22203673 43.08109668 61.59926196 41 66 C38.03 66 35.06 66 32 66 C29.25770149 60.68223483 26.86747507 55.37965519 24.765625 49.78125 C24.48273621 49.03790405 24.19984741 48.29455811 23.90838623 47.52868652 C23.01834128 45.18725479 22.13407482 42.84369153 21.25 40.5 C20.64231032 38.89829205 20.03424074 37.29672818 19.42578125 35.6953125 C17.94613036 31.79852435 16.47165248 27.89981547 15 24 C14.67 24 14.34 24 14 24 C13.98969254 24.58659897 13.97938507 25.17319794 13.96876526 25.77757263 C13.86092806 31.8603787 13.74631244 37.94302974 13.62768555 44.02563477 C13.58426335 46.29838836 13.54259384 48.57117613 13.50268555 50.84399414 C13.44515881 54.10313232 13.38141448 57.36209731 13.31640625 60.62109375 C13.29133751 62.15545326 13.29133751 62.15545326 13.26576233 63.72080994 C13.2358445 65.13215965 13.2358445 65.13215965 13.20532227 66.57202148 C13.18977798 67.40475082 13.1742337 68.23748016 13.15821838 69.09544373 C13 71 13 71 12 72 C8.04 72 4.08 72 0 72 C0 48.24 0 24.48 0 0 Z " fill="#BD853F" transform="translate(64,84)"/>
<path d="M0 0 C34.34482759 0 34.34482759 0 41.8125 4.8125 C48.82633292 11.82633292 50.21635507 18.52697294 50.265625 28.09765625 C49.99199103 31.0875098 49.25404172 33.28788595 48 36 C47.34 36 46.68 36 46 36 C45.835 36.70125 45.67 37.4025 45.5 38.125 C42.93491411 43.04141463 38.21681751 46.26106083 33 48 C31.52034074 48.14573058 30.03596157 48.24663268 28.55078125 48.31640625 C27.78677002 48.35451416 27.02275879 48.39262207 26.2355957 48.43188477 C25.27097412 48.47498779 24.30635254 48.51809082 23.3125 48.5625 C20.239375 48.706875 17.16625 48.85125 14 49 C13.67 56.59 13.34 64.18 13 72 C9 73 9 73 0 73 C0 48.91 0 24.82 0 0 Z " fill="#B27A36" transform="translate(149,83)"/>
<path d="M0 0 C21.50642487 2.68416089 42.38213848 19.7967783 55.3125 36.375 C64.01404484 48.02280559 69.88949636 60.1082979 74 74 C74.34160156 75.14339844 74.68320313 76.28679687 75.03515625 77.46484375 C81.67337328 104.41909242 76.64613679 133.57906192 63.01953125 157.47265625 C61.11810696 160.41398125 59.12238046 163.21462831 57 166 C56.31292969 166.91910156 55.62585938 167.83820313 54.91796875 168.78515625 C39.49871933 188.53846497 18.26527275 201.85650219 -6 208 C-6.86882812 208.22558594 -7.73765625 208.45117188 -8.6328125 208.68359375 C-36.23184468 214.51720842 -64.33877134 207.54808723 -88 193 C-91.54434328 190.54312568 -94.77609317 187.86057765 -98 185 C-98.97710937 184.16597656 -99.95421875 183.33195313 -100.9609375 182.47265625 C-110.29983108 174.36291393 -117.34663782 165.12395886 -123.5625 154.4375 C-124.08312012 153.54357544 -124.08312012 153.54357544 -124.61425781 152.6315918 C-126.16847045 149.85991259 -127 148.23235829 -127 145 C-122.95930691 146.3468977 -122.1829841 148.87167249 -120.3125 152.4375 C-116.8015437 158.86128003 -112.76533951 164.42837745 -108 170 C-107.56042969 170.56074219 -107.12085937 171.12148437 -106.66796875 171.69921875 C-102.8232468 176.59834605 -98.0015889 181.99947037 -92 184 C-90.99852399 184.99852181 -89.99883518 185.99883653 -89 187 C-80.48732416 193.01042696 -71.9748321 196.92744446 -62 200 C-60.19595703 200.57234375 -60.19595703 200.57234375 -58.35546875 201.15625 C-42.93345928 205.8346494 -23.67496593 207.77180085 -8 203 C-6.99453125 202.69707031 -5.9890625 202.39414063 -4.953125 202.08203125 C0.28383568 200.41514498 5.10454645 198.5021207 10 196 C12.30511118 195.23563154 14.61689541 194.52048631 16.94921875 193.84375 C19.24357128 192.89978782 20.3142281 191.79028067 22 190 C25.16703108 187.91263861 28.39292143 186.20235952 32 185 C32 184.34 32 183.68 32 183 C32.67933594 182.61585938 33.35867187 182.23171875 34.05859375 181.8359375 C38.06193219 179.3371738 40.90154385 176.09769414 44.0625 172.625 C44.67416016 171.965 45.28582031 171.305 45.91601562 170.625 C51.97375426 164.45586729 51.97375426 164.45586729 56 157 C56.66 157 57.32 157 58 157 C58.27972656 156.29488281 58.55945313 155.58976563 58.84765625 154.86328125 C60.01648599 151.95903652 61.22349445 149.0731269 62.4375 146.1875 C63.29342452 144.12572888 64.14771734 142.06327924 65 140 C65.30421875 139.27167969 65.6084375 138.54335937 65.921875 137.79296875 C67.65812113 133.44349502 68.7014638 129.13952132 69.52734375 124.53125 C69.82111138 122.9580151 70.15979842 121.39166393 70.56640625 119.84375 C76.72053424 95.39938148 69.46076432 67.79163075 57.484375 46.27734375 C51.32064397 36.03806159 43.2010797 27.55678028 34 20 C33.21882812 19.319375 32.43765625 18.63875 31.6328125 17.9375 C26.78010871 13.82555162 22.37629119 10.99575721 16.3828125 8.86328125 C12.76248459 7.55165425 9.41193227 5.77158021 6 4 C4.845 3.4225 3.69 2.845 2.5 2.25 C1.675 1.8375 0.85 1.425 0 1 C0 0.67 0 0.34 0 0 Z " fill="#62380C" transform="translate(157,23)"/>
<path d="M0 0 C1.456731 1.20631329 2.89332795 2.43721698 4.3125 3.6875 C5.17230469 4.43 6.03210938 5.1725 6.91796875 5.9375 C18.79816989 16.9296184 26.94993521 31.15161526 31.3125 46.6875 C31.78623047 48.31945312 31.78623047 48.31945312 32.26953125 49.984375 C34.27224166 57.62942479 34.66066183 64.80872682 34.3125 72.6875 C33.3225 73.1825 33.3225 73.1825 32.3125 73.6875 C32.20292969 72.58792969 32.09335938 71.48835938 31.98046875 70.35546875 C30.39272786 55.22735009 27.09568602 41.70733184 19.265625 28.5 C18.3125 26.6875 18.3125 26.6875 18.3125 24.6875 C17.6525 24.6875 16.9925 24.6875 16.3125 24.6875 C15.879375 23.7284375 15.879375 23.7284375 15.4375 22.75 C14.48426549 20.53543921 14.48426549 20.53543921 12.3125 19.6875 C12.3125 18.6975 12.3125 17.7075 12.3125 16.6875 C11.6525 16.6875 10.9925 16.6875 10.3125 16.6875 C9.85875 15.924375 9.405 15.16125 8.9375 14.375 C7.2954082 11.6592328 5.83460243 10.51385004 3.3125 8.6875 C3.3125 8.0275 3.3125 7.3675 3.3125 6.6875 C2.3225 6.6875 1.3325 6.6875 0.3125 6.6875 C-1.02083333 5.35416667 -2.35416667 4.02083333 -3.6875 2.6875 C-5.96857661 1.23233044 -8.30220447 -0.0281101 -10.6875 -1.3125 C-10.6875 -1.9725 -10.6875 -2.6325 -10.6875 -3.3125 C-11.40292969 -3.59351563 -12.11835938 -3.87453125 -12.85546875 -4.1640625 C-14.66327391 -4.89715866 -16.45946501 -5.66006158 -18.23828125 -6.4609375 C-39.45118054 -15.88222516 -61.98590566 -16.84760011 -84.6875 -12.3125 C-84.6875 -11.6525 -84.6875 -10.9925 -84.6875 -10.3125 C-91.3125 -7.3125 -91.3125 -7.3125 -94.6875 -7.3125 C-94.6875 -5.9925 -94.6875 -4.6725 -94.6875 -3.3125 C-95.35394531 -2.9721875 -96.02039063 -2.631875 -96.70703125 -2.28125 C-103.85894503 1.47975641 -110.24279827 5.83203636 -116.6875 10.6875 C-117.46738281 11.22632812 -118.24726562 11.76515625 -119.05078125 12.3203125 C-123.35789368 15.32820454 -125.71821676 17.65488728 -127.6875 22.6875 C-128.35416667 24.02083333 -129.02083333 25.35416667 -129.6875 26.6875 C-130.3475 26.6875 -131.0075 26.6875 -131.6875 26.6875 C-131.95433594 27.38746094 -132.22117187 28.08742187 -132.49609375 28.80859375 C-134.20799801 32.94522797 -136.29658183 36.87087871 -138.34765625 40.84765625 C-139.44728623 43.17835885 -140.1994058 45.17471874 -140.6875 47.6875 C-141.3475 47.6875 -142.0075 47.6875 -142.6875 47.6875 C-142.873125 49.42 -142.873125 49.42 -143.0625 51.1875 C-143.36495731 54.0104349 -143.91260087 56.46160643 -144.7109375 59.20703125 C-146.12054934 64.71826661 -145.97895935 70.21925335 -145.9375 75.875 C-145.94523437 76.94169922 -145.95296875 78.00839844 -145.9609375 79.10742188 C-145.95707031 80.65333008 -145.95707031 80.65333008 -145.953125 82.23046875 C-145.95086914 83.15883545 -145.94861328 84.08720215 -145.94628906 85.04370117 C-145.66509525 87.91638774 -144.8398888 90.05549402 -143.6875 92.6875 C-143.37632356 94.34710769 -143.10701019 96.014987 -142.875 97.6875 C-141.19176589 107.3693582 -137.65306722 116.06674248 -131.82421875 123.98046875 C-130.6875 125.6875 -130.6875 125.6875 -130.6875 127.6875 C-130.0275 127.6875 -129.3675 127.6875 -128.6875 127.6875 C-128.6875 128.3475 -128.6875 129.0075 -128.6875 129.6875 C-128.0275 129.6875 -127.3675 129.6875 -126.6875 129.6875 C-125.77490501 131.1070922 -124.86526352 132.52869314 -123.97265625 133.9609375 C-122.04214105 136.55451719 -119.61337626 138.40929419 -117.078125 140.390625 C-116.61921875 140.81859375 -116.1603125 141.2465625 -115.6875 141.6875 C-115.6875 142.3475 -115.6875 143.0075 -115.6875 143.6875 C-114.965625 143.935 -114.24375 144.1825 -113.5 144.4375 C-110.6875 145.6875 -110.6875 145.6875 -108.4375 147.5 C-101.09708653 153.33896526 -92.18321293 156.86639882 -83.6875 160.6875 C-87.23880025 162.46315013 -91.03173893 160.80722814 -94.6875 159.6875 C-97.15548375 158.43107191 -99.36444383 157.15778871 -101.6875 155.6875 C-102.75871094 155.10742188 -102.75871094 155.10742188 -103.8515625 154.515625 C-125.84883331 142.33472585 -140.72828991 121.65207881 -147.6875 97.6875 C-152.7184431 74.47943084 -150.73132 51.73478014 -139.6875 30.6875 C-139.17445313 29.68074219 -138.66140625 28.67398438 -138.1328125 27.63671875 C-126.83924122 6.80575354 -106.27847923 -9.47363985 -83.6875 -16.3125 C-54.69359021 -24.06790053 -24.04457814 -17.80921685 0 0 Z " fill="#63380B" transform="translate(184.6875,51.3125)"/>
<path d="M0 0 C0.99 0.99 0.99 0.99 2 2 C3.65688792 2.69061178 5.32563024 3.35292339 7 4 C9.11310578 5.02341133 11.21710892 6.06579132 13.3125 7.125 C14.91544922 7.93324219 14.91544922 7.93324219 16.55078125 8.7578125 C17.35902344 9.16773438 18.16726562 9.57765625 19 10 C17.68 10.66 16.36 11.32 15 12 C14.505 11.525625 14.01 11.05125 13.5 10.5625 C10.66193122 8.78870701 8.37168377 8.60545607 5.08203125 8.3125 C1.81785422 7.82256724 -0.99945463 6.33357572 -4 5 C-7.11380975 4.34130948 -9.8208979 4 -13 4 C-16 4 -19 4 -22 4 C-22.495 3.01 -22.495 3.01 -23 2 C-41.89908891 3.00078955 -41.89908891 3.00078955 -60 8 C-60.969375 8.4021875 -61.93875 8.804375 -62.9375 9.21875 C-63.948125 9.6415625 -64.95875 10.064375 -66 10.5 C-71.70873786 12.88834951 -71.70873786 12.88834951 -74.578125 13.98828125 C-89.38212996 20.17253493 -104.39809744 32.79619487 -111.625 47.25 C-113 50 -113 50 -114.9375 51.875 C-118.43206153 55.47545733 -121 59.932721 -121 65 C-121.98210371 67.0088485 -122.98440599 69.00787329 -124 71 C-125.65470225 75.32061144 -126.40629439 79.41998526 -127 84 C-127.16242188 84.57234375 -127.32484375 85.1446875 -127.4921875 85.734375 C-128.22462308 89.00216451 -128.37250421 92.29111894 -128.5625 95.625 C-128.60568359 96.33487061 -128.64886719 97.04474121 -128.69335938 97.77612305 C-128.96674355 102.55220964 -129.06924953 107.29787662 -128.9375 112.08203125 C-129 114 -129 114 -130 117 C-129.34938905 118.67299959 -128.67966676 120.33859237 -128 122 C-127.62599214 124.32716 -127.29235267 126.66117862 -127 129 C-126.68033861 130.66934283 -126.35268934 132.3373217 -126 134 C-126.66 134.33 -127.32 134.66 -128 135 C-131.22286845 125.90282523 -132.67086589 116.52094029 -134 107 C-134.18175781 105.74832031 -134.36351562 104.49664062 -134.55078125 103.20703125 C-137.2062563 78.61035833 -125.97176534 53.88210119 -111 35 C-95.70426055 16.29354677 -75.40072912 4.47371498 -52 -1 C-51.03707031 -1.24363281 -50.07414062 -1.48726562 -49.08203125 -1.73828125 C-33.51064408 -5.04130277 -15.33816388 -4.20593676 0 0 Z " fill="#CC944D" transform="translate(156,22)"/>
<path d="M0 0 C0.75172989 -0.00807175 1.50345978 -0.01614349 2.27796936 -0.02445984 C3.87775351 -0.03832641 5.47756758 -0.04903699 7.07739258 -0.05688477 C9.49425199 -0.07393026 11.90968235 -0.11776785 14.32617188 -0.16210938 C23.68864019 -0.25824923 32.54063888 -0.33547166 39.88671875 6.30859375 C40.32757813 6.98664063 40.7684375 7.6646875 41.22265625 8.36328125 C41.68929687 9.04648438 42.1559375 9.7296875 42.63671875 10.43359375 C43.59765625 12.23828125 43.59765625 12.23828125 43.59765625 14.23828125 C44.25765625 14.23828125 44.91765625 14.23828125 45.59765625 14.23828125 C48.12962253 23.49354781 50.2175525 32.24912672 45.94140625 41.3359375 C42.4387945 46.29457681 36.79011433 52.38756892 30.87109375 53.96484375 C30.12085938 54.05507812 29.370625 54.1453125 28.59765625 54.23828125 C27.60765625 54.73328125 27.60765625 54.73328125 26.59765625 55.23828125 C23.54142389 55.18990923 20.49767522 55.04229196 17.4453125 54.8828125 C14.51658374 54.96550106 14.51658374 54.96550106 12.6953125 57.015625 C11.27293814 59.89580653 11.8083757 61.98766336 12.31640625 65.08203125 C12.79804409 68.77458799 12.44931912 71.58829752 11.59765625 75.23828125 C9.10871821 78.01166936 7.24580501 79.02692839 3.72265625 80.17578125 C-0.4960041 80.26015446 -2.70310852 79.26923393 -6.40234375 77.23828125 C-6.73234375 76.24828125 -7.06234375 75.25828125 -7.40234375 74.23828125 C-2.78234375 73.90828125 1.83765625 73.57828125 6.59765625 73.23828125 C6.58605469 71.58957031 6.57445312 69.94085938 6.5625 68.2421875 C6.55312387 66.09505321 6.54402348 63.9479177 6.53515625 61.80078125 C6.52677734 60.71216797 6.51839844 59.62355469 6.50976562 58.50195312 C6.50654297 57.46748047 6.50332031 56.43300781 6.5 55.3671875 C6.49476318 54.4088501 6.48952637 53.4505127 6.48413086 52.46313477 C6.59765625 50.23828125 6.59765625 50.23828125 7.59765625 49.23828125 C11.46244654 49.06727283 15.32120818 48.9412903 19.18945312 48.89648438 C25.09135357 48.69868101 29.65960463 47.57470319 34.59765625 44.23828125 C36.71656564 41.95637883 38.21438894 40.00481586 39.59765625 37.23828125 C40.25765625 37.23828125 40.91765625 37.23828125 41.59765625 37.23828125 C43.65301266 28.0810836 43.70960437 19.34746279 38.59765625 11.23828125 C34.39908701 6.1558027 29.94198185 3.82436265 23.59765625 2.23828125 C13.69765625 2.23828125 3.79765625 2.23828125 -6.40234375 2.23828125 C-6.73234375 25.66828125 -7.06234375 49.09828125 -7.40234375 73.23828125 C-7.73234375 73.23828125 -8.06234375 73.23828125 -8.40234375 73.23828125 C-8.42546879 63.86792187 -8.44325966 54.49757224 -8.45415592 45.12719059 C-8.4593844 40.77659666 -8.4664814 36.42602218 -8.4777832 32.07543945 C-8.48861334 27.88037867 -8.49462085 23.68533666 -8.49722099 19.49026299 C-8.49907501 17.88621157 -8.50269519 16.28216122 -8.50807381 14.67811775 C-8.51528594 12.4391161 -8.51633462 10.20019295 -8.51586914 7.96118164 C-8.51808975 6.68432999 -8.52031036 5.40747833 -8.52259827 4.0919342 C-8.29202344 -1.3796318 -4.48571589 0.04545046 0 0 Z " fill="#64390B" transform="translate(155.40234375,81.76171875)"/>
<path d="M0 0 C4.04069309 1.3468977 4.8170159 3.87167249 6.6875 7.4375 C10.1984563 13.86128003 14.23466049 19.42837745 19 25 C19.43957031 25.56074219 19.87914063 26.12148437 20.33203125 26.69921875 C24.1767532 31.59834605 28.9984111 36.99947037 35 39 C36.00147601 39.99852181 37.00116482 40.99883653 38 42 C46.51267584 48.01042696 55.0251679 51.92744446 65 55 C66.80404297 55.57234375 66.80404297 55.57234375 68.64453125 56.15625 C84.06654072 60.8346494 103.32503407 62.77180085 119 58 C120.00546875 57.69707031 121.0109375 57.39414063 122.046875 57.08203125 C126.30266503 55.72744442 130.32866882 54.3419989 134.3125 52.3125 C137.53088195 50.74073207 140.45588114 50.35441189 144 50 C140.91726742 54.56244422 138.08022907 56.03920983 133 58 C132.22269531 58.48984375 131.44539062 58.9796875 130.64453125 59.484375 C127.80061947 61.11426831 125.30811866 61.8726265 122.125 62.625 C121.13757813 62.86476562 120.15015625 63.10453125 119.1328125 63.3515625 C90.98963819 69.1767083 63.24107678 62.90460638 39 48 C35.45565672 45.54312568 32.22390683 42.86057765 29 40 C28.02289063 39.16597656 27.04578125 38.33195312 26.0390625 37.47265625 C16.70016892 29.36291393 9.65336218 20.12395886 3.4375 9.4375 C2.91687988 8.54357544 2.91687988 8.54357544 2.38574219 7.6315918 C0.83152955 4.85991259 0 3.23235829 0 0 Z " fill="#724311" transform="translate(30,168)"/>
<path d="M0 0 C0.33 0 0.66 0 1 0 C1.02913821 3.5624827 1.04684529 7.12493454 1.0625 10.6875 C1.07087891 11.69490234 1.07925781 12.70230469 1.08789062 13.74023438 C1.09111328 14.71669922 1.09433594 15.69316406 1.09765625 16.69921875 C1.10289307 17.59471436 1.10812988 18.49020996 1.11352539 19.4128418 C0.99840198 22.03641759 0.58234285 24.44293053 0 27 C-0.33 27 -0.66 27 -1 27 C-1.495 24.03 -1.495 24.03 -2 21 C-5.7580755 26.13508026 -7.6304252 30.47049822 -8.4453125 36.80078125 C-9.0992582 39.39353778 -10.06573964 40.21948854 -12 42 C-12.61875 43.546875 -12.61875 43.546875 -13.25 45.125 C-15 48 -15 48 -18.3125 49 C-22.17884171 49 -24.49504632 48.59810757 -28 47 C-29.58325195 44.57324219 -29.58325195 44.57324219 -30.73828125 41.546875 C-31.16560547 40.45246094 -31.59292969 39.35804688 -32.03320312 38.23046875 C-32.45537109 37.08191406 -32.87753906 35.93335938 -33.3125 34.75 C-33.97475586 33.05037109 -33.97475586 33.05037109 -34.65039062 31.31640625 C-36.61000246 26.19680779 -38.23188239 21.44619184 -39 16 C-39.66 16 -40.32 16 -41 16 C-41.02927632 19.52081558 -41.04689119 23.04159939 -41.0625 26.5625 C-41.07087891 27.55314453 -41.07925781 28.54378906 -41.08789062 29.56445312 C-41.10541595 34.83957589 -40.84129969 39.79740269 -40 45 C-40.125 48.75 -40.125 48.75 -41 52 C-44.06601232 54.55501027 -47.04902091 55.60490209 -51 56 C-53.8125 55.5625 -53.8125 55.5625 -56 55 C-56 54.34 -56 53.68 -56 53 C-56.66 53 -57.32 53 -58 53 C-58 52.34 -58 51.68 -58 51 C-53.71 51 -49.42 51 -45 51 C-45 34.5 -45 18 -45 1 C-42.33022227 3.66977773 -41.53006381 4.62572892 -40.2824707 7.9206543 C-39.98238602 8.70123703 -39.68230133 9.48181976 -39.37312317 10.28605652 C-39.06050034 11.12365005 -38.7478775 11.96124359 -38.42578125 12.82421875 C-38.09708542 13.68561966 -37.76838959 14.54702057 -37.42973328 15.43452454 C-36.3830643 18.18270226 -35.34766926 20.93497269 -34.3125 23.6875 C-33.60425472 25.55301514 -32.89527896 27.41825313 -32.18554688 29.28320312 C-30.44854283 33.85229757 -28.72163675 38.4250942 -27 43 C-24.03 43.33 -21.06 43.66 -18 44 C-17.04987366 41.22270763 -16.12488536 38.45003068 -15.33984375 35.62109375 C-14.03535298 30.95201477 -12.60596669 27.05309398 -10.03125 22.8984375 C-8.76440341 20.5662881 -7.93313584 18.19408868 -7.0625 15.6875 C-5.15624025 10.20415522 -2.71272144 5.12526469 0 0 Z " fill="#774712" transform="translate(123,106)"/>
<path d="M0 0 C0.72509766 -0.02900391 1.45019531 -0.05800781 2.19726562 -0.08789062 C5.78156795 -0.13052185 7.76028545 -0.01796101 10.63671875 2.20703125 C13.91679645 6.66033574 13.79121884 10.92038102 13.1875 16.3125 C11.14405701 20.39938598 9.47040917 22.73534764 5.1875 24.3125 C1.734375 24.5078125 1.734375 24.5078125 -2.0625 24.4375 C-3.32578125 24.41945313 -4.5890625 24.40140625 -5.890625 24.3828125 C-6.85484375 24.35960938 -7.8190625 24.33640625 -8.8125 24.3125 C-8.84137236 20.50001574 -8.85925492 16.6875593 -8.875 12.875 C-8.88337891 11.78638672 -8.89175781 10.69777344 -8.90039062 9.57617188 C-8.90361328 8.54169922 -8.90683594 7.50722656 -8.91015625 6.44140625 C-8.91539307 5.48306885 -8.92062988 4.52473145 -8.92602539 3.53735352 C-8.67333624 -1.41481046 -3.89618558 0.05113104 0 0 Z " fill="#9F6726" transform="translate(170.8125,95.6875)"/>
<path d="M0 0 C21.50642487 2.68416089 42.38213848 19.7967783 55.3125 36.375 C64.03562847 48.05169722 69.68401967 60.17094191 74 74 C74.28399658 74.85029785 74.28399658 74.85029785 74.57373047 75.71777344 C75.22093 79.18284858 75.04536707 82.62553274 74.94921875 86.1328125 C74.9303511 86.92468964 74.91148346 87.71656677 74.89204407 88.53244019 C74.85021808 90.20854893 74.80548642 91.88458734 74.75805664 93.56054688 C74.6883277 96.09491657 74.6336467 98.62930636 74.58007812 101.1640625 C74.37801038 109.32711594 73.99477812 117.03717142 72 125 C70 122 70 122 70.2421875 120.22265625 C70.45101562 119.50980469 70.65984375 118.79695313 70.875 118.0625 C76.51915732 93.03029576 68.77902589 65.04018669 55.8125 43.5 C49.8730345 34.46168293 42.32932907 26.84081779 34 20 C32.82824219 18.9790625 32.82824219 18.9790625 31.6328125 17.9375 C26.78010871 13.82555162 22.37629119 10.99575721 16.3828125 8.86328125 C12.76248459 7.55165425 9.41193227 5.77158021 6 4 C4.845 3.4225 3.69 2.845 2.5 2.25 C1.675 1.8375 0.85 1.425 0 1 C0 0.67 0 0.34 0 0 Z " fill="#663B0E" transform="translate(157,23)"/>
<path d="M0 0 C1.24394531 -0.00773437 2.48789063 -0.01546875 3.76953125 -0.0234375 C4.96707031 -0.02085938 6.16460937 -0.01828125 7.3984375 -0.015625 C8.47528809 -0.01336914 9.55213867 -0.01111328 10.66162109 -0.00878906 C13.68515814 0.25525355 15.88752008 0.97466237 18.625 2.25 C18.625 2.58 18.625 2.91 18.625 3.25 C17.65264404 3.22905273 16.68028809 3.20810547 15.6784668 3.18652344 C12.02009203 3.11331768 8.36177989 3.06791256 4.70288086 3.03027344 C3.12887635 3.01033916 1.55494411 2.98318129 -0.01879883 2.94824219 C-9.68247635 2.73929781 -17.42366892 3.16533495 -26.375 7.25 C-27.46683594 7.6109375 -28.55867188 7.971875 -29.68359375 8.34375 C-32.66635003 9.34810335 -35.53937071 10.52343689 -38.4375 11.75 C-44.20663865 14.18536355 -44.20663865 14.18536355 -46.94921875 15.23828125 C-57.66011982 19.70546865 -66.85246311 27.29243428 -74.6484375 35.74609375 C-76.375 37.25 -76.375 37.25 -79.375 37.25 C-79.6225 37.765625 -79.87 38.28125 -80.125 38.8125 C-81.77081616 42.02184151 -83.5726096 45.12585664 -85.375 48.25 C-86.035 48.25 -86.695 48.25 -87.375 48.25 C-87.64570312 48.95769531 -87.91640625 49.66539063 -88.1953125 50.39453125 C-89.40871476 53.33160759 -90.79445493 56.11313923 -92.25 58.9375 C-94.94531221 64.268669 -97.27287332 69.66081611 -99.375 75.25 C-101.30383928 70.57895549 -98.98230851 66.77986075 -97.18505859 62.37988281 C-94.07897846 55.10397267 -89.8729103 48.72729891 -85.375 42.25 C-84.7253125 41.25871094 -84.075625 40.26742187 -83.40625 39.24609375 C-78.64869123 32.23649384 -73.18190007 27.24826039 -66.375 22.25 C-65.32828125 21.47527344 -64.2815625 20.70054688 -63.203125 19.90234375 C-44.11172084 6.07040612 -23.48086262 -0.14876998 0 0 Z " fill="#D8A25A" transform="translate(128.375,20.75)"/>
<path d="M0 0 C1.32 0.66 2.64 1.32 4 2 C4.64453125 5.02734375 4.64453125 5.02734375 4.8125 8.9375 C4.84472656 9.63464111 4.87695312 10.33178223 4.91015625 11.05004883 C5.14066098 17.5870188 4.80411205 24.09577313 4.31958008 30.61499023 C4.03256314 34.66197202 4.07947608 38.01585741 5 42 C4.835 43.134375 4.67 44.26875 4.5 45.4375 C3.83585013 48.86338461 3.83585013 48.86338461 4.4609375 51.71484375 C5.0880401 55.53653425 5.14648125 59.26553468 5.125 63.125 C5.13080078 64.17880859 5.13080078 64.17880859 5.13671875 65.25390625 C5.12375763 72.11033752 5.12375763 72.11033752 4 75 C1.32178743 77.14257006 -0.53032437 77.94004141 -3.9375 78.375 C-7.47873768 77.94137906 -9.91971795 76.76016117 -13 75 C-13 74.34 -13 73.68 -13 73 C-8.71 73 -4.42 73 0 73 C0 48.91 0 24.82 0 0 Z " fill="#784813" transform="translate(137,84)"/>
<path d="M0 0 C0.66 0 1.32 0 2 0 C-0.52144316 5.25300657 -3.08652057 10.10895457 -7 14.4375 C-10.70599689 18.60439498 -14 23.2935944 -14 29 C-14.98210371 31.0088485 -15.98440599 33.00787329 -17 35 C-18.65470225 39.32061144 -19.40629439 43.41998526 -20 48 C-20.16242187 48.57234375 -20.32484375 49.1446875 -20.4921875 49.734375 C-21.22462308 53.00216451 -21.37250421 56.29111894 -21.5625 59.625 C-21.60568359 60.33487061 -21.64886719 61.04474121 -21.69335938 61.77612305 C-21.96674355 66.55220964 -22.06924953 71.29787662 -21.9375 76.08203125 C-22 78 -22 78 -23 81 C-22.34938905 82.67299959 -21.67966676 84.33859237 -21 86 C-20.62599214 88.32716 -20.29235267 90.66117862 -20 93 C-19.68033861 94.66934283 -19.35268934 96.3373217 -19 98 C-19.99 98.495 -19.99 98.495 -21 99 C-27.19817483 79.9509427 -28.48756509 59.458201 -23 40 C-22.34 39.01 -21.68 38.02 -21 37 C-20.202434 35.1362142 -19.43494762 33.2594445 -18.6875 31.375 C-16.48287023 25.99674389 -13.94937702 21.00067383 -11 16 C-10.443125 14.989375 -9.88625 13.97875 -9.3125 12.9375 C-8.879375 12.298125 -8.44625 11.65875 -8 11 C-7.34 11 -6.68 11 -6 11 C-5.82791016 10.12601563 -5.82791016 10.12601563 -5.65234375 9.234375 C-4.95175938 6.83476865 -4.01807405 5.27139067 -2.5625 3.25 C-1.91474609 2.32960937 -1.91474609 2.32960937 -1.25390625 1.390625 C-0.84011719 0.93171875 -0.42632812 0.4728125 0 0 Z " fill="#DAA65D" transform="translate(49,58)"/>
<path d="M0 0 C1.68452094 3.00163607 2.34754603 5.53975943 2.8125 8.9375 C4.48478182 18.6471053 8.01882578 27.35805314 13.86328125 35.29296875 C15 37 15 37 15 39 C15.66 39 16.32 39 17 39 C17 39.66 17 40.32 17 41 C17.66 41 18.32 41 19 41 C19.91259499 42.4195922 20.82223648 43.84119314 21.71484375 45.2734375 C23.64535895 47.86701719 26.07412374 49.72179419 28.609375 51.703125 C29.06828125 52.13109375 29.5271875 52.5590625 30 53 C30 53.66 30 54.32 30 55 C30.721875 55.2475 31.44375 55.495 32.1875 55.75 C35 57 35 57 37.25 58.8125 C44.59041347 64.65146526 53.50428707 68.17889882 62 72 C58.44869975 73.77565013 54.65576107 72.11972814 51 71 C48.53201625 69.74357191 46.32305617 68.47028871 44 67 C42.92878906 66.41992188 42.92878906 66.41992188 41.8359375 65.828125 C19.88562509 53.67322888 4.88606385 32.96191005 -2 9 C-2.48372763 6.64337822 -2.78664893 4.40019951 -3 2 C-0.8614515 4.1385485 -0.57344937 5.13275314 0 8 C0 5.36 0 2.72 0 0 Z " fill="#8E591C" transform="translate(39,140)"/>
<path d="M0 0 C1.2691626 0.00572021 2.5383252 0.01144043 3.84594727 0.01733398 C20.22461327 0.32585582 33.75367635 4.470984 47.9375 12.5 C43.62860673 13.89622936 41.93113961 12.49681981 37.9375 10.5 C34.68649636 10.24803177 34.68649636 10.24803177 31.9375 10.5 C31.4425 9.015 31.4425 9.015 30.9375 7.5 C27.9675 7.17 24.9975 6.84 21.9375 6.5 C21.9375 5.84 21.9375 5.18 21.9375 4.5 C20.78121094 4.51740234 20.78121094 4.51740234 19.6015625 4.53515625 C18.09722656 4.54869141 18.09722656 4.54869141 16.5625 4.5625 C15.56476563 4.57410156 14.56703125 4.58570313 13.5390625 4.59765625 C10.9375 4.5 10.9375 4.5 8.9375 3.5 C6.10809189 3.53835485 3.32185544 3.64109883 0.5 3.8125 C-0.31460693 3.86100098 -1.12921387 3.90950195 -1.96850586 3.95947266 C-10.69795967 4.5327192 -18.73044471 5.89268568 -26.98046875 8.8359375 C-29.9917666 9.79638897 -32.92455143 10.16617568 -36.0625 10.5 C-36.0625 9.84 -36.0625 9.18 -36.0625 8.5 C-32.33284861 6.46564469 -30.39344958 5.5 -26.0625 5.5 C-26.0625 4.84 -26.0625 4.18 -26.0625 3.5 C-17.29219763 0.87101971 -9.13928611 -0.04815605 0 0 Z " fill="#9B6424" transform="translate(126.0625,35.5)"/>
<path d="M0 0 C-3.06036089 2.04024059 -6.11203298 3.49430318 -9.4375 5.0625 C-19.21600389 9.82827956 -27.53034945 16.39216057 -35.4765625 23.78515625 C-37 25 -37 25 -39 25 C-39.25523438 25.73347656 -39.51046875 26.46695313 -39.7734375 27.22265625 C-41.06517689 30.14758207 -42.53296506 32.03291003 -44.625 34.4375 C-60.50677158 53.94445857 -65.97199332 77.32783978 -67 102 C-67.33 102 -67.66 102 -68 102 C-71.4757933 77.06496108 -62.0825935 52.55352218 -47.18359375 32.75390625 C-37.41989349 20.44011612 -26.75946423 11.30703301 -13 3.875 C-12.28191162 3.48425293 -11.56382324 3.09350586 -10.82397461 2.69091797 C-7.08800091 0.75674347 -4.32155902 -0.52331379 0 0 Z " fill="#CC9650" transform="translate(90,27)"/>
<path d="M0 0 C0.75172989 -0.00807175 1.50345978 -0.01614349 2.27796936 -0.02445984 C3.87775351 -0.03832641 5.47756758 -0.04903699 7.07739258 -0.05688477 C9.49425199 -0.07393026 11.90968235 -0.11776785 14.32617188 -0.16210938 C23.68864019 -0.25824923 32.54063888 -0.33547166 39.88671875 6.30859375 C40.32757813 6.98664063 40.7684375 7.6646875 41.22265625 8.36328125 C41.68929687 9.04648438 42.1559375 9.7296875 42.63671875 10.43359375 C43.59765625 12.23828125 43.59765625 12.23828125 43.59765625 14.23828125 C44.25765625 14.23828125 44.91765625 14.23828125 45.59765625 14.23828125 C48.49016624 24.81146747 50.02387836 33.35480526 44.59765625 43.23828125 C41.91015625 45.67578125 41.91015625 45.67578125 39.59765625 47.23828125 C39.26765625 46.57828125 38.93765625 45.91828125 38.59765625 45.23828125 C39.25765625 45.23828125 39.91765625 45.23828125 40.59765625 45.23828125 C41.078739 43.82226411 41.55743766 42.40543688 42.03515625 40.98828125 C42.30199219 40.199375 42.56882813 39.41046875 42.84375 38.59765625 C44.15290068 34.50062511 44.73454327 31.0651582 44.72265625 26.73828125 C44.72523438 25.79984375 44.7278125 24.86140625 44.73046875 23.89453125 C44.61158493 21.51685495 44.27317347 19.51145029 43.59765625 17.23828125 C42.93765625 17.89828125 42.27765625 18.55828125 41.59765625 19.23828125 C41.35015625 18.18640625 41.10265625 17.13453125 40.84765625 16.05078125 C39.54740148 11.63347738 37.7369148 8.54560592 33.69921875 6.078125 C20.42232872 -0.80710236 11.20658032 2.23828125 -6.40234375 2.23828125 C-6.73234375 25.66828125 -7.06234375 49.09828125 -7.40234375 73.23828125 C-7.73234375 73.23828125 -8.06234375 73.23828125 -8.40234375 73.23828125 C-8.42546879 63.86792187 -8.44325966 54.49757224 -8.45415592 45.12719059 C-8.4593844 40.77659666 -8.4664814 36.42602218 -8.4777832 32.07543945 C-8.48861334 27.88037867 -8.49462085 23.68533666 -8.49722099 19.49026299 C-8.49907501 17.88621157 -8.50269519 16.28216122 -8.50807381 14.67811775 C-8.51528594 12.4391161 -8.51633462 10.20019295 -8.51586914 7.96118164 C-8.51808975 6.68432999 -8.52031036 5.40747833 -8.52259827 4.0919342 C-8.29202344 -1.3796318 -4.48571589 0.04545046 0 0 Z " fill="#986121" transform="translate(155.40234375,81.76171875)"/>
<path d="M0 0 C0.33 0.99 0.66 1.98 1 3 C-0.109375 5.19921875 -0.109375 5.19921875 -1.75 7.6875 C-15.0074373 27.86326016 -14.35829153 53.98285065 -12 77 C-17.41197424 71.58802576 -17.38994961 61.82987276 -17.46826172 54.6003418 C-17.45811035 53.515354 -17.44795898 52.43036621 -17.4375 51.3125 C-17.42992676 50.17272705 -17.42235352 49.0329541 -17.41455078 47.85864258 C-17.13602592 33.51664536 -13.52436903 21.75048119 -7 9 C-6.49726562 7.9171875 -6.49726562 7.9171875 -5.984375 6.8125 C-4.4876167 4.05656408 -2.2597472 2.14081314 0 0 Z " fill="#6A3D0C" transform="translate(52,73)"/>
<path d="M0 0 C0.33 0 0.66 0 1 0 C1.02913821 3.5624827 1.04684529 7.12493454 1.0625 10.6875 C1.07087891 11.69490234 1.07925781 12.70230469 1.08789062 13.74023438 C1.09272461 15.20493164 1.09272461 15.20493164 1.09765625 16.69921875 C1.10551147 18.04246216 1.10551147 18.04246216 1.11352539 19.4128418 C0.99840198 22.03641759 0.58234285 24.44293053 0 27 C-0.33 27 -0.66 27 -1 27 C-1.33 25.02 -1.66 23.04 -2 21 C-2.81642254 22.26831693 -3.62799105 23.53975931 -4.4375 24.8125 C-4.88996094 25.52019531 -5.34242187 26.22789062 -5.80859375 26.95703125 C-7.14086339 29.08134552 -7.14086339 29.08134552 -8 32 C-8.61875 32.5775 -9.2375 33.155 -9.875 33.75 C-12.52697225 36.55797062 -13.57396159 39.43490398 -15 43 C-15.66 43.99 -16.32 44.98 -17 46 C-19.3828125 46.29296875 -19.3828125 46.29296875 -22.125 46.1875 C-23.49011719 46.14689453 -23.49011719 46.14689453 -24.8828125 46.10546875 C-25.58148438 46.07066406 -26.28015625 46.03585938 -27 46 C-27 45.67 -27 45.34 -27 45 C-24.03 45 -21.06 45 -18 45 C-17.8453125 43.9790625 -17.8453125 43.9790625 -17.6875 42.9375 C-17.02040073 40.08716675 -16.00913062 37.60505998 -14.8125 34.94140625 C-13.95159253 32.88433408 -13.2859453 30.81679539 -12.625 28.6875 C-11.25936408 24.46967656 -9.37654785 20.69616025 -7.3359375 16.76953125 C-5.27040295 12.48747279 -3.65929335 8.04751394 -2.015625 3.58984375 C-1 1 -1 1 0 0 Z " fill="#8A551A" transform="translate(123,106)"/>
<path d="M0 0 C0 0.66 0 1.32 0 2 C-0.66644531 2.3403125 -1.33289063 2.680625 -2.01953125 3.03125 C-9.17144503 6.79225641 -15.55529827 11.14453636 -22 16 C-22.77988281 16.53882812 -23.55976562 17.07765625 -24.36328125 17.6328125 C-28.67039368 20.64070454 -31.03071676 22.96738728 -33 28 C-33.66666667 29.33333333 -34.33333333 30.66666667 -35 32 C-35.66 32 -36.32 32 -37 32 C-37.268125 32.69996094 -37.53625 33.39992187 -37.8125 34.12109375 C-39.07519646 37.18230194 -40.50578851 40.10769678 -42 43.0625 C-42.515625 44.08472656 -43.03125 45.10695312 -43.5625 46.16015625 C-44.2740625 47.56587891 -44.2740625 47.56587891 -45 49 C-45.66754487 50.33289387 -46.33461323 51.66602749 -47 53 C-46.8702715 45.34601871 -44.23753831 40.12924165 -40.49609375 33.625 C-38.91747266 31.3587685 -38.91747266 31.3587685 -39 30 C-39.99 30.66 -40.98 31.32 -42 32 C-38.57614367 22.29620618 -30.27535233 14.97221265 -23 8 C-23 11 -23 11 -24.96875 13.26171875 C-25.8040625 14.06222656 -26.639375 14.86273438 -27.5 15.6875 C-28.75296875 16.89986328 -28.75296875 16.89986328 -30.03125 18.13671875 C-30.6809375 18.75160156 -31.330625 19.36648437 -32 20 C-28.55176859 17.29550478 -25.28281768 14.47103559 -22.0625 11.5 C-15.91039765 5.96492266 -8.77528609 0 0 0 Z " fill="#663A0A" transform="translate(90,46)"/>
<path d="M0 0 C0.72509766 -0.02900391 1.45019531 -0.05800781 2.19726562 -0.08789062 C5.7933716 -0.13066224 7.79104043 0.01775958 10.71484375 2.19140625 C12.1875 4.3125 12.1875 4.3125 11.9375 6.5625 C11.69 7.14 11.4425 7.7175 11.1875 8.3125 C10.5275 7.6525 9.8675 6.9925 9.1875 6.3125 C6.82308508 5.84988654 6.82308508 5.84988654 4.1875 5.6875 C2.8571875 5.57535156 2.8571875 5.57535156 1.5 5.4609375 C0.06460277 5.36880052 -1.37414871 5.3125 -2.8125 5.3125 C-2.80089844 6.20453125 -2.78929687 7.0965625 -2.77734375 8.015625 C-2.76380859 9.77132812 -2.76380859 9.77132812 -2.75 11.5625 C-2.73839844 12.72265625 -2.72679687 13.8828125 -2.71484375 15.078125 C-2.79467908 17.72227128 -3.02606222 19.81076091 -3.8125 22.3125 C-2.1625 22.3125 -0.5125 22.3125 1.1875 22.3125 C1.1875 22.9725 1.1875 23.6325 1.1875 24.3125 C-2.1125 24.3125 -5.4125 24.3125 -8.8125 24.3125 C-8.83932792 20.49995377 -8.85925477 16.68759388 -8.875 12.875 C-8.88337891 11.78638672 -8.89175781 10.69777344 -8.90039062 9.57617188 C-8.90361328 8.54169922 -8.90683594 7.50722656 -8.91015625 6.44140625 C-8.91539307 5.48306885 -8.92062988 4.52473145 -8.92602539 3.53735352 C-8.67333624 -1.41481046 -3.89618558 0.05113104 0 0 Z " fill="#8E581C" transform="translate(170.8125,95.6875)"/>
<path d="M0 0 C0.66 0.33 1.32 0.66 2 1 C-1.21528829 4.58274981 -3.161903 6.47696249 -8 7 C-8.66 7.33 -9.32 7.66 -10 8 C-13.05623236 7.95162798 -16.09998103 7.80401071 -19.15234375 7.64453125 C-22.08107251 7.72721981 -22.08107251 7.72721981 -23.90234375 9.77734375 C-25.32471811 12.65752528 -24.78928055 14.74938211 -24.28125 17.84375 C-23.79961216 21.53630674 -24.14833713 24.35001627 -25 28 C-27.48893804 30.77338811 -29.35185124 31.78864714 -32.875 32.9375 C-37.09366035 33.02187321 -39.30076477 32.03095268 -43 30 C-43.33 29.01 -43.66 28.02 -44 27 C-39.38 26.67 -34.76 26.34 -30 26 C-30 18.41 -30 10.82 -30 3 C-29.67 3 -29.34 3 -29 3 C-28.97113016 6.97915159 -28.95324594 10.95827653 -28.9375 14.9375 C-28.92912109 16.07380859 -28.92074219 17.21011719 -28.91210938 18.38085938 C-28.90888672 19.46044922 -28.90566406 20.54003906 -28.90234375 21.65234375 C-28.89710693 22.65257568 -28.89187012 23.65280762 -28.88647461 24.68334961 C-29 27 -29 27 -30 28 C-31.84891946 28.23363881 -33.70488031 28.41303635 -35.5625 28.5625 C-38.2540625 28.7790625 -38.2540625 28.7790625 -41 29 C-36.71 29 -32.42 29 -28 29 C-27.67 21.08 -27.34 13.16 -27 5 C-16.875 4.1875 -16.875 4.1875 -13.71826172 3.95385742 C-8.44583051 3.48989564 -4.69238019 2.61603943 0 0 Z " fill="#895417" transform="translate(192,129)"/>
<path d="M0 0 C-1 2 -1 2 -3.1171875 2.859375 C-4.02726562 3.15328125 -4.93734375 3.4471875 -5.875 3.75 C-23.56315669 9.93627242 -43.78300467 23.41790411 -52.75390625 40.30078125 C-53.16511719 41.19152344 -53.57632813 42.08226562 -54 43 C-54.66 43 -55.32 43 -56 43 C-56.27070312 43.70769531 -56.54140625 44.41539063 -56.8203125 45.14453125 C-58.03371476 48.08160759 -59.41945493 50.86313923 -60.875 53.6875 C-63.57031221 59.018669 -65.89787332 64.41081611 -68 70 C-69.92883928 65.32895549 -67.60730851 61.52986075 -65.81005859 57.12988281 C-62.70397846 49.85397267 -58.4979103 43.47729891 -54 37 C-53.3503125 36.00871094 -52.700625 35.01742187 -52.03125 33.99609375 C-47.27369123 26.98649384 -41.80690007 21.99826039 -35 17 C-33.95328125 16.22527344 -32.9065625 15.45054688 -31.828125 14.65234375 C-10.73589322 -0.61347961 -10.73589322 -0.61347961 0 0 Z " fill="#F2C881" transform="translate(97,26)"/>
<path d="M0 0 C13.9123684 13.10407939 22.07357176 33.0300961 23.24609375 51.9765625 C23.2493841 54.99710816 23.18870729 57.98592519 23 61 C22.01 61.495 22.01 61.495 21 62 C20.89042969 60.90042969 20.78085938 59.80085938 20.66796875 58.66796875 C19.08022786 43.53985009 15.78318602 30.01983184 7.953125 16.8125 C7 15 7 15 7 13 C6.34 13 5.68 13 5 13 C4.71125 12.360625 4.4225 11.72125 4.125 11.0625 C3.17176549 8.84793921 3.17176549 8.84793921 1 8 C1 7.01 1 6.02 1 5 C0.34 5 -0.32 5 -1 5 C-0.67 3.35 -0.34 1.7 0 0 Z " fill="#8C571B" transform="translate(196,63)"/>
<path d="M0 0 C5.94 0 11.88 0 18 0 C14.70798713 3.29201287 10.35792824 2.45967456 5.87109375 2.65625 C4.92363281 2.7696875 3.97617188 2.883125 3 3 C1.83828222 5.32343556 1.87096031 6.69633316 1.8671875 9.28125 C1.86589844 10.12300781 1.86460938 10.96476562 1.86328125 11.83203125 C1.86714844 12.71246094 1.87101562 13.59289062 1.875 14.5 C1.87113281 15.38042969 1.86726563 16.26085937 1.86328125 17.16796875 C1.86457031 18.00972656 1.86585937 18.85148437 1.8671875 19.71875 C1.86831543 20.49154297 1.86944336 21.26433594 1.87060547 22.06054688 C1.87992914 24.08209199 1.87992914 24.08209199 3 26 C3.02876513 28.42803818 2.99697519 30.82137811 2.9140625 33.24609375 C2.89282318 33.97184097 2.87158386 34.6975882 2.84970093 35.44532776 C2.80337283 36.9879626 2.75443934 38.53052102 2.703125 40.07299805 C2.62634393 42.39682526 2.55855627 44.72077668 2.4921875 47.04492188 C2.24983682 55.06091286 1.8775041 63.02298692 1 71 C0.67 71 0.34 71 0 71 C0 47.57 0 24.14 0 0 Z " fill="#CF9850" transform="translate(64,84)"/>
<path d="M0 0 C0 4.76598009 -3.06341447 7.41286653 -6 11 C-6.65355469 11.80179688 -7.30710938 12.60359375 -7.98046875 13.4296875 C-20.49221555 28.06091053 -38.90236591 39.5032501 -58 43 C-59.99929985 43.05291588 -62.001188 43.06892455 -64 43 C-61.39362364 41.26241576 -59.64401625 40.44152113 -56.7265625 39.52734375 C-55.9015625 39.26759766 -55.0765625 39.00785156 -54.2265625 38.74023438 C-53.36804688 38.47533203 -52.50953125 38.21042969 -51.625 37.9375 C-50.77421875 37.66873047 -49.9234375 37.39996094 -49.046875 37.12304688 C-45.05682822 35.87693413 -41.13204836 34.68867473 -37 34 C-37 33.34 -37 32.68 -37 32 C-36.38253906 31.72027344 -35.76507813 31.44054687 -35.12890625 31.15234375 C-28.72253689 28.11980057 -23.42093804 24.54213388 -18 20 C-17.34386719 19.48953125 -16.68773437 18.9790625 -16.01171875 18.453125 C-9.55939371 13.22919851 -4.87876731 6.64832021 0 0 Z " fill="#DBAA63" transform="translate(205,175)"/>
<path d="M0 0 C0.70431152 0.11762695 1.40862305 0.23525391 2.13427734 0.35644531 C4.08203125 0.73828125 4.08203125 0.73828125 7.1875 1.6875 C8.1775 3.1725 8.1775 3.1725 9.1875 4.6875 C5.45934739 4.21156562 1.90433552 3.62477722 -1.73046875 2.671875 C-7.85188025 1.30238974 -13.93773104 1.30527631 -20.1875 1.3125 C-21.41887695 1.31193604 -22.65025391 1.31137207 -23.91894531 1.31079102 C-33.6152554 1.42646408 -42.47587899 2.77713522 -51.82226562 5.22998047 C-55.12512921 5.98925014 -58.44480664 6.32883311 -61.8125 6.6875 C-59.14365993 4.90827328 -57.6124777 4.21988575 -54.609375 3.43359375 C-53.79339844 3.21896484 -52.97742188 3.00433594 -52.13671875 2.78320312 C-51.28722656 2.56599609 -50.43773438 2.34878906 -49.5625 2.125 C-48.72847656 1.90392578 -47.89445312 1.68285156 -47.03515625 1.45507812 C-31.83328236 -2.49454531 -15.47468604 -2.66559352 0 0 Z " fill="#B77F3B" transform="translate(148.8125,20.3125)"/>
<path d="M0 0 C0.33 0 0.66 0 1 0 C3.86384046 15.43977316 3.25832956 32.86772175 -1 48 C-1.99 47.67 -2.98 47.34 -4 47 C-3.85636473 45.62476865 -3.70996483 44.24982598 -3.5625 42.875 C-3.48128906 42.10929687 -3.40007812 41.34359375 -3.31640625 40.5546875 C-3.0952477 38.76903698 -2.81757694 36.98988883 -2.49780273 35.21923828 C-2.01429097 32.09241822 -1.81264781 29.0980604 -1.71875 25.9375 C-1.68136719 24.81085938 -1.64398438 23.68421875 -1.60546875 22.5234375 C-1.57066406 21.36070313 -1.53585938 20.19796875 -1.5 19 C-1.43077543 16.68738653 -1.35797646 14.37487673 -1.28125 12.0625 C-1.25095703 11.04285156 -1.22066406 10.02320312 -1.18945312 8.97265625 C-0.9953246 5.92663958 -0.55216715 3.00003365 0 0 Z " fill="#593109" transform="translate(232,106)"/>
<path d="M0 0 C3.69287153 0.90270193 5.55368289 1.40491051 7.875 4.5 C9 7 9 7 9 9 C9.66 9 10.32 9 11 9 C13.89250999 19.57318622 15.42622211 28.11652401 10 38 C7.3125 40.4375 7.3125 40.4375 5 42 C4.67 41.34 4.34 40.68 4 40 C4.66 40 5.32 40 6 40 C6.48108275 38.58398286 6.95978141 37.16715563 7.4375 35.75 C7.70433594 34.96109375 7.97117188 34.1721875 8.24609375 33.359375 C9.55524443 29.26234386 10.13688702 25.82687695 10.125 21.5 C10.12757813 20.5615625 10.13015625 19.623125 10.1328125 18.65625 C10.01392868 16.2785737 9.67551722 14.27316904 9 12 C8.34 12.66 7.68 13.32 7 14 C6.773125 12.989375 6.54625 11.97875 6.3125 10.9375 C5.09133139 6.56981665 2.76115807 3.56044067 0 0 Z " fill="#845015" transform="translate(190,87)"/>
<path d="M0 0 C10.99362629 4.447803 22.85808992 11.28842004 30 21 C30.73046875 23.765625 30.73046875 23.765625 31 26 C30.51789063 25.57847656 30.03578125 25.15695313 29.5390625 24.72265625 C28.59160156 23.90087891 28.59160156 23.90087891 27.625 23.0625 C26.99851563 22.51722656 26.37203125 21.97195312 25.7265625 21.41015625 C24.04367666 19.93041376 24.04367666 19.93041376 22 19 C22 18.34 22 17.68 22 17 C21.01 17 20.02 17 19 17 C17.66666667 15.66666667 16.33333333 14.33333333 15 13 C12.71892339 11.54483044 10.38529553 10.2843899 8 9 C8 8.34 8 7.68 8 7 C7.34 6.67 6.68 6.34 6 6 C4.66666667 5 3.33333333 4 2 3 C1.34 2.67 0.68 2.34 0 2 C0 1.34 0 0.68 0 0 Z " fill="#734410" transform="translate(166,41)"/>
<path d="M0 0 C4.81812263 0.60133734 9.01600407 1.99969061 13.4375 3.9375 C14.47052246 4.38959839 14.47052246 4.38959839 15.52441406 4.85083008 C24.3950215 8.89514005 34.6805625 14.44483092 41 22 C41 22.99 41 23.98 41 25 C41.99 25.33 42.98 25.66 44 26 C43.67 26.66 43.34 27.32 43 28 C42.38253906 27.43152344 41.76507813 26.86304687 41.12890625 26.27734375 C29.88501598 15.85958123 29.88501598 15.85958123 16.41796875 8.8984375 C12.79568202 7.55251513 9.42468938 5.7782041 6 4 C4.845 3.4225 3.69 2.845 2.5 2.25 C1.675 1.8375 0.85 1.425 0 1 C0 0.67 0 0.34 0 0 Z " fill="#744613" transform="translate(157,23)"/>
<path d="M0 0 C1.68452094 3.00163607 2.34754603 5.53975943 2.8125 8.9375 C4.61227161 19.33464213 8.69653002 28.19345417 14.64453125 36.85546875 C16 39 16 39 16 41 C8.04868806 37.80923748 4.61677114 26.57462925 1.328125 19.26171875 C-3.66576819 6.99730458 -3.66576819 6.99730458 -2 2 C-1.34 3.98 -0.68 5.96 0 8 C0 5.36 0 2.72 0 0 Z " fill="#7C4A13" transform="translate(39,140)"/>
<path d="M0 0 C5.94 0 11.88 0 18 0 C18 0.33 18 0.66 18 1 C10.08 1.495 10.08 1.495 2 2 C1.04382182 4.39044544 0.0878391 6.78096925 -0.8671875 9.171875 C-1.55622747 10.89209892 -2.24816067 12.61117255 -2.9453125 14.328125 C-4.51373598 18.2030536 -6.0398786 22.08741565 -7.48046875 26.01171875 C-7.87226318 27.07495361 -7.87226318 27.07495361 -8.27197266 28.15966797 C-8.78786798 29.56459848 -9.29946517 30.97111692 -9.80615234 32.37939453 C-11.20046555 36.17383162 -12.64375249 39.69869929 -15 43 C-15.66 43 -16.32 43 -17 43 C-14.60259193 35.55541703 -11.858706 28.27889006 -9 21 C-8.74782715 20.35595215 -8.4956543 19.7119043 -8.23583984 19.04833984 C-7.45259555 17.05157739 -6.66464377 15.05673953 -5.875 13.0625 C-5.39804688 11.85722656 -4.92109375 10.65195313 -4.4296875 9.41015625 C-3.08925481 6.21289468 -1.55043486 3.10086973 0 0 Z " fill="#DFAC63" transform="translate(118,84)"/>
<path d="M0 0 C0.33 0 0.66 0 1 0 C1 1.65 1 3.3 1 5 C1.66 5 2.32 5 3 5 C2.4989373 11.1019827 1.10168846 15.88851993 -1.4375 21.4375 C-1.75009766 22.15615234 -2.06269531 22.87480469 -2.38476562 23.61523438 C-4.72943579 28.8647179 -4.72943579 28.8647179 -7 30 C-7 28.68 -7 27.36 -7 26 C-6.34 26 -5.68 26 -5 26 C-5.33 25.34 -5.66 24.68 -6 24 C-6.36408242 19.3579491 -5.87989901 16.17450365 -3.8671875 11.9765625 C-2.17866952 8.12795847 -1.14532999 4.03708516 0 0 Z " fill="#542F0A" transform="translate(227,148)"/>
<path d="M0 0 C4.04046193 1.34682064 4.8173975 3.87155982 6.6875 7.4375 C10.19344973 13.8643898 14.27231112 19.40224864 19 25 C20.00945402 26.32619016 21.01268258 27.65724831 22 29 C20.68 29.33 19.36 29.66 18 30 C12.78208931 24.067906 8.51447095 17.84907334 4.5 11.0625 C4.05479004 10.31685791 3.60958008 9.57121582 3.15087891 8.80297852 C2.5347876 7.74228149 2.5347876 7.74228149 1.90625 6.66015625 C1.35420898 5.71088257 1.35420898 5.71088257 0.79101562 4.74243164 C0 3 0 3 0 0 Z " fill="#7E4D17" transform="translate(30,168)"/>
<path d="M0 0 C1.23733887 -0.00531738 2.47467773 -0.01063477 3.74951172 -0.01611328 C13.57784914 0.060576 13.57784914 0.060576 18.4375 2.3125 C18.4375 2.6425 18.4375 2.9725 18.4375 3.3125 C17.45990723 3.30202637 16.48231445 3.29155273 15.47509766 3.28076172 C11.80358631 3.24421026 8.13209061 3.22147338 4.46044922 3.20263672 C2.87969242 3.19265841 1.29895369 3.17907093 -0.28173828 3.16162109 C-11.98805698 2.9826395 -11.98805698 2.9826395 -23.50634766 4.87939453 C-25.89829721 5.38323192 -28.12502141 5.38007472 -30.5625 5.3125 C-23.68648599 -1.56351401 -8.94054343 0.01946833 0 0 Z " fill="#DDAA62" transform="translate(128.5625,20.6875)"/>
<path d="M0 0 C0.33 0 0.66 0 1 0 C1.02886984 3.97915159 1.04675406 7.95827653 1.0625 11.9375 C1.07087891 13.07380859 1.07925781 14.21011719 1.08789062 15.38085938 C1.09111328 16.46044922 1.09433594 17.54003906 1.09765625 18.65234375 C1.10289307 19.65257568 1.10812988 20.65280762 1.11352539 21.68334961 C1 24 1 24 0 25 C-1.84891946 25.23363881 -3.70488031 25.41303635 -5.5625 25.5625 C-8.2540625 25.7790625 -8.2540625 25.7790625 -11 26 C-6.71 26 -2.42 26 2 26 C2 25.34 2 24.68 2 24 C2.66 24 3.32 24 4 24 C4 19.05 4 14.1 4 9 C6.57258991 14.14517983 6.64887411 18.34551501 5.3125 23.8125 C3.19239589 27.34600685 0.39276111 28.48687749 -3.375 29.875 C-7.18334702 30.05634986 -9.6841054 28.78548171 -13 27 C-13.33 26.01 -13.66 25.02 -14 24 C-9.38 23.67 -4.76 23.34 0 23 C0 15.41 0 7.82 0 0 Z " fill="#8D571B" transform="translate(162,132)"/>
<path d="M0 0 C0 0.66 0 1.32 0 2 C-0.66644531 2.3403125 -1.33289063 2.680625 -2.01953125 3.03125 C-8.28073013 6.32385249 -13.95766718 9.9855026 -19.58984375 14.265625 C-21.67953682 15.76939117 -23.66350836 16.93746552 -26 18 C-25.5112115 12.97246116 -21.66708267 10.69338917 -18.01220703 7.66259766 C-12.92183859 3.62489034 -6.68052248 0 0 0 Z " fill="#8D581C" transform="translate(90,46)"/>
<path d="M0 0 C1.27552734 -0.00773437 2.55105469 -0.01546875 3.86523438 -0.0234375 C10.40218469 -0.00986832 16.19350862 0.2657808 22.4375 2.25 C22.4375 2.58 22.4375 2.91 22.4375 3.25 C18.8075 3.25 15.1775 3.25 11.4375 3.25 C11.4375 2.59 11.4375 1.93 11.4375 1.25 C7.1870727 1.5568562 2.93725339 1.87145821 -1.3125 2.1875 C-2.5190625 2.27451172 -3.725625 2.36152344 -4.96875 2.45117188 C-6.70898438 2.58168945 -6.70898438 2.58168945 -8.484375 2.71484375 C-10.08684082 2.83267212 -10.08684082 2.83267212 -11.72167969 2.95288086 C-14.11400188 3.20309194 -16.24967783 3.62672276 -18.5625 4.25 C-19.97784778 4.31456879 -21.39587689 4.33611039 -22.8125 4.3125 C-24.66875 4.2815625 -24.66875 4.2815625 -26.5625 4.25 C-18.78382663 -0.93578224 -8.98355785 -0.05463897 0 0 Z " fill="#895418" transform="translate(126.5625,35.75)"/>
<path d="M0 0 C0.33 0.99 0.66 1.98 1 3 C-0.109375 5.19921875 -0.109375 5.19921875 -1.75 7.6875 C-5.40687311 13.50795232 -7.92793186 19.13876388 -9 26 C-9.66 26 -10.32 26 -11 26 C-11.33 27.65 -11.66 29.3 -12 31 C-14.53415902 22.86109511 -10.33070388 14.77907104 -6.59765625 7.65234375 C-4.70144973 4.50436276 -2.82363939 2.32535008 0 0 Z " fill="#5B3208" transform="translate(52,73)"/>
<path d="M0 0 C1.65 0 3.3 0 5 0 C4.34 0.66 3.68 1.32 3 2 C2.67869834 4.27695174 2.67869834 4.27695174 2.69140625 6.90234375 C2.66626953 7.87494141 2.64113281 8.84753906 2.61523438 9.84960938 C2.58014589 11.90423491 2.54888094 13.95892938 2.52148438 16.01367188 C2.49505859 16.98755859 2.46863281 17.96144531 2.44140625 18.96484375 C2.42795166 19.8580835 2.41449707 20.75132324 2.40063477 21.67163086 C1.92352627 24.44444242 1.2485273 25.35090158 -1 27 C-3.69921875 27.29296875 -3.69921875 27.29296875 -6.6875 27.1875 C-8.17830078 27.14689453 -8.17830078 27.14689453 -9.69921875 27.10546875 C-10.45847656 27.07066406 -11.21773437 27.03585938 -12 27 C-12.33 26.34 -12.66 25.68 -13 25 C-9.04 24.67 -5.08 24.34 -1 24 C-0.67 16.08 -0.34 8.16 0 0 Z " fill="#583007" transform="translate(163,132)"/>
<path d="M0 0 C2.26875 -0.061875 4.5375 -0.12375 6.875 -0.1875 C8.78925781 -0.23970703 8.78925781 -0.23970703 10.7421875 -0.29296875 C11.81726563 -0.19628906 12.89234375 -0.09960938 14 0 C14.66 0.99 15.32 1.98 16 3 C15.14535156 2.98839844 14.29070312 2.97679688 13.41015625 2.96484375 C11.75306641 2.95130859 11.75306641 2.95130859 10.0625 2.9375 C8.40927734 2.92009766 8.40927734 2.92009766 6.72265625 2.90234375 C4.08552366 2.68737429 4.08552366 2.68737429 3 4 C2.84379445 5.41327947 2.74943827 6.8335459 2.68359375 8.25390625 C2.64169922 9.10791016 2.59980469 9.96191406 2.55664062 10.84179688 C2.49766602 12.18854492 2.49766602 12.18854492 2.4375 13.5625 C2.39431641 14.46419922 2.35113281 15.36589844 2.30664062 16.29492188 C2.20021858 18.52978485 2.09820012 20.76476308 2 23 C1.34 23 0.68 23 0 23 C0 15.41 0 7.82 0 0 Z " fill="#5A3108" transform="translate(163,96)"/>
<path d="M0 0 C0.66 0.66 1.32 1.32 2 2 C1.70134816 5.88247398 0.7227212 7.38199884 -2 10 C-2.4125 11.03125 -2.825 12.0625 -3.25 13.125 C-5 16 -5 16 -8.3125 17 C-12.03121647 17 -14.58527048 16.41586346 -18 15 C-18 14.01 -18 13.02 -18 12 C-16.35425434 11.97311849 -14.70838587 11.95365877 -13.0625 11.9375 C-12.14597656 11.92589844 -11.22945313 11.91429687 -10.28515625 11.90234375 C-8 12 -8 12 -7 13 C-5.1951499 10.16380699 -3.67055595 7.34529376 -2.375 4.25 C-1 1 -1 1 0 0 Z " fill="#865217" transform="translate(113,138)"/>
<path d="M0 0 C-1.58014221 3.9968303 -4.21262514 6.28479738 -7.375 9.125 C-8.80972656 10.42824219 -8.80972656 10.42824219 -10.2734375 11.7578125 C-12.5081846 13.59555582 -14.35849053 14.8858088 -17 16 C-17.33 14.68 -17.66 13.36 -18 12 C-17.40832031 11.55269531 -16.81664062 11.10539063 -16.20703125 10.64453125 C-10.93460336 6.64787209 -10.93460336 6.64787209 -6.1875 2.0625 C-4 0 -4 0 0 0 Z " fill="#532D08" transform="translate(206,197)"/>
<path d="M0 0 C2.10696836 3.16045254 3.26698539 6.08301923 4.6015625 9.63671875 C4.8428891 10.27615921 5.0842157 10.91559967 5.33285522 11.57441711 C6.10046047 13.61079355 6.86279195 15.64909807 7.625 17.6875 C8.14548644 19.07109409 8.66631585 20.45455921 9.1875 21.83789062 C10.4623119 25.22377468 11.73240249 28.61140745 13 32 C12.01 32.495 12.01 32.495 11 33 C9.32517725 28.73232002 7.66154501 24.46036507 6 20.1875 C5.52304688 18.97255859 5.04609375 17.75761719 4.5546875 16.50585938 C4.10351562 15.34248047 3.65234375 14.17910156 3.1875 12.98046875 C2.76855469 11.90692139 2.34960938 10.83337402 1.91796875 9.72729492 C1 7 1 7 1 4 C0.34 4 -0.32 4 -1 4 C-1 7.96 -1 11.92 -1 16 C-1.33 16 -1.66 16 -2 16 C-2 11.05 -2 6.1 -2 1 C-1.34 0.67 -0.68 0.34 0 0 Z " fill="#945E20" transform="translate(83,118)"/>
<path d="M0 0 C5.94 0 11.88 0 18 0 C14.70798713 3.29201287 10.35792824 2.45967456 5.87109375 2.65625 C4.92363281 2.7696875 3.97617188 2.883125 3 3 C1.85313897 5.29372206 1.89731951 6.5261061 1.9375 9.0703125 C1.94523437 9.885 1.95296875 10.6996875 1.9609375 11.5390625 C1.98662521 13.23958872 2.01265698 14.94010978 2.0390625 16.640625 C2.08821151 21.86680297 1.76447776 26.82783012 1 32 C0.67 32 0.34 32 0 32 C0 21.44 0 10.88 0 0 Z " fill="#DEAA61" transform="translate(64,84)"/>
<path d="M0 0 C5.78201806 5.08116739 11.84005172 12.37812165 12.9375 20.1875 C12.958125 21.115625 12.97875 22.04375 13 23 C10.38275905 20.63202009 8.67138271 18.10399646 7 15 C7 14.34 7 13.68 7 13 C6.34 13 5.68 13 5 13 C4.71125 12.360625 4.4225 11.72125 4.125 11.0625 C3.17176549 8.84793921 3.17176549 8.84793921 1 8 C1 7.01 1 6.02 1 5 C0.34 5 -0.32 5 -1 5 C-0.67 3.35 -0.34 1.7 0 0 Z " fill="#814E16" transform="translate(196,63)"/>
<path d="M0 0 C0.33 0.66 0.66 1.32 1 2 C1.66 2 2.32 2 3 2 C3.91259499 3.4195922 4.82223648 4.84119314 5.71484375 6.2734375 C7.64535895 8.86701719 10.07412374 10.72179419 12.609375 12.703125 C13.06828125 13.13109375 13.5271875 13.5590625 14 14 C14 14.66 14 15.32 14 16 C15.65 16.66 17.3 17.32 19 18 C18.01 18.66 17.02 19.32 16 20 C9.34707654 14.80277951 3.27855799 9.61170916 -2 3 C-1.34 2.67 -0.68 2.34 0 2 C0 1.34 0 0.68 0 0 Z " fill="#885318" transform="translate(55,179)"/>
<path d="M0 0 C3.02035135 3.48976546 4.89816323 6.6604679 6.54296875 10.96484375 C6.97673828 12.09470703 7.41050781 13.22457031 7.85742188 14.38867188 C8.29634766 15.55978516 8.73527344 16.73089844 9.1875 17.9375 C9.63802734 19.10474609 10.08855469 20.27199219 10.55273438 21.47460938 C12.52744473 26.67043647 14.22786175 31.47449829 15 37 C11.80158424 34.37076405 10.77257003 31.36146524 9.3359375 27.5390625 C9.09839752 26.91148041 8.86085754 26.28389832 8.61611938 25.63729858 C8.11652175 24.31238251 7.62086433 22.98597481 7.12890625 21.65820312 C6.37898332 19.63574257 5.61637827 17.61843189 4.8515625 15.6015625 C0.81971005 4.86910057 0.81971005 4.86910057 0 0 Z " fill="#764612" transform="translate(85,85)"/>
<path d="M0 0 C0.33 0 0.66 0 1 0 C1 9.24 1 18.48 1 28 C5.29 28 9.58 28 14 28 C14 28.33 14 28.66 14 29 C11.68802845 29.19390729 9.3753971 29.37996367 7.0625 29.5625 C5.13083984 29.71912109 5.13083984 29.71912109 3.16015625 29.87890625 C2.11730469 29.91886719 1.07445313 29.95882812 0 30 C-1.69625307 28.30374693 -1.1301121 26.14661482 -1.1328125 23.828125 C-1.13410156 22.77109375 -1.13539062 21.7140625 -1.13671875 20.625 C-1.13285156 19.51125 -1.12898438 18.3975 -1.125 17.25 C-1.12886719 16.15171875 -1.13273437 15.0534375 -1.13671875 13.921875 C-1.13542969 12.8596875 -1.13414063 11.7975 -1.1328125 10.703125 C-1.13112061 9.24374512 -1.13112061 9.24374512 -1.12939453 7.75488281 C-1.00333815 5.07107116 -0.59983478 2.61496991 0 0 Z " fill="#986123" transform="translate(123,128)"/>
<path d="M0 0 C0.66 0 1.32 0 2 0 C2.31545202 4.62662968 1.89677066 6.45950253 -1 10 C-2.01965427 12.32481174 -3.02059602 14.65794699 -4 17 C-4.66 17.99 -5.32 18.98 -6 20 C-8.3828125 20.29296875 -8.3828125 20.29296875 -11.125 20.1875 C-12.03507812 20.16042969 -12.94515625 20.13335937 -13.8828125 20.10546875 C-14.58148438 20.07066406 -15.28015625 20.03585938 -16 20 C-16 19.67 -16 19.34 -16 19 C-13.03 19 -10.06 19 -7 19 C-6.8453125 17.9790625 -6.8453125 17.9790625 -6.6875 16.9375 C-5.86084185 13.40541518 -4.45592926 10.31951871 -3 7 C-2.62875 5.88625 -2.2575 4.7725 -1.875 3.625 C-1 1 -1 1 0 0 Z " fill="#5F350A" transform="translate(112,132)"/>
<path d="M0 0 C0.97918775 3.07556958 1.1498998 3.68592423 -0.3125 6.75 C-0.869375 7.4925 -1.42625 8.235 -2 9 C-2.66 9 -3.32 9 -4 9 C-4.268125 9.69996094 -4.53625 10.39992188 -4.8125 11.12109375 C-6.07519646 14.18230194 -7.50578851 17.10769678 -9 20.0625 C-9.515625 21.08472656 -10.03125 22.10695313 -10.5625 23.16015625 C-11.2740625 24.56587891 -11.2740625 24.56587891 -12 26 C-12.66754487 27.33289387 -13.33461323 28.66602749 -14 30 C-13.80306898 18.3810701 -7.21766459 8.75108784 0 0 Z " fill="#855116" transform="translate(57,69)"/>
<path d="M0 0 C-0.81082031 0.47308594 -1.62164062 0.94617187 -2.45703125 1.43359375 C-13.05967718 7.76555808 -22.50185988 14.97978983 -31 24 C-31 21 -31 21 -29.06640625 18.80859375 C-28.24011719 18.02613281 -27.41382813 17.24367188 -26.5625 16.4375 C-23.36158822 13.53104307 -23.36158822 13.53104307 -21 10 C-19.34151823 8.98648336 -17.67334039 7.98879205 -16 7 C-15.2575 6.360625 -14.515 5.72125 -13.75 5.0625 C-4.2 -2.1 -4.2 -2.1 0 0 Z " fill="#4D2805" transform="translate(89,44)"/>
<path d="M0 0 C-4.98115963 4.40195502 -9.24775615 7.17655563 -16 8 C-19.3125 7.5625 -19.3125 7.5625 -22 7 C-17.92622406 4.28414938 -13.5589931 2.73980266 -9 1 C-7.865625 0.566875 -6.73125 0.13375 -5.5625 -0.3125 C-3 -1 -3 -1 0 0 Z " fill="#764610" transform="translate(174,219)"/>
<path d="M0 0 C0.33 0 0.66 0 1 0 C0.64471315 13.72699189 -4.67472094 25.66376123 -12 37 C-13.24546405 34.50907189 -12.7767578 33.58919267 -12 31 C-11.34 31 -10.68 31 -10 31 C-9.88269531 30.44957031 -9.76539063 29.89914063 -9.64453125 29.33203125 C-8.90096759 26.64168274 -7.82615249 24.23624845 -6.6875 21.6875 C-3.68925905 14.63640428 -1.81498559 7.42217572 0 0 Z " fill="#D19E57" transform="translate(219,138)"/>
<path d="M0 0 C0.66 0 1.32 0 2 0 C2.29181097 5.05805676 2.00729921 7.06737795 -1 11 C-1.79022474 12.89231076 -2.51828577 14.81158636 -3.1875 16.75 C-3.70376953 18.22726563 -3.70376953 18.22726563 -4.23046875 19.734375 C-4.48441406 20.48203125 -4.73835938 21.2296875 -5 22 C-5.66 22 -6.32 22 -7 22 C-6.60886236 16.52407304 -5.60378389 12.71096235 -2.98828125 7.8984375 C-1.66791642 5.3620845 -0.81994685 2.73315616 0 0 Z " fill="#5E350A" transform="translate(121,109)"/>
<path d="M0 0 C1 3 1 3 0.4375 5.875 C-0.06295871 9.44970509 0.57557901 10.75548552 2 14 C2.37400786 16.32716 2.70764733 18.66117862 3 21 C3.31966139 22.66934283 3.64731066 24.3373217 4 26 C3.34 26.33 2.68 26.66 2 27 C-0.65271062 19.32482393 -2.89393864 11.15611832 -3 3 C-1.5390625 1.08984375 -1.5390625 1.08984375 0 0 Z " fill="#C38B45" transform="translate(26,130)"/>
<path d="M0 0 C0.33 0 0.66 0 1 0 C1.16050143 4.89529365 1.03490358 9.320606 0.0625 14.125 C-1.32461067 21.040878 -1.63932822 27.96690031 -2 35 C-2.33 35 -2.66 35 -3 35 C-4.72058396 22.65668025 -2.84911537 12.04454352 0 0 Z " fill="#BF8843" transform="translate(25,94)"/>
<path d="M0 0 C0.33 0 0.66 0 1 0 C2.11003503 6.27835815 2.18355827 12.44660379 2.1875 18.8125 C2.19974609 19.84181641 2.21199219 20.87113281 2.22460938 21.93164062 C2.23712275 28.5261911 1.56947815 34.59315011 0 41 C-2 38 -2 38 -1.76220703 36.03369141 C-1.55450684 35.27233887 -1.34680664 34.51098633 -1.1328125 33.7265625 C0.40172181 26.9504728 0.21759012 20.29076979 0.125 13.375 C0.11146484 11.43947266 0.11146484 11.43947266 0.09765625 9.46484375 C0.0742848 6.30969751 0.04152091 3.15495074 0 0 Z " fill="#7E4B13" transform="translate(229,107)"/>
<path d="M0 0 C8.55201116 1.32703621 15.44593101 4.98119232 23 9 C18.69110673 10.39622936 16.99363961 8.99681981 13 7 C9.74899636 6.74803177 9.74899636 6.74803177 7 7 C6.67 6.01 6.34 5.02 6 4 C5.34 4 4.68 4 4 4 C4 3.34 4 2.68 4 2 C2.68 1.67 1.36 1.34 0 1 C0 0.67 0 0.34 0 0 Z " fill="#935C1E" transform="translate(151,39)"/>
<path d="M0 0 C0.33 0 0.66 0 1 0 C1.511744 3.134432 1.65771899 5.87954376 1 9 C-2.00010655 12.79733766 -5.4095437 15.4698479 -10 17 C-11.56118428 17.06740865 -13.1250252 17.08514456 -14.6875 17.0625 C-15.89986328 17.04896484 -15.89986328 17.04896484 -17.13671875 17.03515625 C-17.75160156 17.02355469 -18.36648437 17.01195313 -19 17 C-19.33 16.34 -19.66 15.68 -20 15 C-18.89591797 14.94392578 -18.89591797 14.94392578 -17.76953125 14.88671875 C-10.30488833 14.57724273 -10.30488833 14.57724273 -4 11 C-1.81676123 7.41325059 -0.60984278 4.14693088 0 0 Z " fill="#C9924B" transform="translate(185,105)"/>
<path d="M0 0 C0 0.66 0 1.32 0 2 C-1.14597656 2.50789063 -2.29195312 3.01578125 -3.47265625 3.5390625 C-5.00288092 4.23376572 -6.5328134 4.9291128 -8.0625 5.625 C-8.81466797 5.95628906 -9.56683594 6.28757812 -10.34179688 6.62890625 C-15.1155067 8.81943976 -18.74931403 11.2349564 -22.48999023 14.93896484 C-22.98829346 15.28910645 -23.48659668 15.63924805 -24 16 C-24.99 15.67 -25.98 15.34 -27 15 C-7.90909091 0 -7.90909091 0 0 0 Z " fill="#6B3E0C" transform="translate(95,38)"/>
<path d="M0 0 C3.19735489 4.79603233 3.12560038 9.62872384 3.09765625 15.2734375 C3.09282227 17.00400391 3.09282227 17.00400391 3.08789062 18.76953125 C3.07951172 19.95933594 3.07113281 21.14914063 3.0625 22.375 C3.05798828 23.58800781 3.05347656 24.80101562 3.04882812 26.05078125 C3.03708354 29.03390507 3.0206584 32.01692679 3 35 C1.515 35.495 1.515 35.495 0 36 C0.16242188 35.02289063 0.32484375 34.04578125 0.4921875 33.0390625 C1.09481294 28.80790794 1.1476198 24.64260156 1.125 20.375 C1.13080078 19.26898438 1.13080078 19.26898438 1.13671875 18.140625 C1.12981118 14.28620017 0.84109132 10.75510849 0 7 C-0.03824623 4.66698014 -0.04574284 2.33288492 0 0 Z " fill="#BD853F" transform="translate(218,104)"/>
<path d="M0 0 C4.22547291 0.347806 7.58565873 2.13764791 11.3125 4.0625 C12.38113281 4.61035156 13.44976562 5.15820312 14.55078125 5.72265625 C15.35902344 6.14417969 16.16726562 6.56570312 17 7 C15.02 7.99 15.02 7.99 13 9 C12.505 8.525625 12.01 8.05125 11.5 7.5625 C8.94629956 5.96643722 7.84288993 5.75147942 4.9375 5.5 C1 5 1 5 -1 3.4375 C-1.33 2.963125 -1.66 2.48875 -2 2 C-1.34 1.34 -0.68 0.68 0 0 Z " fill="#C28B44" transform="translate(158,25)"/>
<path d="M0 0 C15.85714286 0.85714286 15.85714286 0.85714286 23 3 C23.99 4.485 23.99 4.485 25 6 C19.69517741 5.26126476 14.40692354 4.45040956 9.125 3.5625 C8.35414063 3.44068359 7.58328125 3.31886719 6.7890625 3.19335938 C4.84663541 2.86335195 2.92068644 2.43919416 1 2 C0.67 1.34 0.34 0.68 0 0 Z " fill="#9F6A2B" transform="translate(133,19)"/>
<path d="M0 0 C4.77753314 0.6081829 8.81490015 1.94881442 13.25 3.8125 C13.87390625 4.06064453 14.4978125 4.30878906 15.140625 4.56445312 C17.96580694 5.76089332 19.73223811 6.58585181 21.421875 9.19921875 C21.61265625 9.79347656 21.8034375 10.38773438 22 11 C14.49864958 8.05643211 7.16777031 4.68074691 0 1 C0 0.67 0 0.34 0 0 Z " fill="#87551D" transform="translate(157,23)"/>
<path d="M0 0 C0.33 0 0.66 0 1 0 C0.1350365 16.00182482 0.1350365 16.00182482 -2 23 C-2.99 23.33 -3.98 23.66 -5 24 C-4.87882813 23.42894531 -4.75765625 22.85789063 -4.6328125 22.26953125 C-3.35129076 16.06893762 -2.35002109 9.85924025 -1.46484375 3.58984375 C-1 1 -1 1 0 0 Z " fill="#996324" transform="translate(218,130)"/>
<path d="M0 0 C0 3.59559238 -0.55598057 3.95690258 -2.95703125 6.46875 C-3.88418945 7.44908203 -3.88418945 7.44908203 -4.83007812 8.44921875 C-5.48427734 9.12597656 -6.13847656 9.80273438 -6.8125 10.5 C-7.77639648 11.51513672 -7.77639648 11.51513672 -8.75976562 12.55078125 C-11.47297964 15.40176468 -14.20936167 18.22467454 -17 21 C-17.66 20.67 -18.32 20.34 -19 20 C-18.57589844 19.5875 -18.15179688 19.175 -17.71484375 18.75 C-13.83769559 14.93250028 -10.19610714 10.98797759 -6.64453125 6.8671875 C-4.52869105 4.46487962 -2.2975339 2.22791166 0 0 Z " fill="#824E14" transform="translate(211,185)"/>
<path d="M0 0 C-5.15783873 3.14066418 -11.12549062 2.64752944 -17 3 C-17.33 9.6 -17.66 16.2 -18 23 C-18.33 23 -18.66 23 -19 23 C-19 15.74 -19 8.48 -19 1 C-4.66964286 -0.07142857 -4.66964286 -0.07142857 0 0 Z " fill="#7B4811" transform="translate(184,133)"/>
<path d="M0 0 C2.4375 0.625 2.4375 0.625 5 2 C5.8125 5.125 5.8125 5.125 6 8 C4.989375 7.505 3.97875 7.01 2.9375 6.5 C-0.79741007 4.87118526 -3.9299397 4.92172961 -8 5 C-8.99 4.34 -9.98 3.68 -11 3 C-10 2 -10 2 -7.49609375 1.90234375 C-5.98208984 1.91974609 -5.98208984 1.91974609 -4.4375 1.9375 C-3.42558594 1.94652344 -2.41367188 1.95554687 -1.37109375 1.96484375 C-0.19740234 1.98224609 -0.19740234 1.98224609 1 2 C0.67 1.34 0.34 0.68 0 0 Z " fill="#814E14" transform="translate(177,96)"/>
<path d="M0 0 C-2.39164168 1.32066755 -4.78780216 2.63161792 -7.1875 3.9375 C-7.86103516 4.31068359 -8.53457031 4.68386719 -9.22851562 5.06835938 C-12.80620758 7.00554868 -15.8986345 8.49827956 -20 9 C-19.34 8.01 -18.68 7.02 -18 6 C-16.515 5.7834375 -16.515 5.7834375 -15 5.5625 C-14.01 5.376875 -13.02 5.19125 -12 5 C-11.71125 4.360625 -11.4225 3.72125 -11.125 3.0625 C-10 1 -10 1 -8.1796875 0.2578125 C-2.47147059 -1.23573529 -2.47147059 -1.23573529 0 0 Z " fill="#55300B" transform="translate(182,218)"/>
<path d="M0 0 C0 0.66 0 1.32 0 2 C-2.20528272 2.67668949 -4.41438609 3.34093498 -6.625 4 C-7.85476562 4.37125 -9.08453125 4.7425 -10.3515625 5.125 C-13.73846826 5.93727719 -16.53854429 6.17041013 -20 6 C-16.63660335 3.75773557 -13.23659448 2.57407253 -9.4375 1.3125 C-8.40979492 0.95575195 -8.40979492 0.95575195 -7.36132812 0.59179688 C-2.24241255 -1.12120628 -2.24241255 -1.12120628 0 0 Z " fill="#D19C55" transform="translate(161,212)"/>
<path d="M0 0 C7.40774509 1.39304941 14.70170537 3.11899623 22 5 C18.42961076 6.91956411 16.10011853 7.50205533 12 7 C10.33333333 5.66666667 8.66666667 4.33333333 7 3 C3.79019864 2.66486406 3.79019864 2.66486406 1 3 C0.67 2.01 0.34 1.02 0 0 Z " fill="#7F4D14" transform="translate(92,223)"/>
<path d="M0 0 C0.66 1.32 1.32 2.64 2 4 C0.10388566 3.85786703 -1.79188394 3.71113093 -3.6875 3.5625 C-4.74324219 3.48128906 -5.79898438 3.40007812 -6.88671875 3.31640625 C-9.65086297 3.03548319 -12.28945741 2.59843148 -15 2 C-15 1.67 -15 1.34 -15 1 C-9.94997778 -0.03590199 -5.12583611 -0.10251672 0 0 Z " fill="#5B350E" transform="translate(119,229)"/>
<path d="M0 0 C0.79921875 0.11085937 1.5984375 0.22171875 2.421875 0.3359375 C3.32679688 0.47902344 3.32679688 0.47902344 4.25 0.625 C-0.22718792 3.60979194 -4.38824093 4.625 -9.75 4.625 C-8.75 1.625 -8.75 1.625 -6.984375 0.4140625 C-4.36852575 -0.50971643 -2.72960832 -0.40141299 0 0 Z " fill="#61380D" transform="translate(156.75,226.375)"/>
<path d="M0 0 C2.12508244 3.18762365 2.5020163 5.26512223 3 9 C2.34 9 1.68 9 1 9 C1 15.6 1 22.2 1 29 C0.67 29 0.34 29 0 29 C0 19.43 0 9.86 0 0 Z " fill="#875217" transform="translate(80,110)"/>
<path d="M0 0 C0 0.33 0 0.66 0 1 C-3.06147257 1.50642925 -6.12432299 2.00399322 -9.1875 2.5 C-10.05181641 2.64308594 -10.91613281 2.78617188 -11.80664062 2.93359375 C-15.90526577 3.59314262 -19.83226024 4.20709266 -24 4 C-18.3015453 -1.6984547 -7.42886073 -0.20667619 0 0 Z " fill="#EFC37A" transform="translate(122,22)"/>
<path d="M0 0 C1.7492214 -0.08142927 3.49954542 -0.13938541 5.25 -0.1875 C6.22453125 -0.22230469 7.1990625 -0.25710937 8.203125 -0.29296875 C11.41096196 0.04304769 12.68367107 0.80586273 15 3 C15.33 3.66 15.66 4.32 16 5 C10.34979382 4.39891424 5.33835539 2.92471317 0 1 C0 0.67 0 0.34 0 0 Z " fill="#61380D" transform="translate(88,225)"/>
<path d="M0 0 C3.48091844 0.85089118 5.53144244 1.4709834 7.9375 4.1875 C9.30367685 7.80385047 8.80451145 10.26999238 8 14 C7.67 14 7.34 14 7 14 C6.773125 12.989375 6.54625 11.97875 6.3125 10.9375 C5.09133139 6.56981665 2.76115807 3.56044067 0 0 Z " fill="#7C4A13" transform="translate(190,87)"/>
<path d="M0 0 C0 0.33 0 0.66 0 1 C-6.80074041 2.90420731 -12.91923749 4.40850553 -20 4 C-13.97022631 -0.01984912 -7.07554765 -0.25729264 0 0 Z " fill="#7F4C14" transform="translate(120,36)"/>
<path d="M0 0 C0.33 0 0.66 0 1 0 C1 1.65 1 3.3 1 5 C1.66 5 2.32 5 3 5 C3 6.32 3 7.64 3 9 C2.38125 9.268125 1.7625 9.53625 1.125 9.8125 C-1.2995233 10.95556848 -1.2995233 10.95556848 -3 14 C-2.40380045 9.13103697 -1.43023178 4.67209049 0 0 Z " fill="#6E400E" transform="translate(227,148)"/>
<path d="M0 0 C0.99 0.495 0.99 0.495 2 1 C2 1.66 2 2.32 2 3 C2.66 3 3.32 3 4 3 C4.22162329 4.62324086 4.42689803 6.248721 4.625 7.875 C4.74101562 8.77992187 4.85703125 9.68484375 4.9765625 10.6171875 C4.98429688 11.40351562 4.99203125 12.18984375 5 13 C4.34 13.66 3.68 14.32 3 15 C2.87625 13.96875 2.7525 12.9375 2.625 11.875 C2.06051147 8.37517112 1.16311332 5.33425817 0 2 C0 1.34 0 0.68 0 0 Z " fill="#693C0C" transform="translate(227,99)"/>
<path d="M0 0 C0.99 0.33 1.98 0.66 3 1 C2.3125 3.4375 2.3125 3.4375 1 6 C-0.65821773 6.37309899 -2.32577014 6.70700977 -4 7 C-5.36020151 8.96758273 -5.36020151 8.96758273 -6 11 C-5.67 9.35 -5.34 7.7 -5 6 C-4.01 5.67 -3.02 5.34 -2 5 C-1.33820153 3.01954441 -1.33820153 3.01954441 -1 1 C-0.67 0.67 -0.34 0.34 0 0 Z " fill="#5F360D" transform="translate(227,157)"/>
<path d="M0 0 C0.33 0.99 0.66 1.98 1 3 C2.98 3 4.96 3 7 3 C6.34 3.66 5.68 4.32 5 5 C2.08047432 4.98251781 -0.72297885 4.86055367 -3.625 4.625 C-4.42679687 4.56828125 -5.22859375 4.5115625 -6.0546875 4.453125 C-8.03715498 4.31152018 -10.01869051 4.15697741 -12 4 C-8.45007754 2.0329434 -6.04215162 2 -2 2 C-1.34 1.34 -0.68 0.68 0 0 Z " fill="#B37B36" transform="translate(77,79)"/>
<path d="M0 0 C-0.928125 0.4021875 -0.928125 0.4021875 -1.875 0.8125 C-4.2995233 1.95556848 -4.2995233 1.95556848 -6 5 C-9.31726155 4.42805835 -10.72635823 3.42999536 -13 1 C-11.39796533 0.63631108 -9.79325797 0.28438048 -8.1875 -0.0625 C-7.29417969 -0.25972656 -6.40085938 -0.45695313 -5.48046875 -0.66015625 C-3 -1 -3 -1 0 0 Z " fill="#744512" transform="translate(152,227)"/>
<path d="M0 0 C0.66 0.66 1.32 1.32 2 2 C1.77870194 4.87687481 1.36521506 6.53951144 -0.4375 8.8125 C-2 10 -2 10 -4 10 C-2.99806563 6.20696275 -2.18975773 3.28463659 0 0 Z " fill="#905A1C" transform="translate(113,138)"/>
<path d="M0 0 C2 3.75 2 3.75 2 6 C1.34 6 0.68 6 0 6 C-0.33 7.65 -0.66 9.3 -1 11 C-2.32 11.33 -3.64 11.66 -5 12 C-3.41037341 7.96479403 -1.71767682 3.98188718 0 0 Z " fill="#6E400D" transform="translate(220,168)"/>
<path d="M0 0 C1.1815224 3.5445672 0.64290553 5.35686868 0 9 C-0.03703069 10.99965715 -0.04760556 13.00056665 0 15 C-2.43486607 12.56513393 -2.44209813 11.42574894 -2.8125 8.0625 C-2.92207031 7.18722656 -3.03164063 6.31195313 -3.14453125 5.41015625 C-3 3 -3 3 -1.51171875 1.18359375 C-1.01285156 0.79300781 -0.51398437 0.40242187 0 0 Z " fill="#CC954E" transform="translate(26,130)"/>
<path d="M0 0 C1.63001953 0.01353516 1.63001953 0.01353516 3.29296875 0.02734375 C4.12441406 0.03894531 4.95585938 0.05054687 5.8125 0.0625 C2.69339144 1.85525866 0.13567572 2.40540718 -3.4375 2.6875 C-4.32953125 2.76226563 -5.2215625 2.83703125 -6.140625 2.9140625 C-7.15382813 2.98753906 -7.15382813 2.98753906 -8.1875 3.0625 C-8.5175 2.4025 -8.8475 1.7425 -9.1875 1.0625 C-5.90230525 -0.03256492 -3.45086585 -0.03710608 0 0 Z " fill="#D09A52" transform="translate(119.1875,22.9375)"/>
<path d="M0 0 C0.33 0 0.66 0 1 0 C1.78774617 8.03501094 1.78774617 8.03501094 -1.5 12.0625 C-2.325 12.701875 -3.15 13.34125 -4 14 C-4.66 13.67 -5.32 13.34 -6 13 C-5.65066406 12.48050781 -5.30132812 11.96101563 -4.94140625 11.42578125 C-1.45944496 6.12275686 -1.45944496 6.12275686 0 0 Z " fill="#D09B53" transform="translate(185,105)"/>
<path d="M0 0 C3.21764451 4.82646677 4.36261136 10.19821824 4 16 C3.67 14.68 3.34 13.36 3 12 C2.34 12 1.68 12 1 12 C0.01751476 7.9472484 -0.08159574 4.16138263 0 0 Z " fill="#4F2C0C" transform="translate(228,90)"/>
<path d="M0 0 C5.94 0 11.88 0 18 0 C18 0.33 18 0.66 18 1 C16.87980469 1.03738281 15.75960937 1.07476562 14.60546875 1.11328125 C13.1327791 1.17894257 11.66012434 1.24538986 10.1875 1.3125 C9.44951172 1.33505859 8.71152344 1.35761719 7.95117188 1.38085938 C3.66892961 1.55557955 3.66892961 1.55557955 -0.01171875 3.54296875 C-0.50091797 4.26419922 -0.50091797 4.26419922 -1 5 C-0.67 3.35 -0.34 1.7 0 0 Z " fill="#E2AE65" transform="translate(118,84)"/>
<path d="M0 0 C0.33 0 0.66 0 1 0 C1.95261487 4.76307437 2.08333357 9.1666528 2 14 C1.01 13.34 0.02 12.68 -1 12 C-0.67 8.04 -0.34 4.08 0 0 Z " fill="#4C2A0A" transform="translate(232,106)"/>
<path d="M0 0 C0.90105469 0.38027344 1.80210938 0.76054687 2.73046875 1.15234375 C3.76107422 1.60287109 3.76107422 1.60287109 4.8125 2.0625 C2.22400579 3.3567471 1.10269914 2.87960662 -1.6875 2.25 C-2.4815625 2.07855469 -3.275625 1.90710938 -4.09375 1.73046875 C-6.1875 1.0625 -6.1875 1.0625 -8.1875 -0.9375 C-4.47968328 -2.17343891 -3.51239747 -1.5053132 0 0 Z " fill="#965F21" transform="translate(96.1875,209.9375)"/>
<path d="M0 0 C3.98175544 2.10148204 6.35039045 4.36905358 9 8 C8.21625 7.649375 7.4325 7.29875 6.625 6.9375 C5.75875 6.628125 4.8925 6.31875 4 6 C3.01 6.495 3.01 6.495 2 7 C1.34 4.69 0.68 2.38 0 0 Z " fill="#7C4A12" transform="translate(183,51)"/>
<path d="M0 0 C2 1 2 1 2.8515625 3.06640625 C3.10679688 3.89011719 3.36203125 4.71382812 3.625 5.5625 C3.88539062 6.38878906 4.14578125 7.21507812 4.4140625 8.06640625 C4.60742188 8.70449219 4.80078125 9.34257812 5 10 C2 9 2 9 0.8125 7.25 C-0.10819096 4.70039426 -0.14948718 2.69076919 0 0 Z " fill="#734310" transform="translate(43,160)"/>
<path d="M0 0 C2.7972908 2.06756277 3.02692273 3.14440371 3.6875 6.6875 C3.790625 7.780625 3.89375 8.87375 4 10 C3.01 10.495 3.01 10.495 2 11 C0.80712589 7.12315913 0 4.08378077 0 0 Z " fill="#9D6728" transform="translate(23,146)"/>
<path d="M0 0 C0.99 0.33 1.98 0.66 3 1 C-3.28571429 6.57142857 -3.28571429 6.57142857 -7 7 C-6.67 6.01 -6.34 5.02 -6 4 C-3.9375 3.3125 -3.9375 3.3125 -2 3 C-2 2.34 -2 1.68 -2 1 C-1.34 0.67 -0.68 0.34 0 0 Z " fill="#71420E" transform="translate(171,218)"/>
<path d="M0 0 C0.99 0.33 1.98 0.66 3 1 C3.33 3.97 3.66 6.94 4 10 C1.7448078 7.7448078 1.02276532 5.9952413 0 3 C0 2.01 0 1.02 0 0 Z " fill="#87561E" transform="translate(26,158)"/>
<path d="M0 0 C2.94586829 4.41880243 3.0985616 6.67767339 3 12 C0.13700494 9.13700494 0.00578775 7.34147716 -0.0625 3.3125 C-0.041875 2.219375 -0.02125 1.12625 0 0 Z " fill="#986121" transform="translate(41,145)"/>
<path d="M0 0 C0.66 0 1.32 0 2 0 C2 1.98 2 3.96 2 6 C1.01 6 0.02 6 -1 6 C-1.625 4.125 -1.625 4.125 -2 2 C-1.34 1.34 -0.68 0.68 0 0 Z " fill="#6C3F0F" transform="translate(112,132)"/>
<path d="M0 0 C4.3177458 0.50797009 8.03302114 1.19682779 12 3 C11.67 3.66 11.34 4.32 11 5 C7.08406554 4.21681311 3.63593365 2.60820142 0 1 C0 0.67 0 0.34 0 0 Z " fill="#905A1D" transform="translate(181,83)"/>
<path d="M0 0 C0 0.66 0 1.32 0 2 C-1.96466413 3.06775224 -3.96855359 4.06553465 -6 5 C-6.66 4.67 -7.32 4.34 -8 4 C-4.5 0 -4.5 0 0 0 Z " fill="#B37A36" transform="translate(87,51)"/>
<path d="M0 0 C0 3 0 3 -1.3125 4.38671875 C-2.875 5.59114583 -4.4375 6.79557292 -6 8 C-6.66 7.67 -7.32 7.34 -8 7 C-5.36 4.69 -2.72 2.38 0 0 Z " fill="#BD8743" transform="translate(57,45)"/>
<path d="M0 0 C0.33 1.32 0.66 2.64 1 4 C-1.97 6.475 -1.97 6.475 -5 9 C-5.33 8.34 -5.66 7.68 -6 7 C-5.34 7 -4.68 7 -4 7 C-3.896875 6.401875 -3.79375 5.80375 -3.6875 5.1875 C-2.91123545 2.71756736 -1.92911079 1.67748765 0 0 Z " fill="#8A5418" transform="translate(200,120)"/>
<path d="M0 0 C-0.33 0.99 -0.66 1.98 -1 3 C-4.0625 4.1875 -4.0625 4.1875 -7 5 C-7.66 4.34 -8.32 3.68 -9 3 C-2.25 0 -2.25 0 0 0 Z " fill="#683B0A" transform="translate(183,214)"/>
<path d="M0 0 C0.99 0.33 1.98 0.66 3 1 C1.35 2.65 -0.3 4.3 -2 6 C-2.66 5.67 -3.32 5.34 -4 5 C-2.68 3.35 -1.36 1.7 0 0 Z " fill="#583008" transform="translate(193,123)"/>
<path d="M0 0 C2.625 0.375 2.625 0.375 5 1 C4.67 2.32 4.34 3.64 4 5 C1.13275314 4.42655063 0.1385485 4.1385485 -2 2 C-1.34 1.34 -0.68 0.68 0 0 Z " fill="#BB833E" transform="translate(158,25)"/>
<path d="M0 0 C1.2380014 3.57644848 0.74926071 6.33694766 0 10 C-1.5625 8.25 -1.5625 8.25 -3 6 C-2.6875 3.75 -2.6875 3.75 -2 2 C-1.34 2 -0.68 2 0 2 C0 1.34 0 0.68 0 0 Z " fill="#4D2B0A" transform="translate(233,135)"/>
<path d="M0 0 C0.66 0.33 1.32 0.66 2 1 C2 1.66 2 2.32 2 3 C0.03852126 4.38938077 -1.96166576 5.7260411 -4 7 C-3.43628586 3.73045798 -2.50037734 2.17424117 0 0 Z " fill="#B07834" transform="translate(58,74)"/>
<path d="M0 0 C2 1.375 2 1.375 4 3 C4 3.66 4 4.32 4 5 C3.34 5 2.68 5 2 5 C2.33 5.99 2.66 6.98 3 8 C2.34 8 1.68 8 1 8 C1 7.01 1 6.02 1 5 C0.34 5 -0.32 5 -1 5 C-0.67 3.35 -0.34 1.7 0 0 Z " fill="#8B561A" transform="translate(196,63)"/>
<path d="M0 0 C0.66 0.33 1.32 0.66 2 1 C0.35 2.98 -1.3 4.96 -3 7 C-3.99 6.67 -4.98 6.34 -6 6 C-4.02 4.02 -2.04 2.04 0 0 Z " fill="#C9924D" transform="translate(49,53)"/>
<path d="M0 0 C0.99 0.66 1.98 1.32 3 2 C-3.625 5.125 -3.625 5.125 -7 4 C-4.69 2.68 -2.38 1.36 0 0 Z " fill="#8C5619" transform="translate(166,219)"/>
<path d="M0 0 C2.475 0.495 2.475 0.495 5 1 C5 1.99 5 2.98 5 4 C5.99 4.33 6.98 4.66 8 5 C7.67 5.66 7.34 6.32 7 7 C5.83040013 6.02433888 4.66438823 5.044375 3.5 4.0625 C2.8503125 3.51722656 2.200625 2.97195312 1.53125 2.41015625 C1.0259375 1.94480469 0.520625 1.47945312 0 1 C0 0.67 0 0.34 0 0 Z " fill="#7F4D14" transform="translate(193,44)"/>
</svg>
