<?xml version="1.0" encoding="UTF-8"?>
<svg version="1.1" xmlns="http://www.w3.org/2000/svg" width="256" height="256">
<path d="M0 0 C21.26078257 18.28462944 37.21582192 42.98414104 39.74755859 71.50292969 C40.51511956 85.64829965 40.72714155 99.80800858 36.74755859 113.50292969 C36.25449219 115.30117188 36.25449219 115.30117188 35.75146484 117.13574219 C27.43957654 144.68864528 8.69816724 168.31877099 -16.69775391 181.94824219 C-44.14943262 195.97116527 -74.4578724 198.34882432 -103.87744141 189.31542969 C-116.67164894 184.77029764 -127.76228854 178.11137434 -138.25244141 169.50292969 C-139.52861328 168.45685547 -139.52861328 168.45685547 -140.83056641 167.38964844 C-160.71200129 150.29036403 -174.82344973 125.92634038 -177.25244141 99.50292969 C-179.00021867 64.14497512 -171.23791679 36.62099165 -148.00244141 9.37792969 C-110.66660815 -31.074634 -42.27945882 -34.53049049 0 0 Z " fill="#D1992E" transform="translate(196.25244140625,41.4970703125)"/>
<path d="M0 0 C21.26078257 18.28462944 37.21582192 42.98414104 39.74755859 71.50292969 C40.51511956 85.64829965 40.72714155 99.80800858 36.74755859 113.50292969 C36.25449219 115.30117188 36.25449219 115.30117188 35.75146484 117.13574219 C27.43957654 144.68864528 8.69816724 168.31877099 -16.69775391 181.94824219 C-44.14943262 195.97116527 -74.4578724 198.34882432 -103.87744141 189.31542969 C-116.67164894 184.77029764 -127.76228854 178.11137434 -138.25244141 169.50292969 C-139.52861328 168.45685547 -139.52861328 168.45685547 -140.83056641 167.38964844 C-160.71200129 150.29036403 -174.82344973 125.92634038 -177.25244141 99.50292969 C-179.00021867 64.14497512 -171.23791679 36.62099165 -148.00244141 9.37792969 C-110.66660815 -31.074634 -42.27945882 -34.53049049 0 0 Z M-140.25244141 20.50292969 C-153.69133764 36.67672324 -163.54471944 56.12382874 -164.25244141 77.50292969 C-164.27822266 78.13537598 -164.30400391 78.76782227 -164.33056641 79.41943359 C-164.73632754 90.50432057 -163.80625491 100.7148577 -161.25244141 111.50292969 C-161.05908203 112.37949219 -160.86572266 113.25605469 -160.66650391 114.15917969 C-157.49058781 126.53287876 -150.70709424 138.06296017 -142.25244141 147.50292969 C-141.48416016 148.41300781 -140.71587891 149.32308594 -139.92431641 150.26074219 C-136.16475622 154.63029724 -133.67230121 157.46158103 -128.25244141 159.50292969 C-125.17092275 161.3430482 -122.21886021 163.38821549 -119.24853516 165.40136719 C-115.57531738 167.90529065 -115.57531738 167.90529065 -111.25244141 168.50292969 C-111.25244141 169.16292969 -111.25244141 169.82292969 -111.25244141 170.50292969 C-103.35098855 174.22558811 -95.85125038 176.42215756 -87.30712891 177.92480469 C-84.25244141 178.50292969 -84.25244141 178.50292969 -82.25244141 179.50292969 C-55.92003285 181.53846373 -30.92342925 175.6845078 -9.61572266 159.79980469 C-9.16583984 159.37183594 -8.71595703 158.94386719 -8.25244141 158.50292969 C-8.25244141 157.84292969 -8.25244141 157.18292969 -8.25244141 156.50292969 C-7.65560547 156.22707031 -7.05876953 155.95121094 -6.44384766 155.66699219 C7.02602063 148.51187499 14.98525238 130.12611226 19.74755859 116.50292969 C20.09431641 115.6534375 20.44107422 114.80394531 20.79833984 113.92871094 C28.9651494 93.05797541 26.68362674 67.15063392 18.01147461 46.83959961 C17.11346773 44.81107649 16.18188658 42.80237211 15.23583984 40.79589844 C14.09469815 38.27101012 13.37462493 36.15730759 12.74755859 33.50292969 C10.82668355 30.82742517 8.76355485 28.51892594 6.43505859 26.19042969 C4.26343663 24.01880773 2.25371695 21.8224143 0.24755859 19.50292969 C-7.92175754 10.14407715 -16.58196489 4.09713345 -27.75244141 -1.24707031 C-28.92637451 -1.81216309 -28.92637451 -1.81216309 -30.12402344 -2.38867188 C-66.58175936 -19.36233799 -113.75577604 -10.24506632 -140.25244141 20.50292969 Z " fill="#DAA73C" transform="translate(196.25244140625,41.4970703125)"/>
<path d="M0 0 C0.99 0.495 0.99 0.495 2 1 C1.67 1.66 1.34 2.32 1 3 C2.98 3 4.96 3 7 3 C7 26.43 7 49.86 7 74 C2.38 74 -2.24 74 -7 74 C-7 59.48 -7 44.96 -7 30 C-7.66 30 -8.32 30 -9 30 C-9.0825 30.928125 -9.165 31.85625 -9.25 32.8125 C-9.8639134 37.07578747 -11.30882373 40.89983329 -12.83203125 44.9140625 C-14.08972854 48.23707541 -15.2640941 51.5838541 -16.4375 54.9375 C-18.73537281 61.39580711 -21.30923526 67.69592261 -24 74 C-27.96 74 -31.92 74 -36 74 C-41.61 60.14 -47.22 46.28 -53 32 C-53.33 45.86 -53.66 59.72 -54 74 C-58.95 74 -63.9 74 -69 74 C-69 50.9 -69 27.8 -69 4 C-62.07 4 -55.14 4 -48 4 C-46.94039062 6.68511719 -45.88078125 9.37023437 -44.7890625 12.13671875 C-43.75979324 14.74472119 -42.73048446 17.35270802 -41.70117188 19.96069336 C-40.98726336 21.76959632 -40.27339576 23.57851543 -39.55957031 25.38745117 C-38.5320094 27.99141648 -37.50430009 30.59532317 -36.4765625 33.19921875 C-36.15877838 34.00461594 -35.84099426 34.81001312 -35.51358032 35.63981628 C-35.2134201 36.4002272 -34.91325989 37.16063812 -34.60400391 37.9440918 C-34.18674042 39.00616348 -34.18674042 39.00616348 -33.76104736 40.08969116 C-33.12365738 41.68960699 -32.4566691 43.27768848 -31.78271484 44.86254883 C-31 47 -31 47 -31 50 C-30.34 50 -29.68 50 -29 50 C-29.06316406 49.01902344 -29.12632813 48.03804687 -29.19140625 47.02734375 C-29.18335308 42.4427875 -27.67885677 38.74972143 -25.9375 34.5625 C-25.62458008 33.78624268 -25.31166016 33.00998535 -24.98925781 32.21020508 C-24.00959568 29.79946308 -23.00911601 27.39854967 -22 25 C-21.6798291 24.23719727 -21.3596582 23.47439453 -21.02978516 22.68847656 C-20.1124687 20.51735251 -19.18511435 18.3510134 -18.25 16.1875 C-17.96890381 15.536604 -17.68780762 14.88570801 -17.39819336 14.21508789 C-15.41798654 9.72469332 -13.49448262 5.49448262 -10 2 C-7.87109375 1.62109375 -7.87109375 1.62109375 -5.4375 1.4375 C-2.41952212 1.41550697 -2.41952212 1.41550697 0 0 Z " fill="#E8B748" transform="translate(130,85)"/>
<path d="M0 0 C0.84643066 0.0407666 1.69286133 0.0815332 2.56494141 0.12353516 C3.96510498 0.1877063 3.96510498 0.1877063 5.39355469 0.25317383 C13.48855829 0.68008688 13.48855829 0.68008688 17.43017578 0.90234375 C19.46064552 1.00751206 21.49325061 1.07177555 23.52587891 1.11962891 C30.7797114 1.40935299 37.04914719 3.93047676 43.04150391 8.03759766 C44.28369141 10.04150391 44.28369141 10.04150391 45.04150391 12.03759766 C45.55712891 13.06884766 46.07275391 14.10009766 46.60400391 15.16259766 C49.83838187 22.90200207 49.59588735 31.13453285 47.04150391 39.03759766 C44.66215096 43.49888443 40.93296246 45.93579745 36.45556641 48.10009766 C28.86922773 50.18330278 20.81827292 49.29682329 13.04150391 49.03759766 C13.04150391 56.62759766 13.04150391 64.21759766 13.04150391 72.03759766 C8.09150391 72.03759766 3.14150391 72.03759766 -1.95849609 72.03759766 C-5.16221968 15.10333959 -5.16221968 15.10333959 -2.95849609 1.03759766 C-1.95849609 0.03759766 -1.95849609 0.03759766 0 0 Z " fill="#D8A134" transform="translate(151.95849609375,86.96240234375)"/>
<path d="M0 0 C4.49540783 1.42998348 7.46261327 3.92435761 10.8125 7.125 C11.33803467 7.6192749 11.86356934 8.1135498 12.4050293 8.62280273 C13.45836681 9.61745131 14.5083318 10.61568504 15.5546875 11.61767578 C16.79744864 12.80627604 18.05370938 13.98073289 19.3125 15.15234375 C37.20110557 32.23735962 47.4432267 58.05157146 48.28515625 82.4921875 C48.52233647 94.63666184 48.40933931 106.26745582 45 118 C44.50693359 119.79824219 44.50693359 119.79824219 44.00390625 121.6328125 C35.69201795 149.18571559 16.95060864 172.81584131 -8.4453125 186.4453125 C-35.89699121 200.46823558 -66.205431 202.84589463 -95.625 193.8125 C-112.36807442 187.86453613 -127.7037962 177.86748761 -140 165 C-140 164.34 -140 163.68 -140 163 C-136.30622003 163.57974125 -134.54729013 165.07104006 -131.875 167.625 C-111.55208744 186.16635854 -84.93276676 196.31453197 -57.43798828 195.14355469 C-32.75422405 193.69011453 -11.05330155 186.08202645 8 170 C8.65097656 169.49339844 9.30195313 168.98679688 9.97265625 168.46484375 C17.39099225 162.46233331 23.56613832 154.49935896 28.171875 146.15625 C30 143 30 143 32 142 C32.72021768 140.01865426 33.37499051 138.01340696 34 136 C34.71620566 134.14664329 35.43277302 132.29341205 36.1574707 130.44335938 C46.66728571 103.41718095 47.34435212 73.96722524 36 47 C32.52668057 39.44720368 28.59450387 32.09848785 23.2265625 25.7109375 C22 24 22 24 21.1171875 21.58984375 C17.68600951 13.63574931 8.55203381 7.63132431 1.8359375 2.49609375 C0.92714844 1.75552734 0.92714844 1.75552734 0 1 C0 0.67 0 0.34 0 0 Z " fill="#94601D" transform="translate(188,37)"/>
<path d="M0 0 C3.28002582 2.7301949 5.54075108 5.59697303 7.6875 9.3125 C8.67616506 10.65425973 9.6713154 11.99146002 10.6875 13.3125 C6.20462323 11.4861428 3.01938068 8.28353032 0.328125 4.30078125 C-1.59829283 1.96614631 -3.25586641 1.11998368 -6 -0.125 C-9.20614711 -1.63350375 -12.14658874 -3.17848123 -15.0625 -5.1875 C-21.96195389 -9.6460428 -30.29184878 -12.15705772 -38.3125 -13.6875 C-39.3953125 -14.1825 -39.3953125 -14.1825 -40.5 -14.6875 C-57.47109287 -20.72166635 -79.11095478 -17.24960047 -95.3125 -10.6875 C-96.405625 -10.12675781 -97.49875 -9.56601562 -98.625 -8.98828125 C-101.3125 -7.6875 -101.3125 -7.6875 -105.3125 -7.6875 C-105.3125 -7.0275 -105.3125 -6.3675 -105.3125 -5.6875 C-106.26125 -5.3575 -107.21 -5.0275 -108.1875 -4.6875 C-122.85867211 1.67589995 -136.70122167 17.52311399 -143.0625 31.9375 C-143.475 33.05125 -143.8875 34.165 -144.3125 35.3125 C-144.78429687 36.43011719 -144.78429687 36.43011719 -145.265625 37.5703125 C-154.50387183 59.56285533 -156.41087126 86.97486587 -147.3125 109.3125 C-143.6337822 117.97835554 -139.3660228 126.04827264 -133.3125 133.3125 C-133.6425 133.9725 -133.9725 134.6325 -134.3125 135.3125 C-145.76779998 127.48936831 -151.4879226 111.557198 -154.0625 98.4375 C-154.4956142 96.06544431 -154.91346614 93.69052609 -155.3125 91.3125 C-155.49941406 90.34957031 -155.68632812 89.38664062 -155.87890625 88.39453125 C-159.32264118 63.91609107 -153.16937657 38.43581011 -138.59765625 18.50390625 C-131.19911325 8.74890371 -123.57772845 1.02139363 -113.3125 -5.6875 C-112.55324219 -6.203125 -111.79398438 -6.71875 -111.01171875 -7.25 C-76.98634163 -29.20923498 -31.65005027 -23.47725769 0 0 Z " fill="#A66E14" transform="translate(188.3125,51.6875)"/>
<path d="M0 0 C1.96646484 0.01353516 1.96646484 0.01353516 3.97265625 0.02734375 C4.95105469 0.03894531 5.92945313 0.05054687 6.9375 0.0625 C7.4325 1.0525 7.4325 1.0525 7.9375 2.0625 C10.4123743 2.48777673 12.81929312 2.81225247 15.3125 3.0625 C22.53755543 3.79587029 22.53755543 3.79587029 25.9375 6.0625 C25.30070313 5.9903125 24.66390625 5.918125 24.0078125 5.84375 C-5.01099356 3.07272343 -32.93241389 4.92681521 -58.0625 21.0625 C-58.55234375 21.55363281 -59.0421875 22.04476562 -59.546875 22.55078125 C-61.0625 24.0625 -61.0625 24.0625 -63.484375 25.5 C-82.57637858 37.07091126 -96.33164177 62.12704897 -101.86914062 83.12060547 C-103.92546371 91.80625042 -104.53510178 100.02990229 -104.4375 108.9375 C-104.43024902 110.24871826 -104.42299805 111.55993652 -104.41552734 112.91088867 C-104.28140318 122.31415884 -103.40941458 130.96105076 -101.0625 140.0625 C-100.6620566 141.89483191 -100.2654938 143.72802195 -99.875 145.5625 C-99.606875 146.7175 -99.33875 147.8725 -99.0625 149.0625 C-101.92616683 146.19883317 -102.53666219 142.73537914 -103.625 138.9375 C-103.84607422 138.20273438 -104.06714844 137.46796875 -104.29492188 136.7109375 C-110.15227698 116.60835321 -110.97026464 89.57045999 -103.0625 70.0625 C-102.77697266 69.33724121 -102.49144531 68.61198242 -102.19726562 67.86474609 C-91.14419923 40.51380143 -70.03236576 19.43355443 -42.9375 7.875 C-29.33769945 2.47372363 -14.60369576 -0.13156483 0 0 Z " fill="#FDEB97" transform="translate(128.0625,17.9375)"/>
<path d="M0 0 C2.67892029 2.67892029 3.15637375 5.62156588 4.0625 9.1875 C4.23587891 9.83525391 4.40925781 10.48300781 4.58789062 11.15039062 C11.14220005 36.28779957 6.29672198 61.61933391 -5.69140625 84.18359375 C-19.12862165 106.4926092 -40.25343428 122.23474141 -65.54296875 128.64453125 C-68.02249102 129.17887791 -70.49275843 129.61767584 -73 130 C-74.09634766 130.16822266 -74.09634766 130.16822266 -75.21484375 130.33984375 C-100.16434975 133.45320091 -122.35470426 128.39047097 -143 114 C-142.01 113.505 -142.01 113.505 -141 113 C-138.6171875 113.99609375 -138.6171875 113.99609375 -135.875 115.4375 C-134.50988281 116.14712891 -134.50988281 116.14712891 -133.1171875 116.87109375 C-132.41851562 117.24363281 -131.71984375 117.61617188 -131 118 C-131 118.66 -131 119.32 -131 120 C-129.948125 120.28875 -128.89625 120.5775 -127.8125 120.875 C-124 122 -124 122 -121.7421875 122.97265625 C-118.3339918 124.24951589 -114.87927484 124.90864894 -111.3125 125.5625 C-104.24886191 126.87556904 -104.24886191 126.87556904 -102 128 C-78.4572052 129.81989278 -51.07693807 125.99310675 -32.4375 110.125 C-31.633125 109.42375 -30.82875 108.7225 -30 108 C-29.34 108 -28.68 108 -28 108 C-28 107.34 -28 106.68 -28 106 C-26.91573065 105.01567727 -25.77934586 104.08861979 -24.625 103.1875 C-11.87830994 92.26821152 -3.81932685 76.88592926 1 61 C1.2990625 60.0615625 1.598125 59.123125 1.90625 58.15625 C6.33745266 41.58026967 5.67568543 22.46003479 0.875 6.0625 C0 3 0 3 0 0 Z " fill="#F6D25D" transform="translate(216,92)"/>
<path d="M0 0 C2.8631873 0.57263746 4.57072635 1.46727259 6.41015625 3.75 C11.22584805 11.61235396 11.9312993 20.04579415 10 29 C9.79375 29.969375 9.5875 30.93875 9.375 31.9375 C6.92446732 37.39550461 3.03679125 42.38782638 -2.5 44.9375 C-8.71331975 46.82368635 -13.73643626 47.11801322 -20.08203125 46.05859375 C-20.71496094 46.03925781 -21.34789062 46.01992187 -22 46 C-24.31280789 47.86267838 -24.31280789 47.86267838 -24.125 50.828125 C-24.04204668 53.09897225 -23.95871684 55.36980577 -23.875 57.640625 C-24.00710672 61.19099315 -24.53307803 63.76707488 -26 67 C-29.3125 68.3125 -29.3125 68.3125 -33 69 C-33.86625 69.268125 -34.7325 69.53625 -35.625 69.8125 C-38.86097449 70.06797167 -40.41538113 68.84615633 -43 67 C-42.505 66.01 -42.505 66.01 -42 65 C-37.71 65 -33.42 65 -29 65 C-29 57.41 -29 49.82 -29 42 C-25.90625 41.938125 -22.8125 41.87625 -19.625 41.8125 C-11.98802648 41.50655321 -5.10124823 41.11329994 1 36 C5.66611587 30.4234225 6.26110112 24.16163073 6 17 C5.32386805 13.83183888 4.25609055 10.97805505 3 8 C2.62875 6.865625 2.2575 5.73125 1.875 4.5625 C1.08139683 2.05096711 1.08139683 2.05096711 0 0 Z " fill="#985D0A" transform="translate(194,94)"/>
<path d="M0 0 C1.23234375 -0.01417969 2.4646875 -0.02835937 3.734375 -0.04296875 C7.05999008 0.17504379 9.27475759 0.75098029 12.25 2.1875 C13.11101859 12.94066545 13.11101859 12.94066545 9.875 16.8125 C6.01498939 20.30489056 3.76367247 20.39734601 -1.375 20.75 C-2.56351563 20.83378906 -3.75203125 20.91757813 -4.9765625 21.00390625 C-5.89179688 21.06449219 -6.80703125 21.12507813 -7.75 21.1875 C-7.77888146 17.87501813 -7.79675799 14.56256833 -7.8125 11.25 C-7.82087891 10.30447266 -7.82925781 9.35894531 -7.83789062 8.38476562 C-7.84111328 7.48564453 -7.84433594 6.58652344 -7.84765625 5.66015625 C-7.85289307 4.82750244 -7.85812988 3.99484863 -7.86352539 3.13696289 C-7.60450513 -1.31094424 -3.59913426 0.01866771 0 0 Z " fill="#BF831B" transform="translate(172.75,101.8125)"/>
<path d="M0 0 C0 3.85832634 -1.06771653 4.45149693 -3.6875 7.1875 C-9.25896292 13.2609852 -12.95892999 19.33121476 -16 27 C-16.31839844 27.75023438 -16.63679688 28.50046875 -16.96484375 29.2734375 C-26.16621363 51.28728091 -28.10448119 78.64736523 -19 101 C-15.3212822 109.66585554 -11.0535228 117.73577264 -5 125 C-5.33 125.66 -5.66 126.32 -6 127 C-17.45529998 119.17686831 -23.1754226 103.244698 -25.75 90.125 C-26.1831142 87.75294431 -26.60096614 85.37802609 -27 83 C-27.18691406 82.03707031 -27.37382813 81.07414062 -27.56640625 80.08203125 C-30.9802583 55.8160018 -24.88445664 30.97153033 -10.8828125 10.9765625 C-7.5762271 6.72167336 -4.29138885 3.28339424 0 0 Z " fill="#90590B" transform="translate(60,60)"/>
<path d="M0 0 C1.82724609 0.01353516 1.82724609 0.01353516 3.69140625 0.02734375 C4.59761719 0.03894531 5.50382812 0.05054687 6.4375 0.0625 C6.4375 0.7225 6.4375 1.3825 6.4375 2.0625 C5.5259314 2.12195801 5.5259314 2.12195801 4.59594727 2.18261719 C-26.50855494 4.30371162 -56.20441829 11.91705238 -78.05859375 35.7890625 C-80.31466301 38.49025841 -82.45822208 41.24187215 -84.5625 44.0625 C-85.17738281 44.86300781 -85.79226562 45.66351563 -86.42578125 46.48828125 C-97.24516547 61.14602795 -103.28081514 78.08146107 -105.5625 96.0625 C-106.2225 95.7325 -106.8825 95.4025 -107.5625 95.0625 C-106.9792817 70.03713315 -92.15956381 45.02929648 -74.5625 28.0625 C-53.84361189 9.85842864 -27.61127001 -0.26807058 0 0 Z " fill="#F8D870" transform="translate(127.5625,17.9375)"/>
<path d="M0 0 C3.69377997 0.57974125 5.45270987 2.07104006 8.125 4.625 C28.35537862 23.08193634 53.07134939 31.41488969 80.04296875 32.75390625 C83 33 83 33 84 34 C85.41844613 34.0165911 86.83787607 33.9633054 88.25390625 33.87890625 C89.10791016 33.83056641 89.96191406 33.78222656 90.84179688 33.73242188 C92.18854492 33.64831055 92.18854492 33.64831055 93.5625 33.5625 C94.91504883 33.48418945 94.91504883 33.48418945 96.29492188 33.40429688 C98.5302655 33.27419751 100.7652089 33.13922064 103 33 C103 33.33 103 33.66 103 34 C75.12286227 39.792652 46.21085365 35.0559983 22 20 C14.20930309 14.74081252 6.50748102 8.80981974 0 2 C0 1.34 0 0.68 0 0 Z " fill="#A7762F" transform="translate(48,200)"/>
<path d="M0 0 C0.66 0 1.32 0 2 0 C2.05534912 1.15000488 2.11069824 2.30000977 2.16772461 3.48486328 C2.37479142 7.76775612 2.58649032 12.05040979 2.79956055 16.33300781 C2.89098641 18.1835321 2.98117049 20.03411818 3.07006836 21.88476562 C3.19836081 24.55095519 3.33117634 27.21688765 3.46484375 29.8828125 C3.50343002 30.70492218 3.5420163 31.52703186 3.58177185 32.37405396 C3.80128636 36.66018739 4.26174745 40.76636276 5 45 C5.2989358 49.03965409 5.36718153 53.07562584 5.4375 57.125 C5.50614258 58.75115234 5.50614258 58.75115234 5.57617188 60.41015625 C5.61851994 63.38925091 5.58549613 66.07798053 5 69 C1.70164203 72.19729408 -0.02336793 72.89719662 -4.5625 73.375 C-7.77276902 73.02478883 -10.11058352 72.4009292 -13 71 C-13 70.34 -13 69.68 -13 69 C-8.71 69 -4.42 69 0 69 C0 46.23 0 23.46 0 0 Z " fill="#844C06" transform="translate(137,90)"/>
<path d="M0 0 C4.49540783 1.42998348 7.46261327 3.92435761 10.8125 7.125 C11.33803467 7.6192749 11.86356934 8.1135498 12.4050293 8.62280273 C13.45836681 9.61745131 14.5083318 10.61568504 15.5546875 11.61767578 C16.79744864 12.80627604 18.05370938 13.98073289 19.3125 15.15234375 C35.70815629 30.81147642 46.97141125 55.4939796 48.10693359 78.13183594 C48.16822099 82.50634974 47.62755248 85.93111879 46 90 C44 88 44 88 43.91015625 86.1796875 C43.96042969 85.41914062 44.01070312 84.65859375 44.0625 83.875 C44.41081513 63.70174861 36.19527856 41.1429851 23.2265625 25.7109375 C22 24 22 24 21.1171875 21.58984375 C17.68600951 13.63574931 8.55203381 7.63132431 1.8359375 2.49609375 C1.23007813 2.00238281 0.62421875 1.50867187 0 1 C0 0.67 0 0.34 0 0 Z " fill="#95611F" transform="translate(188,37)"/>
<path d="M0 0 C0.87188965 0.0407666 1.7437793 0.0815332 2.64208984 0.12353516 C4.07875 0.18927734 4.07875 0.18927734 5.54443359 0.25634766 C7.0584375 0.33369141 7.0584375 0.33369141 8.60302734 0.41259766 C10.08222656 0.47833984 10.08222656 0.47833984 11.59130859 0.54541016 C16.78053971 0.7948258 21.8516291 1.19037778 26.97802734 2.03759766 C26.97802734 2.36759766 26.97802734 2.69759766 26.97802734 3.03759766 C18.39802734 3.36759766 9.81802734 3.69759766 0.97802734 4.03759766 C-0.42805022 6.84975277 -0.14147752 9.17803986 -0.13549805 12.32324219 C-0.13564407 12.9672699 -0.1357901 13.61129761 -0.13594055 14.27484131 C-0.13524306 16.40673168 -0.12745832 18.53853502 -0.11962891 20.67041016 C-0.11776415 22.14728752 -0.11634052 23.6241655 -0.11534119 25.1010437 C-0.11152058 28.99071964 -0.10169417 32.88035832 -0.09063721 36.77001953 C-0.08041329 40.73811336 -0.07584146 44.7062132 -0.07080078 48.67431641 C-0.06007151 56.46209382 -0.04300054 64.24984052 -0.02197266 72.03759766 C-0.68197266 72.03759766 -1.34197266 72.03759766 -2.02197266 72.03759766 C-5.22569625 15.10333959 -5.22569625 15.10333959 -3.02197266 1.03759766 C-2.02197266 0.03759766 -2.02197266 0.03759766 0 0 Z " fill="#F4CD5B" transform="translate(152.02197265625,86.96240234375)"/>
<path d="M0 0 C0.66 0 1.32 0 2 0 C-0.88714187 23.9875619 -0.88714187 23.9875619 -4.96484375 31.94140625 C-6.56455137 35.12271159 -7.68321289 38.48403625 -8.875 41.8359375 C-10.22190789 44.42686448 -11.49126185 45.53032877 -14 47 C-17.86200562 47.27585754 -21.30025941 47.18391699 -25 46 C-25 45.34 -25 44.68 -25 44 C-21.7 44 -18.4 44 -15 44 C-14.89171875 43.14277344 -14.7834375 42.28554687 -14.671875 41.40234375 C-13.95854127 37.79005491 -12.77874316 34.90761068 -11.25 31.5625 C-7.96617527 24.19200552 -5.45653547 16.68320667 -3 9 C-2.39872024 7.18654025 -1.79507255 5.37386115 -1.1875 3.5625 C-0.795625 2.386875 -0.40375 1.21125 0 0 Z " fill="#7E4807" transform="translate(121,115)"/>
<path d="M0 0 C0.99 0.495 0.99 0.495 2 1 C1.75114663 4.19849767 0.92883354 5.06458524 -1.4921875 7.26171875 C-2.60789766 8.08664653 -3.73660831 8.89416567 -4.875 9.6875 C-5.48633789 10.11812744 -6.09767578 10.54875488 -6.72753906 10.99243164 C-11.83724089 14.4608161 -17.17834698 17.28656963 -22.75 19.9375 C-23.51683105 20.30254639 -24.28366211 20.66759277 -25.07373047 21.04370117 C-35.54826786 25.83791103 -45.12595449 27.54208498 -56.625 28.1875 C-58.56052734 28.3102832 -58.56052734 28.3102832 -60.53515625 28.43554688 C-63.68961508 28.63416095 -66.84431911 28.82205768 -70 29 C-66.37620215 27.18810107 -63.68115549 25.87860523 -59.625 25.4921875 C-38.02267114 23.18126786 -15.7960632 15.7960632 0 0 Z " fill="#9F691F" transform="translate(197,206)"/>
<path d="M0 0 C0.66 0.33 1.32 0.66 2 1 C1.67 1.66 1.34 2.32 1 3 C2.98 3 4.96 3 7 3 C7 3.66 7 4.32 7 5 C1.39 5 -4.22 5 -10 5 C-10.35964844 6.14855469 -10.71929687 7.29710938 -11.08984375 8.48046875 C-13.31309737 15.14761863 -16.01156868 21.62923874 -18.6706543 28.13110352 C-19.56706071 30.32365519 -20.45864881 32.5181211 -21.34960938 34.71289062 C-21.92159459 36.11730174 -22.49385056 37.52160262 -23.06640625 38.92578125 C-23.33103165 39.57686356 -23.59565704 40.22794586 -23.86830139 40.89875793 C-25.13677068 43.99508803 -26.44595328 47.03546423 -28 50 C-28.33 50 -28.66 50 -29 50 C-29.37839718 44.12326016 -28.18275185 39.96137452 -25.9375 34.5625 C-25.62458008 33.78624268 -25.31166016 33.00998535 -24.98925781 32.21020508 C-24.00959568 29.79946308 -23.00911601 27.39854967 -22 25 C-21.6798291 24.23719727 -21.3596582 23.47439453 -21.02978516 22.68847656 C-20.1124687 20.51735251 -19.18511435 18.3510134 -18.25 16.1875 C-17.96890381 15.536604 -17.68780762 14.88570801 -17.39819336 14.21508789 C-15.41798654 9.72469332 -13.49448262 5.49448262 -10 2 C-7.87109375 1.62109375 -7.87109375 1.62109375 -5.4375 1.4375 C-2.41952212 1.41550697 -2.41952212 1.41550697 0 0 Z " fill="#FAE182" transform="translate(130,85)"/>
<path d="M0 0 C0.33 0.66 0.66 1.32 1 2 C-0.27821342 5.38350612 -1.79360722 8.58317883 -3.3984375 11.82421875 C-10.57350999 26.62963483 -13.21186284 40.96899379 -13.25 57.375 C-13.25167175 58.04751801 -13.25334351 58.72003601 -13.25506592 59.41293335 C-13.25659074 69.62998366 -12.55469252 79.09277779 -10 89 C-9.5995566 90.83233191 -9.2029938 92.66552195 -8.8125 94.5 C-8.544375 95.655 -8.27625 96.81 -8 98 C-10.86366683 95.13633317 -11.47416219 91.67287914 -12.5625 87.875 C-12.78357422 87.14023438 -13.00464844 86.40546875 -13.23242188 85.6484375 C-20.11502157 62.02718901 -17.55833245 31.67997025 -5.8984375 9.94921875 C-4.01502066 6.58029589 -2.03592957 3.27870544 0 0 Z " fill="#F8DE86" transform="translate(37,69)"/>
<path d="M0 0 C6.93 0 13.86 0 21 0 C21 0.33 21 0.66 21 1 C12.09 1.99 12.09 1.99 3 3 C2.67 25.11 2.34 47.22 2 70 C1.34 70 0.68 70 0 70 C0 46.9 0 23.8 0 0 Z " fill="#F7D776" transform="translate(61,89)"/>
<path d="M0 0 C16.23249237 0.97394954 36.3500763 10.59678057 48 22 C50.375 25.1875 50.375 25.1875 52 28 C52.98866506 29.34175973 53.9838154 30.67896002 55 32 C50.51712323 30.1736428 47.33188068 26.97103032 44.640625 22.98828125 C42.71420717 20.65364631 41.05663359 19.80748368 38.3125 18.5625 C35.10635289 17.05399625 32.16591126 15.50901877 29.25 13.5 C22.37201298 9.05532945 14.01246923 6.47708128 6 5 C3.25 4.125 3.25 4.125 1 3 C0.67 2.01 0.34 1.02 0 0 Z " fill="#B27513" transform="translate(144,33)"/>
<path d="M0 0 C4.44202568 5.9227009 4.14302098 11.06548832 3.87890625 18.2421875 C3.85529526 19.01055939 3.83168427 19.77893127 3.80735779 20.57058716 C3.73127024 23.00560561 3.6470128 25.44026088 3.5625 27.875 C3.5092242 29.53383687 3.45648425 31.19269103 3.40429688 32.8515625 C3.27573028 36.90126817 3.13983987 40.95066857 3 45 C-0.42232972 46.14077657 -3.08673217 46.09815117 -6.6875 46.0625 C-8.45673828 46.04896484 -8.45673828 46.04896484 -10.26171875 46.03515625 C-11.16535156 46.02355469 -12.06898437 46.01195312 -13 46 C-13 45.34 -13 44.68 -13 44 C-8.71 44 -4.42 44 0 44 C0 29.48 0 14.96 0 0 Z " fill="#965D0C" transform="translate(76,115)"/>
<path d="M0 0 C2.67892029 2.67892029 3.15637375 5.62156588 4.0625 9.1875 C4.23587891 9.83525391 4.40925781 10.48300781 4.58789062 11.15039062 C8.19820861 24.9968592 8.02203835 39.68782213 5.6875 53.75 C5.56987305 54.46325439 5.45224609 55.17650879 5.33105469 55.91137695 C4.41908778 60.86247096 3.05390269 65.39520087 1 70 C-0.485 70.495 -0.485 70.495 -2 71 C-1.81824219 70.44054687 -1.63648438 69.88109375 -1.44921875 69.3046875 C-0.58526549 66.54889811 0.21035489 63.77798572 1 61 C1.28617188 60.06542969 1.57234375 59.13085938 1.8671875 58.16796875 C6.26303083 41.52656185 5.6952173 22.52674913 0.875 6.0625 C0 3 0 3 0 0 Z " fill="#EDC04C" transform="translate(216,92)"/>
<path d="M0 0 C-3.84090604 3.84090604 -8.97912772 4.22372748 -14.1875 4.8125 C-19.89264844 5.62566255 -24.41984265 7.28135567 -29.55859375 9.83203125 C-32.65359758 11.31268108 -35.69078367 12.12204465 -39 13 C-40.35350594 13.62469505 -41.69934483 14.2716331 -43 15 C-43 13.68 -43 12.36 -43 11 C-41.68 11 -40.36 11 -39 11 C-39 10.34 -39 9.68 -39 9 C-37.83082031 8.59007812 -36.66164063 8.18015625 -35.45703125 7.7578125 C-33.90883441 7.21359785 -32.36065843 6.6693239 -30.8125 6.125 C-30.04357422 5.85558594 -29.27464844 5.58617187 -28.48242188 5.30859375 C-27.35610352 4.91220703 -27.35610352 4.91220703 -26.20703125 4.5078125 C-25.10609131 4.12036865 -25.10609131 4.12036865 -23.98291016 3.72509766 C-22.41002939 3.14993687 -20.86157005 2.50806531 -19.32421875 1.84375 C-16.51494182 0.82391165 -13.97801356 0.58011828 -11 0.375 C-9.989375 0.30023438 -8.97875 0.22546875 -7.9375 0.1484375 C-5.28464747 0.01438378 -2.65552033 -0.02928883 0 0 Z " fill="#E8B546" transform="translate(122,35)"/>
<path d="M0 0 C1.92455268 3.4850008 2.97541751 7.07253486 4.125 10.875 C7.31021201 20.88566632 12.24929367 29.91118039 19 38 C18.67 38.66 18.34 39.32 18 40 C7.26497301 32.66876206 1.20160203 17.64591973 -1.3125 5.25 C-1.55491529 3.83554016 -1.78957676 2.41957172 -2 1 C-1.34 0.67 -0.68 0.34 0 0 Z " fill="#9F6611" transform="translate(36,147)"/>
<path d="M0 0 C2.45337664 7.07832314 -2.08661624 15.59055574 -5 22 C-5.309375 22.83917969 -5.61875 23.67835938 -5.9375 24.54296875 C-6.2675 25.43628906 -6.5975 26.32960937 -6.9375 27.25 C-7.23527344 28.08015625 -7.53304687 28.9103125 -7.83984375 29.765625 C-9.20585733 32.39646597 -10.4505945 33.51324389 -13 35 C-16.86200562 35.27585754 -20.30025941 35.18391699 -24 34 C-24 33.34 -24 32.68 -24 32 C-20.7 32 -17.4 32 -14 32 C-13.67 30.02 -13.34 28.04 -13 26 C-12.67 27.32 -12.34 28.64 -12 30 C-9.06941406 24.4515784 -6.48550983 19.02543758 -4.67578125 13.0078125 C-3.96161811 10.88596362 -3.00014824 9.00029648 -2 7 C-1.30269194 4.6756398 -0.63087848 2.34326294 0 0 Z " fill="#B27514" transform="translate(120,127)"/>
<path d="M0 0 C0.66 0 1.32 0 2 0 C2.01981934 0.76030518 2.03963867 1.52061035 2.06005859 2.30395508 C2.15634132 5.80710352 2.26559566 9.30973775 2.375 12.8125 C2.4059375 14.00810547 2.436875 15.20371094 2.46875 16.43554688 C2.82249683 27.25430423 4.60458199 37.08855597 7.609375 47.46875 C8 50 8 50 6 53 C5.18193166 50.14732627 4.37042204 47.29304815 3.5625 44.4375 C3.33240234 43.63763672 3.10230469 42.83777344 2.86523438 42.01367188 C2.64287109 41.22412109 2.42050781 40.43457031 2.19140625 39.62109375 C1.98717041 38.9036499 1.78293457 38.18620605 1.57250977 37.44702148 C0.30391024 32.02477287 -0.12326522 26.74855302 -0.09765625 21.19140625 C-0.09443359 19.95068359 -0.09121094 18.70996094 -0.08789062 17.43164062 C-0.07951172 16.15482422 -0.07113281 14.87800781 -0.0625 13.5625 C-0.05798828 12.25861328 -0.05347656 10.95472656 -0.04882812 9.61132812 C-0.03709251 6.40750448 -0.02067363 3.20377637 0 0 Z " fill="#E3B142" transform="translate(19,113)"/>
<path d="M0 0 C3.69377997 0.57974125 5.45270987 2.07104006 8.125 4.625 C14.78457343 10.73691114 22.06838269 15.68933842 30 20 C29.67 20.99 29.34 21.98 29 23 C18.18321856 19.16822503 7.82742015 10.29800653 0 2 C0 1.34 0 0.68 0 0 Z " fill="#BE8729" transform="translate(48,200)"/>
<path d="M0 0 C0.33 0 0.66 0 1 0 C1.02505615 0.72590332 1.0501123 1.45180664 1.07592773 2.19970703 C1.19241241 5.50829446 1.31490014 8.81663376 1.4375 12.125 C1.47681641 13.26710938 1.51613281 14.40921875 1.55664062 15.5859375 C1.59853516 16.69453125 1.64042969 17.803125 1.68359375 18.9453125 C1.73858032 20.46922607 1.73858032 20.46922607 1.79467773 22.02392578 C1.95152905 25.01819147 1.95152905 25.01819147 2.51367188 28.01367188 C3.00245665 31.01508521 3.11398971 33.7979139 3.09765625 36.8359375 C3.09443359 37.89941406 3.09121094 38.96289062 3.08789062 40.05859375 C3.07951172 41.15300781 3.07113281 42.24742187 3.0625 43.375 C3.05798828 44.49261719 3.05347656 45.61023438 3.04882812 46.76171875 C3.03709244 49.50786804 3.02067363 52.25390586 3 55 C1.515 55.495 1.515 55.495 0 56 C0 37.52 0 19.04 0 0 Z " fill="#A5680D" transform="translate(139,104)"/>
<path d="M0 0 C7.26 0 14.52 0 22 0 C20 2 20 2 18.12060547 2.22705078 C17.37697754 2.21657715 16.63334961 2.20610352 15.8671875 2.1953125 C14.65869141 2.18564453 14.65869141 2.18564453 13.42578125 2.17578125 C12.58402344 2.15902344 11.74226563 2.14226562 10.875 2.125 C9.60076172 2.11146484 9.60076172 2.11146484 8.30078125 2.09765625 C6.20040116 2.07405647 4.10016556 2.03818483 2 2 C2.00523682 2.6612085 2.01047363 3.32241699 2.01586914 4.00366211 C2.03657656 6.98159851 2.04964012 9.95951982 2.0625 12.9375 C2.07087891 13.97841797 2.07925781 15.01933594 2.08789062 16.09179688 C2.09111328 17.08115234 2.09433594 18.07050781 2.09765625 19.08984375 C2.10289307 20.00628662 2.10812988 20.92272949 2.11352539 21.86694336 C2 24 2 24 1 25 C-1.18639453 25.07258946 -3.37500389 25.08373783 -5.5625 25.0625 C-7.35880859 25.04896484 -7.35880859 25.04896484 -9.19140625 25.03515625 C-10.11824219 25.02355469 -11.04507813 25.01195312 -12 25 C-12 24.67 -12 24.34 -12 24 C-8.04 24 -4.08 24 0 24 C0 16.08 0 8.16 0 0 Z " fill="#7E4705" transform="translate(165,136)"/>
<path d="M0 0 C2.92433292 3.51819746 4.74343123 7.45996082 6.6875 11.5625 C10.40045837 19.20160512 14.54959539 26.71033235 20.73046875 32.66796875 C22 34 22 34 22 36 C21.01 36 20.02 36 19 36 C17.27106914 34.20657971 15.80352677 32.47907714 14.3125 30.5 C13.87623291 29.92556152 13.43996582 29.35112305 12.99047852 28.75927734 C9.69540291 24.2671368 6.95289396 19.59166432 4.4375 14.625 C4.10339111 13.97208984 3.76928223 13.31917969 3.42504883 12.64648438 C1.37180762 8.40293934 0.44277405 4.69461799 0 0 Z " fill="#CB9431" transform="translate(26,163)"/>
<path d="M0 0 C0.66 0 1.32 0 2 0 C2.28721924 0.7206665 2.57443848 1.44133301 2.87036133 2.18383789 C4.18348359 5.47709454 5.49797998 8.76980104 6.8125 12.0625 C7.26431641 13.19623047 7.71613281 14.32996094 8.18164062 15.49804688 C10.88019233 22.25427486 13.57219072 28.98573596 16.6875 35.5625 C18.00276803 39.00724961 18.26666132 41.35562859 18 45 C15.17234639 41.67481203 13.75304569 38.12290869 12.3125 34.0625 C11.79518187 32.64159506 11.27689941 31.22104097 10.7578125 29.80078125 C10.47969727 29.03588379 10.20158203 28.27098633 9.91503906 27.48291016 C7.88250203 21.96772829 5.74638271 16.49079551 3.62817383 11.00805664 C3.13740356 9.72789673 3.13740356 9.72789673 2.63671875 8.421875 C2.34498779 7.66487305 2.05325684 6.90787109 1.75268555 6.12792969 C1.03582798 4.10128988 0.48301901 2.0933789 0 0 Z " fill="#9D640D" transform="translate(82,90)"/>
<path d="M0 0 C6.66882926 -0.42341773 12.58481923 0.34236878 19.0625 1.8125 C20.20609985 2.0604834 20.20609985 2.0604834 21.37280273 2.31347656 C23.53515625 2.83203125 23.53515625 2.83203125 27 4 C27.33 4.99 27.66 5.98 28 7 C30.09719872 8.02281518 30.09719872 8.02281518 32.5625 8.6875 C33.38878906 8.93886719 34.21507812 9.19023437 35.06640625 9.44921875 C35.70449219 9.63097656 36.34257812 9.81273437 37 10 C32.87245318 11.37584894 29.91350065 9.98470976 25.9375 8.6875 C25.20466797 8.46126953 24.47183594 8.23503906 23.71679688 8.00195312 C18.26468792 6.26468792 18.26468792 6.26468792 16 4 C12.77334909 3.4726019 9.57312831 3.11324825 6.32226562 2.7890625 C4.5400309 2.58853948 2.76810919 2.30059944 1 2 C0.67 1.34 0.34 0.68 0 0 Z " fill="#EDC357" transform="translate(135,19)"/>
<path d="M0 0 C0 0.66 0 1.32 0 2 C-1.43554025 2.50559908 -2.8735202 3.0042749 -4.3125 3.5 C-5.51326172 3.91765625 -5.51326172 3.91765625 -6.73828125 4.34375 C-9 5 -9 5 -12 5 C-12 5.66 -12 6.32 -12 7 C-20.91 7.66 -29.82 8.32 -39 9 C-35.0269843 7.01349215 -32.60255034 5.86158535 -28.2734375 5.3515625 C-26.84837891 5.17367187 -26.84837891 5.17367187 -25.39453125 4.9921875 C-23.40553656 4.75031751 -21.41595515 4.51321729 -19.42578125 4.28125 C-12.97454688 3.46507768 -6.23982598 0 0 0 Z " fill="#A96E14" transform="translate(166,226)"/>
<path d="M0 0 C0 3.85832634 -1.06771653 4.45149693 -3.6875 7.1875 C-8.3428999 12.2623794 -11.99895539 17.34113847 -14.5625 23.75 C-15.98798423 26.9728339 -17.35687049 28.72144008 -20 31 C-18.56881334 19.74791178 -10.87013852 8.88482366 -2.25390625 1.71484375 C-1.51011719 1.14894531 -0.76632813 0.58304688 0 0 Z " fill="#8F570A" transform="translate(60,60)"/>
<path d="M0 0 C0.66 0 1.32 0 2 0 C1.608125 1.155 1.21625 2.31 0.8125 3.5 C0.20641069 5.33269862 -0.39741423 7.16614645 -1 9 C-1.61488281 10.85044922 -1.61488281 10.85044922 -2.2421875 12.73828125 C-4.86378801 20.76876014 -6.93246017 28.58714881 -8 37 C-8.66 36.67 -9.32 36.34 -10 36 C-9.70473793 23.33057287 -5.46203584 11.32866693 0 0 Z " fill="#F5CE5C" transform="translate(30,77)"/>
<path d="M0 0 C4.49572816 1.43008537 7.46191059 3.9248408 10.8125 7.125 C11.33585938 7.61564941 11.85921875 8.10629883 12.3984375 8.61181641 C26.37486786 21.77696135 26.37486786 21.77696135 29 26 C28.75 28.8125 28.75 28.8125 28 31 C27.38125 30.21625 26.7625 29.4325 26.125 28.625 C24.10141339 26.03162353 24.10141339 26.03162353 22 24 C21.7215625 23.23300781 21.443125 22.46601562 21.15625 21.67578125 C17.69760843 13.67183032 8.59828964 7.66669223 1.8359375 2.49609375 C1.23007813 2.00238281 0.62421875 1.50867187 0 1 C0 0.67 0 0.34 0 0 Z " fill="#B37E2A" transform="translate(188,37)"/>
<path d="M0 0 C4.03520597 1.58962659 8.01811282 3.28232318 12 5 C12 5.66 12 6.32 12 7 C13.5778125 7.433125 13.5778125 7.433125 15.1875 7.875 C19 9 19 9 21.25 9.96875 C24.70033604 11.26262601 28.20329849 11.94805886 31.8125 12.625 C32.50537109 12.7590625 33.19824219 12.893125 33.91210938 13.03125 C35.60722609 13.35858288 37.30350146 13.67990594 39 14 C39 14.33 39 14.66 39 15 C31.69189086 16.34200807 27.3186051 15.58255424 20.625 12.5 C19.80153076 12.13704834 18.97806152 11.77409668 18.12963867 11.40014648 C11.7446094 8.51531009 5.55823961 5.309197 0 1 C0 0.67 0 0.34 0 0 Z " fill="#F4C84B" transform="translate(73,205)"/>
<path d="M0 0 C0.33 0.66 0.66 1.32 1 2 C-0.04772009 4.80617428 -1.16654662 7.51312775 -2.375 10.25 C-3.11320815 11.95910511 -3.85013281 13.66876503 -4.5859375 15.37890625 C-4.97749023 16.28527832 -5.36904297 17.19165039 -5.77246094 18.12548828 C-7.90631996 23.12231726 -9.95112055 28.15536654 -12 33.1875 C-12.39751465 34.16170898 -12.7950293 35.13591797 -13.20458984 36.13964844 C-14.13732226 38.42605554 -15.06914088 40.71282974 -16 43 C-17.5071414 38.36835969 -15.78373961 35.0673984 -14 30.75 C-13.68256836 29.96020752 -13.36513672 29.17041504 -13.03808594 28.35668945 C-10.84308207 22.93892252 -8.57059292 17.55260995 -6.25 12.1875 C-5.96898438 11.5368457 -5.68796875 10.88619141 -5.3984375 10.21582031 C-3.82451497 6.64638886 -2.08502097 3.29709641 0 0 Z " fill="#F3C443" transform="translate(118,89)"/>
<path d="M0 0 C1.93166016 0.01740234 1.93166016 0.01740234 3.90234375 0.03515625 C5.19269531 0.04417969 6.48304688 0.05320312 7.8125 0.0625 C8.81152344 0.07410156 9.81054688 0.08570312 10.83984375 0.09765625 C10.83984375 0.75765625 10.83984375 1.41765625 10.83984375 2.09765625 C6.54984375 2.09765625 2.25984375 2.09765625 -2.16015625 2.09765625 C-2.16015625 8.36765625 -2.16015625 14.63765625 -2.16015625 21.09765625 C-2.82015625 21.09765625 -3.48015625 21.09765625 -4.16015625 21.09765625 C-4.18903771 17.78517438 -4.20691424 14.47272458 -4.22265625 11.16015625 C-4.23103516 10.21462891 -4.23941406 9.26910156 -4.24804688 8.29492188 C-4.25126953 7.39580078 -4.25449219 6.49667969 -4.2578125 5.5703125 C-4.26304932 4.73765869 -4.26828613 3.90500488 -4.27368164 3.04711914 C-4.08046966 -0.27072533 -3.39709029 0.10497807 0 0 Z " fill="#814906" transform="translate(169.16015625,101.90234375)"/>
<path d="M0 0 C4.30130966 1.43376989 5.23625005 4.61615517 7.1875 8.4375 C7.55552734 9.13166016 7.92355469 9.82582031 8.30273438 10.54101562 C11 15.71035772 11 15.71035772 11 18 C10.01 18.33 9.02 18.66 8 19 C6.65632608 16.58858519 5.32497485 14.17166012 4 11.75 C3.42765625 10.72712891 3.42765625 10.72712891 2.84375 9.68359375 C2.4828125 9.01972656 2.121875 8.35585937 1.75 7.671875 C1.24726563 6.76066895 1.24726563 6.76066895 0.734375 5.83105469 C0 4 0 4 0 0 Z " fill="#A0691C" transform="translate(216,65)"/>
<path d="M0 0 C-1.7288805 1.41701589 -3.45811746 2.83359686 -5.1875 4.25 C-6.63189453 5.43335938 -6.63189453 5.43335938 -8.10546875 6.640625 C-12.29389519 10.054673 -16.29919293 13.31382453 -21 16 C-18.02741001 9.42296513 -7.66270012 -2.55423337 0 0 Z " fill="#96600D" transform="translate(77,48)"/>
<path d="M0 0 C4.56736441 0.70062483 8.5699505 2.31270207 12.8125 4.0625 C13.50537109 4.34416016 14.19824219 4.62582031 14.91210938 4.91601562 C16.60967624 5.60674973 18.30506312 6.30283728 20 7 C20 7.66 20 8.32 20 9 C12.54883714 8.05618604 6.53135052 6.76808684 0 3 C0 2.01 0 1.02 0 0 Z " fill="#AD7521" transform="translate(77,221)"/>
<path d="M0 0 C5.19453651 1.41669178 8.66182883 4.92108191 12 9 C12 9.66 12 10.32 12 11 C12.5775 11.061875 13.155 11.12375 13.75 11.1875 C16.88690987 12.32027301 18.09167504 14.34197595 20 17 C18.32700041 16.34938905 16.66140763 15.67966676 15 15 C14.401875 14.77183594 13.80375 14.54367188 13.1875 14.30859375 C9.98779285 12.39448322 7.70669492 9.69402777 5.25 6.9375 C4.74339844 6.38255859 4.23679687 5.82761719 3.71484375 5.25585938 C0 1.14549992 0 1.14549992 0 0 Z " fill="#D79A23" transform="translate(51,185)"/>
<path d="M0 0 C0 0.66 0 1.32 0 2 C-4.45699406 2.39224394 -8.9156274 2.76087784 -13.375 3.125 C-14.64601563 3.23714844 -15.91703125 3.34929688 -17.2265625 3.46484375 C-18.43828125 3.56152344 -19.65 3.65820312 -20.8984375 3.7578125 C-22.57945557 3.89920654 -22.57945557 3.89920654 -24.29443359 4.04345703 C-27 4 -27 4 -29 2 C-19.20460071 0.46346678 -9.92907332 -0.27538262 0 0 Z " fill="#F8D466" transform="translate(134,18)"/>
<path d="M0 0 C0 0.66 0 1.32 0 2 C-0.75925781 2.39832031 -1.51851562 2.79664063 -2.30078125 3.20703125 C-3.29464844 3.73683594 -4.28851563 4.26664063 -5.3125 4.8125 C-6.29863281 5.33457031 -7.28476563 5.85664062 -8.30078125 6.39453125 C-10.64238537 7.78729434 -12.16828591 9.03587285 -14 11 C-14.804375 11.474375 -15.60875 11.94875 -16.4375 12.4375 C-19.04626794 14.02821216 -20.9256965 15.77204439 -23 18 C-23.99 17.67 -24.98 17.34 -26 17 C-20.8169613 11.84505365 -15.31384206 7.73881944 -9.0625 4 C-8.39984131 3.60240479 -7.73718262 3.20480957 -7.05444336 2.79516602 C-2.27425973 0 -2.27425973 0 0 0 Z " fill="#FDF0A2" transform="translate(81,31)"/>
<path d="M0 0 C2.64590014 -0.02684679 5.29153096 -0.04676357 7.9375 -0.0625 C8.69224609 -0.07087891 9.44699219 -0.07925781 10.22460938 -0.08789062 C12.14994313 -0.09652441 14.07535581 -0.05224333 16 0 C16.33 0.33 16.66 0.66 17 1 C18.41844613 1.0165911 19.83787607 0.9633054 21.25390625 0.87890625 C22.10791016 0.83056641 22.96191406 0.78222656 23.84179688 0.73242188 C24.73962891 0.67634766 25.63746094 0.62027344 26.5625 0.5625 C27.46419922 0.51029297 28.36589844 0.45808594 29.29492188 0.40429688 C31.5302655 0.27419751 33.7652089 0.13922064 36 0 C36 0.33 36 0.66 36 1 C26.53149174 2.78831859 17.59567793 3.23889655 8 3 C8 2.34 8 1.68 8 1 C5.36 1 2.72 1 0 1 C0 0.67 0 0.34 0 0 Z " fill="#9E6D2B" transform="translate(115,233)"/>
<path d="M0 0 C2.21807123 3.32710684 4.43230138 6.6561346 6.625 10 C7.25535156 10.94359375 7.25535156 10.94359375 7.8984375 11.90625 C11 16.65929383 11 16.65929383 11 20 C4.76159401 15.73962518 1.15028354 9.81387206 -2 3 C-1 1 -1 1 0 0 Z " fill="#B97C18" transform="translate(43,167)"/>
<path d="M0 0 C0.66 0.66 1.32 1.32 2 2 C4.49368688 2.41609607 6.92744645 2.74498045 9.4375 3 C16.59734637 3.73156425 16.59734637 3.73156425 20 6 C18.85337891 5.90912109 18.85337891 5.90912109 17.68359375 5.81640625 C10.33099898 5.24078827 10.33099898 5.24078827 2.97265625 4.74609375 C1.66167969 4.66488281 0.35070312 4.58367188 -1 4.5 C-2.216875 4.4278125 -3.43375 4.355625 -4.6875 4.28125 C-7.53847613 4.03918599 -10.21400838 3.63317991 -13 3 C-13 2.67 -13 2.34 -13 2 C-8.71 2 -4.42 2 0 2 C0 1.34 0 0.68 0 0 Z " fill="#F9E086" transform="translate(134,18)"/>
<path d="M0 0 C0.66 0.33 1.32 0.66 2 1 C0.87895467 2.31587941 -0.24696965 3.62760353 -1.375 4.9375 C-2.00148437 5.66839844 -2.62796875 6.39929688 -3.2734375 7.15234375 C-5.18356295 9.19643728 -6.14511253 9.95708396 -8.9453125 10.09765625 C-10.96354167 10.06510417 -12.98177083 10.03255208 -15 10 C-15 9.01 -15 8.02 -15 7 C-8.375 5 -8.375 5 -5 5 C-3.97980427 4.0206121 -2.97850195 3.02104551 -2 2 C-1.34 2 -0.68 2 0 2 C0 1.34 0 0.68 0 0 Z " fill="#A5680C" transform="translate(200,128)"/>
<path d="M0 0 C8.2118624 2.92109806 15.79806161 8.29644628 20 16 C20.98866506 17.34175973 21.9838154 18.67896002 23 20 C18.37369599 18.11520948 15.26480523 14.75126878 12.375 10.75 C11.02627166 8.70287125 11.02627166 8.70287125 8 8 C6.29115995 6.37660195 4.62553283 4.70680947 3 3 C2.401875 2.401875 1.80375 1.80375 1.1875 1.1875 C0.795625 0.795625 0.40375 0.40375 0 0 Z " fill="#C2841A" transform="translate(176,45)"/>
<path d="M0 0 C0.33 0 0.66 0 1 0 C1.02505615 0.72590332 1.0501123 1.45180664 1.07592773 2.19970703 C1.19241241 5.50829446 1.31490014 8.81663376 1.4375 12.125 C1.47681641 13.26710938 1.51613281 14.40921875 1.55664062 15.5859375 C1.59853516 16.69453125 1.64042969 17.803125 1.68359375 18.9453125 C1.73858032 20.46922607 1.73858032 20.46922607 1.79467773 22.02392578 C2.00467826 25.06780973 2.48073238 27.99542274 3 31 C3.03622333 32.66627298 3.04899842 34.33405374 3 36 C2.34 36 1.68 36 1 36 C-0.00013174 31.85758584 -0.11516542 27.98519696 -0.09765625 23.73046875 C-0.0962413 23.04946609 -0.09482635 22.36846344 -0.09336853 21.66682434 C-0.08780298 19.50700353 -0.07525703 17.34728911 -0.0625 15.1875 C-0.05748054 13.71679838 -0.05291841 12.24609512 -0.04882812 10.77539062 C-0.03784488 7.1835596 -0.02060422 3.5917902 0 0 Z " fill="#B97D19" transform="translate(139,104)"/>
<path d="M0 0 C0.33 1.32 0.66 2.64 1 4 C1.99 3.01 2.98 2.02 4 1 C3.6875 3.875 3.6875 3.875 3 7 C-0.69405432 9.46270288 -2.63277072 9.22985417 -7 9 C-9.4375 8.5 -9.4375 8.5 -11 8 C-11 7.34 -11 6.68 -11 6 C-7.7 6 -4.4 6 -1 6 C-0.67 4.02 -0.34 2.04 0 0 Z " fill="#A4680F" transform="translate(107,153)"/>
<path d="M0 0 C2.375 0.625 2.375 0.625 5 2 C8.02714837 8.50836899 8.85805083 16.85927193 8 24 C7.34 24.66 6.68 25.32 6 26 C6.061875 24.700625 6.12375 23.40125 6.1875 22.0625 C6.19561175 16.90342921 4.82929392 12.77051159 3 8 C2.62875 6.865625 2.2575 5.73125 1.875 4.5625 C1.08139683 2.05096711 1.08139683 2.05096711 0 0 Z " fill="#AB6F11" transform="translate(194,94)"/>
<path d="M0 0 C-3.76771849 2.4599738 -7.38941245 3.93655933 -11.6875 5.25 C-12.82574219 5.60578125 -13.96398437 5.9615625 -15.13671875 6.328125 C-18 7 -18 7 -20 6 C-18.68 5.34 -17.36 4.68 -16 4 C-16.33 3.34 -16.66 2.68 -17 2 C-14.91952703 1.4678559 -12.83547707 0.94968214 -10.75 0.4375 C-9.58984375 0.14746094 -8.4296875 -0.14257812 -7.234375 -0.44140625 C-4.27909017 -0.95179964 -2.75565899 -1.02996165 0 0 Z " fill="#B27919" transform="translate(115,33)"/>
<path d="M0 0 C0 0.66 0 1.32 0 2 C-0.99902344 1.98839844 -1.99804688 1.97679688 -3.02734375 1.96484375 C-4.31769531 1.95582031 -5.60804688 1.94679688 -6.9375 1.9375 C-8.86916016 1.92009766 -8.86916016 1.92009766 -10.83984375 1.90234375 C-13.86298403 1.63467451 -13.86298403 1.63467451 -15 3 C-15.23653523 5.52596259 -15.42173692 8.03107207 -15.5625 10.5625 C-15.60568359 11.27341797 -15.64886719 11.98433594 -15.69335938 12.71679688 C-15.79971777 14.47761912 -15.90038846 16.2387832 -16 18 C-16.33 18 -16.66 18 -17 18 C-17 12.06 -17 6.12 -17 0 C-14.9375 -0.185625 -12.875 -0.37125 -10.75 -0.5625 C-9.58984375 -0.66691406 -8.4296875 -0.77132812 -7.234375 -0.87890625 C-4.48128523 -0.98198087 -2.580018 -0.86213473 0 0 Z " fill="#A4670C" transform="translate(184,104)"/>
<path d="M0 0 C0.99 0 1.98 0 3 0 C2.67 9.24 2.34 18.48 2 28 C1.67 28 1.34 28 1 28 C0.67 18.76 0.34 9.52 0 0 Z " fill="#AD7315" transform="translate(33,109)"/>
<path d="M0 0 C0.33 0 0.66 0 1 0 C1.19818283 6.70518586 1.30844801 12.65176798 -1 19 C-1.33 19 -1.66 19 -2 19 C-2.05451714 16.95863605 -2.09302485 14.91684144 -2.125 12.875 C-2.14820313 11.73804688 -2.17140625 10.60109375 -2.1953125 9.4296875 C-1.99672109 5.94242233 -1.2524801 3.2446138 0 0 Z " fill="#895411" transform="translate(235,121)"/>
<path d="M0 0 C0.33 0 0.66 0 1 0 C1.26404456 6.86515862 0.25841946 13.25846717 -1 20 C-1.66 19.67 -2.32 19.34 -3 19 C-2.54240047 12.4491015 -1.7899856 6.3246158 0 0 Z " fill="#F0C558" transform="translate(23,94)"/>
<path d="M0 0 C0.66 0.33 1.32 0.66 2 1 C1.67 1.66 1.34 2.32 1 3 C2.98 3 4.96 3 7 3 C6.67 3.66 6.34 4.32 6 5 C0.39 4.67 -5.22 4.34 -11 4 C-10.67 3.34 -10.34 2.68 -10 2 C-7.96875 1.62109375 -7.96875 1.62109375 -5.5 1.4375 C-2.45018475 1.4207737 -2.45018475 1.4207737 0 0 Z " fill="#F8CF4E" transform="translate(130,85)"/>
<path d="M0 0 C4.29 0 8.58 0 13 0 C13 0.99 13 1.98 13 3 C4.96498906 5.43326039 4.96498906 5.43326039 0.9375 3.625 C0.298125 3.08875 -0.34125 2.5525 -1 2 C-0.67 1.34 -0.34 0.68 0 0 Z " fill="#9F620B" transform="translate(152,159)"/>
<path d="M0 0 C0.66 0 1.32 0 2 0 C2.3125 2.1875 2.3125 2.1875 2 5 C-0.5 7.8125 -0.5 7.8125 -3 10 C-2.25 3.375 -2.25 3.375 0 0 Z " fill="#935C15" transform="translate(217,182)"/>
<path d="M0 0 C3.34373475 0.55728913 6.03312999 1.35173889 9 3 C9 3.66 9 4.32 9 5 C2.25 4.125 2.25 4.125 0 3 C0 2.01 0 1.02 0 0 Z " fill="#B67D1F" transform="translate(77,221)"/>
<path d="M0 0 C0.99 0 1.98 0 3 0 C3.53229326 1.26607607 4.05044544 2.53810412 4.5625 3.8125 C4.85253906 4.52019531 5.14257812 5.22789062 5.44140625 5.95703125 C6 8 6 8 5 11 C2.36620292 7.34666857 0.53115106 4.51478398 0 0 Z " fill="#A76D13" transform="translate(37,158)"/>
<path d="M0 0 C0.33 1.32 0.66 2.64 1 4 C-4.22468764 8.39973696 -8.30713088 8.47617251 -15 8 C-15 7.67 -15 7.34 -15 7 C-14.40832031 6.98582031 -13.81664062 6.97164063 -13.20703125 6.95703125 C-8.70077808 6.68503881 -6.57362742 6.47802285 -3 3.5 C-2.34 2.675 -1.68 1.85 -1 1 C-0.67 0.67 -0.34 0.34 0 0 Z " fill="#D89C24" transform="translate(184,115)"/>
<path d="M0 0 C0.66 0 1.32 0 2 0 C1.14285714 8.57142857 1.14285714 8.57142857 -1 12 C-1.66 11.67 -2.32 11.34 -3 11 C-2.01 7.37 -1.02 3.74 0 0 Z " fill="#88520C" transform="translate(121,115)"/>
<path d="M0 0 C6.4 -0.49230769 6.4 -0.49230769 9.4375 2 C10.2109375 2.99 10.2109375 2.99 11 4 C3.49230769 3.38461538 3.49230769 3.38461538 1 1.4375 C0.67 0.963125 0.34 0.48875 0 0 Z " fill="#A96C10" transform="translate(152,36)"/>
<path d="M0 0 C1.98 0 3.96 0 6 0 C6 0.33 6 0.66 6 1 C8.64 1.33 11.28 1.66 14 2 C12 4 12 4 8.6875 4.25 C5.27485916 4.01863452 3.04534065 3.4765288 0 2 C0 1.34 0 0.68 0 0 Z " fill="#A2650C" transform="translate(124,159)"/>
<path d="M0 0 C0.66 0.33 1.32 0.66 2 1 C-1.40158518 5.30867457 -4.2390167 8.24364125 -9 11 C-7.59155282 7.78475695 -5.89655214 5.67816132 -3.375 3.25 C-2.74335937 2.63640625 -2.11171875 2.0228125 -1.4609375 1.390625 C-0.73777344 0.70226563 -0.73777344 0.70226563 0 0 Z " fill="#A97116" transform="translate(65,53)"/>
<path d="M0 0 C1.21236328 0.01353516 1.21236328 0.01353516 2.44921875 0.02734375 C3.37154297 0.04474609 3.37154297 0.04474609 4.3125 0.0625 C0.94366899 3.43133101 -4.10531548 3.02953782 -8.6875 3.125 C-9.3475 3.104375 -10.0075 3.08375 -10.6875 3.0625 C-6.91890928 0.55010618 -4.42510751 -0.06413199 0 0 Z " fill="#F3C554" transform="translate(111.6875,36.9375)"/>
<path d="M0 0 C2.96404505 2.80804268 5.44499019 5.18315774 7 9 C6.01 9 5.02 9 4 9 C0.8217901 5.7309841 0 4.67834007 0 0 Z " fill="#C58E2D" transform="translate(41,190)"/>
<path d="M0 0 C0.99 0 1.98 0 3 0 C5.25 2.75 5.25 2.75 7 6 C6.609375 8.203125 6.609375 8.203125 6 10 C4.99723227 8.52270825 3.99785546 7.04311423 3 5.5625 C2.443125 4.73878906 1.88625 3.91507813 1.3125 3.06640625 C0 1 0 1 0 0 Z " fill="#C7943A" transform="translate(34,183)"/>
<path d="M0 0 C0.66 0.33 1.32 0.66 2 1 C2 1.99 2 2.98 2 4 C-0.31 4.33 -2.62 4.66 -5 5 C-5 4.01 -5 3.02 -5 2 C-2.625 0.9375 -2.625 0.9375 0 0 Z " fill="#965C0A" transform="translate(190,133)"/>
<path d="M0 0 C1.32 0.33 2.64 0.66 4 1 C1.36 2.65 -1.28 4.3 -4 6 C-4 4.68 -4 3.36 -4 2 C-2.68 2 -1.36 2 0 2 C0 1.34 0 0.68 0 0 Z " fill="#E0AB3E" transform="translate(83,44)"/>
<path d="M0 0 C0.33 0 0.66 0 1 0 C0.54177532 3.46941546 0.10868317 6.67395049 -1 10 C-1.99 10.33 -2.98 10.66 -4 11 C-3.5247412 9.35303396 -3.04468109 7.70745272 -2.5625 6.0625 C-2.29566406 5.14597656 -2.02882812 4.22945312 -1.75390625 3.28515625 C-1 1 -1 1 0 0 Z " fill="#F2CB5A" transform="translate(218,152)"/>
<path d="M0 0 C0.66 0 1.32 0 2 0 C3.25 7.5 3.25 7.5 1 12 C0.67 8.04 0.34 4.08 0 0 Z " fill="#D3A84E" transform="translate(19,136)"/>
<path d="M0 0 C0.99 0.33 1.98 0.66 3 1 C3.33 2.98 3.66 4.96 4 7 C3.01 7.495 3.01 7.495 2 8 C0.23537317 4.91190305 0 3.76687864 0 0 Z " fill="#A77021" transform="translate(216,65)"/>
<path d="M0 0 C-1.97420135 2.52259061 -2.96745642 2.9929808 -6.1875 3.6875 C-7.5796875 3.8421875 -7.5796875 3.8421875 -9 4 C-9 3.34 -9 2.68 -9 2 C-5.86501708 0.14223235 -3.62528568 -0.20140476 0 0 Z " fill="#F5C858" transform="translate(94,43)"/>
<path d="M0 0 C2.46254526 2.1413437 3.69050349 3.69870394 4 7 C3.01 8.485 3.01 8.485 2 10 C0.68373308 6.38026598 0 3.90432869 0 0 Z " fill="#D2A249" transform="translate(23,156)"/>
<path d="M0 0 C0.66 0 1.32 0 2 0 C1.34 2.64 0.68 5.28 0 8 C-0.66 7.34 -1.32 6.68 -2 6 C-1.44444444 1.44444444 -1.44444444 1.44444444 0 0 Z " fill="#996113" transform="translate(234,119)"/>
<path d="M0 0 C2.31 0 4.62 0 7 0 C6.67 1.65 6.34 3.3 6 5 C5.566875 4.54625 5.13375 4.0925 4.6875 3.625 C2.89201658 1.79975666 2.89201658 1.79975666 0 0 Z " fill="#EDBA42" transform="translate(122,223)"/>
<path d="M0 0 C3.91402949 1.26941497 5.79072873 2.51167694 8 6 C7.01 6.33 6.02 6.66 5 7 C3.35 4.69 1.7 2.38 0 0 Z " fill="#CD901F" transform="translate(51,185)"/>
<path d="M0 0 C2.11180592 2.57089417 3.66306057 4.63060567 4 8 C3.34 8.66 2.68 9.32 2 10 C0.39644899 6.49223216 -0.22036864 3.85645121 0 0 Z " fill="#D29C36" transform="translate(26,163)"/>
<path d="M0 0 C2.0625 0.4375 2.0625 0.4375 4 1 C2.35 2.32 0.7 3.64 -1 5 C-1 1 -1 1 0 0 Z " fill="#DDA73A" transform="translate(73,50)"/>
</svg>
