<?xml version="1.0" encoding="UTF-8"?>
<svg version="1.1" xmlns="http://www.w3.org/2000/svg" width="256" height="256">
<path d="M0 0 C1.01320312 0.79470703 1.01320312 0.79470703 2.046875 1.60546875 C21.34591363 17.23769004 32.17263606 42.89523654 35 67 C37.21788878 96.69562397 29.43868571 123.2666218 10 146 C9.5565625 146.5878125 9.113125 147.175625 8.65625 147.78125 C-3.04687282 162.90967706 -22.1944693 172.31237841 -40 178 C-41.03640625 178.34160156 -42.0728125 178.68320313 -43.140625 179.03515625 C-67.4889978 185.61166398 -93.86076157 181.16640277 -116 170 C-117.04671875 169.47664062 -118.0934375 168.95328125 -119.171875 168.4140625 C-142.67071063 155.66998498 -159.88665473 133.18636734 -167.6640625 107.83544922 C-169.80455407 100.37251697 -171.69230613 92.78209068 -172 85 C-172.0515625 83.91847656 -172.103125 82.83695312 -172.15625 81.72265625 C-172.84561468 54.34913382 -162.97380698 28.47572888 -145 8 C-144.27039063 7.16855469 -143.54078125 6.33710937 -142.7890625 5.48046875 C-105.1025564 -34.51766319 -40.80411238 -34.62797972 0 0 Z " fill="#C5C5C5" transform="translate(196,49)"/>
<path d="M0 0 C1.01320312 0.79470703 1.01320312 0.79470703 2.046875 1.60546875 C21.34591363 17.23769004 32.17263606 42.89523654 35 67 C37.21788878 96.69562397 29.43868571 123.2666218 10 146 C9.5565625 146.5878125 9.113125 147.175625 8.65625 147.78125 C-3.04687282 162.90967706 -22.1944693 172.31237841 -40 178 C-41.03640625 178.34160156 -42.0728125 178.68320313 -43.140625 179.03515625 C-67.4889978 185.61166398 -93.86076157 181.16640277 -116 170 C-117.04671875 169.47664062 -118.0934375 168.95328125 -119.171875 168.4140625 C-142.67071063 155.66998498 -159.88665473 133.18636734 -167.6640625 107.83544922 C-169.80455407 100.37251697 -171.69230613 92.78209068 -172 85 C-172.0515625 83.91847656 -172.103125 82.83695312 -172.15625 81.72265625 C-172.84561468 54.34913382 -162.97380698 28.47572888 -145 8 C-144.27039063 7.16855469 -143.54078125 6.33710937 -142.7890625 5.48046875 C-105.1025564 -34.51766319 -40.80411238 -34.62797972 0 0 Z M-125 8 C-125.50515137 8.42297363 -126.01030273 8.84594727 -126.53076172 9.28173828 C-143.32228084 23.45434838 -154.77622976 42.02203438 -158 64 C-159.67894764 92.43326776 -154.81203298 116.4042432 -135.5625 138.125 C-134.04804773 139.7559486 -132.52756035 141.38132202 -131 143 C-130.38898438 143.67546875 -129.77796875 144.3509375 -129.1484375 145.046875 C-128.58382812 145.65015625 -128.01921875 146.2534375 -127.4375 146.875 C-126.96183594 147.38804687 -126.48617187 147.90109375 -125.99609375 148.4296875 C-123.5315791 150.36850333 -120.93131081 151.61405941 -118.11206055 152.96923828 C-116.16279498 153.92055018 -114.27694054 154.93735225 -112.38671875 156 C-93.16409003 166.56336628 -67.52788127 169.9704741 -46 165 C-46 164.34 -46 163.68 -46 163 C-45.3296875 162.9071875 -44.659375 162.814375 -43.96875 162.71875 C-40.22278175 161.81183137 -36.93748404 160.19491787 -33.5 158.5 C-26.64225713 155.11865748 -26.64225713 155.11865748 -23.3359375 154.5078125 C-9.5271343 151.50589876 2.68215578 130.88215758 9.7265625 120.08203125 C14.75641231 111.8583811 18.14052913 103.62607371 19 94 C19.33 94 19.66 94 20 94 C20 92.02 20 90.04 20 88 C20.66 87.67 21.32 87.34 22 87 C21.34 87 20.68 87 20 87 C20.00523682 86.3294458 20.01047363 85.6588916 20.01586914 84.96801758 C20.03671605 81.916188 20.04968469 78.86437344 20.0625 75.8125 C20.07087891 74.75740234 20.07925781 73.70230469 20.08789062 72.61523438 C20.09111328 71.59365234 20.09433594 70.57207031 20.09765625 69.51953125 C20.10289307 68.58214111 20.10812988 67.64475098 20.11352539 66.67895508 C20.00058751 64.01386405 19.58826756 61.59755592 19 59 C18.88140625 58.34 18.7628125 57.68 18.640625 57 C14.48610204 35.72884242 3.88001678 18.23824825 -13.125 5.109375 C-15.06721889 3.74539375 -15.06721889 3.74539375 -18 4 C-18 3.34 -18 2.68 -18 2 C-26.46696749 -3.10963082 -34.62181866 -6.3934157 -44.15234375 -8.95703125 C-48 -10 -48 -10 -50.734375 -11.11328125 C-75.93681952 -17.95652874 -105.68678683 -8.42280031 -125 8 Z " fill="#C5C5C5" transform="translate(196,49)"/>
<path d="M0 0 C0.99 3.3 1.98 6.6 3 10 C0.16671013 7.16671013 -0.7191375 5.64553172 -2 2 C-2 5.47471596 -0.27754121 8.62755895 0.9921875 11.82421875 C1.29818878 12.60384476 1.60419006 13.38347076 1.91946411 14.1867218 C2.90143725 16.68825612 3.8877144 19.18805798 4.875 21.6875 C6.16778297 24.96079086 7.45622529 28.23574318 8.7421875 31.51171875 C9.03809784 32.2567717 9.33400818 33.00182465 9.6388855 33.76945496 C11.35126498 38.13239992 12.78571064 42.47228647 14 47 C14.66 47 15.32 47 16 47 C16.0825 46.0925 16.165 45.185 16.25 44.25 C17.43539013 35.90146666 20.98689468 27.83407383 24 20 C24.66 20 25.32 20 26 20 C26 17.69 26 15.38 26 13 C26.99 12.67 27.98 12.34 29 12 C29.185625 10.9171875 29.185625 10.9171875 29.375 9.8125 C29.9904931 7.04278106 30.88444374 4.6029646 32 2 C32.66 2.33 33.32 2.66 34 3 C34.33 3 34.66 3 35 3 C40.33333333 3 45.66666667 3 51 3 C51.09877896 9.21129698 51.17142631 15.42213818 51.21972656 21.6340332 C51.23985847 23.74772097 51.26716643 25.86135294 51.30175781 27.97485352 C51.35020627 31.01071935 51.37295276 34.04584978 51.390625 37.08203125 C51.41127014 38.02899368 51.43191528 38.97595612 51.45318604 39.95161438 C51.45543136 46.49670332 51.45543136 46.49670332 49.12304688 49.07421875 C46.82751234 50.07521541 44.7103799 50.71713325 42.25 51.1875 C41.45078125 51.34605469 40.6515625 51.50460938 39.828125 51.66796875 C39.22484375 51.77753906 38.6215625 51.88710937 38 52 C37.97308315 49.54159395 37.95320198 47.08348118 37.9375 44.625 C37.92912109 43.92632812 37.92074219 43.22765625 37.91210938 42.5078125 C37.88671875 37.2265625 37.88671875 37.2265625 39 35 C38.9129796 33.28766312 38.75902838 31.57824594 38.5625 29.875 C38.40974609 28.50988281 38.40974609 28.50988281 38.25390625 27.1171875 C38.17011719 26.41851562 38.08632812 25.71984375 38 25 C37.34 25 36.68 25 36 25 C35.75765625 25.76183594 35.5153125 26.52367188 35.265625 27.30859375 C33.4796744 32.81069542 31.58599906 38.11928772 29.140625 43.359375 C27.25728323 47.7194402 25.68525696 52.20247137 24.10595703 56.68066406 C22.21714978 61.89142511 22.21714978 61.89142511 20 63 C17.84692326 62.85378573 15.69988217 62.61035147 13.5625 62.3125 C12.40878906 62.16425781 11.25507812 62.01601562 10.06640625 61.86328125 C6.3935317 60.82926179 5.97470148 60.17161765 4 57 C2.95839741 54.61667503 1.9953011 52.25896847 1.08203125 49.828125 C0.81992355 49.1457074 0.55781586 48.46328979 0.2877655 47.76019287 C-0.543307 45.59236119 -1.36550855 43.4212891 -2.1875 41.25 C-2.75136976 39.77451651 -3.31581668 38.29925346 -3.88085938 36.82421875 C-5.26060244 33.218664 -6.63240266 29.61017821 -8 26 C-8.33 26 -8.66 26 -9 26 C-9.33 40.52 -9.66 55.04 -10 70 C-14.29 70 -18.58 70 -23 70 C-23.93167146 64.48398686 -24.14620186 59.16635011 -24.1328125 53.578125 C-24.13376923 52.6786615 -24.13472595 51.779198 -24.13571167 50.85247803 C-24.13638997 48.94966563 -24.13456017 47.04685088 -24.13037109 45.14404297 C-24.12509354 42.30039944 -24.13028854 39.45691941 -24.13671875 36.61328125 C-24.14060275 24.71115287 -23.75461398 12.87786465 -23 1 C-15.30321161 0.18126584 -7.74058473 -0.12157986 0 0 Z " fill="#E7E7E7" transform="translate(86,84)"/>
<path d="M0 0 C5.589375 0.0825 11.17875 0.165 16.9375 0.25 C19.55546509 0.27368652 19.55546509 0.27368652 22.22631836 0.29785156 C39.23566536 0.5886342 39.23566536 0.5886342 45.56201172 6.44628906 C51.11728519 12.7213619 51.52823648 18.14055724 51.3125 26.2890625 C50.77910372 32.62314337 48.75892377 36.65185925 44.0625 40.875 C37.92551586 45.13331553 32.66571236 45.38661159 25.375 45.625 C24.42109375 45.66367188 23.4671875 45.70234375 22.484375 45.7421875 C18.98697627 45.88011308 15.50033974 46 12 46 C8.51125559 46.43609305 5.33913849 46.88695384 2 48 C1.67 54.6 1.34 61.2 1 68 C0.67 68 0.34 68 0 68 C0 45.56 0 23.12 0 0 Z " fill="#E1E2E2" transform="translate(149,85)"/>
<path d="M0 0 C30.52459237 -1.0800754 56.22525726 4.82381526 80 25 C81.01320312 25.79470703 81.01320312 25.79470703 82.046875 26.60546875 C101.34591363 42.23769004 112.17263606 67.89523654 115 92 C117.21788878 121.69562397 109.43868571 148.2666218 90 171 C89.5565625 171.5878125 89.113125 172.175625 88.65625 172.78125 C76.95312718 187.90967706 57.8055307 197.31237841 40 203 C38.96359375 203.34160156 37.9271875 203.68320313 36.859375 204.03515625 C12.5110022 210.61166398 -13.86076157 206.16640277 -36 195 C-37.04671875 194.47664062 -38.0934375 193.95328125 -39.171875 193.4140625 C-59.11354622 182.59913499 -77.58978171 162.68463879 -85 141 C-85 140.01 -85 139.02 -85 138 C-84.34 138 -83.68 138 -83 138 C-82.52691406 139.00417969 -82.05382812 140.00835937 -81.56640625 141.04296875 C-69.13388366 166.94936507 -51.01893163 186.32624753 -24 197 C-22.11339847 197.2602209 -20.22464789 197.51377271 -18.328125 197.6875 C-15.51817476 198.06467453 -12.86799084 198.78323858 -10.125 199.5 C-1.82951496 201.50303231 6.50610661 201.72354331 15 202 C15 202.66 15 203.32 15 204 C15.66 203.34 16.32 202.68 17 202 C18.78515926 202.03500312 20.57031695 202.07008736 22.35546875 202.10546875 C37.83463197 201.48813137 55.58173195 195.27440272 68 186 C68.33 185.01 68.66 184.02 69 183 C69.66 183 70.32 183 71 183 C71.33 182.34 71.66 181.68 72 181 C72.7425 180.566875 73.485 180.13375 74.25 179.6875 C77.35779653 177.78044304 79.4819709 175.63793524 82 173 C82.50144531 172.55398437 83.00289062 172.10796875 83.51953125 171.6484375 C87.7910709 167.74703127 90.98908644 163.34685993 94.1875 158.5625 C94.60346436 157.94197754 95.01942871 157.32145508 95.44799805 156.68212891 C98.33061666 152.27368955 100.71419779 147.7450101 103 143 C103.66 143 104.32 143 105 143 C105.12503906 142.319375 105.25007812 141.63875 105.37890625 140.9375 C106.08933927 137.57746459 107.00930026 134.30649268 107.9375 131 C111.16434172 119.10964762 112.35529036 107.26644922 113 95 C112.34 95 111.68 95 111 95 C111.33 92.03 111.66 89.06 112 86 C111.34 86 110.68 86 110 86 C109.896875 84.845 109.79375 83.69 109.6875 82.5 C109.22811446 78.85043712 108.2666481 75.66877428 106.87109375 72.25 C105.85295105 69.62017848 105.06865761 66.94840793 104.25 64.25 C97.71785974 44.6040933 82.5365613 28.42164903 65.06640625 17.875 C62 16 62 16 60.08251953 14.49023438 C56.52342266 11.94337303 52.4407155 10.85787828 48.3125 9.5 C47.37712402 9.19175293 46.44174805 8.88350586 45.47802734 8.56591797 C33.18812956 4.64058771 21.03139195 2.80056601 8.171875 2.2109375 C5.35294742 2.02347187 2.74902359 1.63041518 0 1 C0 0.67 0 0.34 0 0 Z " fill="#818081" transform="translate(116,24)"/>
<path d="M0 0 C-0.33 0.66 -0.66 1.32 -1 2 C-3.06299641 2.54257998 -5.15327749 2.98244182 -7.25 3.375 C-26.72262244 7.36027835 -42.33702787 14.8125791 -56.23046875 29.171875 C-57.62980063 30.61754237 -59.08684921 32.00732366 -60.5625 33.375 C-69.00176184 42.46343583 -76.2378513 54.16241111 -80 66 C-80.25394531 66.73992187 -80.50789063 67.47984375 -80.76953125 68.2421875 C-81.5372814 70.48870765 -82.28739536 72.73533501 -83 75 C-83.34675781 76.03382812 -83.69351563 77.06765625 -84.05078125 78.1328125 C-85.21940377 82.89386721 -85.45670058 87.42831068 -85.625 92.3125 C-85.66367188 93.19873047 -85.70234375 94.08496094 -85.7421875 94.99804688 C-85.98736756 101.00058013 -86.04371063 106.99302683 -86 113 C-86.33 113 -86.66 113 -87 113 C-92.78289954 90.54402109 -87.46025804 67.09423482 -75.984375 47.24316406 C-62.54088947 25.35987838 -41.0800174 7.30218442 -16.08984375 0.44384766 C-10.76704934 -0.68662433 -5.39912421 -0.46204866 0 0 Z " fill="#DBDBDB" transform="translate(114,27)"/>
<path d="M0 0 C3.8053125 -0.12375 3.8053125 -0.12375 7.6875 -0.25 C8.87218872 -0.30462402 8.87218872 -0.30462402 10.08081055 -0.36035156 C13.90260839 -0.42027101 15.63709783 -0.23202728 18.95703125 1.890625 C22.00754191 5.04029184 22.00754191 5.04029184 21.984375 7.98828125 C21.13092979 16.4516129 21.13092979 16.4516129 18 20 C11.59144529 23.87183514 8.24639827 23 0 23 C0 15.41 0 7.82 0 0 Z " fill="#B3B3B3" transform="translate(164,97)"/>
<path d="M0 0 C30.52459237 -1.0800754 56.22525726 4.82381526 80 25 C80.67546875 25.52980469 81.3509375 26.05960938 82.046875 26.60546875 C101.46124271 42.3311066 111.92753142 67.83544981 115 92 C115.87170467 102.01474284 115.52331915 111.47864944 112 121 C110.99201665 117.76123384 111.00739149 115.16050961 111.33984375 111.796875 C111.43330078 110.8171875 111.52675781 109.8375 111.62304688 108.828125 C111.72681641 107.81234375 111.83058594 106.7965625 111.9375 105.75 C112.08735352 104.203125 112.08735352 104.203125 112.24023438 102.625 C112.4874052 100.08267151 112.74087545 97.5411333 113 95 C112.34 95 111.68 95 111 95 C111.33 92.03 111.66 89.06 112 86 C111.34 86 110.68 86 110 86 C109.896875 84.845 109.79375 83.69 109.6875 82.5 C109.22811446 78.85043712 108.2666481 75.66877428 106.87109375 72.25 C105.85295105 69.62017848 105.06865761 66.94840793 104.25 64.25 C97.71785974 44.6040933 82.5365613 28.42164903 65.06640625 17.875 C62 16 62 16 60.08251953 14.49023438 C56.52342266 11.94337303 52.4407155 10.85787828 48.3125 9.5 C47.37712402 9.19175293 46.44174805 8.88350586 45.47802734 8.56591797 C33.18812956 4.64058771 21.03139195 2.80056601 8.171875 2.2109375 C5.35294742 2.02347187 2.74902359 1.63041518 0 1 C0 0.67 0 0.34 0 0 Z " fill="#898888" transform="translate(116,24)"/>
<path d="M0 0 C5.10447818 0.72921117 8.42722705 2.47348508 12.125 6.0625 C15.98392811 12.10815404 17.76923422 18.58756976 16.5625 25.71484375 C14.47358836 34.20104727 11.26353018 40.8011034 4 46 C-1.36193748 48.53202603 -6.17542136 49.68606224 -12 48 C-12 48.66 -12 49.32 -12 50 C-13.98 50 -15.96 50 -18 50 C-20.17028067 53.61105522 -20.58806497 57.10792974 -21.125 61.25 C-21.29257813 62.51328125 -21.46015625 63.7765625 -21.6328125 65.078125 C-21.75398437 66.04234375 -21.87515625 67.0065625 -22 68 C-22.66 68 -23.32 68 -24 68 C-24 59.75 -24 51.5 -24 43 C-14 42.75 -14 42.75 -10.8984375 42.70214844 C-3.95503695 42.44687636 1.77178693 41.18708933 6.83984375 36.18359375 C7.20207031 35.60738281 7.56429687 35.03117187 7.9375 34.4375 C8.50791016 33.56931641 8.50791016 33.56931641 9.08984375 32.68359375 C12.29086022 26.76240019 11.5970793 19.5135924 11 13 C8.968604 7.11595642 5.24155318 4.04741464 0 1 C0 0.67 0 0.34 0 0 Z " fill="#7D7C7D" transform="translate(188,87)"/>
<path d="M0 0 C-0.90621094 0.49628906 -1.81242187 0.99257813 -2.74609375 1.50390625 C-25.66583665 14.21116428 -42.54176165 31.83937821 -49.99609375 57.41796875 C-51.58377371 63.89783001 -52.6570085 70.33764989 -53 77 C-53.07927734 78.34771484 -53.07927734 78.34771484 -53.16015625 79.72265625 C-53.59596089 93.80104106 -50.06835696 105.92658206 -44.42578125 118.6484375 C-43 122 -43 122 -43 124 C-42.34 124 -41.68 124 -41 124 C-39.64721885 125.98689731 -38.31431695 127.98745218 -37 130 C-36.34 130.33 -35.68 130.66 -35 131 C-32 136.42307692 -32 136.42307692 -32 139 C-31.01 139.33 -30.02 139.66 -29 140 C-27.24609375 141.77734375 -27.24609375 141.77734375 -25.4375 143.9375 C-21.86437284 148.23543298 -21.86437284 148.23543298 -17.375 151.5 C-16.59125 151.995 -15.8075 152.49 -15 153 C-15 153.66 -15 154.32 -15 155 C-14.01 155 -13.02 155 -12 155 C-12.33 155.66 -12.66 156.32 -13 157 C-19.14194817 154.26275416 -23.41634569 151.20402234 -28.0625 146.375 C-28.67174316 145.74964355 -29.28098633 145.12428711 -29.90869141 144.47998047 C-40.66945865 133.24621247 -48.90669511 119.08694937 -53 104 C-53.26441895 103.06510742 -53.26441895 103.06510742 -53.53417969 102.11132812 C-57.62194291 86.02500655 -56.64286363 66.58841079 -51 51 C-50.5875 49.81921875 -50.175 48.6384375 -49.75 47.421875 C-41.47670102 26.08052422 -25.14799059 11.86323407 -6.15625 -0.1015625 C-3.62475259 -1.15635309 -2.52426476 -0.95233625 0 0 Z " fill="#919191" transform="translate(93,46)"/>
<path d="M0 0 C2.19658866 0.88192079 4.41697213 1.60950392 6.67114258 2.33081055 C10.0164333 3.42412495 13.0076888 4.69798353 16.05395508 6.48706055 C17.18510742 7.14254883 17.18510742 7.14254883 18.33911133 7.8112793 C18.88438477 8.13741211 19.4296582 8.46354492 19.99145508 8.79956055 C19.99145508 9.45956055 19.99145508 10.11956055 19.99145508 10.79956055 C20.54575195 10.88592773 21.10004883 10.97229492 21.67114258 11.0612793 C31.73976258 14.26493112 41.30775052 26.0815453 46.25170898 35.09790039 C51.04502198 44.59345529 55.13177715 54.28276125 56.99145508 64.79956055 C56.33145508 64.79956055 55.67145508 64.79956055 54.99145508 64.79956055 C53.34145508 59.51956055 51.69145508 54.23956055 49.99145508 48.79956055 C49.33145508 48.79956055 48.67145508 48.79956055 47.99145508 48.79956055 C47.64083008 47.54143555 47.29020508 46.28331055 46.92895508 44.98706055 C41.56971323 29.2535065 28.2885901 16.68413442 13.99145508 8.79956055 C-8.01140579 -1.96723598 -35.65465727 -5.98074086 -59.31323242 2.0222168 C-62.00854492 2.79956055 -62.00854492 2.79956055 -65.00854492 1.79956055 C-45.37046456 -8.43510038 -20.1857375 -8.51323872 0 0 Z " fill="#8F8F8F" transform="translate(158.008544921875,42.200439453125)"/>
<path d="M0 0 C2 2 2 2 2.22705078 5.25634766 C2.22673382 6.64229295 2.21541759 8.02826301 2.1953125 9.4140625 C2.1924826 10.14370209 2.18965271 10.87334167 2.18673706 11.62509155 C2.17553002 13.95856028 2.1504251 16.29164703 2.125 18.625 C2.11497085 20.20572363 2.10584489 21.78645327 2.09765625 23.3671875 C2.07558905 27.24493914 2.04105615 31.12240478 2 35 C4.64 34.01 7.28 33.02 10 32 C11 33 11 33 11.11352539 34.76586914 C11.10828857 35.51473389 11.10305176 36.26359863 11.09765625 37.03515625 C11.09443359 37.84404297 11.09121094 38.65292969 11.08789062 39.48632812 C11.07951172 40.33646484 11.07113281 41.18660156 11.0625 42.0625 C11.05798828 42.91650391 11.05347656 43.77050781 11.04882812 44.65039062 C11.03700373 46.76695663 11.01906769 48.88348685 11 51 C10.443125 50.525625 9.88625 50.05125 9.3125 49.5625 C6.81653926 47.87604004 4.9553763 47.41046893 2 47 C2.49688008 55.02408469 3.01974901 63.01795622 4 71 C-2.23160816 73.51916075 -5.89468757 72.57502973 -12 70 C-12 69.67 -12 69.34 -12 69 C-8.37 69 -4.74 69 -1 69 C-1.00580078 67.85499023 -1.01160156 66.70998047 -1.01757812 65.53027344 C-1.06556577 51.43113383 -0.810174 37.34522268 -0.5 23.25 C-0.4516293 20.98047287 -0.40345116 18.71094162 -0.35546875 16.44140625 C-0.23919026 10.96088829 -0.12056819 5.48042518 0 0 Z " fill="#A7A7A7" transform="translate(138,86)"/>
<path d="M0 0 C0.33 0 0.66 0 1 0 C1.19583915 4.14548415 1.38027842 8.2913967 1.5625 12.4375 C1.61857422 13.62150391 1.67464844 14.80550781 1.73242188 16.02539062 C1.78076172 17.15009766 1.82910156 18.27480469 1.87890625 19.43359375 C1.9260376 20.47572021 1.97316895 21.51784668 2.02172852 22.59155273 C2 25 2 25 1 26 C-1.53049402 26.07313567 -4.03304837 26.09247527 -6.5625 26.0625 C-7.27341797 26.05798828 -7.98433594 26.05347656 -8.71679688 26.04882812 C-10.47790013 26.03700864 -12.23896036 26.01907263 -14 26 C-14.33 25.01 -14.66 24.02 -15 23 C-14.01 23 -13.02 23 -12 23 C-12 16.73 -12 10.46 -12 4 C-10.68 3.67 -9.36 3.34 -8 3 C-8 3.66 -8 4.32 -8 5 C-4.535 4.505 -4.535 4.505 -1 4 C-0.67 2.68 -0.34 1.36 0 0 Z " fill="#B2B2B2" transform="translate(163,131)"/>
<path d="M0 0 C0.66 0 1.32 0 2 0 C2.47308594 1.00417969 2.94617187 2.00835937 3.43359375 3.04296875 C15.86611634 28.94936507 33.98106837 48.32624753 61 59 C62.88660153 59.2602209 64.77535211 59.51377271 66.671875 59.6875 C69.48182524 60.06467453 72.13200916 60.78323858 74.875 61.5 C83.17048504 63.50303231 91.50610661 63.72354331 100 64 C100 64.66 100 65.32 100 66 C74.18563374 67.36664292 50.91825756 61.86449155 31 45 C30.00484375 44.17886719 29.0096875 43.35773438 27.984375 42.51171875 C15.40478622 31.80285799 6.34573663 18.20067571 0 3 C0 2.01 0 1.02 0 0 Z " fill="#9D9D9D" transform="translate(31,162)"/>
<path d="M0 0 C0.33 0 0.66 0 1 0 C0.01440777 26.46315135 -12.43706399 51.40015783 -31.58496094 69.49804688 C-40.00756048 77 -40.00756048 77 -43 77 C-41.48141305 73.27102539 -39.2734186 71.23613425 -36.25 68.625 C-34.91195312 67.44550781 -34.91195312 67.44550781 -33.546875 66.2421875 C-32.70640625 65.50226563 -31.8659375 64.76234375 -31 64 C-26.87588847 60.39771203 -26.87588847 60.39771203 -24.12109375 55.76171875 C-22.69150152 52.24004032 -20.66008208 49.21056746 -18.5625 46.0625 C-15.74166316 41.81513883 -13.19374694 37.62027088 -11 33 C-10.34 33 -9.68 33 -9 33 C-8.88398438 32.34257812 -8.76796875 31.68515625 -8.6484375 31.0078125 C-7.83535124 27.23626781 -6.73553529 23.56680166 -5.625 19.875 C-3.6591931 13.27321851 -1.76870727 6.65781681 0 0 Z " fill="#656464" transform="translate(230,134)"/>
<path d="M0 0 C30.63133716 -1.08385243 56.08285721 4.89633578 80 25 C81.66370315 26.33702932 83.32960345 27.67134243 85 29 C84.67 30.32 84.34 31.64 84 33 C83.58492188 32.52691406 83.16984375 32.05382813 82.7421875 31.56640625 C77.4793106 25.91817226 71.69353191 21.99135131 65.171875 17.98046875 C62 16 62 16 60.07592773 14.48364258 C56.51883488 11.94142768 52.43665467 10.85654257 48.3125 9.5 C47.37712402 9.19175293 46.44174805 8.88350586 45.47802734 8.56591797 C33.18812956 4.64058771 21.03139195 2.80056601 8.171875 2.2109375 C5.35294742 2.02347187 2.74902359 1.63041518 0 1 C0 0.67 0 0.34 0 0 Z " fill="#969696" transform="translate(116,24)"/>
<path d="M0 0 C0 5.61 0 11.22 0 17 C-9.625 18 -9.625 18 -13 18 C-12.67 12.72 -12.34 7.44 -12 2 C-3.375 0 -3.375 0 0 0 Z " fill="#AEAEAE" transform="translate(137,138)"/>
<path d="M0 0 C0.66 0 1.32 0 2 0 C2 3.3 2 6.6 2 10 C1.01 10 0.02 10 -1 10 C-1.12117188 10.59167969 -1.24234375 11.18335937 -1.3671875 11.79296875 C-2.27207098 16.05984241 -3.29007753 19.97665301 -5 24 C-5.46889996 25.3505442 -5.92582647 26.70526754 -6.375 28.0625 C-6.63410156 28.83078125 -6.89320312 29.5990625 -7.16015625 30.390625 C-7.76976764 32.28467341 -8.33433381 34.19340679 -8.87109375 36.109375 C-11.26234397 44.24557906 -11.26234397 44.24557906 -14.75 47.8125 C-19.04558441 49.38204046 -21.55231938 48.92020978 -26 48 C-26 47.01 -26 46.02 -26 45 C-21.545 44.505 -21.545 44.505 -17 44 C-10.95624611 30.0120147 -10.95624611 30.0120147 -5.87109375 15.65625 C-4.6896698 12.05370164 -3.27619908 8.56257068 -1.83203125 5.05859375 C-1.16000953 3.39589212 -0.56711462 1.70134386 0 0 Z " fill="#818080" transform="translate(121,109)"/>
<path d="M0 0 C1.43673182 3.42079006 0.63612591 5.71689587 -0.68896484 9.07543945 C-0.95660645 9.71054443 -1.22424805 10.34564941 -1.5 11 C-1.91113037 11.99422974 -1.91113037 11.99422974 -2.33056641 13.00854492 C-6.74451799 23.39292056 -12.56952876 32.51422837 -20 41 C-20.58007812 41.66386719 -21.16015625 42.32773438 -21.7578125 43.01171875 C-29.99855654 51.80541314 -40.82158085 61.02279783 -53 63 C-53 62.34 -53 61.68 -53 61 C-51.36804688 60.21689453 -51.36804688 60.21689453 -49.703125 59.41796875 C-34.21099596 51.75591795 -23.96258852 42.00099494 -14 28 C-13.401875 27.16082031 -12.80375 26.32164062 -12.1875 25.45703125 C-6.6726281 17.44667982 -3.17012065 9.17311506 0 0 Z " fill="#E6E6E6" transform="translate(214,148)"/>
<path d="M0 0 C0 3 0 3 0 3 Z M-2 3 C-1.67 3.66 -1.34 4.32 -1 5 C-1.85546875 6.77734375 -1.85546875 6.77734375 -3.1875 8.9375 C-7.36526778 16.14414943 -9.87144456 23.97698333 -12 32 C-12.2628479 32.94141846 -12.2628479 32.94141846 -12.53100586 33.90185547 C-13.03912965 36.17505478 -13.20916359 38.30647163 -13.31640625 40.6328125 C-13.35830078 41.52226563 -13.40019531 42.41171875 -13.44335938 43.328125 C-13.48267578 44.25109375 -13.52199219 45.1740625 -13.5625 46.125 C-13.60568359 47.02476563 -13.64886719 47.92453125 -13.69335938 48.8515625 C-13.96731824 54.90474893 -14.05162451 60.94108544 -14 67 C-14.33 67 -14.66 67 -15 67 C-19.76280262 48.5052303 -17.27107617 29.69429895 -9.07128906 12.54003906 C-8 11 -8 11 -5 10 C-3.84164327 7.02496878 -3.84164327 7.02496878 -3 4 C-2.67 3.67 -2.34 3.34 -2 3 Z " fill="#E4E4E5" transform="translate(42,73)"/>
<path d="M0 0 C-0.90621094 0.49628906 -1.81242187 0.99257813 -2.74609375 1.50390625 C-27.29907529 15.11667116 -42.38803985 33.40306262 -51 60 C-51.33 60 -51.66 60 -52 60 C-51.41449234 43.02027773 -40.40054968 27.46306566 -28.41015625 16.0859375 C-6.84162166 -2.58115726 -6.84162166 -2.58115726 0 0 Z " fill="#888788" transform="translate(93,46)"/>
<path d="M0 0 C0.66 0.33 1.32 0.66 2 1 C2.02505615 2.07894531 2.0501123 3.15789062 2.07592773 4.26953125 C2.17066051 8.30267617 2.27071576 12.33567503 2.37231445 16.36865234 C2.4154158 18.10852625 2.45710637 19.84843573 2.49731445 21.58837891 C2.55562321 24.10069465 2.61913722 26.61283534 2.68359375 29.125 C2.70030624 29.89303955 2.71701874 30.6610791 2.73423767 31.45239258 C2.86655427 36.362638 3.3217858 41.1342355 4 46 C-0.50883851 49.51909347 -3.28243338 50.62373454 -9 50 C-11.875 49.125 -11.875 49.125 -14 48 C-14.33 47.34 -14.66 46.68 -15 46 C-10.05 46 -5.1 46 0 46 C0 30.82 0 15.64 0 0 Z " fill="#8F8F8F" transform="translate(77,109)"/>
<path d="M0 0 C2.475 0.99 2.475 0.99 5 2 C5 2.66 5 3.32 5 4 C5.55429688 4.08636719 6.10859375 4.17273437 6.6796875 4.26171875 C16.7483075 7.46537057 26.31629544 19.28198476 31.26025391 28.29833984 C36.0535669 37.79389475 40.14032208 47.48320071 42 58 C41.34 58 40.68 58 40 58 C37.525 50.08 37.525 50.08 35 42 C34.34 42 33.68 42 33 42 C32.649375 40.741875 32.29875 39.48375 31.9375 38.1875 C27.0216318 23.75559336 15.57055266 12.36718851 2.86328125 4.40234375 C1 3 1 3 0 0 Z " fill="#9A999A" transform="translate(173,49)"/>
<path d="M0 0 C3.94557003 1.97278501 4.75613201 7.84813525 6.1875 11.8125 C6.56841797 12.82376953 6.94933594 13.83503906 7.34179688 14.87695312 C7.69693359 15.85212891 8.05207031 16.82730469 8.41796875 17.83203125 C8.74563232 18.72639893 9.0732959 19.6207666 9.41088867 20.54223633 C10.03553269 23.14824184 9.89046446 24.50648171 9 27 C7.35 27 5.7 27 4 27 C3.67 26.01 3.34 25.02 3 24 C2.49041748 23.54391357 1.98083496 23.08782715 1.45581055 22.61791992 C-0.53276737 20.4079072 -0.34635484 19.04951645 -0.29296875 16.11328125 C-0.28330078 15.17548828 -0.27363281 14.23769531 -0.26367188 13.27148438 C-0.23853516 12.29501953 -0.21339844 11.31855469 -0.1875 10.3125 C-0.17396484 9.32443359 -0.16042969 8.33636719 -0.14648438 7.31835938 C-0.11112203 4.87835769 -0.06177033 2.43945281 0 0 Z " fill="#E2E2E2" transform="translate(79,118)"/>
<path d="M0 0 C2.5575 -0.061875 5.115 -0.12375 7.75 -0.1875 C8.94834473 -0.22846802 8.94834473 -0.22846802 10.17089844 -0.27026367 C13.49093022 -0.30915069 15.64143518 -0.21547296 18.515625 1.51171875 C19.00546875 2.00285156 19.4953125 2.49398437 20 3 C19.67 3.99 19.34 4.98 19 6 C18.21625 5.690625 17.4325 5.38125 16.625 5.0625 C12.10148422 3.73664193 7.68568186 3.35188915 3 3 C3.14100857 5.27113803 3.28796755 7.54190725 3.4375 9.8125 C3.51871094 11.07707031 3.59992188 12.34164062 3.68359375 13.64453125 C3.87184547 16.99181893 3.87184547 16.99181893 5 20 C5.99 20.66 6.98 21.32 8 22 C5.36 22 2.72 22 0 22 C0 14.74 0 7.48 0 0 Z " fill="#878787" transform="translate(164,97)"/>
<path d="M0 0 C0.33 0 0.66 0 1 0 C2.2858169 45.88121273 2.2858169 45.88121273 1.75 60.6875 C1.72365479 61.62722656 1.69730957 62.56695312 1.67016602 63.53515625 C1.37935615 69.52411185 1.37935615 69.52411185 -0.39501953 71.75 C-2 73 -2 73 -4.2265625 72.92578125 C-5.01804688 72.72339844 -5.80953125 72.52101563 -6.625 72.3125 C-7.42164063 72.12300781 -8.21828125 71.93351562 -9.0390625 71.73828125 C-11 71 -11 71 -12 69 C-8.37 69 -4.74 69 -1 69 C-1.00580078 67.85499023 -1.01160156 66.70998047 -1.01757812 65.53027344 C-1.06556577 51.43113383 -0.810174 37.34522268 -0.5 23.25 C-0.4516293 20.98047287 -0.40345116 18.71094162 -0.35546875 16.44140625 C-0.23919026 10.96088829 -0.12056819 5.48042518 0 0 Z " fill="#7B7B7B" transform="translate(138,86)"/>
<path d="M0 0 C0.99 0.33 1.98 0.66 3 1 C3.19401633 2.81181405 3.38004375 4.62448532 3.5625 6.4375 C3.66691406 7.44683594 3.77132812 8.45617187 3.87890625 9.49609375 C3.93884766 10.73552734 3.93884766 10.73552734 4 12 C3.67 12.33 3.34 12.66 3 13 C2.92728259 15.35313555 2.91629132 17.70833668 2.9375 20.0625 C2.94652344 21.35285156 2.95554687 22.64320313 2.96484375 23.97265625 C2.97644531 24.97167969 2.98804687 25.97070312 3 27 C4.62566606 26.52309796 6.25051311 26.04340334 7.875 25.5625 C8.77992188 25.29566406 9.68484375 25.02882812 10.6171875 24.75390625 C12.98275381 24.07386174 12.98275381 24.07386174 15 23 C15 25.31 15 27.62 15 30 C12.14917204 30.95027599 9.78896626 31.29191216 6.8125 31.5625 C5.46091797 31.68818359 5.46091797 31.68818359 4.08203125 31.81640625 C3.39496094 31.87699219 2.70789063 31.93757813 2 32 C2 34.97 2 37.94 2 41 C1.34 41 0.68 41 0 41 C0 27.47 0 13.94 0 0 Z " fill="#D9D9D9" transform="translate(122,108)"/>
<path d="M0 0 C5.46864457 1.01591421 10.76390013 2.07091057 16 4 C15.01 6.31 14.02 8.62 13 11 C10.03 11 7.06 11 4 11 C0 3.375 0 3.375 0 0 Z " fill="#CECECE" transform="translate(91,143)"/>
<path d="M0 0 C0.309375 0.639375 0.61875 1.27875 0.9375 1.9375 C1.8345163 3.93610821 1.8345163 3.93610821 3 5 C2.65581075 10.39229824 1.0321726 14.80617958 -1.0625 19.765625 C-2.07620833 22.10287673 -2.07620833 22.10287673 -3 25 C-4.84765625 26.16796875 -4.84765625 26.16796875 -7.0625 27.1875 C-7.79597656 27.53167969 -8.52945313 27.87585938 -9.28515625 28.23046875 C-9.85105469 28.48441406 -10.41695313 28.73835938 -11 29 C-11.33 28.34 -11.66 27.68 -12 27 C-11.21625 26.87625 -10.4325 26.7525 -9.625 26.625 C-6.8345803 25.2936169 -6.8345803 25.2936169 -6.328125 22.8515625 C-6.01914191 21.07757338 -5.73091787 19.2998735 -5.4609375 17.51953125 C-4.87814801 14.33394464 -3.46747418 11.87380359 -2 9 C-1.19829716 6.0243545 -0.571865 3.02752057 0 0 Z " fill="#B0B0B0" transform="translate(116,129)"/>
<path d="M0 0 C2.54186606 0.31094086 5.08348598 0.62370536 7.625 0.9375 C8.69427734 1.06801758 8.69427734 1.06801758 9.78515625 1.20117188 C10.83896484 1.33168945 10.83896484 1.33168945 11.9140625 1.46484375 C12.8723999 1.58267212 12.8723999 1.58267212 13.85009766 1.70288086 C15.49574758 1.9303117 17.13418281 2.21050817 18.76757812 2.51367188 C22.4508939 3.06783842 26.0882691 3.22650382 29.8046875 3.31640625 C30.5286673 3.33718735 31.25264709 3.35796844 31.99856567 3.37937927 C34.29062239 3.44428853 36.58278474 3.50348437 38.875 3.5625 C40.43751053 3.60574112 42.00001072 3.64935711 43.5625 3.69335938 C47.37489426 3.79990896 51.1873938 3.90133795 55 4 C55 4.33 55 4.66 55 5 C39.1113896 7.9417321 14.14769211 9.43179474 0 0 Z " fill="#636263" transform="translate(93,224)"/>
<path d="M0 0 C4.3689695 3.30099918 6.9138202 5.78455049 9 11 C9 11.66 9 12.32 9 13 C9.99 13.33 10.98 13.66 12 14 C13.75390625 15.77734375 13.75390625 15.77734375 15.5625 17.9375 C19.13562716 22.23543298 19.13562716 22.23543298 23.625 25.5 C24.800625 26.2425 24.800625 26.2425 26 27 C26 27.66 26 28.32 26 29 C26.99 29 27.98 29 29 29 C28.67 29.66 28.34 30.32 28 31 C21.85732576 28.26243058 17.58519212 25.20323583 12.9375 20.375 C12.33478271 19.75906982 11.73206543 19.14313965 11.11108398 18.50854492 C1.71249601 8.72888161 1.71249601 8.72888161 -1 3 C-0.67 2.01 -0.34 1.02 0 0 Z " fill="#959595" transform="translate(52,172)"/>
<path d="M0 0 C3 1 3 1 3.97973633 2.71142578 C4.26099365 3.4486084 4.54225098 4.18579102 4.83203125 4.9453125 C5.15284668 5.76829834 5.47366211 6.59128418 5.80419922 7.43920898 C6.13693848 8.32552002 6.46967773 9.21183105 6.8125 10.125 C7.51942975 11.9518622 8.226462 13.77868473 8.93359375 15.60546875 C9.28147949 16.51603027 9.62936523 17.4265918 9.98779297 18.36474609 C11.41152314 22.07138948 12.89088856 25.75472235 14.375 29.4375 C15.25 31.625 16.125 33.8125 17 36 C17.3815625 36.90234375 17.763125 37.8046875 18.15625 38.734375 C19.10747591 41.28859271 19.15450413 43.29617768 19 46 C16.32201827 42.79255917 14.92897925 39.6277604 13.4765625 35.72265625 C13.24850922 35.11546249 13.02045593 34.50826874 12.78549194 33.88267517 C12.05916014 31.94485539 11.34184899 30.0038451 10.625 28.0625 C10.15165717 26.79339006 9.67770373 25.52450768 9.203125 24.25585938 C8.26495858 21.74709427 7.32948 19.23738738 6.39550781 16.72705078 C4.30223245 11.13643817 2.15537012 5.56696278 0 0 Z " fill="#999898" transform="translate(82,85)"/>
<path d="M0 0 C0.66 0.33 1.32 0.66 2 1 C-6.05629729 11.96094869 -13.81776242 21.98884472 -25 30 C-25.66 30 -26.32 30 -27 30 C-25.50763737 26.37453209 -23.47152908 24.45295578 -20.5 21.9375 C-13.39254717 15.69655811 -6.87540041 9.13040534 -2 1 C-1.34 0.67 -0.68 0.34 0 0 Z " fill="#535253" transform="translate(214,181)"/>
<path d="M0 0 C0.66 0 1.32 0 2 0 C2.47308594 1.00417969 2.94617187 2.00835937 3.43359375 3.04296875 C10.54540188 17.9141398 10.54540188 17.9141398 20.76171875 30.73046875 C22 32 22 32 22 34 C21.01 34 20.02 34 19 34 C17.11025448 31.87518113 15.46227604 29.80201307 13.8125 27.5 C13.32998779 26.83452148 12.84747559 26.16904297 12.3503418 25.48339844 C0 7.9644294 0 7.9644294 0 0 Z " fill="#9D9D9D" transform="translate(31,162)"/>
<path d="M0 0 C5.10447818 0.72921117 8.42722705 2.47348508 12.125 6.0625 C16.69447538 13.22134476 17.46195609 19.75988387 16 28 C15.67 28 15.34 28 15 28 C14.67 24.04 14.34 20.08 14 16 C13.67 19.3 13.34 22.6 13 26 C12.67 26 12.34 26 12 26 C11.98582031 25.154375 11.97164062 24.30875 11.95703125 23.4375 C11.65047546 16.14644343 11.10663251 10.48490158 6 5 C4.06334131 3.44521767 2.1565567 2.25381203 0 1 C0 0.67 0 0.34 0 0 Z " fill="#8A898A" transform="translate(188,87)"/>
<path d="M0 0 C11.17894208 3.2859815 20.26112504 11.56851578 29 19 C28.67 20.32 28.34 21.64 28 23 C27.58492187 22.52691406 27.16984375 22.05382812 26.7421875 21.56640625 C21.53244334 15.97519546 15.81994191 12.05499153 9.3671875 8.078125 C8.25601563 7.39234375 7.14484375 6.7065625 6 6 C5.41766602 5.64228516 4.83533203 5.28457031 4.23535156 4.91601562 C2.78813109 3.99760357 1.38875579 3.00463184 0 2 C0 1.34 0 0.68 0 0 Z " fill="#929191" transform="translate(172,34)"/>
<path d="M0 0 C0.33 0 0.66 0 1 0 C3.9573086 13.46631593 4.84944744 27.89494561 0 41 C-1.00798335 37.76123384 -0.99260851 35.16050961 -0.66015625 31.796875 C-0.5199707 30.32734375 -0.5199707 30.32734375 -0.37695312 28.828125 C-0.27318359 27.81234375 -0.16941406 26.7965625 -0.0625 25.75 C0.03740234 24.71875 0.13730469 23.6875 0.24023438 22.625 C0.4874052 20.08267151 0.74087545 17.5411333 1 15 C0.34 15 -0.32 15 -1 15 C-0.67 10.05 -0.34 5.1 0 0 Z " fill="#7E7D7E" transform="translate(228,104)"/>
<path d="M0 0 C0.66 0.33 1.32 0.66 2 1 C2.02698422 3.43757413 2.04683099 5.87484915 2.0625 8.3125 C2.07087891 9.00279297 2.07925781 9.69308594 2.08789062 10.40429688 C2.10307906 13.5483025 2.00193327 15.99420019 1 19 C0.01 19 -0.98 19 -2 19 C-2.2475 19.763125 -2.495 20.52625 -2.75 21.3125 C-4.10995558 24.2364045 -5.31585826 25.30004356 -8 27 C-8.66 26.67 -9.32 26.34 -10 26 C-9.27683594 25.00419922 -9.27683594 25.00419922 -8.5390625 23.98828125 C-7.90742188 23.10527344 -7.27578125 22.22226563 -6.625 21.3125 C-5.99851563 20.44238281 -5.37203125 19.57226562 -4.7265625 18.67578125 C-1.84367391 14.20795617 -0.75718884 10.47444566 -0.375 5.1875 C-0.30023438 4.21167969 -0.22546875 3.23585938 -0.1484375 2.23046875 C-0.09945312 1.49441406 -0.05046875 0.75835937 0 0 Z " fill="#696869" transform="translate(201,102)"/>
<path d="M0 0 C1 3 1 3 -0.0390625 5.62890625 C-0.56242188 6.59699219 -1.08578125 7.56507813 -1.625 8.5625 C-2.13289062 9.53316406 -2.64078125 10.50382813 -3.1640625 11.50390625 C-5.26407514 14.35902982 -6.72239702 14.86941721 -10 16 C-10.71727778 17.64551962 -11.38325228 19.31422289 -12 21 C-14.125 22.8125 -14.125 22.8125 -16 24 C-13.73590259 19.19025939 -10.790375 14.78687897 -7.97265625 10.2890625 C-5.95350528 7.05031069 -5.95350528 7.05031069 -4.43359375 3.6484375 C-3 1 -3 1 0 0 Z " fill="#6C6C6C" transform="translate(222,166)"/>
<path d="M0 0 C5.61 0 11.22 0 17 0 C18.23020843 2.46041687 18.085134 3.97752653 18.02172852 6.72509766 C17.99158409 8.19639633 17.99158409 8.19639633 17.96083069 9.69741821 C17.93379562 10.75891083 17.90676056 11.82040344 17.87890625 12.9140625 C17.85529526 13.99883881 17.83168427 15.08361511 17.80735779 16.20126343 C17.7306057 19.67597162 17.64663096 23.15046338 17.5625 26.625 C17.50929088 28.97655181 17.45655042 31.32811427 17.40429688 33.6796875 C17.27497497 39.45325977 17.1397181 45.22667048 17 51 C16.67 51 16.34 51 16 51 C15.67 34.83 15.34 18.66 15 2 C10.05 1.67 5.1 1.34 0 1 C0 0.67 0 0.34 0 0 Z " fill="#A5A5A5" transform="translate(121,84)"/>
<path d="M0 0 C6.93 0 13.86 0 21 0 C19 2 19 2 15.0859375 2.1953125 C13.51549182 2.18386556 11.94514302 2.15788715 10.375 2.125 C6.229375 2.063125 6.229375 2.063125 2 2 C1.67 9.26 1.34 16.52 1 24 C0.67 24 0.34 24 0 24 C0 16.08 0 8.16 0 0 Z " fill="#636263" transform="translate(164,131)"/>
<path d="M0 0 C6.27 0 12.54 0 19 0 C14.64467851 2.17766075 13.53374042 2.03039555 9 1 C9 1.66 9 2.32 9 3 C7.02 3 5.04 3 3 3 C0.82971933 6.61105522 0.41193503 10.10792974 -0.125 14.25 C-0.29257813 15.51328125 -0.46015625 16.7765625 -0.6328125 18.078125 C-0.75398437 19.04234375 -0.87515625 20.0065625 -1 21 C-1.33 21 -1.66 21 -2 21 C-2.05420701 18.43721301 -2.09377007 15.87558517 -2.125 13.3125 C-2.15013672 12.2306543 -2.15013672 12.2306543 -2.17578125 11.12695312 C-2.21664916 6.65191645 -1.71703727 4.29259317 0 0 Z " fill="#8E8E8E" transform="translate(167,134)"/>
<path d="M0 0 C3.68748309 -0.02925502 7.37493592 -0.04688418 11.0625 -0.0625 C12.10083984 -0.07087891 13.13917969 -0.07925781 14.20898438 -0.08789062 C19.58723069 -0.10496442 24.70333211 0.04584848 30 1 C30.33 1.99 30.66 2.98 31 4 C26.77045026 3.69255098 22.54144426 3.37815968 18.3125 3.0625 C17.11431641 2.97548828 15.91613281 2.88847656 14.68164062 2.79882812 C13.52470703 2.71181641 12.36777344 2.62480469 11.17578125 2.53515625 C10.11270752 2.456604 9.04963379 2.37805176 7.9543457 2.29711914 C5.245556 2.02469562 2.65646669 1.58626953 0 1 C0 0.67 0 0.34 0 0 Z " fill="#9F9F9F" transform="translate(116,24)"/>
<path d="M0 0 C8.58 0 17.16 0 26 0 C26 0.66 26 1.32 26 2 C26.99 2.33 27.98 2.66 29 3 C14.15 2.505 14.15 2.505 -1 2 C-0.67 1.34 -0.34 0.68 0 0 Z " fill="#757475" transform="translate(116,37)"/>
<path d="M0 0 C1.62388804 2.43583206 2.50609404 4.11345141 3.4375 6.80078125 C3.69273438 7.53103516 3.94796875 8.26128906 4.2109375 9.01367188 C4.47132812 9.77228516 4.73171875 10.53089844 5 11.3125 C5.26039062 12.05951172 5.52078125 12.80652344 5.7890625 13.57617188 C7.2251635 17.7067755 8.6269844 21.84794802 10 26 C10.66 26 11.32 26 12 26 C11.67 27.32 11.34 28.64 11 30 C4.73962224 20.69886732 0.27641172 11.35800906 0 0 Z " fill="#8E8E8E" transform="translate(40,144)"/>
<path d="M0 0 C0.33 0.99 0.66 1.98 1 3 C-0.2578125 5.1640625 -0.2578125 5.1640625 -2.125 7.625 C-5.125373 11.69522712 -7.60315398 15.76476977 -9.859375 20.28515625 C-11 22 -11 22 -14 23 C-11.38025389 14.2244958 -6.05390038 6.78770649 0 0 Z " fill="#D2D2D2" transform="translate(48,61)"/>
<path d="M0 0 C0.92345561 2.49333015 1.0271534 3.87931824 0.4375 6.5 C-1.55563319 9.96631859 -3.39951994 11.26643553 -7 13 C-9.84114286 13.03065982 -12.18937723 12.58150816 -15 12 C-15 11.01 -15 10.02 -15 9 C-10.545 8.505 -10.545 8.505 -6 8 C-5.34 6.35 -4.68 4.7 -4 3 C-3.34 3.66 -2.68 4.32 -2 5 C-1.34 3.35 -0.68 1.7 0 0 Z " fill="#888888" transform="translate(110,145)"/>
<path d="M0 0 C6.61391084 1.32278217 12.49964425 3.8305765 18.6328125 6.5625 C21.72063505 7.88073515 24.800494 8.98860601 28 10 C21.01956239 12.08948798 15.12492863 9.20843131 9.01098633 5.99584961 C5.98872499 4.36212751 2.98921594 2.6934952 0 1 C0 0.67 0 0.34 0 0 Z " fill="#828282" transform="translate(73,214)"/>
<path d="M0 0 C0.33 0 0.66 0 1 0 C1.19583915 4.14548415 1.38027842 8.2913967 1.5625 12.4375 C1.61857422 13.62150391 1.67464844 14.80550781 1.73242188 16.02539062 C1.78076172 17.15009766 1.82910156 18.27480469 1.87890625 19.43359375 C1.9260376 20.47572021 1.97316895 21.51784668 2.02172852 22.59155273 C2 25 2 25 1 26 C-1.53049402 26.07313567 -4.03304837 26.09247527 -6.5625 26.0625 C-7.27341797 26.05798828 -7.98433594 26.05347656 -8.71679688 26.04882812 C-10.47790013 26.03700864 -12.23896036 26.01907263 -14 26 C-14 25.34 -14 24.68 -14 24 C-9.38 24 -4.76 24 0 24 C0 16.08 0 8.16 0 0 Z " fill="#919090" transform="translate(163,131)"/>
<path d="M0 0 C4.90948851 -0.28032573 8.91813065 0.69727535 13.5 2.3125 C14.45712891 2.63250977 14.45712891 2.63250977 15.43359375 2.95898438 C19.4641707 4.33960122 23.32017997 5.84420182 27 8 C27.33 8.99 27.66 9.98 28 11 C24.13909763 10.03477441 20.80608392 8.97408365 17.3125 7.0625 C12.89333984 4.72243291 8.30835345 3.74645818 3.44140625 2.7109375 C2.63574219 2.47632813 1.83007812 2.24171875 1 2 C0.67 1.34 0.34 0.68 0 0 Z " fill="#818181" transform="translate(146,40)"/>
<path d="M0 0 C0.33 0 0.66 0 1 0 C1 4.95 1 9.9 1 15 C-4 17 -4 17 -8 17 C-8 13.04 -8 9.08 -8 5 C-6 7 -6 7 -5.875 10.125 C-5.91625 11.07375 -5.9575 12.0225 -6 13 C-3.78918149 13.10540926 -3.78918149 13.10540926 -1 12 C-0.67 8.04 -0.34 4.08 0 0 Z " fill="#D1D1D1" transform="translate(148,104)"/>
<path d="M0 0 C1.19267961 3.57803883 0.73111676 4.41419497 -0.58203125 7.8515625 C-0.93716797 8.78484375 -1.29230469 9.718125 -1.65820312 10.6796875 C-2.03912109 11.65164062 -2.42003906 12.62359375 -2.8125 13.625 C-3.36647461 15.09453125 -3.36647461 15.09453125 -3.93164062 16.59375 C-6.73794107 23.86897053 -6.73794107 23.86897053 -9 25 C-7.96990462 19.76469173 -6.69070272 14.82854395 -4.73046875 9.86328125 C-3.71625769 7.27622951 -2.85865135 4.64200416 -2 2 C-1.34 2 -0.68 2 0 2 C0 1.34 0 0.68 0 0 Z " fill="#EEEEEE" transform="translate(112,102)"/>
<path d="M0 0 C1.24523437 0.01804687 2.49046875 0.03609375 3.7734375 0.0546875 C5.18496094 0.08949219 5.18496094 0.08949219 6.625 0.125 C6.295 0.785 5.965 1.445 5.625 2.125 C3.43800263 2.71132637 1.22291875 3.19445574 -1 3.625 C-5.87593745 4.60516294 -10.62601753 5.65507686 -15.375 7.125 C-15.375 6.465 -15.375 5.805 -15.375 5.125 C-14.385 4.795 -13.395 4.465 -12.375 4.125 C-12.705 3.465 -13.035 2.805 -13.375 2.125 C-8.75130977 0.31820413 -4.94971347 -0.09339082 0 0 Z " fill="#DCDCDC" transform="translate(107.375,26.875)"/>
<path d="M0 0 C0.33 1.98 0.66 3.96 1 6 C-1.64 6 -4.28 6 -7 6 C-7 5.34 -7 4.68 -7 4 C-8.97536745 4.34786708 -8.97536745 4.34786708 -11 5 C-11.33 5.66 -11.66 6.32 -12 7 C-11.67 5.35 -11.34 3.7 -11 2 C-3.375 0 -3.375 0 0 0 Z " fill="#D1D1D1" transform="translate(162,130)"/>
<path d="M0 0 C0.66 0.33 1.32 0.66 2 1 C-0.23407889 4.35111834 -1.26215824 5.81553956 -5.25 6.8125 C-6.1575 6.874375 -7.065 6.93625 -8 7 C-8 6.67 -8 6.34 -8 6 C-14.27 5.67 -20.54 5.34 -27 5 C-27 4.67 -27 4.34 -27 4 C-26.39526855 3.98541748 -25.79053711 3.97083496 -25.16748047 3.95581055 C-22.40270735 3.88090812 -19.63908643 3.78438927 -16.875 3.6875 C-15.44800781 3.65366211 -15.44800781 3.65366211 -13.9921875 3.61914062 C-8.51816793 3.41006349 -4.84961777 2.76567659 0 0 Z " fill="#828282" transform="translate(191,126)"/>
<path d="M0 0 C1.50480011 3.00960022 0.52982794 5.13427985 -0.1875 8.375 C-0.42855469 9.51710937 -0.66960937 10.65921875 -0.91796875 11.8359375 C-2.08498357 15.2485079 -3.21693248 16.75853136 -6 19 C-8.25 19.75 -8.25 19.75 -10 20 C-10 19.34 -10 18.68 -10 18 C-9.21625 17.87625 -8.4325 17.7525 -7.625 17.625 C-4.8345803 16.2936169 -4.8345803 16.2936169 -4.328125 13.8515625 C-4.02119837 12.08938031 -3.73534174 10.32342119 -3.46875 8.5546875 C-2.88189629 5.35633479 -1.6217974 2.80128643 0 0 Z " fill="#9F9E9E" transform="translate(114,138)"/>
<path d="M0 0 C0.66 0 1.32 0 2 0 C2 3.3 2 6.6 2 10 C0.35 10.66 -1.3 11.32 -3 12 C-2.88541307 10.56163249 -2.75790884 9.12429034 -2.625 7.6875 C-2.55539063 6.88699219 -2.48578125 6.08648437 -2.4140625 5.26171875 C-2 3 -2 3 0 0 Z " fill="#CDCDCD" transform="translate(120,121)"/>
<path d="M0 0 C0.33 0 0.66 0 1 0 C1.06058594 1.05058594 1.12117187 2.10117188 1.18359375 3.18359375 C1.61546473 10.48282152 2.09263954 17.74111635 3 25 C2.34 25.33 1.68 25.66 1 26 C-1 24 -1 24 -1.13525391 21.56982422 C-1.08288574 20.5748291 -1.03051758 19.57983398 -0.9765625 18.5546875 C-0.925 17.47832031 -0.8734375 16.40195313 -0.8203125 15.29296875 C-0.75585938 14.16503906 -0.69140625 13.03710938 -0.625 11.875 C-0.56828125 10.73933594 -0.5115625 9.60367188 -0.453125 8.43359375 C-0.31135306 5.6217837 -0.15991439 2.81082719 0 0 Z " fill="#999999" transform="translate(139,132)"/>
<path d="M0 0 C3 1 3 1 3.99902344 2.62646484 C4.28293945 3.31434082 4.56685547 4.0022168 4.859375 4.7109375 C5.17003906 5.46117188 5.48070313 6.21140625 5.80078125 6.984375 C6.11402344 7.77328125 6.42726563 8.5621875 6.75 9.375 C7.07871094 10.15617187 7.40742187 10.93734375 7.74609375 11.7421875 C10.12881877 17.61354368 10.12881877 17.61354368 9 21 C7.33333512 18.50000268 6.33070466 16.53017327 5.2734375 13.76953125 C4.809375 12.56586914 4.809375 12.56586914 4.3359375 11.33789062 C4.01882812 10.50451172 3.70171875 9.67113281 3.375 8.8125 C3.05015625 7.96751953 2.7253125 7.12253906 2.390625 6.25195312 C1.59047134 4.16920023 0.79373026 2.08520743 0 0 Z " fill="#AEAEAE" transform="translate(82,85)"/>
<path d="M0 0 C0.33 0.99 0.66 1.98 1 3 C-0.41166886 3.98635837 -1.82956184 4.96381255 -3.25 5.9375 C-4.43335938 6.75541016 -4.43335938 6.75541016 -5.640625 7.58984375 C-7.82636993 8.89622441 -9.5153801 9.54980511 -12 10 C-12 9.01 -12 8.02 -12 7 C-9.375 5.17578125 -9.375 5.17578125 -6 3.3125 C-4.88625 2.68988281 -3.7725 2.06726563 -2.625 1.42578125 C-1.75875 0.95527344 -0.8925 0.48476562 0 0 Z " fill="#666666" transform="translate(186,209)"/>
<path d="M0 0 C-4.5651644 3.04344294 -9.45152616 6.20803868 -15.0625 5.75 C-15.701875 5.5025 -16.34125 5.255 -17 5 C-12.38677101 0.38677101 -6.26549531 -0.39159346 0 0 Z " fill="#CFCFCF" transform="translate(98,30)"/>
<path d="M0 0 C2.475 0.495 2.475 0.495 5 1 C6.14947895 4.55293493 6.0868937 5.79976669 4.5625 9.3125 C3.7890625 10.6428125 3.7890625 10.6428125 3 12 C2.67 12 2.34 12 2 12 C1.34 8.04 0.68 4.08 0 0 Z " fill="#B1B1B1" transform="translate(129,157)"/>
<path d="M0 0 C-0.33 1.32 -0.66 2.64 -1 4 C-4.63 4.33 -8.26 4.66 -12 5 C-12 4.01 -12 3.02 -12 2 C-10.7625 1.67 -9.525 1.34 -8.25 1 C-7.55390625 0.814375 -6.8578125 0.62875 -6.140625 0.4375 C-4 0 -4 0 0 0 Z " fill="#C6C6C6" transform="translate(137,135)"/>
<path d="M0 0 C0.33 0 0.66 0 1 0 C1 1.65 1 3.3 1 5 C0.34 5 -0.32 5 -1 5 C-1.2475 5.763125 -1.495 6.52625 -1.75 7.3125 C-3.10995558 10.2364045 -4.31585826 11.30004356 -7 13 C-7.66 12.67 -8.32 12.34 -9 12 C-7.52464063 9.99708788 -6.04497707 7.99763223 -4.5625 6 C-4.14162109 5.42765625 -3.72074219 4.8553125 -3.28710938 4.265625 C-2.21555864 2.82546081 -1.11033324 1.41048004 0 0 Z " fill="#5F5E5F" transform="translate(200,116)"/>
<path d="M0 0 C-0.51949219 0.44730469 -1.03898437 0.89460938 -1.57421875 1.35546875 C-5.52679654 4.78201031 -9.35827082 8.24446679 -13 12 C-13.66 11.67 -14.32 11.34 -15 11 C-14.43410156 10.37351562 -13.86820313 9.74703125 -13.28515625 9.1015625 C-12.18494141 7.87566406 -12.18494141 7.87566406 -11.0625 6.625 C-10.33160156 5.81289063 -9.60070313 5.00078125 -8.84765625 4.1640625 C-6.97010529 2.14075833 -6.97010529 2.14075833 -6 0 C-3 -1 -3 -1 0 0 Z " fill="#E9E9E9" transform="translate(69,46)"/>
<path d="M0 0 C1.60294922 0.01353516 1.60294922 0.01353516 3.23828125 0.02734375 C4.04652344 0.03894531 4.85476562 0.05054687 5.6875 0.0625 C2.82956684 2.92043316 0.54084416 2.47049941 -3.4375 2.6875 C-4.71882813 2.76226563 -6.00015625 2.83703125 -7.3203125 2.9140625 C-8.30773437 2.96304687 -9.29515625 3.01203125 -10.3125 3.0625 C-10.6425 2.4025 -10.9725 1.7425 -11.3125 1.0625 C-7.47525828 0.15836327 -3.93747726 -0.04326898 0 0 Z " fill="#BABABA" transform="translate(115.3125,24.9375)"/>
<path d="M0 0 C0.66 0.33 1.32 0.66 2 1 C2 5.62 2 10.24 2 15 C1.67 15 1.34 15 1 15 C0.67 11.37 0.34 7.74 0 4 C-2.31 4.33 -4.62 4.66 -7 5 C-7 4.34 -7 3.68 -7 3 C-4.69631264 1.93347808 -2.35981813 0.93578995 0 0 Z " fill="#BBBBBB" transform="translate(147,118)"/>
<path d="M0 0 C2.58396679 -0.08112454 5.16537568 -0.14054748 7.75 -0.1875 C8.47960937 -0.21263672 9.20921875 -0.23777344 9.9609375 -0.26367188 C13.34486604 -0.30981636 15.57858557 -0.25324128 18.515625 1.51171875 C19.00546875 2.00285156 19.4953125 2.49398437 20 3 C19.67 3.99 19.34 4.98 19 6 C18.01 5.67 17.02 5.34 16 5 C16 4.34 16 3.68 16 3 C13.0384304 1.5192152 10.16493705 1.64685963 6.875 1.4375 C5.59367188 1.35371094 4.31234375 1.26992187 2.9921875 1.18359375 C1.51105469 1.09271484 1.51105469 1.09271484 0 1 C0 0.67 0 0.34 0 0 Z " fill="#8B8B8B" transform="translate(164,97)"/>
<path d="M0 0 C-3.7367843 2.49118953 -5.74451819 2.2065226 -10.1875 2.125 C-11.45980469 2.10695312 -12.73210937 2.08890625 -14.04296875 2.0703125 C-15.50669922 2.03550781 -15.50669922 2.03550781 -17 2 C-17.33 1.34 -17.66 0.68 -18 0 C-16.80375 0.020625 -15.6075 0.04125 -14.375 0.0625 C-11.69143437 0.07198256 -9.41731726 -0.10084894 -6.75 -0.5625 C-4.06794095 -0.98919121 -2.53426415 -0.87724528 0 0 Z " fill="#8A898A" transform="translate(151,226)"/>
<path d="M0 0 C5.7607103 1.29322068 9.33195882 3.37988643 14 7 C13.01 7.495 13.01 7.495 12 8 C6.77421606 6.22520545 3.7353496 4.18811925 0 0 Z " fill="#929191" transform="translate(63,207)"/>
<path d="M0 0 C0.63934602 5.11476819 -1.59466453 8.67254378 -4 13 C-4.33 13 -4.66 13 -5 13 C-4.19444444 0 -4.19444444 0 0 0 Z " fill="#767676" transform="translate(112,139)"/>
<path d="M0 0 C0.66 0 1.32 0 2 0 C2 3.3 2 6.6 2 10 C0.68 10.33 -0.64 10.66 -2 11 C-1.34 7.37 -0.68 3.74 0 0 Z " fill="#7F7E7F" transform="translate(121,109)"/>
<path d="M0 0 C0.66 0.66 1.32 1.32 2 2 C-2.3852919 4.97068161 -6.98491285 6.45941767 -12 8 C-12 7.34 -12 6.68 -12 6 C-8.04 4.02 -4.08 2.04 0 0 Z " fill="#E4E4E5" transform="translate(173,203)"/>
<path d="M0 0 C0.66 0 1.32 0 2 0 C0.59928507 5.29158974 -2.85487245 7.77478044 -7 11 C-7.66 10.34 -8.32 9.68 -9 9 C-8.071875 8.443125 -7.14375 7.88625 -6.1875 7.3125 C-3.03023608 5.02193598 -1.85163926 3.33295067 0 0 Z " fill="#757475" transform="translate(199,121)"/>
<path d="M0 0 C2.475 0.99 2.475 0.99 5 2 C5 2.66 5 3.32 5 4 C5.61875 4.0825 6.2375 4.165 6.875 4.25 C9 5 9 5 10.25 7.0625 C10.4975 7.701875 10.745 8.34125 11 9 C7.41379775 7.34482973 4.18469471 5.33544279 1 3 C0.67 2.01 0.34 1.02 0 0 Z " fill="#969596" transform="translate(173,49)"/>
<path d="M0 0 C1.10191901 4.40767604 0.58706842 5.8922935 -1 10 C-1.66 9.67 -2.32 9.34 -3 9 C-2.01 6.03 -1.02 3.06 0 0 Z M-3 10 C-3 13 -3 13 -3 13 Z " fill="#BCBCBC" transform="translate(117,141)"/>
<path d="M0 0 C0.33 0.99 0.66 1.98 1 3 C1.99 3 2.98 3 4 3 C4 6.3 4 9.6 4 13 C3.34 13 2.68 13 2 13 C1.855625 11.783125 1.71125 10.56625 1.5625 9.3125 C1.17219047 6.17329623 0.67648144 3.0924866 0 0 Z " fill="#919091" transform="translate(224,97)"/>
<path d="M0 0 C3.37462715 0.54723683 5.08235 1.0549 8 3 C8 3.66 8 4.32 8 5 C8.99 5 9.98 5 11 5 C10.67 5.66 10.34 6.32 10 7 C8.70359622 6.40606618 7.41301161 5.79942011 6.125 5.1875 C5.40570313 4.85105469 4.68640625 4.51460937 3.9453125 4.16796875 C2 3 2 3 0 0 Z " fill="#A0A0A0" transform="translate(70,196)"/>
<path d="M0 0 C3.93619738 0.56231391 6.79192446 1.61685817 10 4 C10 4.99 10 5.98 10 7 C2.42857143 2.85714286 2.42857143 2.85714286 0 0 Z " fill="#A5A4A5" transform="translate(188,87)"/>
<path d="M0 0 C0.99 0.495 0.99 0.495 2 1 C2.4140625 3.06640625 2.4140625 3.06640625 2.625 5.5625 C2.69976562 6.38878906 2.77453125 7.21507812 2.8515625 8.06640625 C2.92503906 9.02353516 2.92503906 9.02353516 3 10 C2.01 10.495 2.01 10.495 1 11 C-0.17571451 7.32589215 -0.07366746 3.83070817 0 0 Z " fill="#9A9A9A" transform="translate(38,134)"/>
<path d="M0 0 C1.98 0.495 1.98 0.495 4 1 C3.505 1.33 3.01 1.66 2.5 2 C0.11820439 5.17572747 0.80831774 8.10246066 1 12 C-1 10 -1 10 -1.1875 6.5625 C-1 3 -1 3 0 0 Z " fill="#CECECE" transform="translate(141,134)"/>
<path d="M0 0 C-2.90092502 1.93395001 -3.89674737 2.30131941 -7.1875 2.625 C-8.445625 2.74875 -9.70375 2.8725 -11 3 C-8.21756596 -1.17365106 -4.53441502 -0.22300402 0 0 Z " fill="#696869" transform="translate(159,225)"/>
<path d="M0 0 C0.99 0.33 1.98 0.66 3 1 C-0.465 3.97 -0.465 3.97 -4 7 C-4 4 -4 4 -2 1.8125 C-1.34 1.214375 -0.68 0.61625 0 0 Z " fill="#8F8F8F" transform="translate(67,60)"/>
<path d="M0 0 C3.83736322 0.95934081 4.59660228 1.23609263 7 4 C6.67 4.99 6.34 5.98 6 7 C4.02 4.69 2.04 2.38 0 0 Z " fill="#919191" transform="translate(51,196)"/>
<path d="M0 0 C2.29633824 3.44450737 2.54016485 5.93812283 3 10 C2.34 10 1.68 10 1 10 C-0.1577506 6.52674819 -0.06866652 3.63932552 0 0 Z " fill="#7E7D7E" transform="translate(224,90)"/>
<path d="M0 0 C0.66 0 1.32 0 2 0 C2.99 2.64 3.98 5.28 5 8 C2 7 2 7 0.8125 5.125 C0 3 0 3 0 0 Z " fill="#AEAEAE" transform="translate(31,162)"/>
<path d="M0 0 C1.98 0 3.96 0 6 0 C6 0.99 6 1.98 6 3 C3.69 3 1.38 3 -1 3 C-0.67 2.01 -0.34 1.02 0 0 Z " fill="#C6C5C6" transform="translate(156,133)"/>
<path d="M0 0 C2.29633824 3.44450737 2.54016485 5.93812283 3 10 C0.86746245 7.40386733 -0.55075623 5.36932827 -1 2 C-0.67 1.34 -0.34 0.68 0 0 Z " fill="#A8A7A8" transform="translate(98,121)"/>
<path d="M0 0 C1.00000429 4.00001715 0.80688405 6.05523353 0 10 C-0.99 10 -1.98 10 -3 10 C-2.01 6.7 -1.02 3.4 0 0 Z " fill="#919191" transform="translate(119,114)"/>
<path d="M0 0 C2 2 2 2 2.125 5.125 C2.08375 6.07375 2.0425 7.0225 2 8 C1.34 8 0.68 8 0 8 C0 6.35 0 4.7 0 3 C-0.66 3 -1.32 3 -2 3 C-1 1 -1 1 0 0 Z " fill="#ADADAD" transform="translate(184,101)"/>
<path d="M0 0 C2.97 1.98 2.97 1.98 6 4 C5.67 4.99 5.34 5.98 5 7 C5 6.34 5 5.68 5 5 C4.01 5.33 3.02 5.66 2 6 C1.34 4.02 0.68 2.04 0 0 Z " fill="#929292" transform="translate(196,92)"/>
<path d="M0 0 C0.99 0 1.98 0 3 0 C3 2.31 3 4.62 3 7 C1.5 5.75 1.5 5.75 0 4 C0 2.68 0 1.36 0 0 Z " fill="#959595" transform="translate(221,88)"/>
</svg>
