<?xml version="1.0" encoding="UTF-8"?>
<svg version="1.1" xmlns="http://www.w3.org/2000/svg" width="256" height="256">
<path d="M0 0 C2.69946289 1.3125 2.69946289 1.3125 5.47265625 3 C6.52211426 3.63107666 7.57157227 4.26215332 8.65283203 4.91235352 C9.77802246 5.60127686 10.90321289 6.2902002 12.0625 7 C13.258286 7.7223761 14.4547523 8.44362714 15.65185547 9.16381836 C17.52585089 10.29132964 19.39942747 11.4194741 21.27099609 12.55101013 C27.41434002 16.2635779 33.60800515 19.887466 39.80880737 23.50296021 C49.74122693 29.29738621 59.6395125 35.14635733 69.5 41.0625 C70.47146973 41.64523682 71.44293945 42.22797363 72.44384766 42.82836914 C74.27651628 43.93077719 76.09593276 45.0556653 77.8981781 46.20713806 C80.95032011 48.08937534 80.95032011 48.08937534 84.32298279 49.22058105 C88.31402749 50.92968801 91.40358942 52.44861984 94 56 C96.73698719 63.77067938 96.20087027 72.55463681 96.25390625 80.68359375 C96.30081251 83.1425327 96.34933619 85.60144128 96.3993988 88.06031799 C96.48618537 93.21466204 96.51834043 98.36620434 96.51879883 103.52124023 C96.52668264 108.78933252 96.63053388 114.04099539 96.82641602 119.30541992 C98.42325259 162.85580418 98.42325259 162.85580418 91.38418579 171.94671631 C85.37651682 178.17619161 77.48739342 181.18092625 69.41690063 183.82180786 C64.8317382 185.40283199 61.04021606 187.72063706 57.00390625 190.359375 C55.74897916 191.1098551 54.49003563 191.85366757 53.22680664 192.59008789 C42.943628 198.65019167 32.69674439 204.7553728 22.5625 211.0625 C21.73516357 211.56982666 20.90782715 212.07715332 20.05541992 212.59985352 C16.07244955 215.04704647 12.16959621 217.55632075 8.33203125 220.2265625 C7.57913818 220.72663818 6.82624512 221.22671387 6.05053711 221.74194336 C4.65493039 222.66926772 3.28149958 223.63140867 1.93969727 224.63500977 C-0.14329448 225.98365317 -1.53045507 226.69276887 -4 227 C-8.064685 225.63447941 -11.43396992 223.3460259 -15 221 C-17.02185396 219.78295367 -19.04669153 218.57085261 -21.07421875 217.36328125 C-23.27986987 216.01502122 -25.48423622 214.66465778 -27.6875 213.3125 C-30.16262288 211.79971656 -32.63952312 210.28986687 -35.1171875 208.78125 C-35.75632584 208.39205887 -36.39546417 208.00286774 -37.05397034 207.60188293 C-44.43861571 203.11339554 -51.87524053 198.71304175 -59.3125 194.3125 C-71.54139105 187.07450215 -83.71416706 179.75239828 -95.82885742 172.32421875 C-97.99134659 170.90649255 -97.99134659 170.90649255 -100.57641602 170.06721497 C-103.42103161 167.64087779 -103.41637208 167.06371997 -103.76277161 163.48149109 C-103.85067906 161.5221018 -103.9103516 159.5613313 -103.94848633 157.6003418 C-103.98776749 156.52999191 -104.02704865 155.45964203 -104.06752014 154.3568573 C-104.18673499 150.80442007 -104.26441938 147.25299715 -104.33203125 143.69921875 C-104.35740149 142.48379709 -104.38277172 141.26837543 -104.40891075 140.01612282 C-104.5367666 133.57460477 -104.62851093 127.13358304 -104.69555664 120.69116211 C-104.76707097 114.05704058 -104.98616749 107.43354006 -105.23021412 100.80336285 C-105.39167476 95.68739053 -105.44561205 90.57413624 -105.47174644 85.4558506 C-105.50334327 83.01317388 -105.57555986 80.57065108 -105.69034767 78.13046837 C-106.37659199 62.63675828 -106.37659199 62.63675828 -103 56 C-97.09446449 50.00636638 -89.4964722 46.59053472 -81.86911774 43.28297806 C-78.00337205 41.55433973 -74.43867046 39.44920369 -70.83984375 37.23046875 C-69.67612039 36.54538156 -68.51076784 35.86305376 -67.34375 35.18359375 C-66.2196875 34.52488281 -65.095625 33.86617187 -63.9375 33.1875 C-63.32535645 32.82881836 -62.71321289 32.47013672 -62.08251953 32.10058594 C-55.53664663 28.26399118 -48.9968195 24.41931818 -42.5 20.5 C-41.32889376 19.79838746 -40.15766456 19.09698012 -38.98632812 18.39575195 C-35.8786811 16.5320018 -32.78330452 14.6491621 -29.69212341 12.75827026 C-27.11142759 11.18545636 -24.52058736 9.62974309 -21.92871094 8.07543945 C-20.61074836 7.2808806 -19.29637622 6.48033273 -17.98583984 5.67358398 C-16.13378611 4.53467738 -14.26997251 3.41781646 -12.40234375 2.3046875 C-11.31429443 1.64452637 -10.22624512 0.98436523 -9.10522461 0.30419922 C-5.41116757 -1.24731055 -3.80084388 -1.15507803 0 0 Z " fill="#3D77A4" transform="translate(132,13)"/>
<path d="M0 0 C0.65758948 14.17573903 1.14756106 28.34908404 1.45074081 42.53700161 C1.59635326 49.1278156 1.79331389 55.7083315 2.11230469 62.29321289 C4.18022772 106.12177772 4.18022772 106.12177772 -2.57376099 114.95111084 C-8.56436661 121.20390077 -16.49660063 124.19080466 -24.57000732 126.82180786 C-29.16355619 128.39967804 -32.95547114 130.71538809 -36.99609375 133.359375 C-38.25098654 134.10991246 -39.5099303 134.85372601 -40.77319336 135.59008789 C-51.056372 141.65019167 -61.30325561 147.7553728 -71.4375 154.0625 C-72.26483643 154.56982666 -73.09217285 155.07715332 -73.94458008 155.59985352 C-77.92755045 158.04704647 -81.83040379 160.55632075 -85.66796875 163.2265625 C-86.42086182 163.72663818 -87.17375488 164.22671387 -87.94946289 164.74194336 C-89.34506961 165.66926772 -90.71850042 166.63140867 -92.06030273 167.63500977 C-94.14329448 168.98365317 -95.53045507 169.69276887 -98 170 C-102.064685 168.63447941 -105.43396992 166.3460259 -109 164 C-111.02185396 162.78295367 -113.04669153 161.57085261 -115.07421875 160.36328125 C-117.27986987 159.01502122 -119.48423622 157.66465778 -121.6875 156.3125 C-124.16262288 154.79971656 -126.63952312 153.28986687 -129.1171875 151.78125 C-129.75632584 151.39205887 -130.39546417 151.00286774 -131.05397034 150.60188293 C-137.76371016 146.52361226 -144.51627467 142.51839771 -151.27346802 138.51940918 C-161.61682174 132.39714692 -171.95627752 126.26792378 -182.25 120.0625 C-183.19012939 119.50151611 -184.13025879 118.94053223 -185.09887695 118.36254883 C-186.38797974 117.5817395 -186.38797974 117.5817395 -187.703125 116.78515625 C-188.44208008 116.34051025 -189.18103516 115.89586426 -189.94238281 115.43774414 C-192.23240081 113.83761172 -194.0808976 112.02382499 -196 110 C-195.3915625 109.67128906 -194.783125 109.34257812 -194.15625 109.00390625 C-193.2796875 108.52824219 -192.403125 108.05257812 -191.5 107.5625 C-190.50742188 107.02625 -189.51484375 106.49 -188.4921875 105.9375 C-185.92736959 104.51451378 -183.40195333 103.06207201 -180.8828125 101.5625 C-180.17833984 101.1492749 -179.47386719 100.7360498 -178.74804688 100.31030273 C-177.34920019 99.4881425 -175.95700754 98.65453838 -174.57226562 97.80883789 C-169.66133584 94.94635961 -169.66133584 94.94635961 -166.64916992 95.19067383 C-163.45208679 96.16738847 -160.89218368 97.58887362 -158.01171875 99.2890625 C-157.43977783 99.62432953 -156.86783691 99.95959656 -156.27856445 100.30502319 C-154.41005304 101.40374237 -152.54842772 102.51349082 -150.6875 103.625 C-149.39108826 104.39462619 -148.09461952 105.16415638 -146.7980957 105.93359375 C-143.49588234 107.89776403 -140.20130669 109.87440702 -136.90869141 111.85461426 C-135.08253559 112.95047126 -133.25291476 114.04025751 -131.421875 115.12792969 C-128.16625611 117.06798599 -124.92483766 119.02962452 -121.6875 121 C-120.72352295 121.57314941 -119.7595459 122.14629883 -118.76635742 122.73681641 C-112.34564113 126.70089597 -107.79248273 131.21200532 -103 137 C-102.175 137.78375 -101.35 138.5675 -100.5 139.375 C-98.0756485 143.61761512 -98.51097635 148.2219984 -99 153 C-99.33 153.33 -99.66 153.66 -100 154 C-99.34 154.33 -98.68 154.66 -98 155 C-98.12761719 154.36835938 -98.25523438 153.73671875 -98.38671875 153.0859375 C-99.06910896 146.93556336 -97.98091247 143.29533593 -94.30981445 138.46337891 C-91.95048942 135.56663711 -89.55922649 132.72281735 -87 130 C-86.24533447 129.18998535 -85.49066895 128.3799707 -84.71313477 127.54541016 C-81.86273529 124.87122092 -79.07967955 123.05569781 -75.6953125 121.109375 C-75.0988089 120.76318115 -74.5023053 120.4169873 -73.88772583 120.06030273 C-71.97085568 118.94970175 -70.04804883 117.84986075 -68.125 116.75 C-66.80386736 115.98685823 -65.48323032 115.22285788 -64.16308594 114.45800781 C-62.21254149 113.328106 -60.26170384 112.19875739 -58.30908203 111.07244873 C-52.5390907 107.74379565 -46.83200204 104.31996104 -41.140625 100.859375 C-38.54778278 99.32430921 -35.93909425 97.84350558 -33.30371094 96.38378906 C-32.49673767 95.93650452 -31.6897644 95.48921997 -30.8583374 95.02838135 C-30.24508606 94.6890155 -29.63183472 94.34964966 -29 94 C-29.0199855 93.03613373 -29.03997101 92.07226746 -29.06056213 91.07919312 C-29.24316438 81.98683131 -29.37799274 72.89484226 -29.46630955 63.80106163 C-29.51324289 59.12587331 -29.5768726 54.45216718 -29.67895508 49.77783203 C-29.77689373 45.26489385 -29.83058665 40.75337898 -29.85389519 36.23945999 C-29.87049985 34.51929944 -29.90292864 32.79921518 -29.95157051 31.07966232 C-30.31723091 17.61508856 -30.31723091 17.61508856 -27.10334778 13.67446899 C-24.78723878 12.10124537 -22.60112075 11.01931158 -20 10 C-19.12802979 9.47229004 -18.25605957 8.94458008 -17.35766602 8.40087891 C-15.09496878 7.13784378 -12.83192347 5.87592284 -10.5625 4.625 C-9.36077148 3.95017578 -9.36077148 3.95017578 -8.13476562 3.26171875 C-7.36970703 2.83761719 -6.60464844 2.41351563 -5.81640625 1.9765625 C-4.78688843 1.40542725 -4.78688843 1.40542725 -3.73657227 0.82275391 C-2 0 -2 0 0 0 Z " fill="#113356" transform="translate(226,70)"/>
<path d="M0 0 C2.69946289 1.3125 2.69946289 1.3125 5.47265625 3 C6.52211426 3.63107666 7.57157227 4.26215332 8.65283203 4.91235352 C9.77802246 5.60127686 10.90321289 6.2902002 12.0625 7 C13.258286 7.7223761 14.4547523 8.44362714 15.65185547 9.16381836 C17.52585089 10.29132964 19.39942747 11.4194741 21.27099609 12.55101013 C27.41434002 16.2635779 33.60800515 19.887466 39.80880737 23.50296021 C58.00172457 34.1164378 76.11645745 44.87167233 94 56 C91.40040475 58.01689599 88.80158667 59.75785189 85.91796875 61.33984375 C85.15033203 61.76330078 84.38269531 62.18675781 83.59179688 62.62304688 C82.79837891 63.05681641 82.00496094 63.49058594 81.1875 63.9375 C79.61827017 64.80038235 78.04925678 65.66365844 76.48046875 66.52734375 C75.72813965 66.94097168 74.97581055 67.35459961 74.20068359 67.78076172 C71.1158318 69.48985311 68.05667979 71.24108279 65 73 C65 72.34 65 71.68 65 71 C63.97326172 70.62875 63.97326172 70.62875 62.92578125 70.25 C59.49186549 68.78290648 56.3595113 66.95200695 53.1875 65 C52.59001953 64.64421875 51.99253906 64.2884375 51.37695312 63.921875 C49.88109586 63.00555558 48.43522138 62.00864753 47 61 C47 60.34 47 59.68 47 59 C45.71283081 58.8596936 45.71283081 58.8596936 44.3996582 58.71655273 C38.68412577 57.51187857 34.01182745 54.21941433 29.07885742 51.21069336 C27.21390925 50.07853236 25.33389847 48.97531747 23.45117188 47.87304688 C15.62790692 43.19554115 9.76662258 38.16640278 4 31 C3.1440625 30.06027344 2.288125 29.12054688 1.40625 28.15234375 C0.7771875 27.42144531 0.148125 26.69054687 -0.5 25.9375 C-1.1496875 25.20402344 -1.799375 24.47054687 -2.46875 23.71484375 C-4.60442332 19.92838213 -4.77144435 16.28716758 -5 12 C-8.27155624 13.95712757 -11.54211891 15.91590948 -14.8125 17.875 C-15.74126953 18.43058594 -16.67003906 18.98617188 -17.62695312 19.55859375 C-18.51962891 20.09355469 -19.41230469 20.62851562 -20.33203125 21.1796875 C-21.15421143 21.67194824 -21.9763916 22.16420898 -22.82348633 22.67138672 C-24.57447886 23.74024834 -26.29309186 24.86206124 -28 26 C-34.49367089 27.25316456 -34.49367089 27.25316456 -37 26 C-37 25.01 -37 24.02 -37 23 C-36.030625 22.360625 -35.06125 21.72125 -34.0625 21.0625 C-30.88931021 19.34877692 -30.88931021 19.34877692 -30.125 16.75 C-30.08375 16.1725 -30.0425 15.595 -30 15 C-29.34 15 -28.68 15 -28 15 C-27.8911145 14.10438354 -27.8911145 14.10438354 -27.7800293 13.19067383 C-26.18566104 8.71296916 -20.76257743 6.90892447 -16.8125 4.6875 C-15.86568359 4.12482422 -14.91886719 3.56214844 -13.94335938 2.98242188 C-13.01974609 2.45583984 -12.09613281 1.92925781 -11.14453125 1.38671875 C-10.30253174 0.90420654 -9.46053223 0.42169434 -8.59301758 -0.07543945 C-5.25199624 -1.26670655 -3.40166334 -0.94224865 0 0 Z " fill="#215380" transform="translate(132,13)"/>
<path d="M0 0 C1.58206057 0.00667536 3.16410534 0.0186375 4.74609375 0.03515625 C5.55240234 0.03966797 6.35871094 0.04417969 7.18945312 0.04882812 C9.18753131 0.06065107 11.18557158 0.07858711 13.18359375 0.09765625 C18.33637313 11.90503011 22.70358684 24.02404494 27.18359375 36.09765625 C29.41312678 32.7533567 30.77854246 29.30825478 32.22265625 25.5859375 C32.50837494 24.85771286 32.79409363 24.12948822 33.08847046 23.37919617 C33.99851596 21.0574733 34.90361147 18.73385676 35.80859375 16.41015625 C36.42545576 14.83385696 37.04263949 13.25768353 37.66015625 11.68164062 C39.1723122 7.8219845 40.67775812 3.95980652 42.18359375 0.09765625 C47.79359375 0.09765625 53.40359375 0.09765625 59.18359375 0.09765625 C59.18359375 22.20765625 59.18359375 44.31765625 59.18359375 67.09765625 C54.89359375 67.09765625 50.60359375 67.09765625 46.18359375 67.09765625 C45.85359375 53.56765625 45.52359375 40.03765625 45.18359375 26.09765625 C40.66412707 37.76431135 40.66412707 37.76431135 36.14892578 49.43261719 C35.57990665 50.89914832 35.01074319 52.36562347 34.44140625 53.83203125 C34.14935303 54.58887207 33.8572998 55.34571289 33.55639648 56.12548828 C32.23268013 59.52997408 30.91451516 62.87353654 29.18359375 66.09765625 C27.86359375 66.09765625 26.54359375 66.09765625 25.18359375 66.09765625 C23.52898534 61.82947946 21.87495492 57.56107928 20.22143555 53.29248047 C19.66006691 51.84352726 19.09854654 50.39463282 18.53686523 48.94580078 C17.72468798 46.85074442 16.91307562 44.75546994 16.1015625 42.66015625 C15.73106026 41.70496094 15.73106026 41.70496094 15.35307312 40.73046875 C13.59842159 36.197757 11.8844215 31.65084493 10.18359375 27.09765625 C10.1585376 28.27384521 10.13348145 29.45003418 10.10766602 30.66186523 C10.01376569 35.00980247 9.91350327 39.35757341 9.8112793 43.70532227 C9.76786442 45.59004843 9.72619432 47.47481561 9.6862793 49.35961914 C9.62873482 52.06278874 9.56499571 54.76575061 9.5 57.46875 C9.47493126 58.74062416 9.47493126 58.74062416 9.44935608 60.03819275 C9.29746546 65.98378454 9.29746546 65.98378454 8.18359375 67.09765625 C6.18559803 67.19639441 4.18402217 67.22737424 2.18359375 67.22265625 C1.09046875 67.22523438 -0.00265625 67.2278125 -1.12890625 67.23046875 C-3.81640625 67.09765625 -3.81640625 67.09765625 -4.81640625 66.09765625 C-4.91575773 64.07815416 -4.94440133 62.0551471 -4.94580078 60.03320312 C-4.94895294 58.73515747 -4.9521051 57.43711182 -4.95535278 56.09973145 C-4.953563 54.67195604 -4.95151205 53.24418094 -4.94921875 51.81640625 C-4.94989183 50.36291487 -4.95086189 48.90942361 -4.95211792 47.45593262 C-4.95359471 44.40599498 -4.95144095 41.35608659 -4.94677734 38.30615234 C-4.94108005 34.38835066 -4.94435916 30.47061747 -4.95034981 26.5528183 C-4.95395594 23.55034871 -4.9528166 20.54789548 -4.95022202 17.54542542 C-4.94955289 16.10046887 -4.95038067 14.65551086 -4.95270157 13.21055603 C-4.9552289 11.19440742 -4.95069677 9.17825363 -4.94580078 7.16210938 C-4.94500519 6.01262817 -4.94420959 4.86314697 -4.94338989 3.67883301 C-4.74062156 -0.44280726 -4.32919701 0.11077782 0 0 Z " fill="#356A95" transform="translate(77.81640625,88.90234375)"/>
<path d="M0 0 C-0.05542969 0.57105469 -0.11085938 1.14210938 -0.16796875 1.73046875 C-0.23775129 10.50911267 4.71050011 15.27174391 10.43847656 21.28417969 C11.78773686 22.76676277 13.03746938 24.3387928 14.26538086 25.92333984 C16.92434133 29.12544107 20.0375289 31.22694726 23.61328125 33.3046875 C24.22769577 33.67353058 24.84211029 34.04237366 25.47514343 34.4223938 C27.41493123 35.58369473 29.3633527 36.72949296 31.3125 37.875 C32.63927583 38.66565406 33.96545404 39.45731189 35.29101562 40.25 C38.52055692 42.17832973 41.75792606 44.09282292 45 46 C44.01 46.495 44.01 46.495 43 47 C41.06054688 46.10375977 41.06054688 46.10375977 38.71875 44.69140625 C37.87699219 44.19189453 37.03523437 43.69238281 36.16796875 43.17773438 C34.84732422 42.37819336 34.84732422 42.37819336 33.5 41.5625 C31.76269448 40.51833614 30.02321325 39.47778102 28.28125 38.44140625 C27.50845703 37.97420166 26.73566406 37.50699707 25.93945312 37.02563477 C24.07099068 35.84417208 24.07099068 35.84417208 22 36 C22 35.34 22 34.68 22 34 C21.2575 33.731875 20.515 33.46375 19.75 33.1875 C17.13363446 32.05770579 15.19812889 30.79106798 13 29 C12.443125 29.45375 11.88625 29.9075 11.3125 30.375 C7.14935706 33.3004518 4.00774142 34 -1 34 C-1.33 34.99 -1.66 35.98 -2 37 C-2.83878455 35.71186658 -3.67086783 34.41936744 -4.5 33.125 C-5.19609375 32.04605469 -5.19609375 32.04605469 -5.90625 30.9453125 C-7 29 -7 29 -7 27 C-10.67248455 27.61772206 -12.92024577 29.22373554 -15.875 31.4375 C-19.53742999 34.09370846 -22.66120512 35.66498619 -27 37 C-27.33 37.99 -27.66 38.98 -28 40 C-29.83203125 41.0859375 -29.83203125 41.0859375 -32 42 C-38.75528117 44.92198457 -43.67943591 48.92575832 -49 54 C-49.33 53.34 -49.66 52.68 -50 52 C-57.37420425 55.83284814 -57.37420425 55.83284814 -64.3125 60.375 C-67.58166283 62.3517031 -69.23752754 62.5486939 -73 62 C-76.68185632 60.45362035 -79.99971554 58.6540978 -83 56 C-83 55.34 -83 54.68 -83 54 C-83.78375 53.773125 -84.5675 53.54625 -85.375 53.3125 C-90.12301625 51.59339067 -94.52102552 49.31915279 -99 47 C-99 46.34 -99 45.68 -99 45 C-97.25708008 43.75756836 -97.25708008 43.75756836 -94.76953125 42.33984375 C-93.8355249 41.80190186 -92.90151855 41.26395996 -91.93920898 40.7097168 C-90.90739502 40.12488525 -89.87558105 39.54005371 -88.8125 38.9375 C-86.61166378 37.67242352 -84.41115753 36.40677286 -82.2109375 35.140625 C-81.63139816 34.8085051 -81.05185883 34.47638519 -80.45475769 34.13420105 C-74.21730641 30.55961488 -68.01398508 26.92742342 -61.81381226 23.28866577 C-59.94437812 22.19153662 -58.07439183 21.0953532 -56.2043457 19.99926758 C-42.1424135 11.77700851 -42.1424135 11.77700851 -28.25 3.2734375 C-26 2 -26 2 -24 2 C-24 2.66 -24 3.32 -24 4 C-24.66 4 -25.32 4 -26 4 C-26.0825 4.763125 -26.165 5.52625 -26.25 6.3125 C-27.15269355 9.54715191 -28.13593461 10.35099265 -31 12 C-31.66 12 -32.32 12 -33 12 C-33 12.99 -33 13.98 -33 15 C-24.43527116 14.86617611 -19.07735222 11.52566941 -12 6.9375 C-9.93833546 5.63279347 -7.87588079 4.32933435 -5.8125 3.02734375 C-4.91144531 2.44718506 -4.01039062 1.86702637 -3.08203125 1.26928711 C-1 0 -1 0 0 0 Z " fill="#589AC4" transform="translate(128,24)"/>
<path d="M0 0 C2.0336135 1.02508481 4.02707138 2.13146215 5.98828125 3.2890625 C6.56022217 3.62432953 7.13216309 3.95959656 7.72143555 4.30502319 C9.58994696 5.40374237 11.45157228 6.51349082 13.3125 7.625 C14.60891174 8.39462619 15.90538048 9.16415638 17.2019043 9.93359375 C20.50411766 11.89776403 23.79869331 13.87440702 27.09130859 15.85461426 C28.91746441 16.95047126 30.74708524 18.04025751 32.578125 19.12792969 C35.83374389 21.06798599 39.07516234 23.02962452 42.3125 25 C43.27647705 25.57314941 44.2404541 26.14629883 45.23364258 26.73681641 C51.65435887 30.70089597 56.20751727 35.21200532 61 41 C61.825 41.78375 62.65 42.5675 63.5 43.375 C65.9243515 47.61761512 65.48902365 52.2219984 65 57 C64.67 57.33 64.34 57.66 64 58 C64.66 58.33 65.32 58.66 66 59 C66 55.37 66 51.74 66 48 C66.33 48 66.66 48 67 48 C67.14368684 56.71700174 66.71961582 65.31320899 66 74 C57.92897466 69.70865523 50.10192946 65.09292518 42.3125 60.3125 C39.83737712 58.79971656 37.36047688 57.28986687 34.8828125 55.78125 C34.24367416 55.39205887 33.60453583 55.00286774 32.94602966 54.60188293 C26.23628984 50.52361226 19.48372533 46.51839771 12.72653198 42.51940918 C2.38317826 36.39714692 -7.95627752 30.26792378 -18.25 24.0625 C-19.19012939 23.50151611 -20.13025879 22.94053223 -21.09887695 22.36254883 C-21.95827881 21.84200928 -22.81768066 21.32146973 -23.703125 20.78515625 C-24.44208008 20.34051025 -25.18103516 19.89586426 -25.94238281 19.43774414 C-28.23240081 17.83761172 -30.0808976 16.02382499 -32 14 C-31.3915625 13.67128906 -30.783125 13.34257812 -30.15625 13.00390625 C-29.2796875 12.52824219 -28.403125 12.05257812 -27.5 11.5625 C-26.50742187 11.02625 -25.51484375 10.49 -24.4921875 9.9375 C-21.92736959 8.51451378 -19.40195333 7.06207201 -16.8828125 5.5625 C-16.17833984 5.1492749 -15.47386719 4.7360498 -14.74804688 4.31030273 C-13.34920019 3.4881425 -11.95700754 2.65453838 -10.57226562 1.80883789 C-6.49393231 -0.56833731 -4.49724646 -1.37391687 0 0 Z " fill="#143759" transform="translate(62,166)"/>
<path d="M0 0 C0.65758948 14.17573903 1.14756106 28.34908404 1.45074081 42.53700161 C1.59635326 49.1278156 1.79331389 55.7083315 2.11230469 62.29321289 C4.18022772 106.12177772 4.18022772 106.12177772 -2.57376099 114.95111084 C-8.56436661 121.20390077 -16.49660063 124.19080466 -24.57000732 126.82180786 C-29.16355859 128.39967887 -32.95546573 130.71539435 -36.99609375 133.359375 C-38.25115012 134.10999261 -39.51025653 134.85388768 -40.77368164 135.59033203 C-53.53141464 143.10870691 -66.18462454 150.77224154 -78.75292969 158.60400391 C-82.385427 160.86069878 -86.03084498 163.09519022 -89.6875 165.3125 C-90.61574585 165.88218506 -90.61574585 165.88218506 -91.56274414 166.46337891 C-95.76768606 169 -95.76768606 169 -98 169 C-98.13536022 166.91846065 -98.23215465 164.83438794 -98.3125 162.75 C-98.37050781 161.58984375 -98.42851563 160.4296875 -98.48828125 159.234375 C-98 156 -98 156 -95.85693359 154.03051758 C-92.91299237 151.93816079 -89.9272992 150.08553245 -86.80078125 148.27734375 C-86.21275223 147.93538467 -85.62472321 147.5934256 -85.01887512 147.24110413 C-83.76594035 146.51281319 -82.51200309 145.78624456 -81.25714111 145.0612793 C-77.97225819 143.16299411 -74.69525542 141.2512043 -71.41796875 139.33984375 C-70.44911743 138.77527969 -70.44911743 138.77527969 -69.46069336 138.1993103 C-62.2187168 133.97254648 -55.07684607 129.58820861 -47.93945312 125.18798828 C-44.16937474 122.8786729 -40.36674155 120.62350257 -36.56811523 118.36157227 C-33.21261082 116.35480013 -29.88663338 114.30843543 -26.58203125 112.21875 C-25.84871582 111.7554126 -25.11540039 111.2920752 -24.35986328 110.81469727 C-22.93764234 109.91306225 -21.51793553 109.00744625 -20.10107422 108.09741211 C-15.21847237 105 -15.21847237 105 -13 105 C-11.97349381 91.52425354 -11.97349381 91.52425354 -12.84375 78.06640625 C-12.9855047 75.28447025 -12.80314143 72.8619057 -12.49780273 70.1027832 C-11.90283029 63.80270047 -12.00157785 57.60766514 -12.19140625 51.2890625 C-12.24956782 48.88672404 -12.30750401 46.48438011 -12.36523438 44.08203125 C-12.46264641 40.33598377 -12.56348105 36.59007478 -12.66870117 32.84423828 C-12.76864893 29.20101199 -12.85575019 25.55764871 -12.94140625 21.9140625 C-12.97673965 20.79319244 -13.01207306 19.67232239 -13.04847717 18.51748657 C-13.08357643 16.94962906 -13.08357643 16.94962906 -13.11938477 15.35009766 C-13.14460709 14.43507477 -13.16982941 13.52005188 -13.19581604 12.57730103 C-12.97539602 9.67616612 -12.29009841 7.60052354 -11 5 C-8.90625 3.41796875 -8.90625 3.41796875 -6.5 2.1875 C-5.7059375 1.76855469 -4.911875 1.34960938 -4.09375 0.91796875 C-2 0 -2 0 0 0 Z " fill="#12314F" transform="translate(226,70)"/>
<path d="M0 0 C31.93181818 0 31.93181818 0 37.8125 5.75 C42.24911834 12.34154725 44.25578159 18.10148589 43 26 C40.58874648 32.91622923 37.48155913 37.81808505 30.76953125 41.0859375 C27.44109769 42.18446141 24.68479166 42.19565236 21.1875 42.125 C20.02605469 42.10695312 18.86460937 42.08890625 17.66796875 42.0703125 C16.34732422 42.03550781 16.34732422 42.03550781 15 42 C15.00523682 42.72179443 15.01047363 43.44358887 15.01586914 44.18725586 C15.03657358 47.43732849 15.04963918 50.68738728 15.0625 53.9375 C15.07087891 55.07380859 15.07925781 56.21011719 15.08789062 57.38085938 C15.09111328 58.46044922 15.09433594 59.54003906 15.09765625 60.65234375 C15.10289307 61.65257568 15.10812988 62.65280762 15.11352539 63.68334961 C15 66 15 66 14 67 C9.38 67 4.76 67 0 67 C0 44.89 0 22.78 0 0 Z " fill="#26557E" transform="translate(145,89)"/>
<path d="M0 0 C3.19239645 0.79809911 5.39297664 1.58637126 8.25 3.0625 C8.95640625 3.42472656 9.6628125 3.78695312 10.390625 4.16015625 C10.92171875 4.43730469 11.4528125 4.71445313 12 5 C12.86700795 25.7896725 13.27097151 46.56762546 13.53222656 67.37194824 C13.58362545 71.40945484 13.63867557 75.44691179 13.69335938 79.484375 C13.79901618 87.32287396 13.90083812 95.16141588 14 103 C9.33333333 105.33333333 4.66666667 107.66666667 0 110 C0 73.7 0 37.4 0 0 Z " fill="#285884" transform="translate(29,71)"/>
<path d="M0 0 C0.03078161 9.7291526 0.05104073 19.45830731 0.0625 29.1875 C0.06378403 30.26993484 0.06378403 30.26993484 0.06509399 31.37423706 C0.09220671 57.26109599 -0.23748461 83.12314777 -1 109 C-5.55456722 108.20124223 -8.49364547 107.15723698 -12 104 C-12.44177365 101.04230974 -12.52892752 98.91550056 -12.3125 96 C-12.25100227 94.46630871 -12.19372892 92.93244236 -12.140625 91.3984375 C-12.10904297 90.64788086 -12.07746094 89.89732422 -12.04492188 89.12402344 C-11.96647164 85.41469159 -12.41819229 81.77589849 -12.87890625 78.1015625 C-12.98748031 75.32066551 -12.7996077 72.85801734 -12.49560547 70.10058594 C-11.90257032 63.80149047 -12.00161209 57.6065255 -12.19140625 51.2890625 C-12.24956782 48.88672404 -12.30750401 46.48438011 -12.36523438 44.08203125 C-12.46264641 40.33598377 -12.56348105 36.59007478 -12.66870117 32.84423828 C-12.76864893 29.20101199 -12.85575019 25.55764871 -12.94140625 21.9140625 C-12.97673965 20.79319244 -13.01207306 19.67232239 -13.04847717 18.51748657 C-13.07187668 17.47224823 -13.09527618 16.42700989 -13.11938477 15.35009766 C-13.14460709 14.43507477 -13.16982941 13.52005188 -13.19581604 12.57730103 C-12.97539602 9.67616612 -12.29009841 7.60052354 -11 5 C-8.90625 3.41796875 -8.90625 3.41796875 -6.5 2.1875 C-5.7059375 1.76855469 -4.911875 1.34960938 -4.09375 0.91796875 C-2 0 -2 0 0 0 Z " fill="#0C2946" transform="translate(226,70)"/>
<path d="M0 0 C-0.05542969 0.57105469 -0.11085937 1.14210938 -0.16796875 1.73046875 C-0.23775129 10.50911267 4.71050011 15.27174391 10.43847656 21.28417969 C11.78773686 22.76676277 13.03746938 24.3387928 14.26538086 25.92333984 C16.92434133 29.12544107 20.0375289 31.22694726 23.61328125 33.3046875 C24.22769577 33.67353058 24.84211029 34.04237366 25.47514343 34.4223938 C27.41493123 35.58369473 29.3633527 36.72949296 31.3125 37.875 C32.63927583 38.66565406 33.96545404 39.45731189 35.29101562 40.25 C38.52055692 42.17832973 41.75792606 44.09282292 45 46 C44.01 46.495 44.01 46.495 43 47 C41.06054688 46.10375977 41.06054688 46.10375977 38.71875 44.69140625 C37.87699219 44.19189453 37.03523438 43.69238281 36.16796875 43.17773438 C34.84732422 42.37819336 34.84732422 42.37819336 33.5 41.5625 C31.76269448 40.51833614 30.02321325 39.47778102 28.28125 38.44140625 C27.50845703 37.97420166 26.73566406 37.50699707 25.93945312 37.02563477 C24.07099068 35.84417208 24.07099068 35.84417208 22 36 C22 35.34 22 34.68 22 34 C21.2575 33.731875 20.515 33.46375 19.75 33.1875 C17.13363446 32.05770579 15.19812889 30.79106798 13 29 C12.443125 29.45375 11.88625 29.9075 11.3125 30.375 C7.14935706 33.3004518 4.00774142 34 -1 34 C-1.33 34.99 -1.66 35.98 -2 37 C-2.83878455 35.71186658 -3.67086783 34.41936744 -4.5 33.125 C-4.9640625 32.40570313 -5.428125 31.68640625 -5.90625 30.9453125 C-7 29 -7 29 -7 27 C-8.175625 27.2475 -8.175625 27.2475 -9.375 27.5 C-12 28 -12 28 -14 28 C-15.77221555 28.89479511 -17.51890589 29.84053322 -19.25 30.8125 C-30.41090426 37 -30.41090426 37 -33 37 C-33 37.66 -33 38.32 -33 39 C-35.475 39.495 -35.475 39.495 -38 40 C-37.34 39.01 -36.68 38.02 -36 37 C-37.98 36.01 -39.96 35.02 -42 34 C-42 33.01 -42 32.02 -42 31 C-42.99 30.67 -43.98 30.34 -45 30 C-42.02867199 23.90877757 -37.44649679 21.66414096 -31.58203125 18.515625 C-28.90176042 17.25766071 -28.90176042 17.25766071 -28 15 C-26.39591516 14.31837145 -24.7896975 13.64145167 -23.17480469 12.98583984 C-18.77849493 10.99299085 -14.73195725 8.33551499 -10.625 5.8125 C-8.82667229 4.7129583 -7.02725416 3.61519728 -5.2265625 2.51953125 C-4.43846191 2.03589111 -3.65036133 1.55225098 -2.83837891 1.05395508 C-1 0 -1 0 0 0 Z " fill="#63ADD6" transform="translate(128,24)"/>
<path d="M0 0 C0 0.66 0 1.32 0 2 C0.69867188 1.84402344 1.39734375 1.68804687 2.1171875 1.52734375 C3.02726562 1.33269531 3.93734375 1.13804688 4.875 0.9375 C5.77992187 0.74027344 6.68484375 0.54304688 7.6171875 0.33984375 C10 0 10 0 12 1 C12 1.99 12 2.98 12 4 C13.65 4 15.3 4 17 4 C17 5.98 17 7.96 17 10 C20.5219721 10.08004482 23.61981469 10.04005702 27 9 C23.82352301 12.53995445 20.25982791 14.75262007 16.125 17 C14.9180574 17.66446732 13.71231613 18.33112163 12.5078125 19 C11.92161133 19.32540771 11.33541016 19.65081543 10.73144531 19.98608398 C9.02079864 20.98782054 7.37974285 22.10542724 5.7421875 23.22265625 C2.4364731 25.36524891 0.87137276 25.56457519 -3 25 C-6.68185632 23.45362035 -9.99971554 21.6540978 -13 19 C-13 18.34 -13 17.68 -13 17 C-13.99 16.67 -14.98 16.34 -16 16 C-13.98429926 10.83476686 -11.11138045 8.05198957 -6.9375 4.61328125 C-4.98786748 3.05300581 -4.98786748 3.05300581 -3.375 1.29296875 C-2 0 -2 0 0 0 Z " fill="#C8ECF7" transform="translate(58,61)"/>
<path d="M0 0 C3.01217112 0.64449607 5.51655836 1.65022182 8.25 3.0625 C8.95640625 3.42472656 9.6628125 3.78695312 10.390625 4.16015625 C10.92171875 4.43730469 11.4528125 4.71445313 12 5 C12.84821884 24.35112023 13.13306356 43.63413453 13 63 C12.67 63 12.34 63 12 63 C12 61.02 12 59.04 12 57 C11.34 57 10.68 57 10 57 C9.67 53.04 9.34 49.08 9 45 C8.01 45 7.02 45 6 45 C5.67 44.34 5.34 43.68 5 43 C4.505 45.475 4.505 45.475 4 48 C3.34 47.67 2.68 47.34 2 47 C1.97494385 46.2479126 1.9498877 45.4958252 1.92407227 44.72094727 C1.80849486 41.33460804 1.68559655 37.94857387 1.5625 34.5625 C1.52318359 33.37849609 1.48386719 32.19449219 1.44335938 30.97460938 C1.40146484 29.84990234 1.35957031 28.72519531 1.31640625 27.56640625 C1.27974854 26.52427979 1.24309082 25.48215332 1.20532227 24.40844727 C1.26484659 22.0500174 1.26484659 22.0500174 0 21 C-0.08685603 19.43827255 -0.10702219 17.87270656 -0.09765625 16.30859375 C-0.09443359 15.36435547 -0.09121094 14.42011719 -0.08789062 13.44726562 C-0.07951172 12.45404297 -0.07113281 11.46082031 -0.0625 10.4375 C-0.05798828 9.44041016 -0.05347656 8.44332031 -0.04882812 7.41601562 C-0.03700007 4.94395151 -0.02051849 2.47200482 0 0 Z " fill="#326895" transform="translate(29,71)"/>
<path d="M0 0 C0.66 0.33 1.32 0.66 2 1 C1.01 2.485 1.01 2.485 0 4 C0.66 4.33 1.32 4.66 2 5 C2 5.99 2 6.98 2 8 C2.598125 8.12375 3.19625 8.2475 3.8125 8.375 C6 9 6 9 9 11 C8.34 11.66 7.68 12.32 7 13 C8.32 13 9.64 13 11 13 C11 12.34 11 11.68 11 11 C13.37447413 9.72817607 15.74955897 8.45751576 18.125 7.1875 C18.79015625 6.83107422 19.4553125 6.47464844 20.140625 6.10742188 C24.06500218 4.01057328 28.00988078 1.97019905 32 0 C30.496673 4.509981 26.94731618 6.70695325 23 9 C21 9.66666667 19 10.33333333 17 11 C16.67 11.99 16.34 12.98 16 14 C14.16796875 15.0859375 14.16796875 15.0859375 12 16 C5.24471883 18.92198457 0.32056409 22.92575832 -5 28 C-5.33 27.34 -5.66 26.68 -6 26 C-4.68 24.68 -3.36 23.36 -2 22 C-3.32 22 -4.64 22 -6 22 C-6.99 21.67 -7.98 21.34 -9 21 C-9 19.02 -9 17.04 -9 15 C-10.65 15 -12.3 15 -14 15 C-14 14.01 -14 13.02 -14 12 C-14.99 11.67 -15.98 11.34 -17 11 C-16.34 10.67 -15.68 10.34 -15 10 C-13.86649466 7.98330173 -13.86649466 7.98330173 -13 6 C-12.34 6 -11.68 6 -11 6 C-11 5.34 -11 4.68 -11 4 C-10.34 4 -9.68 4 -9 4 C-8.67 3.34 -8.34 2.68 -8 2 C-7.01 2.33 -6.02 2.66 -5 3 C-3.32260138 2.01810813 -1.65532623 1.01866229 0 0 Z " fill="#A1D5EB" transform="translate(84,50)"/>
<path d="M0 0 C3.09005551 1.3334816 4.734047 2.60503205 6.671875 5.34375 C13.75386093 14.92580708 20.59519101 21.17726102 31.0234375 26.89746094 C34.24979934 28.69714598 37.36751143 30.66806671 40.5 32.625 C42.33297265 33.75058757 44.16615783 34.87582963 46 36 C45.01 36.495 45.01 36.495 44 37 C42.06054688 36.10375977 42.06054688 36.10375977 39.71875 34.69140625 C38.87699219 34.19189453 38.03523438 33.69238281 37.16796875 33.17773438 C36.28753906 32.64470703 35.40710938 32.11167969 34.5 31.5625 C32.76269448 30.51833614 31.02321325 29.47778102 29.28125 28.44140625 C28.50845703 27.97420166 27.73566406 27.50699707 26.93945312 27.02563477 C25.07099068 25.84417208 25.07099068 25.84417208 23 26 C23 25.34 23 24.68 23 24 C22.2575 23.731875 21.515 23.46375 20.75 23.1875 C18.13363446 22.05770579 16.19812889 20.79106798 14 19 C13.443125 19.45375 12.88625 19.9075 12.3125 20.375 C8.14935706 23.3004518 5.00774142 24 0 24 C-0.33 24.99 -0.66 25.98 -1 27 C-1.83878455 25.71186658 -2.67086783 24.41936744 -3.5 23.125 C-3.9640625 22.40570313 -4.428125 21.68640625 -4.90625 20.9453125 C-6 19 -6 19 -6 17 C-7.65 17.33 -9.3 17.66 -11 18 C-9.48103632 13.56829827 -7.07360191 9.96975924 -4.375 6.1875 C-3.95476562 5.59001953 -3.53453125 4.99253906 -3.1015625 4.37695312 C-2.07220272 2.91479435 -1.0367177 1.45695101 0 0 Z " fill="#5096C1" transform="translate(127,34)"/>
<path d="M0 0 C0.66 0.33 1.32 0.66 2 1 C2 1.66 2 2.32 2 3 C2.99 3 3.98 3 5 3 C6.3271261 6.9813783 6.06915913 10.85045227 6 15 C6.66 15 7.32 15 8 15 C8.88277755 19.51815281 9.10589503 23.77512694 9.0625 28.375 C9.05347656 29.62023437 9.04445313 30.86546875 9.03515625 32.1484375 C9.02355469 33.08945313 9.01195312 34.03046875 9 35 C7.515 35.495 7.515 35.495 6 36 C5.67 39.3 5.34 42.6 5 46 C4.67 46 4.34 46 4 46 C3.67 43.69 3.34 41.38 3 39 C0.525 41.475 0.525 41.475 -2 44 C-3 43 -3 43 -3.11352539 39.21459961 C-3.11336622 37.52717271 -3.10766917 35.83974095 -3.09765625 34.15234375 C-3.0962413 33.2659169 -3.09482635 32.37949005 -3.09336853 31.46620178 C-3.08775215 28.62326746 -3.07519691 25.78041069 -3.0625 22.9375 C-3.05748711 21.01497509 -3.05292384 19.09244896 -3.04882812 17.16992188 C-3.03777741 12.44658451 -3.02050183 7.72330542 -3 3 C-2.34 3.66 -1.68 4.32 -1 5 C-0.67 3.35 -0.34 1.7 0 0 Z " fill="#23517C" transform="translate(33,113)"/>
<path d="M0 0 C-0.66 0 -1.32 0 -2 0 C-1.86585693 0.6997998 -1.73171387 1.39959961 -1.59350586 2.12060547 C-1.23554522 5.37182788 -1.2255341 7.81065162 -2 11 C-5.33341574 14.58397407 -9.31011259 16.76119461 -13.5625 19.125 C-14.64853516 19.78242187 -15.73457031 20.43984375 -16.85351562 21.1171875 C-22.31567032 24.3313916 -26.58413313 26.50613854 -33 27 C-33.66 26.67 -34.32 26.34 -35 26 C-35 25.01 -35 24.02 -35 23 C-34.030625 22.360625 -33.06125 21.72125 -32.0625 21.0625 C-28.88931021 19.34877692 -28.88931021 19.34877692 -28.125 16.75 C-28.08375 16.1725 -28.0425 15.595 -28 15 C-27.34 15 -26.68 15 -26 15 C-25.92885986 14.40292236 -25.85771973 13.80584473 -25.78442383 13.19067383 C-24.70117842 10.16547588 -23.20937891 9.53606858 -20.44921875 7.94921875 C-19.52302734 7.41619141 -18.59683594 6.88316406 -17.64257812 6.33398438 C-16.66740234 5.79064453 -15.69222656 5.24730469 -14.6875 4.6875 C-13.72392578 4.12482422 -12.76035156 3.56214844 -11.76757812 2.98242188 C-3.87323427 -1.4872101 -3.87323427 -1.4872101 0 0 Z " fill="#407EAB" transform="translate(130,13)"/>
<path d="M0 0 C5.61 0 11.22 0 17 0 C17 22.11 17 44.22 17 67 C12.71 67 8.42 67 4 67 C4 53.14 4 39.28 4 25 C4.99 25.33 5.98 25.66 7 26 C8.26506589 34.38691829 7.90051817 42.62552804 7.5625 51.0625 C7.50916183 52.51495191 7.45642267 53.96742595 7.40429688 55.41992188 C7.27643515 58.94689641 7.14047379 62.47350261 7 66 C9.64 65.67 12.28 65.34 15 65 C15.33 44.87 15.66 24.74 16 4 C9.07 3.505 9.07 3.505 2 3 C2 4.98 2 6.96 2 9 C1.23046875 11.125 1.23046875 11.125 0.1875 13 C-0.17859375 13.67546875 -0.5446875 14.3509375 -0.921875 15.046875 C-1.27765625 15.69140625 -1.6334375 16.3359375 -2 17 C-2.515625 18.0725 -3.03125 19.145 -3.5625 20.25 C-5 23 -5 23 -6.4609375 24.84765625 C-8.67349811 27.94187172 -9.73984667 31.30247099 -11.03515625 34.85546875 C-12 37 -12 37 -14 38 C-11.69842556 29.55966227 -8.55104064 21.488484 -5.3125 13.375 C-4.79584522 12.07176467 -4.27956658 10.76838015 -3.76367188 9.46484375 C-2.5127982 6.30843354 -1.25690983 3.15401142 0 0 Z " fill="#1F415F" transform="translate(120,89)"/>
<path d="M0 0 C0.66 0.33 1.32 0.66 2 1 C1.01 2.65 0.02 4.3 -1 6 C2.54518884 4.60240095 2.54518884 4.60240095 6 3 C5.88637738 4.4800841 5.75877092 5.95910074 5.625 7.4375 C5.55539063 8.26121094 5.48578125 9.08492187 5.4140625 9.93359375 C5.27742188 10.61550781 5.14078125 11.29742187 5 12 C2.29120665 13.35439668 -0.00933268 13.06501451 -3 13 C-3 12.34 -3 11.68 -3 11 C-7.48707284 14.863559 -11.86757027 18.75278056 -16 23 C-17.32 24.32 -18.64 25.64 -20 27 C-23.96 25.02 -27.92 23.04 -32 21 C-32 20.34 -32 19.68 -32 19 C-29.92382812 17.56713867 -29.92382812 17.56713867 -27.03125 15.91796875 C-25.98453125 15.31533203 -24.9378125 14.71269531 -23.859375 14.09179688 C-22.75078125 13.46337891 -21.6421875 12.83496094 -20.5 12.1875 C-18.3430997 10.95295838 -16.1868368 9.7173024 -14.03125 8.48046875 C-12.99871094 7.89185059 -11.96617188 7.30323242 -10.90234375 6.69677734 C-8.33103043 5.19352805 -5.83584032 3.61794158 -3.34375 1.98828125 C-2.2403125 1.33214844 -1.136875 0.67601562 0 0 Z " fill="#7EB7D5" transform="translate(61,50)"/>
<path d="M0 0 C8 0 8 0 10.9375 1.875 C13.72887594 4.75096309 14.18760034 6.40116846 14.3125 10.3125 C14.2457969 13.49372462 13.95884853 15.09165556 12.625 18.0625 C10 20 10 20 0 20 C0 13.4 0 6.8 0 0 Z " fill="#3A739F" transform="translate(159,100)"/>
<path d="M0 0 C27 0 27 0 34 3 C30.70972654 4.09675782 30.17217365 3.83901694 27 3 C25.16859259 2.90622311 23.33380013 2.87007043 21.5 2.875 C20.5615625 2.87242188 19.623125 2.86984375 18.65625 2.8671875 C13.42730564 3.05712779 8.21431905 3.56547341 3 4 C2.67 24.79 2.34 45.58 2 67 C1.34 67 0.68 67 0 67 C0 44.89 0 22.78 0 0 Z " fill="#173652" transform="translate(145,89)"/>
<path d="M0 0 C0.66 0.33 1.32 0.66 2 1 C-7.12863071 8.67634855 -7.12863071 8.67634855 -10.1875 9.8125 C-12.25499361 10.87591812 -12.25499361 10.87591812 -12.61328125 13.39453125 C-13.23419466 19.18345119 -13.0394109 24.95465205 -12.9609375 30.76953125 C-12.92136419 35.57768862 -13.11923917 40.09851004 -13.80859375 44.86816406 C-14.22857194 49.54577832 -13.76483348 54.2585375 -13.5 58.9375 C-13.00035451 69.05178409 -13.09858432 78.91801227 -14 89 C-14.66 88.67 -15.32 88.34 -16 88 C-16.01030746 87.05230743 -16.02061493 86.10461487 -16.03123474 85.12820435 C-16.12885792 76.21077881 -16.23158134 67.29342479 -16.33933926 58.3761158 C-16.39457776 53.79129595 -16.44799925 49.20646973 -16.49731445 44.62158203 C-16.54494432 40.19952607 -16.59728663 35.77754901 -16.65294075 31.35558701 C-16.67337055 29.66586133 -16.69208259 27.976114 -16.70907402 26.28635025 C-16.73310422 23.92535808 -16.76316056 21.56451567 -16.79467773 19.20361328 C-16.80331093 18.14841492 -16.80331093 18.14841492 -16.81211853 17.07189941 C-16.82488557 13.41246722 -16.82488557 13.41246722 -18 10 C-17.071875 9.649375 -16.14375 9.29875 -15.1875 8.9375 C-10.54444399 6.9870359 -6.50914246 4.14689392 -2.35546875 1.328125 C-1.57816406 0.88984375 -0.80085938 0.4515625 0 0 Z " fill="#4A8DB7" transform="translate(75,76)"/>
<path d="M0 0 C0 0.66 0 1.32 0 2 C1.65 2 3.3 2 5 2 C3.48065294 5.03869411 1.01995228 5.64410306 -2 7 C-2.66 7 -3.32 7 -4 7 C-4.33 8.98 -4.66 10.96 -5 13 C-4.01 13 -3.02 13 -2 13 C-2.33 14.98 -2.66 16.96 -3 19 C-2.01 19.33 -1.02 19.66 0 20 C-0.66 20.99 -1.32 21.98 -2 23 C-5.89891378 23.6064977 -7.54514962 23.29664155 -10.875 21.125 C-11.57625 20.42375 -12.2775 19.7225 -13 19 C-13 18.34 -13 17.68 -13 17 C-13.99 16.67 -14.98 16.34 -16 16 C-13.98429926 10.83476686 -11.11138045 8.05198957 -6.9375 4.61328125 C-4.98786748 3.05300581 -4.98786748 3.05300581 -3.375 1.29296875 C-2 0 -2 0 0 0 Z " fill="#CFEFF8" transform="translate(58,61)"/>
<path d="M0 0 C0.66 0.33 1.32 0.66 2 1 C1.01 2.485 1.01 2.485 0 4 C0.66 4.33 1.32 4.66 2 5 C2 5.99 2 6.98 2 8 C2.598125 8.12375 3.19625 8.2475 3.8125 8.375 C6 9 6 9 9 11 C4.44533433 15.00258498 -0.2854872 17.0951624 -6 19 C-6 17.02 -6 15.04 -6 13 C-7.65 12.67 -9.3 12.34 -11 12 C-10.42655063 9.13275314 -10.1385485 8.1385485 -8 6 C-8.78375 6.515625 -9.5675 7.03125 -10.375 7.5625 C-11.24125 8.036875 -12.1075 8.51125 -13 9 C-13.66 8.67 -14.32 8.34 -15 8 C-13.68 7.34 -12.36 6.68 -11 6 C-11 5.34 -11 4.68 -11 4 C-10.34 4 -9.68 4 -9 4 C-8.67 3.34 -8.34 2.68 -8 2 C-7.01 2.33 -6.02 2.66 -5 3 C-3.32260138 2.01810813 -1.65532623 1.01866229 0 0 Z " fill="#78BEE1" transform="translate(84,50)"/>
<path d="M0 0 C2.8685771 2.8685771 2.93113135 5.00561826 3 9 C0.625 11.0625 0.625 11.0625 -2 13 C-2.83221761 16.13682023 -3 18.7638128 -3 22 C-3.556875 21.55269531 -4.11375 21.10539062 -4.6875 20.64453125 C-9.61115223 16.74386758 -14.59262999 13.19727328 -20 10 C-17.3333581 8.66667905 -15.83319697 9.32897967 -13 10 C-12.34 9.0925 -11.68 8.185 -11 7.25 C-7.96163787 3.55493135 -4.34527112 1.83299278 0 0 Z " fill="#4780AB" transform="translate(121,180)"/>
<path d="M0 0 C1.58206057 0.00667536 3.16410534 0.0186375 4.74609375 0.03515625 C5.55240234 0.03966797 6.35871094 0.04417969 7.18945312 0.04882812 C9.18753131 0.06065107 11.18557158 0.07858711 13.18359375 0.09765625 C13.18359375 0.75765625 13.18359375 1.41765625 13.18359375 2.09765625 C7.90359375 2.09765625 2.62359375 2.09765625 -2.81640625 2.09765625 C-2.81640625 23.21765625 -2.81640625 44.33765625 -2.81640625 66.09765625 C-3.47640625 66.09765625 -4.13640625 66.09765625 -4.81640625 66.09765625 C-4.83953284 57.63998291 -4.85732295 49.18232269 -4.86821842 40.72462559 C-4.87344656 36.79776967 -4.88054294 32.87093531 -4.8918457 28.9440918 C-4.90267705 25.15751368 -4.90868361 21.37095635 -4.91128349 17.58436394 C-4.9131373 16.13661306 -4.91675706 14.68886337 -4.92213631 13.24112129 C-4.92934992 11.2200849 -4.92981433 9.19902777 -4.92993164 7.17797852 C-4.93215225 6.02548111 -4.93437286 4.8729837 -4.93666077 3.68556213 C-4.7448502 -0.442247 -4.33304548 0.11087629 0 0 Z " fill="#1A3954" transform="translate(77.81640625,88.90234375)"/>
<path d="M0 0 C1.5 2.0625 1.5 2.0625 1.5 4.0625 C0.84 4.0625 0.18 4.0625 -0.5 4.0625 C-0.995 3.0725 -0.995 3.0725 -1.5 2.0625 C-3.52695382 1.67056489 -3.52695382 1.67056489 -5.875 1.5625 C-9.39651464 1.33308537 -10.42939296 1.10957136 -13.5 -0.9375 C-19.49382211 -1.04128913 -26.04016949 -0.5237355 -31.5 2.0625 C-33.73001192 5.40751788 -33.73854194 6.41786028 -33.6953125 10.3125 C-33.68870605 11.38371094 -33.68209961 12.45492187 -33.67529297 13.55859375 C-33.65869629 14.71488281 -33.64209961 15.87117188 -33.625 17.0625 C-33.61742676 18.24972656 -33.60985352 19.43695313 -33.60205078 20.66015625 C-33.57757057 24.46108302 -33.54031141 28.26171006 -33.5 32.0625 C-33.44696978 37.0624918 -33.40689574 42.06233375 -33.375 47.0625 C-33.35840332 48.21878906 -33.34180664 49.37507813 -33.32470703 50.56640625 C-33.31479736 52.17322266 -33.31479736 52.17322266 -33.3046875 53.8125 C-33.29421387 54.75609375 -33.28374023 55.6996875 -33.27294922 56.671875 C-33.5 59.0625 -33.5 59.0625 -35.5 62.0625 C-35.5231271 53.86559439 -35.54091696 45.66870232 -35.55181217 37.47177219 C-35.5570402 33.66598423 -35.56413638 29.86021852 -35.57543945 26.05444336 C-35.5862712 22.38457456 -35.59227744 18.71472722 -35.59487724 15.04484367 C-35.59673097 13.64175008 -35.6003506 12.23865771 -35.60573006 10.8355732 C-35.61294419 8.8768032 -35.61340809 6.9180118 -35.61352539 4.95922852 C-35.615746 3.84226089 -35.61796661 2.72529327 -35.62025452 1.57447815 C-35.5 -0.9375 -35.5 -0.9375 -34.5 -1.9375 C-7.32254989 -5.67497616 -7.32254989 -5.67497616 0 0 Z " fill="#1D476E" transform="translate(182.5,93.9375)"/>
<path d="M0 0 C0.99 0.33 1.98 0.66 3 1 C4.26506589 9.38691829 3.90051817 17.62552804 3.5625 26.0625 C3.50916183 27.51495191 3.45642267 28.96742595 3.40429688 30.41992188 C3.27643515 33.94689641 3.14047379 37.47350261 3 41 C5.97 41 8.94 41 12 41 C12 41.33 12 41.66 12 42 C8.04 42 4.08 42 0 42 C0 28.14 0 14.28 0 0 Z " fill="#183C5F" transform="translate(124,114)"/>
<path d="M0 0 C-1.375 1.5 -1.375 1.5 -3 3 C-3.66 3 -4.32 3 -5 3 C-6.11841368 5.08770553 -6.9708176 6.85408801 -7.4375 9.1875 C-7.623125 9.785625 -7.80875 10.38375 -8 11 C-8.99 11.33 -9.98 11.66 -11 12 C-11 12.99 -11 13.98 -11 15 C-11.66 15 -12.32 15 -13 15 C-13 14.34 -13 13.68 -13 13 C-15.31 14.65 -17.62 16.3 -20 18 C-20.66 16.68 -21.32 15.36 -22 14 C-21.34 14 -20.68 14 -20 14 C-19.9175 12.989375 -19.835 11.97875 -19.75 10.9375 C-18.58400357 6.66508024 -15.82147585 5.29701683 -12.125 3.125 C-3.35756155 -1.67878077 -3.35756155 -1.67878077 0 0 Z " fill="#5D9AC2" transform="translate(91,36)"/>
<path d="M0 0 C0.66 0.33 1.32 0.66 2 1 C1.67 1.66 1.34 2.32 1 3 C1.33 3.66 1.66 4.32 2 5 C2.99 5.33 3.98 5.66 5 6 C5 6.99 5 7.98 5 9 C3.35 9.33 1.7 9.66 0 10 C0 10.99 0 11.98 0 13 C-4.22857143 17 -4.22857143 17 -8 17 C-7.67 15.02 -7.34 13.04 -7 11 C-7.99 11 -8.98 11 -10 11 C-10.0625 8.3125 -10.0625 8.3125 -9 5 C-6.22378598 2.85277197 -3.29439887 1.21499848 0 0 Z " fill="#E2F7FB" transform="translate(63,63)"/>
<path d="M0 0 C-0.33 1.65 -0.66 3.3 -1 5 C-1.66 5 -2.32 5 -3 5 C-2.01 6.485 -2.01 6.485 -1 8 C-0.21625 7.34 0.5675 6.68 1.375 6 C4 4 4 4 6 4 C6.33 3.67 6.66 3.34 7 3 C7.99 2.67 8.98 2.34 10 2 C10.33 3.65 10.66 5.3 11 7 C7.38026598 8.31626692 4.90432869 9 1 9 C1 9.66 1 10.32 1 11 C-0.95927063 12.7143618 -2.95880212 14.38405168 -5 16 C-6 13 -6 13 -6 9 C-6.598125 9.515625 -7.19625 10.03125 -7.8125 10.5625 C-8.534375 11.036875 -9.25625 11.51125 -10 12 C-10.99 11.67 -11.98 11.34 -13 11 C-10.35789091 5.5044131 -6.91690846 0 0 0 Z " fill="#66AAD1" transform="translate(72,45)"/>
<path d="M0 0 C0 0.99 0 1.98 0 3 C-4.29 3 -8.58 3 -13 3 C-13.78978555 7.73871329 -14.12866968 11.73616624 -14.1328125 16.48828125 C-14.13376923 17.19091599 -14.13472595 17.89355072 -14.13571167 18.61747742 C-14.13638887 20.09744354 -14.13456682 21.57741271 -14.13037109 23.05737305 C-14.12504054 25.2954799 -14.13031925 27.53338388 -14.13671875 29.77148438 C-14.15963936 38.49061362 -14.15963936 38.49061362 -13.4609375 47.17578125 C-13.0459116 50.61908935 -13.06377652 53.45461138 -13.5 56.875 C-13.9168878 60.20062768 -14.07635526 61.77093423 -13 65 C-13.99 65 -14.98 65 -16 65 C-16 43.88 -16 22.76 -16 1 C-8.08 0.505 -8.08 0.505 0 0 Z " fill="#275680" transform="translate(91,90)"/>
<path d="M0 0 C0.99 0.495 0.99 0.495 2 1 C2.19689005 4.27033928 2.38089008 7.54127941 2.5625 10.8125 C2.61857422 11.74126953 2.67464844 12.67003906 2.73242188 13.62695312 C2.78076172 14.51962891 2.82910156 15.41230469 2.87890625 16.33203125 C2.9260376 17.15421143 2.97316895 17.9763916 3.02172852 18.82348633 C3 21 3 21 2 24 C1.88251223 26.10028785 1.82315675 28.20399448 1.79467773 30.30737305 C1.77473251 31.60849533 1.75478729 32.90961761 1.73423767 34.25016785 C1.71725454 35.6706836 1.70037569 37.0912006 1.68359375 38.51171875 C1.66301863 39.96475306 1.64202201 41.41778146 1.62062073 42.87080383 C1.56545766 46.6929953 1.51602302 50.51524026 1.46777344 54.33752441 C1.41751628 58.23873652 1.36185222 62.13987105 1.30664062 66.04101562 C1.19912959 73.69394469 1.09766902 81.34693833 1 89 C0.67 89 0.34 89 0 89 C0 59.63 0 30.26 0 0 Z " fill="#315777" transform="translate(29,92)"/>
<path d="M0 0 C1.98 0.99 1.98 0.99 4 2 C3.84660156 2.68449219 3.69320312 3.36898437 3.53515625 4.07421875 C2.94066589 7.32438869 2.67050324 10.51716845 2.4375 13.8125 C2.35371094 14.97394531 2.26992188 16.13539062 2.18359375 17.33203125 C2.12300781 18.21246094 2.06242187 19.09289062 2 20 C2.99 20.33 3.98 20.66 5 21 C5.6875 23.0625 5.6875 23.0625 6 25 C5.01 25.33 4.02 25.66 3 26 C2.67 29.63 2.34 33.26 2 37 C1.67 37 1.34 37 1 37 C-0.03155536 28.94526218 -0.11895318 20.9868879 -0.0625 12.875 C-0.05798828 11.63234375 -0.05347656 10.3896875 -0.04882812 9.109375 C-0.03714924 6.07286498 -0.0207714 3.03645912 0 0 Z " fill="#5090BA" transform="translate(41,77)"/>
<path d="M0 0 C0.66 0.33 1.32 0.66 2 1 C-7.12863071 8.67634855 -7.12863071 8.67634855 -10.1875 9.8125 C-12.30205749 10.89610665 -12.30205749 10.89610665 -12.5859375 13.66015625 C-13.13535436 18.09177341 -13.37693017 22.51927843 -13.62109375 26.9765625 C-13.98306066 29.86483458 -14.64433278 31.48528645 -16 34 C-16.02505615 33.34402832 -16.0501123 32.68805664 -16.07592773 32.01220703 C-16.1917326 29.04959817 -16.31452886 26.08731969 -16.4375 23.125 C-16.47681641 22.09246094 -16.51613281 21.05992188 -16.55664062 19.99609375 C-16.59853516 19.00996094 -16.64042969 18.02382812 -16.68359375 17.0078125 C-16.72025146 16.09660645 -16.75690918 15.18540039 -16.79467773 14.24658203 C-16.86577065 11.96516519 -16.86577065 11.96516519 -18 10 C-17.071875 9.649375 -16.14375 9.29875 -15.1875 8.9375 C-10.54444399 6.9870359 -6.50914246 4.14689392 -2.35546875 1.328125 C-1.57816406 0.88984375 -0.80085938 0.4515625 0 0 Z " fill="#76B2D4" transform="translate(75,76)"/>
<path d="M0 0 C6 6 6 6 6.09765625 8.50390625 C6.08605469 9.51324219 6.07445313 10.52257812 6.0625 11.5625 C6.05347656 12.57441406 6.04445313 13.58632812 6.03515625 14.62890625 C6.02355469 15.41136719 6.01195313 16.19382813 6 17 C0.2902045 16.58221009 -2.60957142 14.42453429 -7 11 C-6.34 10.67 -5.68 10.34 -5 10 C-4.360625 10.33 -3.72125 10.66 -3.0625 11 C-0.8881755 12.35074272 -0.8881755 12.35074272 2 11 C1.67 10.113125 1.34 9.22625 1 8.3125 C0.08777857 5.29076653 -0.18330958 3.11626294 0 0 Z " fill="#225786" transform="translate(121,206)"/>
<path d="M0 0 C0.66 0 1.32 0 2 0 C3.018809 4.38087871 3.28722291 7.04934224 1 11 C-1.34482204 13.71120048 -2.94776706 14.89848289 -6.55078125 15.24609375 C-9.04683325 15.24962423 -11.5104659 15.17402568 -14 15 C-14 14.01 -14 13.02 -14 12 C-13.09507812 11.99613281 -13.09507812 11.99613281 -12.171875 11.9921875 C-6.64832276 11.75423903 -6.64832276 11.75423903 -2.5 8.25 C-1.18724345 5.40569415 -0.36412129 3.09503093 0 0 Z " fill="#12304E" transform="translate(174,108)"/>
<path d="M0 0 C0 0.99 0 1.98 0 3 C-4.09346409 7.08307459 -8.54277718 9.26966106 -14 11 C-14.33 11.99 -14.66 12.98 -15 14 C-16.8125 15.0625 -16.8125 15.0625 -19 16 C-20.11375 16.556875 -20.11375 16.556875 -21.25 17.125 C-21.8275 17.41375 -22.405 17.7025 -23 18 C-23 17.34 -23 16.68 -23 16 C-22.34 15.67 -21.68 15.34 -21 15 C-21.33 14.34 -21.66 13.68 -22 13 C-21.34 13 -20.68 13 -20 13 C-20 12.34 -20 11.68 -20 11 C-18.97519531 10.45730469 -17.95039062 9.91460937 -16.89453125 9.35546875 C-15.53381697 8.63288255 -14.17314196 7.91022238 -12.8125 7.1875 C-12.13896484 6.83107422 -11.46542969 6.47464844 -10.77148438 6.10742188 C-7.11837273 4.16503568 -3.52521488 2.16988955 0 0 Z " fill="#7CC0E0" transform="translate(115,50)"/>
<path d="M0 0 C0.66 0.33 1.32 0.66 2 1 C1.360625 1.433125 0.72125 1.86625 0.0625 2.3125 C-2.26746003 3.91239177 -2.26746003 3.91239177 -3 7 C-1.35 7.33 0.3 7.66 2 8 C2 9.98 2 11.96 2 14 C2.66 14.33 3.32 14.66 4 15 C2.35 15.33 0.7 15.66 -1 16 C-1 14.02 -1 12.04 -1 10 C-2.65 10 -4.3 10 -6 10 C-6 9.01 -6 8.02 -6 7 C-6.99 6.67 -7.98 6.34 -9 6 C-6.12050853 3.76039553 -3.23257974 1.70135776 0 0 Z " fill="#9DD2EA" transform="translate(76,55)"/>
<path d="M0 0 C2.125 0.375 2.125 0.375 4 1 C4 1.99 4 2.98 4 4 C5.65 4 7.3 4 9 4 C9 5.98 9 7.96 9 10 C12.5219721 10.08004482 15.61981469 10.04005702 19 9 C16.22719294 12.08089673 13.93673644 13.68775452 10 15 C10 13.68 10 12.36 10 11 C9.01 10.67 8.02 10.34 7 10 C6.67 8.35 6.34 6.7 6 5 C5.4225 5.2475 4.845 5.495 4.25 5.75 C3.5075 5.8325 2.765 5.915 2 6 C-0.25 4.0625 -0.25 4.0625 -2 2 C-1.34 1.34 -0.68 0.68 0 0 Z " fill="#B7E3F2" transform="translate(66,61)"/>
<path d="M0 0 C0 0.66 0 1.32 0 2 C1.65 2 3.3 2 5 2 C3.50879308 4.98241384 1.22195372 5.51313682 -1.75 6.9375 C-5.6212656 8.80161927 -9.34766226 10.73419789 -13 13 C-13 10 -13 10 -11.35546875 8.28125 C-10.64003906 7.6934375 -9.92460938 7.105625 -9.1875 6.5 C-6.17056027 4.0034828 -6.17056027 4.0034828 -3.36328125 1.28125 C-2 0 -2 0 0 0 Z " fill="#92C9E4" transform="translate(58,61)"/>
<path d="M0 0 C5.28 0 10.56 0 16 0 C16 0.33 16 0.66 16 1 C11.05 1 6.1 1 1 1 C1 2.98 1 4.96 1 7 C0.23046875 9.125 0.23046875 9.125 -0.8125 11 C-1.17730469 11.67160156 -1.54210937 12.34320313 -1.91796875 13.03515625 C-2.27503906 13.68355469 -2.63210937 14.33195312 -3 15 C-3.53625 16.134375 -4.0725 17.26875 -4.625 18.4375 C-6 21 -6 21 -8 22 C-5.60205729 14.55375684 -2.83917644 7.28977735 0 0 Z " fill="#24527C" transform="translate(121,91)"/>
<path d="M0 0 C0.66 0 1.32 0 2 0 C4 3 4 3 4 7 C3.34 7 2.68 7 2 7 C2.99 8.32 3.98 9.64 5 11 C1.21213403 10.4739075 -1.17152224 9.61896089 -4 7 C-4 6.34 -4 5.68 -4 5 C-4.66 4.67 -5.32 4.34 -6 4 C-4.35 3.67 -2.7 3.34 -1 3 C-0.67 2.01 -0.34 1.02 0 0 Z " fill="#B4E1F2" transform="translate(49,73)"/>
<path d="M0 0 C0 0.66 0 1.32 0 2 C-0.99 2.66 -1.98 3.32 -3 4 C-3.73606499 7.56769552 -3.73606499 7.56769552 -4 11 C-4.66 10.34 -5.32 9.68 -6 9 C-6.598125 9.515625 -7.19625 10.03125 -7.8125 10.5625 C-8.534375 11.036875 -9.25625 11.51125 -10 12 C-10.99 11.67 -11.98 11.34 -13 11 C-10.35789091 5.5044131 -6.91690846 0 0 0 Z " fill="#6AA8CC" transform="translate(72,45)"/>
<path d="M0 0 C0.33 0 0.66 0 1 0 C1.14368684 8.71700174 0.71961582 17.31320899 0 26 C-3.63 24.02 -7.26 22.04 -11 20 C-10.34 19.34 -9.68 18.68 -9 18 C-8.21625 18.495 -7.4325 18.99 -6.625 19.5 C-4.21447673 21.16537965 -4.21447673 21.16537965 -2 21 C-1.28674095 14.00399099 -0.6258645 7.00435592 0 0 Z " fill="#1D4B76" transform="translate(128,214)"/>
<path d="M0 0 C2.27816496 2.81534591 3.72159316 5.43004856 5 8.8125 C6.14774114 11.81597585 7.32843214 14.70552089 8.6875 17.625 C10.20683469 21.53186063 10.63491301 24.83800837 11 29 C8.64946704 26.64946704 8.00261624 24.76608582 6.8359375 21.66015625 C6.43632813 20.59732422 6.03671875 19.53449219 5.625 18.43945312 C5.00625 16.76786133 5.00625 16.76786133 4.375 15.0625 C3.95476562 13.95197266 3.53453125 12.84144531 3.1015625 11.69726562 C0 3.38447392 0 3.38447392 0 0 Z " fill="#275175" transform="translate(91,121)"/>
<path d="M0 0 C0.66 0.33 1.32 0.66 2 1 C-1.9700218 5.21814817 -6.30840284 8.61227103 -11 12 C-11.625 10.16015625 -11.625 10.16015625 -12 8 C-8.60044906 3.64432536 -5.10462751 1.73364708 0 0 Z " fill="#549DC9" transform="translate(111,35)"/>
<path d="M0 0 C-4.77513836 4.28115853 -10.36156231 7.03759841 -16 10 C-15.45276317 6.62537285 -14.9451 4.91765 -13 2 C-11.68 2 -10.36 2 -9 2 C-8.360625 1.67 -7.72125 1.34 -7.0625 1 C-4.57270294 -0.20717433 -2.7326975 -0.15181653 0 0 Z " fill="#4588B6" transform="translate(119,29)"/>
<path d="M0 0 C0.99 0.495 0.99 0.495 2 1 C2.19689005 4.27033928 2.38089008 7.54127941 2.5625 10.8125 C2.61857422 11.74126953 2.67464844 12.67003906 2.73242188 13.62695312 C2.78076172 14.51962891 2.82910156 15.41230469 2.87890625 16.33203125 C2.9260376 17.15421143 2.97316895 17.9763916 3.02172852 18.82348633 C3 21 3 21 2 24 C1.34 24 0.68 24 0 24 C0 16.08 0 8.16 0 0 Z " fill="#2F5B82" transform="translate(29,92)"/>
<path d="M0 0 C18.35443038 -0.27531646 18.35443038 -0.27531646 22.5 2.9375 C24 5 24 5 24 7 C23.34 7 22.68 7 22 7 C21.67 6.34 21.34 5.68 21 5 C18.93897765 4.60861322 18.93897765 4.60861322 16.5625 4.5 C12.2212693 4.2212693 12.2212693 4.2212693 10 2 C7.56747339 1.53837573 7.56747339 1.53837573 4.875 1.375 C3.96492187 1.30023438 3.05484375 1.22546875 2.1171875 1.1484375 C1.41851562 1.09945312 0.71984375 1.05046875 0 1 C0 0.67 0 0.34 0 0 Z " fill="#193E62" transform="translate(160,91)"/>
<path d="M0 0 C2.31 0 4.62 0 7 0 C6.07161713 1.31896465 5.13194268 2.62998689 4.1875 3.9375 C3.40439453 5.03384766 3.40439453 5.03384766 2.60546875 6.15234375 C1 8 1 8 -2 9 C-2.33 7.68 -2.66 6.36 -3 5 C-2.34 5 -1.68 5 -1 5 C-0.67 3.35 -0.34 1.7 0 0 Z " fill="#4C89B4" transform="translate(72,45)"/>
<path d="M0 0 C0.66 0 1.32 0 2 0 C2 0.66 2 1.32 2 2 C1.34 2 0.68 2 0 2 C-0.061875 2.763125 -0.12375 3.52625 -0.1875 4.3125 C-1 7 -1 7 -3.5625 8.8125 C-4.366875 9.204375 -5.17125 9.59625 -6 10 C-6.99 9.34 -7.98 8.68 -9 8 C-8 6 -8 6 -6.1875 5.125 C-3.84447898 4.0608235 -3.84447898 4.0608235 -1.875 1.875 C-1.25625 1.25625 -0.6375 0.6375 0 0 Z " fill="#4D8DB8" transform="translate(102,26)"/>
<path d="M0 0 C0.99 0.33 1.98 0.66 3 1 C2.88573491 3.41760876 2.75900339 5.83347218 2.625 8.25 C2.5940625 8.93191406 2.563125 9.61382812 2.53125 10.31640625 C2.30216068 14.24910625 1.80552897 16.38894206 0 20 C0 13.4 0 6.8 0 0 Z " fill="#5DA0C9" transform="translate(59,90)"/>
<path d="M0 0 C-2.66666667 2.66666667 -5.33333333 5.33333333 -8 8 C-9.65 7.01 -11.3 6.02 -13 5 C-12.34 4.67 -11.68 4.34 -11 4 C-10.34 4.33 -9.68 4.66 -9 5 C-8.773125 4.38125 -8.54625 3.7625 -8.3125 3.125 C-6.35752088 -0.04020429 -3.50347766 -1.75173883 0 0 Z " fill="#8DC3DE" transform="translate(49,69)"/>
<path d="M0 0 C0.33 0 0.66 0 1 0 C2.44576815 8.24087846 1.30168453 15.83488792 0 24 C-0.33 24 -0.66 24 -1 24 C-1.02909763 20.75001888 -1.04683161 17.50007143 -1.0625 14.25 C-1.07087891 13.32960938 -1.07925781 12.40921875 -1.08789062 11.4609375 C-1.09111328 10.57148437 -1.09433594 9.68203125 -1.09765625 8.765625 C-1.10289307 7.94868164 -1.10812988 7.13173828 -1.11352539 6.29003906 C-1.00299021 4.06031865 -0.62055567 2.13866245 0 0 Z " fill="#5498C2" transform="translate(60,106)"/>
<path d="M0 0 C0 0.99 0 1.98 0 3 C-1.609375 4.60546875 -1.609375 4.60546875 -3.75 6.1875 C-4.44609375 6.71730469 -5.1421875 7.24710938 -5.859375 7.79296875 C-8 9 -8 9 -12 9 C-11 6 -11 6 -8.25 4.5 C-7.1775 4.005 -6.105 3.51 -5 3 C-3.32376502 2.01612294 -1.65365406 1.02137457 0 0 Z " fill="#86C7E5" transform="translate(115,50)"/>
<path d="M0 0 C0.66 0 1.32 0 2 0 C2 4.95 2 9.9 2 15 C-0.87511449 12.12488551 -0.83614951 8.89517306 -1 5 C-0.5625 2 -0.5625 2 0 0 Z " fill="#3973A1" transform="translate(39,76)"/>
<path d="M0 0 C3.125 0.375 3.125 0.375 6 1 C6 1.66 6 2.32 6 3 C6.66 3 7.32 3 8 3 C7.67 4.32 7.34 5.64 7 7 C4.03 5.35 1.06 3.7 -2 2 C-1.34 1.34 -0.68 0.68 0 0 Z " fill="#2F6796" transform="translate(165,63)"/>
<path d="M0 0 C0.556875 0.226875 1.11375 0.45375 1.6875 0.6875 C1.0275 0.6875 0.3675 0.6875 -0.3125 0.6875 C-0.3125 4.3175 -0.3125 7.9475 -0.3125 11.6875 C-0.6425 11.6875 -0.9725 11.6875 -1.3125 11.6875 C-1.9725 9.0475 -2.6325 6.4075 -3.3125 3.6875 C-4.6325 3.3575 -5.9525 3.0275 -7.3125 2.6875 C-2.88173077 -0.38942308 -2.88173077 -0.38942308 0 0 Z " fill="#4B88B2" transform="translate(128.3125,12.3125)"/>
<path d="M0 0 C0.99 0.33 1.98 0.66 3 1 C2.6875 2.9375 2.6875 2.9375 2 5 C-1 6 -1 6 -4 6 C-4 5.01 -4 4.02 -4 3 C-3.34 3 -2.68 3 -2 3 C-2 2.34 -2 1.68 -2 1 C-1.34 0.67 -0.68 0.34 0 0 Z " fill="#2D6797" transform="translate(123,15)"/>
<path d="M0 0 C0.66 0 1.32 0 2 0 C2 0.66 2 1.32 2 2 C-0.1171875 3.54296875 -0.1171875 3.54296875 -2.875 5.1875 C-3.77992188 5.73792969 -4.68484375 6.28835937 -5.6171875 6.85546875 C-6.40351563 7.23316406 -7.18984375 7.61085937 -8 8 C-8.66 7.67 -9.32 7.34 -10 7 C-6.66740576 2.18625277 -6.66740576 2.18625277 -3.3125 1.25 C-2.549375 1.1675 -1.78625 1.085 -1 1 C-0.67 0.67 -0.34 0.34 0 0 Z " fill="#1B4266" transform="translate(201,179)"/>
<path d="M0 0 C0.66 0.33 1.32 0.66 2 1 C1.67 1.66 1.34 2.32 1 3 C0.34 3 -0.32 3 -1 3 C-0.5875 3.70125 -0.175 4.4025 0.25 5.125 C1 8 1 8 -0.875 11.3125 C-1.926875 12.6428125 -1.926875 12.6428125 -3 14 C-4.07735006 10.76794982 -3.92640423 9.66422565 -3.1875 6.4375 C-3.01605469 5.65246094 -2.84460938 4.86742187 -2.66796875 4.05859375 C-2 2 -2 2 0 0 Z " fill="#5B9BC3" transform="translate(70,47)"/>
<path d="M0 0 C0.99 0.33 1.98 0.66 3 1 C3.144375 1.78375 3.28875 2.5675 3.4375 3.375 C3.87798925 5.96421018 3.87798925 5.96421018 5 8 C2.03824877 7.38722388 0.61941217 6.74627478 -2 5 C-1.34 3.35 -0.68 1.7 0 0 Z " fill="#17426C" transform="translate(146,30)"/>
<path d="M0 0 C1.423125 0.495 1.423125 0.495 2.875 1 C5.77062452 2.10159191 5.77062452 2.10159191 8 2 C8 2.66 8 3.32 8 4 C7.34 4 6.68 4 6 4 C6 4.66 6 5.32 6 6 C3.0625 5.1875 3.0625 5.1875 0 4 C-0.33 3.01 -0.66 2.02 -1 1 C-0.67 0.67 -0.34 0.34 0 0 Z " fill="#C6ECF7" transform="translate(64,64)"/>
<path d="M0 0 C1.32 0.66 2.64 1.32 4 2 C0.04 3.98 0.04 3.98 -4 6 C-4 5.34 -4 4.68 -4 4 C-4.99 3.67 -5.98 3.34 -7 3 C-3.75 1.375 -3.75 1.375 0 0 Z " fill="#92D0EB" transform="translate(89,63)"/>
<path d="M0 0 C-3.96 1.98 -7.92 3.96 -12 6 C-12 4 -12 4 -10.375 1.9375 C-7.19350539 -0.65792982 -3.84280733 -1.92140367 0 0 Z " fill="#ACDCEF" transform="translate(63,64)"/>
<path d="M0 0 C2.25998595 3.59462331 2.20868087 6.56595675 2.125 10.75 C2.10695312 11.92046875 2.08890625 13.0909375 2.0703125 14.296875 C2.03550781 15.63492188 2.03550781 15.63492188 2 17 C1.67 17 1.34 17 1 17 C1 13.7 1 10.4 1 7 C0.34 7 -0.32 7 -1 7 C-0.67 4.69 -0.34 2.38 0 0 Z " fill="#275A87" transform="translate(37,116)"/>
<path d="M0 0 C0.928125 0.350625 1.85625 0.70125 2.8125 1.0625 C5.9802953 2.32382628 5.9802953 2.32382628 9 1 C9.33 2.32 9.66 3.64 10 5 C9.01 5.33 8.02 5.66 7 6 C5.17578125 5.0390625 5.17578125 5.0390625 3.3125 3.625 C2.68988281 3.16351563 2.06726563 2.70203125 1.42578125 2.2265625 C0.95527344 1.82179687 0.48476562 1.41703125 0 1 C0 0.67 0 0.34 0 0 Z " fill="#1F507C" transform="translate(114,216)"/>
<path d="M0 0 C0.33 1.32 0.66 2.64 1 4 C0.34 4 -0.32 4 -1 4 C-0.01 5.32 0.98 6.64 2 8 C-0.375 7.75 -0.375 7.75 -3 7 C-4.3125 4.9375 -4.3125 4.9375 -5 3 C-3.35 3 -1.7 3 0 3 C0 2.01 0 1.02 0 0 Z " fill="#A2D5EB" transform="translate(52,76)"/>
<path d="M0 0 C3.99500618 1.3697164 6.80009492 3.25722422 10 6 C9.67 6.66 9.34 7.32 9 8 C5.7 6.02 2.4 4.04 -1 2 C-0.67 1.34 -0.34 0.68 0 0 Z " fill="#254564" transform="translate(118,232)"/>
<path d="M0 0 C2.97 0 5.94 0 9 0 C7.68 0.33 6.36 0.66 5 1 C5 1.66 5 2.32 5 3 C3.35 3.66 1.7 4.32 0 5 C0 3.35 0 1.7 0 0 Z " fill="#2E628E" transform="translate(122,92)"/>
<path d="M0 0 C0.99 0 1.98 0 3 0 C2.67 1.65 2.34 3.3 2 5 C0.68 5.33 -0.64 5.66 -2 6 C-1.34 4.02 -0.68 2.04 0 0 Z " fill="#DFF6FA" transform="translate(73,72)"/>
<path d="M0 0 C0.99 0.33 1.98 0.66 3 1 C1.86500606 4.29148243 1.00716624 4.9959869 -2.125 6.75 C-3.548125 7.36875 -3.548125 7.36875 -5 8 C-3.98379995 4.95139986 -3.22608429 4.13333078 -1 2 C-0.67 1.34 -0.34 0.68 0 0 Z " fill="#1B3856" transform="translate(222,178)"/>
<path d="M0 0 C4.12989477 4.26311718 4.61271765 7.28758534 5 13 C2.94876752 10.94876752 2.35852882 9.72994937 1.375 7.0625 C0.98441406 6.02802734 0.98441406 6.02802734 0.5859375 4.97265625 C0 3 0 3 0 0 Z " fill="#234B6D" transform="translate(97,137)"/>
<path d="M0 0 C0 3.61029169 -0.96092582 6.55806676 -2 10 C-2.99 10 -3.98 10 -5 10 C-4.300926 6.22500037 -2.74803773 2.74803773 0 0 Z " fill="#4384B2" transform="translate(104,29)"/>
<path d="M0 0 C1 2 1 2 0.25 5.4375 C-0.8627673 8.60888681 -1.41725594 10.00424323 -4 12 C-3.33501617 7.61110675 -1.81242323 4.0188515 0 0 Z " fill="#548AB0" transform="translate(123,114)"/>
<path d="M0 0 C2 4 2 4 1.25 7.6875 C0 11 0 11 -2 12 C-1.34 8.04 -0.68 4.08 0 0 Z " fill="#1C466D" transform="translate(175,108)"/>
<path d="M0 0 C0.99 0.495 0.99 0.495 2 1 C1.01 1.495 1.01 1.495 0 2 C0 1.34 0 0.68 0 0 Z M-1 2 C0.32 3.65 1.64 5.3 3 7 C1.02 7 -0.96 7 -3 7 C-3.33 6.34 -3.66 5.68 -4 5 C-3.34 5 -2.68 5 -2 5 C-1.67 4.01 -1.34 3.02 -1 2 Z " fill="#B7E0F0" transform="translate(58,79)"/>
<path d="M0 0 C0.66 0.33 1.32 0.66 2 1 C-1.465 3.97 -1.465 3.97 -5 7 C-5.33 6.34 -5.66 5.68 -6 5 C-2.25 1.125 -2.25 1.125 0 0 Z " fill="#6CA9CE" transform="translate(84,71)"/>
<path d="M0 0 C0.66 0.33 1.32 0.66 2 1 C1.1875 2.9375 1.1875 2.9375 0 5 C-0.99 5.33 -1.98 5.66 -3 6 C-2.625 3.5625 -2.625 3.5625 -2 1 C-1.34 0.67 -0.68 0.34 0 0 Z " fill="#4D95C3" transform="translate(142,70)"/>
<path d="M0 0 C0.99 0.33 1.98 0.66 3 1 C2.34 3.97 1.68 6.94 1 10 C0.67 10 0.34 10 0 10 C0 6.7 0 3.4 0 0 Z " fill="#64A8CF" transform="translate(59,90)"/>
<path d="M0 0 C0 0.66 0 1.32 0 2 C-1.95927063 3.7143618 -3.95880212 5.38405168 -6 7 C-6.33 5.68 -6.66 4.36 -7 3 C-2.25 0 -2.25 0 0 0 Z " fill="#7BB2D2" transform="translate(72,45)"/>
<path d="M0 0 C0.66 0 1.32 0 2 0 C2.33 2.31 2.66 4.62 3 7 C2.01 7.33 1.02 7.66 0 8 C0 5.36 0 2.72 0 0 Z " fill="#1A4267" transform="translate(30,143)"/>
<path d="M0 0 C-0.66 1.32 -1.32 2.64 -2 4 C-3.32 4 -4.64 4 -6 4 C-6.33 3.01 -6.66 2.02 -7 1 C-4 0 -4 0 0 0 Z " fill="#4D90BD" transform="translate(100,39)"/>
<path d="M0 0 C0.66 0.33 1.32 0.66 2 1 C-0.97 3.475 -0.97 3.475 -4 6 C-4.66 5.67 -5.32 5.34 -6 5 C-3.375 1.125 -3.375 1.125 0 0 Z " fill="#326B9B" transform="translate(114,21)"/>
</svg>
