<svg xmlns="http://www.w3.org/2000/svg" version="1.2" viewBox="0 0 4501 4501" preserveAspectRatio="xMidYMid meet" baseProfile="tiny-ps" xml:space="preserve"><title>Magrolabs logo</title>
<path d="M0 0 C1.64032393 -0.00187048 3.28064742 -0.00417212 4.9209702 -0.00686532 C9.40917961 -0.01296039 13.89737033 -0.01285244 18.38558292 -0.01167095 C23.23371223 -0.01146636 28.08183563 -0.01699121 32.92996216 -0.02172852 C42.42098109 -0.03002293 51.91199381 -0.03278281 61.40301606 -0.03334089 C69.12005004 -0.03381661 76.83708197 -0.03587411 84.5541153 -0.03904152 C106.44845187 -0.04784461 128.34278355 -0.05246141 150.23712191 -0.05171105 C151.41661399 -0.05167109 152.59610607 -0.05163113 153.81134033 -0.05158997 C155.58274631 -0.05152864 155.58274631 -0.05152864 157.38993827 -0.05146609 C176.52723789 -0.05105966 195.66451785 -0.06062919 214.80181178 -0.07472833 C234.46667317 -0.08910149 254.13152496 -0.09599801 273.79639173 -0.09513456 C284.83076894 -0.09480292 295.86512551 -0.0975353 306.89949799 -0.10831261 C316.29425217 -0.11742994 325.68897636 -0.11958271 335.08373305 -0.11280318 C339.87328816 -0.10954428 344.66278576 -0.10945853 349.45233536 -0.11815643 C353.84437442 -0.12605016 358.23631066 -0.12456083 362.62834731 -0.1158723 C364.20971414 -0.11434363 365.79108875 -0.11612938 367.37244639 -0.12173238 C389.96234658 -0.1964144 407.47170748 3.6265149 424.46954346 19.25871277 C435.69871597 31.01110837 440.9912269 46.0349389 441.28204346 62.13371277 C441.30073486 62.80821472 441.31942627 63.48271667 441.33868408 64.17765808 C441.14752664 79.84521594 433.55838031 96.23073068 428.66050959 110.86117029 C427.5472689 114.18987083 426.43930243 117.52032698 425.3306427 120.85055542 C423.16181612 127.36264039 420.98823976 133.87313021 418.81303604 140.38308744 C416.2654908 148.00804383 413.72286508 155.63463787 411.18042718 163.26129843 C406.62907442 176.91367141 402.07349886 190.56463147 397.51544189 204.21476746 C393.12490784 217.36323572 388.73703259 230.51258688 384.35235596 243.66300964 C384.08353191 244.46925903 383.81470786 245.27550841 383.53773762 246.10618959 C382.99592237 247.73119265 382.45410732 249.35619578 381.91229247 250.98119897 C381.51105761 252.18457421 381.51105761 252.18457421 381.101717 253.41226006 C380.8347668 254.21289466 380.5678166 255.01352926 380.29277701 255.83842551 C376.07616499 268.48451982 371.85726552 281.12985112 367.63806609 293.77508237 C366.1264505 298.30555391 364.61510877 302.8361167 363.10397036 307.36674742 C360.69704264 314.58301554 358.28905712 321.79892911 355.87921937 329.014226 C354.78313156 332.29606492 353.6875683 335.57807578 352.59300041 338.86042213 C347.84246836 353.10482405 343.03767809 367.32876933 338.1707788 381.53373297 C329.76328754 406.07851192 321.55320151 430.68813769 313.35734368 455.30425851 C311.14586941 461.94615334 308.93253887 468.58742924 306.7191752 475.22869463 C302.63446068 487.48514794 298.55109122 499.74204895 294.4684906 511.99920654 C288.88475784 528.76313754 283.29898796 545.52638929 277.71271282 562.28947324 C275.09526975 570.14380665 272.47792378 577.99817242 269.86060333 585.85254669 C269.59877328 586.63827788 269.33694322 587.42400906 269.06717892 588.23355028 C262.8622327 606.85417573 256.65823742 625.47511798 250.45440674 644.09611511 C250.18365188 644.90879335 249.91289701 645.72147158 249.63393746 646.55877643 C245.51660233 658.91707617 241.39931722 671.27539258 237.28204346 683.63371277 C232.89128409 696.81292145 228.5005063 709.99212399 224.10968018 723.17131042 C223.83908409 723.98351329 223.56848799 724.79571615 223.28969202 725.63253122 C217.09475922 744.22680372 210.89954763 762.82098327 204.70348358 781.41487885 C204.31137397 782.59156916 204.31137397 782.59156916 203.91134296 783.79203099 C201.29941304 791.63020792 198.68743533 799.46836892 196.07538662 807.30650626 C190.49951398 824.03840967 184.92445307 840.77058287 179.35112648 857.50333454 C175.28730894 869.70405653 171.22241784 881.90442041 167.1564666 894.10443151 C164.96250241 900.68759785 162.76901132 907.27092082 160.5769558 913.85472298 C153.04538223 936.47441308 145.51120876 959.09182141 137.7775116 981.64334106 C129.62996711 1005.40238963 121.71381283 1029.23808746 113.78837097 1053.07195985 C111.79793287 1059.05714997 109.80561119 1065.04171323 107.81346157 1071.02633383 C103.99652068 1082.49288062 100.1805793 1093.95975968 96.36531731 1105.42686519 C90.31470542 1123.61238871 84.26048947 1141.79671097 78.20509143 1159.9806413 C76.90961926 1163.87086621 75.61417916 1167.7611018 74.31873566 1171.65133625 C73.79689368 1173.21843205 73.27505152 1174.78552779 72.75320918 1176.35262347 C72.49417667 1177.1304997 72.23514416 1177.90837593 71.96826217 1178.70982417 C71.18066255 1181.07498625 70.39305948 1183.44014718 69.60545589 1185.80530794 C63.71131126 1203.50536472 57.81761538 1221.20557089 51.92437744 1238.90592957 C51.5213567 1240.1163968 51.5213567 1240.1163968 51.11019413 1241.35131792 C42.3735315 1267.59186468 33.64097494 1293.833776 24.91017417 1320.07627365 C15.9025913 1347.15061113 6.88999831 1374.22327618 -2.12854611 1401.29396441 C-3.40230102 1405.1173697 -4.67599441 1408.94079547 -5.9496479 1412.76423454 C-6.32553826 1413.89263104 -6.32553826 1413.89263104 -6.70902236 1415.04382342 C-10.72985598 1427.11460203 -14.74536339 1439.1871459 -18.75878307 1451.26039132 C-22.78896671 1463.38373015 -26.82457715 1475.50525145 -30.86570346 1487.6249472 C-33.05178493 1494.18171097 -35.2354708 1500.73924821 -37.41223335 1507.29911232 C-39.40710467 1513.3100432 -41.40896912 1519.3185985 -43.41627879 1525.3253867 C-44.13866099 1527.49112097 -44.85853192 1529.65769495 -45.57554423 1531.82521296 C-55.15985955 1560.78608312 -66.83735871 1587.38312002 -95.21795654 1602.13371277 C-109.93415521 1609.29762135 -124.407922 1611.58555195 -140.63861084 1611.52139282 C-142.3729852 1611.52557288 -144.10735683 1611.53105406 -145.84172344 1611.53771263 C-150.57597013 1611.55209752 -155.3100417 1611.54794442 -160.0442977 1611.54054582 C-165.16230981 1611.53579923 -170.28028484 1611.54833706 -175.39828491 1611.55856323 C-185.41195383 1611.57572656 -195.42555993 1611.57659647 -205.43923974 1611.57135033 C-213.58003389 1611.56730331 -221.72080952 1611.56875849 -229.86160278 1611.57409859 C-231.02173974 1611.57484701 -232.18187669 1611.57559543 -233.37716931 1611.57636653 C-235.73421487 1611.57789806 -238.09126042 1611.57943641 -240.44830596 1611.5809815 C-262.53273063 1611.59469726 -284.61711984 1611.58927502 -306.70154369 1611.57779629 C-326.89339876 1611.56786173 -347.08516223 1611.5808101 -367.27700317 1611.60473048 C-388.02790475 1611.62912734 -408.77876367 1611.63872809 -429.5296793 1611.63207775 C-441.17265551 1611.62858725 -452.81556126 1611.63080665 -464.45852661 1611.64832878 C-474.3681994 1611.66305793 -484.27775207 1611.66367663 -494.18742251 1611.64625787 C-499.24021347 1611.63775205 -504.29278991 1611.6355883 -509.34556961 1611.65090942 C-513.97686316 1611.66477839 -518.60775886 1611.65996497 -523.23902953 1611.64067019 C-524.90844282 1611.63691671 -526.57788816 1611.63981322 -528.24727285 1611.65028184 C-545.29490226 1611.74952934 -560.32052216 1607.9054612 -573.03045654 1595.88371277 C-583.78847678 1584.38510418 -589.3446595 1571.05506759 -589.59295654 1555.44621277 C-589.63033936 1554.60509949 -589.66772217 1553.76398621 -589.70623779 1552.89738464 C-589.78371867 1547.05618775 -588.73637615 1541.87061442 -587.0325079 1536.30888367 C-586.80926879 1535.56636305 -586.58602968 1534.82384244 -586.35602575 1534.0588212 C-583.93207353 1526.06530667 -581.31150778 1518.13856482 -578.66169739 1510.21769714 C-578.11850761 1508.58653474 -577.57558047 1506.95528485 -577.03288931 1505.32395649 C-575.55748462 1500.89139635 -574.07839444 1496.46007399 -572.59863746 1492.02896523 C-570.99640121 1487.22888793 -569.3976592 1482.42764682 -567.79846191 1477.6265564 C-564.66935844 1468.23422282 -561.53706866 1458.84295488 -558.40367676 1449.45205122 C-554.74112456 1438.47483737 -551.08174458 1427.49656685 -547.4224705 1416.51825988 C-540.87947246 1396.88876576 -534.33358322 1377.26023699 -527.78607178 1357.63224792 C-521.46294718 1338.67691329 -515.1418947 1319.72088938 -508.82318115 1300.76408386 C-508.43514 1299.59992046 -508.04709885 1298.43575705 -507.64729888 1297.23631597 C-507.25986919 1296.07398655 -506.8724395 1294.91165713 -506.47326952 1293.71410561 C-499.24652709 1272.03318349 -492.01779757 1250.35292433 -484.78817116 1228.67296374 C-482.2504744 1221.06285964 -479.71334659 1213.452566 -477.17640877 1205.84220886 C-474.06844079 1196.51899625 -470.95930417 1187.19617419 -467.84882761 1177.87379819 C-466.26865589 1173.13781715 -464.68889628 1168.4017 -463.11047173 1163.66513634 C-456.97523846 1145.25551371 -450.79808747 1126.86204667 -444.50737 1108.50492859 C-436.46704179 1085.03630934 -428.62990842 1061.5004182 -420.79325328 1037.96315655 C-418.58178017 1031.32126521 -416.36845079 1024.6799928 -414.15508829 1018.0387309 C-410.07037376 1005.78227759 -405.98700431 993.52537659 -401.90440369 981.26821899 C-396.32067093 964.50428799 -390.73490105 947.74103625 -385.14862591 930.9779523 C-382.53118283 923.12361889 -379.91383686 915.26925312 -377.29651642 907.41487885 C-377.03468636 906.62914766 -376.7728563 905.84341647 -376.503092 905.03387525 C-370.29814578 886.41324981 -364.0941505 867.79230756 -357.89031982 849.17131042 C-357.48418753 847.95229307 -357.48418753 847.95229307 -357.06985054 846.70864911 C-352.95251541 834.35034936 -348.83523031 821.99203296 -344.71795654 809.63371277 C-340.32719718 796.45450409 -335.93641938 783.27530155 -331.54559326 770.09611511 C-331.27499717 769.28391225 -331.00440108 768.47170939 -330.72560511 767.63489432 C-324.5306723 749.04062182 -318.33546071 730.44644227 -312.13939667 711.85254669 C-311.87799026 711.06808648 -311.61658386 710.28362627 -311.34725605 709.47539454 C-308.73532613 701.63721761 -306.12334841 693.79905662 -303.51129971 685.96091927 C-297.93542706 669.22901587 -292.36036616 652.49684267 -286.78703956 635.764091 C-282.72322203 623.563369 -278.65833093 611.36300512 -274.59237969 599.16299403 C-272.3984155 592.57982769 -270.20492435 585.99650474 -268.01286888 579.41270256 C-260.13114982 555.7414094 -252.2305467 532.07852612 -244.14002101 508.47768111 C-237.45440364 488.97034317 -230.9473236 469.40460158 -224.45157671 449.83336651 C-222.69972483 444.55654127 -220.94581698 439.28039942 -219.1920929 434.00419617 C-216.55774387 426.07809424 -213.92393721 418.15181249 -211.29079287 410.22531027 C-206.12386006 394.67168132 -200.95183234 379.11975036 -195.77798462 363.56842041 C-194.95823908 361.10439734 -194.13849374 358.64037421 -193.31874859 356.17635101 C-191.66128927 351.19434971 -190.00380074 346.21235813 -188.34629416 341.23037255 C-184.11408171 328.50953358 -179.88203677 315.78863893 -175.65057373 303.06755066 C-175.43882802 302.43098457 -175.22708231 301.79441848 -175.00892006 301.13856251 C-168.11987792 280.42802878 -161.23787206 259.71516437 -154.35907572 239.00122561 C-147.0521188 216.99812983 -139.73614778 194.99804784 -132.41105831 173.00098044 C-128.03988257 159.87341545 -123.67596029 146.74348567 -119.32150047 133.61036629 C-116.34191813 124.62611889 -113.35349113 115.6448445 -110.35816307 106.66583454 C-108.63353009 101.49506575 -106.91276941 96.32309506 -105.20261955 91.14751625 C-103.63413012 86.40093616 -102.05436716 81.65825911 -100.46595679 76.91830964 C-99.89676227 75.21338988 -99.33154442 73.50713554 -98.77096869 71.79936253 C-89.84889262 44.64261252 -76.74218017 22.52454187 -50.59295654 8.94621277 C-34.46798062 0.88372481 -17.73621468 -0.0192382 0 0 Z " fill="#000000" transform="translate(2907.2179565429688,1444.8662872314453)"/>
<path d="M0 0 C1.64621582 -0.00231066 3.29243061 -0.0054912 4.93864328 -0.00945449 C9.41525075 -0.01772781 13.89177188 -0.0137116 18.36837947 -0.00748205 C23.21434197 -0.0029278 28.06029037 -0.00995589 32.90625 -0.01544189 C42.38007785 -0.02430539 51.8538739 -0.02242767 61.32770296 -0.01661661 C69.02982497 -0.01208891 76.7319381 -0.011492 84.43406105 -0.01366425 C85.53273359 -0.01397071 86.63140612 -0.01427718 87.76337177 -0.01459293 C89.99567872 -0.01523242 92.22798567 -0.01588084 94.46029261 -0.01653811 C115.36012304 -0.02223228 136.25993589 -0.01569745 157.15976343 -0.00493738 C175.07586284 0.00400105 192.99193633 0.00244191 210.90803528 -0.0067749 C231.74077652 -0.01748722 252.57350239 -0.02168698 273.40624601 -0.01555037 C275.6291509 -0.01491331 277.85205581 -0.01428457 280.07496071 -0.01366425 C281.16852753 -0.01335569 282.26209436 -0.01304714 283.38879957 -0.01272924 C291.07932461 -0.01100547 298.76983986 -0.01391047 306.46036339 -0.01862335 C315.83560715 -0.0242427 325.21081744 -0.02269341 334.58605739 -0.01206186 C339.3654017 -0.00681993 344.14469027 -0.00472319 348.92403412 -0.01136017 C353.30529951 -0.01735219 357.68645787 -0.01399124 362.06771366 -0.00340506 C363.64619005 -0.00118481 365.22467562 -0.00227612 366.80314603 -0.00715664 C388.1089175 -0.06794107 406.3550209 3.6492788 422.40144348 18.41412354 C434.10095179 30.83498881 439.30306641 45.26326296 439.61628723 62.06646729 C439.64327698 62.91837646 439.67026672 63.77028564 439.69807434 64.64801025 C439.66439155 70.3976085 438.53686748 75.57205904 436.86886501 81.04914093 C436.53498491 82.16302631 436.53498491 82.16302631 436.19435975 83.29941443 C433.73890222 91.41909479 431.07443485 99.46759703 428.38363647 107.51165771 C427.82807225 109.1799433 427.27277067 110.84831638 426.71770519 112.51676798 C425.20809652 117.05194245 423.69480029 121.58587867 422.18083918 126.11960173 C420.54179335 131.0301097 418.90624047 135.94178106 417.27023315 140.853302 C414.0689395 150.46220684 410.86445882 160.07004587 407.65887678 169.67752081 C403.91236554 180.90661378 400.16902531 192.13676303 396.42579161 203.3669489 C389.73305069 223.44567172 383.03741826 243.52342911 376.34016418 263.60064697 C369.87153144 282.99250493 363.40497149 302.38505242 356.94075012 321.77838135 C356.54374799 322.96942771 356.14674585 324.16047408 355.73771334 325.38761276 C355.3413386 326.57677734 354.94496386 327.76594192 354.53657776 328.9911418 C347.14448202 351.1681237 339.75039954 373.34444277 332.35541959 395.52046308 C329.75911259 403.30639707 327.163375 411.09252076 324.56782722 418.87870789 C321.38849361 428.41601766 318.20799225 437.9529372 315.02614892 447.48940998 C313.40952175 452.33475519 311.79330826 457.18023706 310.17842865 462.02616501 C303.96007362 480.68511384 297.70208668 499.32870349 291.32598877 517.93438721 C283.29122222 541.38573519 275.46000798 564.90447522 267.62908371 588.42452429 C265.41761068 595.06641536 263.20428139 601.70768751 260.99091898 608.34894915 C256.90620445 620.60540246 252.822835 632.86230347 248.74023438 645.11946106 C243.15650162 661.88339206 237.57073174 678.64664381 231.9844566 695.40972775 C229.36701352 703.26406116 226.74966755 711.11842693 224.13234711 718.97280121 C223.87051705 719.75853239 223.60868699 720.54426358 223.33892269 721.3538048 C217.13397647 739.97443025 210.92998119 758.59537249 204.72615051 777.21636963 C204.45539565 778.02904786 204.18464079 778.8417261 203.90568123 779.67903095 C199.7883461 792.03733069 195.67106099 804.3956471 191.55378723 816.75396729 C187.16302787 829.93317596 182.77225007 843.1123785 178.38142395 856.29156494 C178.11082786 857.1037678 177.84023177 857.91597067 177.5614358 858.75278573 C171.36650299 877.34705823 165.1712914 895.94123779 158.97522736 914.53513336 C158.58311775 915.71182368 158.58311775 915.71182368 158.18308673 916.91228551 C155.57115682 924.75046244 152.9591791 932.58862344 150.34713039 940.42676078 C144.77125775 957.15866418 139.19619684 973.89083739 133.62287025 990.62358905 C129.55905272 1002.82431105 125.49416162 1015.02467493 121.42821038 1027.22468603 C119.23424619 1033.80785237 117.04075504 1040.39117531 114.84869957 1046.97497749 C106.95689616 1070.67655729 99.0460554 1094.36968942 90.9455633 1118.00086414 C84.41486229 1137.05655809 78.05453945 1156.16778464 71.71012235 1175.28616869 C70.01962743 1180.37894531 68.32706501 1185.47103478 66.63468933 1190.56318665 C64.09292285 1198.21153051 61.55170102 1205.86005491 59.01114635 1213.50880139 C54.02606515 1228.51690201 49.03587618 1243.52330035 44.04386902 1258.52909851 C43.25270588 1260.90737433 42.46154295 1263.28565022 41.67038023 1265.66392618 C40.07079695 1270.47229913 38.47118452 1275.28066238 36.87155414 1280.08901966 C32.78827384 1292.36305692 28.70517057 1304.63715303 24.62263489 1316.91143799 C24.21396432 1318.14011366 23.80529376 1319.36878934 23.38423924 1320.63469761 C16.73707705 1340.62030116 10.09750552 1360.60841938 3.46035536 1380.59734977 C-3.38365297 1401.20858544 -10.23684723 1421.81675084 -17.09827578 1442.42219394 C-21.31590539 1455.08911741 -25.52628422 1467.75840284 -29.72719164 1480.43088215 C-32.60164727 1489.0997589 -35.48495337 1497.76565979 -38.37515728 1506.42929865 C-40.03903237 1511.41779472 -41.6990404 1516.4074877 -43.34842682 1521.40079498 C-44.86139723 1525.98084075 -46.38565705 1530.55697293 -47.91855152 1535.13038742 C-48.46755728 1536.77474259 -49.01259265 1538.4204306 -49.55297475 1540.06763989 C-54.2857168 1554.48088237 -59.77866718 1568.74231119 -69.94621277 1580.25396729 C-70.96134949 1581.48179932 -70.96134949 1581.48179932 -71.99699402 1582.73443604 C-84.9810576 1597.97860304 -104.23205377 1607.94643839 -123.94621277 1611.25396729 C-126.32755913 1611.34765239 -128.71128078 1611.38660427 -131.09446526 1611.39098167 C-132.16258615 1611.39495941 -132.16258615 1611.39495941 -133.25228524 1611.39901751 C-135.64464901 1611.406693 -138.0369613 1611.40726902 -140.42933655 1611.40786743 C-142.15950339 1611.41188322 -143.88966929 1611.41632164 -145.61983407 1611.42114699 C-150.37964001 1611.43310557 -155.13943582 1611.4387593 -159.89925385 1611.44332814 C-165.03106856 1611.44928702 -170.16287118 1611.46089623 -175.29467773 1611.47161865 C-187.69173269 1611.49613726 -200.08879165 1611.51076961 -212.48586339 1611.52367872 C-215.98811999 1611.52739124 -219.49037619 1611.53136443 -222.99263239 1611.53543139 C-244.74656371 1611.56066999 -266.50049567 1611.58272061 -288.2544384 1611.59515953 C-293.29297259 1611.59808918 -298.33150676 1611.60105084 -303.37004089 1611.60406494 C-305.24847088 1611.60518402 -305.24847088 1611.60518402 -307.16484894 1611.6063257 C-327.44316727 1611.61897455 -347.72139783 1611.65219156 -367.99967514 1611.69386677 C-388.82490498 1611.73631472 -409.65008992 1611.75985793 -430.4753629 1611.76508009 C-442.16550342 1611.7684911 -453.85550681 1611.78020968 -465.54560471 1611.81318283 C-475.50335948 1611.84122383 -485.46094901 1611.85216488 -495.4187402 1611.84098737 C-500.49608342 1611.83581102 -505.57308079 1611.83862098 -510.65037346 1611.86345291 C-515.30681677 1611.88603561 -519.9626676 1611.88513587 -524.61912192 1611.86624904 C-526.29554869 1611.86346162 -527.97201643 1611.86897687 -529.64837764 1611.88406198 C-547.65754678 1612.03609386 -561.63017294 1607.36094777 -575.28605652 1595.16412354 C-586.99998642 1583.09045683 -591.17906367 1567.17064121 -591.44230652 1550.79693604 C-590.34243586 1535.39145221 -583.21005627 1519.63256456 -578.36076355 1505.14117432 C-577.48546596 1502.51615779 -576.61152539 1499.89068997 -575.73751831 1497.26524353 C-573.61681833 1490.89753937 -571.4913698 1484.53143023 -569.36429246 1478.16585393 C-566.87271898 1470.70881726 -564.38606767 1463.25014211 -561.89960288 1455.79140078 C-557.44807874 1442.43851353 -552.9923323 1429.08703917 -548.53410339 1415.73638916 C-544.2405754 1402.87893623 -539.94970463 1390.02060099 -535.66203308 1377.16119385 C-535.26775799 1375.97870273 -535.26775799 1375.97870273 -534.86551775 1374.77232291 C-534.33573609 1373.18342066 -533.80595465 1371.59451833 -533.27617341 1370.00561594 C-533.01461872 1369.22117145 -532.75306404 1368.43672696 -532.48358345 1367.62851143 C-532.2225529 1366.84563576 -531.96152235 1366.06276009 -531.69258178 1365.25616092 C-527.56822035 1352.88681942 -523.44157174 1340.51824084 -519.31462357 1328.14976219 C-517.83651668 1323.71981522 -516.35868301 1319.28977722 -514.88105257 1314.85967131 C-512.52726643 1307.80283008 -510.17242118 1300.74634387 -507.81572826 1293.6904728 C-506.743945 1290.48154301 -505.67268395 1287.27244212 -504.6024189 1284.06300545 C-499.9074853 1269.98548185 -495.15691772 1255.92886779 -490.34706347 1241.89029317 C-481.9355872 1217.33338188 -473.72140458 1192.71165771 -465.52151317 1168.08342206 C-463.31003884 1161.44152706 -461.09670824 1154.80025099 -458.88334452 1148.15898542 C-454.79862999 1135.90253211 -450.71526054 1123.64563111 -446.63265991 1111.38847351 C-441.04892716 1094.62454251 -435.46315728 1077.86129076 -429.87688214 1061.09820682 C-427.25943906 1053.24387341 -424.64209309 1045.38950764 -422.02477264 1037.53513336 C-421.63202756 1036.35653658 -421.63202756 1036.35653658 -421.23134823 1035.15412977 C-415.02640201 1016.53350432 -408.82240673 997.91256208 -402.61857605 979.29156494 C-402.21244375 978.07254759 -402.21244375 978.07254759 -401.79810677 976.82890362 C-397.68077164 964.47060388 -393.56348653 952.11228747 -389.44621277 939.75396729 C-385.0554534 926.57475861 -380.66467561 913.39555607 -376.27384949 900.21636963 C-376.0032534 899.40416677 -375.73265731 898.59196391 -375.45386133 897.75514884 C-369.25892853 879.16087634 -363.06371694 860.56669679 -356.86765289 841.97280121 C-356.47554329 840.79611089 -356.47554329 840.79611089 -356.07551227 839.59564906 C-353.46358235 831.75747213 -350.85160464 823.91931113 -348.23955593 816.08117379 C-342.66368329 799.34927039 -337.08862238 782.61709718 -331.51529579 765.88434552 C-327.45147825 753.68362352 -323.38658715 741.48325964 -319.32063591 729.28324854 C-317.12667172 722.7000822 -314.93318067 716.11675922 -312.74112511 709.53295708 C-305.21317636 686.92415642 -297.68289611 664.3175231 -289.95315552 641.77677917 C-281.96633011 618.48581148 -274.19684111 595.12287578 -266.42310539 571.76008449 C-264.19751896 565.07166635 -261.97002488 558.3838839 -259.74247252 551.6961203 C-255.88315709 540.10922631 -252.02489111 528.52198323 -248.16740131 516.93448134 C-242.04908104 498.55570627 -235.92786128 480.17789788 -229.80575737 461.80038286 C-227.43885394 454.69530763 -225.07203238 447.59020512 -222.70519924 440.48510647 C-222.44243288 439.69629887 -222.17966652 438.90749126 -221.90893755 438.0947804 C-215.6834008 419.4060911 -209.45855449 400.71717186 -203.23405457 382.02813721 C-202.96238439 381.21245151 -202.69071421 380.39676582 -202.41081161 379.55636238 C-196.06292077 360.49687458 -189.71567346 341.43717267 -183.36979675 322.37701416 C-182.95929348 321.14404743 -182.95929348 321.14404743 -182.54049721 319.88617228 C-180.33357552 313.25755784 -178.12667521 306.62893628 -175.91978079 300.00031276 C-166.81042269 272.63952347 -157.69802565 245.27974788 -148.582151 217.92112902 C-147.29436109 214.05619492 -146.00661019 210.19124784 -144.71888542 206.32629204 C-144.46552555 205.56586365 -144.21216568 204.80543526 -143.95112823 204.02196359 C-139.88730611 191.82457785 -135.82673871 179.62611102 -131.76747155 167.42720874 C-127.69027888 155.17462583 -123.60984733 142.92312548 -119.52612627 130.67271686 C-117.1051153 123.40979053 -114.68660494 116.14604297 -112.27175537 108.88106565 C-110.4636153 103.44228374 -108.65070915 98.00509984 -106.83602612 92.56849795 C-106.10661826 90.38084474 -105.37871419 88.19268939 -104.65253473 86.00396241 C-101.33408521 76.00459064 -97.96322467 66.04209669 -94.16365719 56.21358395 C-93.88684863 55.49582854 -93.61004008 54.77807314 -93.32484338 54.03856758 C-85.03428979 33.00456906 -69.75305572 17.26297198 -49.40715027 7.71881104 C-33.40459022 0.94571847 -17.12267356 -0.05318876 0 0 Z " fill="#000000" transform="translate(1295.9462127685547,1444.7460327148438)"/>
<path d="M0 0 C1.64189968 -0.00187096 3.28379891 -0.00417279 4.92569745 -0.00686532 C9.41357812 -0.0129543 13.90144009 -0.01285317 18.38932395 -0.01167095 C23.23877989 -0.01146621 28.08822994 -0.01699259 32.93768311 -0.02172852 C42.42889782 -0.03001922 51.92010633 -0.03278262 61.41132437 -0.03334089 C69.12786628 -0.03381671 76.84440615 -0.03587476 84.56094742 -0.03904152 C106.45444151 -0.04784305 128.3479307 -0.05246157 150.24142657 -0.05171105 C151.42061597 -0.05167109 152.59980537 -0.05163113 153.81472778 -0.05158997 C154.99536191 -0.05154909 156.17599604 -0.0515082 157.39240696 -0.05146609 C176.53031857 -0.05105955 195.66821052 -0.06063236 214.80611645 -0.07472833 C234.47213467 -0.08909867 254.13814331 -0.09599818 273.80416691 -0.09513456 C284.83905629 -0.09480286 295.87392503 -0.0975381 306.90880966 -0.10831261 C316.30247026 -0.11742615 325.69610087 -0.11958575 335.08976398 -0.11280318 C339.87920214 -0.10954258 344.66858279 -0.10946476 349.45801544 -0.11815643 C353.8487287 -0.12604239 358.23933903 -0.12456868 362.63004984 -0.1158723 C364.21204193 -0.11434195 365.79404178 -0.11613581 367.37602471 -0.12173238 C389.0968613 -0.19343909 407.11029493 3.51240493 423.33474731 18.71965027 C434.70708653 30.55147793 440.40481473 45.79578682 441.03005981 62.13371277 C440.31598095 76.29520078 435.41113226 89.70630872 430.92727661 103.01408386 C430.23942981 105.07756874 429.55237455 107.14131762 428.86604309 109.20530701 C427.00980815 114.77997385 425.14249218 120.35087045 423.27302527 125.92111158 C421.30065925 131.8041179 419.33842849 137.69050356 417.37498474 143.57649231 C413.85656633 154.11904065 410.3302324 164.65891904 406.79983715 175.19746216 C402.38160094 188.38677591 397.97554047 201.58014419 393.57070673 214.77393985 C389.93836774 225.65244631 386.30286954 236.52989741 382.66677856 247.40715027 C382.28658436 248.54456146 381.90639015 249.68197265 381.5146749 250.85385084 C379.29314356 257.49917625 377.06992319 264.1439331 374.84459114 270.78798676 C374.18084022 272.77020906 373.51746943 274.75255872 372.85459137 276.73507309 C369.49528044 286.780627 366.1106674 296.81714215 362.67630196 306.83729172 C353.38637188 333.94626695 344.2828875 361.11514539 335.23036186 388.304253 C333.01888702 394.94614968 330.80555584 401.58742741 328.59219156 408.22869463 C324.50747703 420.48514794 320.42410758 432.74204895 316.34150696 444.99920654 C310.7577742 461.76313754 305.17200432 478.52638929 299.58572918 495.28947324 C296.9682861 503.14380665 294.35094014 510.99817242 291.73361969 518.85254669 C291.47178963 519.63827788 291.20995958 520.42400906 290.94019527 521.23355028 C284.73524906 539.85417573 278.53125377 558.47511798 272.3274231 577.09611511 C272.05666823 577.90879335 271.78591337 578.72147158 271.50695381 579.55877643 C267.38961868 591.91707617 263.27233358 604.27539258 259.15505981 616.63371277 C254.76430045 629.81292145 250.37352265 642.99212399 245.98269653 656.17131042 C245.71210044 656.98351329 245.44150435 657.79571615 245.16270838 658.63253122 C238.96777558 677.22680372 232.77256398 695.82098327 226.57649994 714.41487885 C226.18439033 715.59156916 226.18439033 715.59156916 225.78435932 716.79203099 C223.1724294 724.63020792 220.56045169 732.46836892 217.94840298 740.30650626 C212.37253033 757.03840967 206.79746943 773.77058287 201.22414283 790.50333454 C197.1603253 802.70405653 193.0954342 814.90442041 189.02948296 827.10443151 C186.83551877 833.68759785 184.64202775 840.27092084 182.44997215 846.85472298 C174.64610637 870.29218636 166.8255675 893.72198991 158.81313217 917.08906996 C151.14938882 939.4484762 143.69696146 961.87844665 136.23035214 984.30428228 C134.01888047 990.94616918 131.80555258 997.58743716 129.59219156 1004.22869463 C125.50747703 1016.48514794 121.42410758 1028.74204895 117.34150696 1040.99920654 C111.7577742 1057.76313754 106.17200432 1074.52638929 100.58572918 1091.28947324 C97.9682861 1099.14380665 95.35094014 1106.99817242 92.73361969 1114.85254669 C92.3408746 1116.03114347 92.3408746 1116.03114347 91.94019527 1117.23355028 C85.73524906 1135.85417573 79.53125377 1154.47511798 73.3274231 1173.09611511 C73.05666823 1173.90879335 72.78591337 1174.72147158 72.50695381 1175.55877643 C68.38961868 1187.91707617 64.27233358 1200.27539258 60.15505981 1212.63371277 C55.76430045 1225.81292145 51.37352265 1238.99212399 46.98269653 1252.17131042 C46.71210044 1252.98351329 46.44150435 1253.79571615 46.16270838 1254.63253122 C39.96777558 1273.22680372 33.77256398 1291.82098327 27.57649994 1310.41487885 C27.18439033 1311.59156916 27.18439033 1311.59156916 26.78435932 1312.79203099 C24.1724294 1320.63020792 21.56045169 1328.46836892 18.94840298 1336.30650626 C13.37253033 1353.03840967 7.79746943 1369.77058287 2.22414283 1386.50333454 C-1.8396747 1398.70405653 -5.9045658 1410.90442041 -9.97051704 1423.10443151 C-12.16448123 1429.68759785 -14.35797246 1436.27092077 -16.55002785 1442.85472298 C-24.89260206 1467.91011801 -33.25391038 1492.95746489 -41.82997751 1517.93409395 C-44.56550452 1525.90280111 -47.27604632 1533.87808994 -49.9140664 1541.87969849 C-55.21957944 1557.95979309 -61.00790769 1571.31592501 -72.34494019 1584.13371277 C-72.87345581 1584.74472839 -73.40197144 1585.35574402 -73.94650269 1585.98527527 C-87.75552167 1600.88268984 -109.43308201 1610.76228523 -129.68160657 1611.59273103 C-133.49742255 1611.67125118 -137.30999429 1611.66407049 -141.12635803 1611.64164734 C-142.86332336 1611.64626765 -144.60028476 1611.65262809 -146.33723813 1611.66055632 C-151.0647602 1611.67711712 -155.7919556 1611.66906427 -160.5194782 1611.65661144 C-165.63539772 1611.64750871 -170.75126361 1611.66155629 -175.86717224 1611.67253113 C-185.8704248 1611.69026433 -195.87355692 1611.68649993 -205.87681409 1611.67488056 C-214.00895879 1611.66582751 -222.14106986 1611.66463032 -230.27321815 1611.66897583 C-231.43294864 1611.66958876 -232.59267912 1611.67020169 -233.78755296 1611.6708332 C-236.14387391 1611.67211216 -238.50019486 1611.67340902 -240.8565158 1611.67472357 C-262.92093797 1611.68611374 -284.98529353 1611.67303941 -307.04970477 1611.6515221 C-325.96642788 1611.63364546 -344.88305282 1611.63676296 -363.79977417 1611.65519714 C-385.79275719 1611.67661923 -407.78568195 1611.68502271 -429.77867395 1611.67274809 C-432.12515246 1611.67147395 -434.47163098 1611.67021647 -436.81810951 1611.66897583 C-438.54967539 1611.66805018 -438.54967539 1611.66805018 -440.3162224 1611.66710582 C-448.43656455 1611.66365748 -456.55686963 1611.66947001 -464.67720604 1611.67889404 C-474.57583304 1611.69012995 -484.47433321 1611.68704017 -494.37294575 1611.66577107 C-499.41967748 1611.65528324 -504.466198 1611.65110024 -509.51292801 1611.66436768 C-514.13855774 1611.67634394 -518.76378174 1611.66964325 -523.38937501 1611.64845747 C-525.0566769 1611.64401359 -526.72401354 1611.64620745 -528.39129283 1611.65596062 C-545.72606931 1611.7495346 -561.02927552 1607.80677963 -573.65744019 1595.38371277 C-584.42334063 1584.31937535 -590.27409367 1570.79433456 -590.65744019 1555.25871277 C-590.43426106 1540.6288939 -584.5695099 1526.2318075 -579.95983887 1512.49066162 C-579.31413596 1510.55108745 -578.66895989 1508.61133783 -578.02425992 1506.67143005 C-576.26424934 1501.38058656 -574.49682886 1496.09224491 -572.72811198 1490.80430663 C-570.81624626 1485.08400222 -568.91135754 1479.36137463 -567.00558472 1473.63903809 C-563.70400952 1463.72881513 -560.39807112 1453.82005488 -557.08897781 1443.91234016 C-553.61193627 1433.50173891 -550.13729197 1423.09034272 -546.66581345 1412.67788506 C-546.34070932 1411.70276742 -546.34070932 1411.70276742 -546.00903743 1410.70795043 C-545.12896255 1408.06822585 -544.24890571 1405.42849526 -543.36887221 1402.78875688 C-535.3533777 1378.74557347 -527.33218228 1354.70429608 -519.30734253 1330.66423035 C-511.76341867 1308.06483061 -504.22280516 1285.46433031 -496.68624878 1262.86247253 C-496.45467694 1262.16800005 -496.22310509 1261.47352756 -495.98451592 1260.75801045 C-494.81785994 1257.25926483 -493.65120964 1253.7605173 -492.48456153 1250.26176905 C-492.25424371 1249.57105188 -492.0239259 1248.88033471 -491.78662876 1248.16868671 C-491.32210819 1246.77559922 -490.85758884 1245.38251132 -490.3930707 1243.98942301 C-482.94669289 1221.65781119 -475.49784125 1199.32702449 -468.0483473 1176.99645199 C-465.87794637 1170.49046003 -463.70762533 1163.98444143 -461.53752565 1157.47834897 C-456.97351328 1143.7952677 -452.40857605 1130.11249585 -447.84107967 1116.43057705 C-445.95513058 1110.7811977 -444.06957542 1105.13168794 -442.18529892 1099.48175049 C-435.350928 1078.99018944 -428.49398913 1058.50789583 -421.4899292 1038.07363892 C-413.49650936 1014.74920632 -405.70899766 991.35656774 -397.92023472 967.96314997 C-395.70876238 961.32126082 -393.4954337 954.67999061 -391.28207193 948.0387309 C-387.1973574 935.78227759 -383.11398795 923.52537659 -379.03138733 911.26821899 C-373.44765457 894.50428799 -367.86188469 877.74103625 -362.27560955 860.9779523 C-359.65816648 853.12361889 -357.04082051 845.26925312 -354.42350006 837.41487885 C-354.16167 836.62914766 -353.89983995 835.84341647 -353.63007564 835.03387525 C-347.42512943 816.41324981 -341.22113414 797.79230756 -335.01730347 779.17131042 C-334.61117117 777.95229307 -334.61117117 777.95229307 -334.19683418 776.70864911 C-330.07949905 764.35034936 -325.96221395 751.99203296 -321.84494019 739.63371277 C-317.45418082 726.45450409 -313.06340302 713.27530155 -308.6725769 700.09611511 C-308.40198081 699.28391225 -308.13138472 698.47170939 -307.85258875 697.63489432 C-301.65765595 679.04062182 -295.46244435 660.44644227 -289.26638031 641.85254669 C-289.0049739 641.06808648 -288.7435675 640.28362627 -288.47423969 639.47539454 C-285.86230977 631.63721761 -283.25033206 623.79905662 -280.63828335 615.96091927 C-275.06241071 599.22901587 -269.4873498 582.49684267 -263.91402321 565.764091 C-259.85020567 553.563369 -255.78531457 541.36300512 -251.71936333 529.16299403 C-249.52539914 522.57982769 -247.33190799 515.99650474 -245.13985252 509.41270256 C-237.21174539 485.60209068 -229.26405324 461.80006142 -221.12767802 438.05970121 C-215.15463312 420.6299508 -209.32242905 403.15502247 -203.52304912 385.6668328 C-202.05344402 381.23662969 -200.58172164 376.80712995 -199.11019897 372.37756348 C-196.90172751 365.72914933 -194.69381037 359.08055159 -192.48658137 352.43172485 C-188.15617158 339.38752443 -183.82059859 326.34504473 -179.48321533 313.30316162 C-178.79494881 311.2335759 -178.10668257 309.16399008 -177.41841662 307.09440416 C-176.02718704 302.9110933 -174.63592855 298.72779206 -173.24465251 294.54449666 C-169.6975269 283.87894587 -166.15058813 273.21333299 -162.60421753 262.54753113 C-162.24937803 261.48034865 -161.89453853 260.41316617 -161.52894633 259.31364483 C-155.75477082 241.94698134 -149.98818495 224.57780582 -144.22400565 207.20782232 C-138.27497686 189.28149317 -132.31674522 171.35824118 -126.35028398 153.43770653 C-122.68541959 142.42909217 -119.02779448 131.41812811 -115.37967925 120.40395171 C-112.88368174 112.87040856 -110.37880875 105.33985348 -107.86705191 97.81155013 C-106.42190515 93.47923492 -104.98060291 89.14574434 -103.54996872 84.80861282 C-102.23687123 80.82808801 -100.91241612 76.85152209 -99.57938103 72.87763143 C-99.1030551 71.45130859 -98.63067251 70.02366035 -98.16299136 68.59447961 C-93.46754708 54.26106241 -87.6714382 40.35899857 -77.34494019 29.13371277 C-76.60759644 28.30484558 -75.87025269 27.47597839 -75.11056519 26.62199402 C-54.79813081 4.9487593 -28.45233045 -0.03090927 0 0 Z " fill="#000000" transform="translate(2101.344940185547,1444.8662872314453)"/>
<path d="M0 0 C0.70062624 -0.00205263 1.40125248 -0.00410527 2.12310982 -0.0062201 C4.47046216 -0.01187386 6.81775552 -0.01043486 9.16511345 -0.00901413 C10.8652827 -0.0115987 12.56545135 -0.01461211 14.26561916 -0.01801753 C18.93774873 -0.02608002 23.60986293 -0.02787669 28.28199863 -0.028615 C33.32102876 -0.03046686 38.36005094 -0.03801487 43.39907646 -0.04475021 C54.41776943 -0.05832876 65.43645876 -0.06435752 76.45515871 -0.06876087 C83.3362495 -0.07152412 90.21733889 -0.07576163 97.09842873 -0.08026505 C116.15289853 -0.09245712 135.2073672 -0.10275654 154.26184082 -0.10614014 C155.4812348 -0.1063597 156.70062877 -0.10657927 157.95697408 -0.10680549 C159.79042319 -0.10713291 159.79042319 -0.10713291 161.66091168 -0.10746694 C164.13772527 -0.1079104 166.61453887 -0.10835696 169.09135246 -0.10880661 C170.31993563 -0.10902804 171.5485188 -0.10924947 172.81433176 -0.10947761 C192.71952866 -0.1134252 212.62468895 -0.13087833 232.52987172 -0.15416613 C252.96978537 -0.17788637 273.40968066 -0.1903423 293.8496083 -0.19150805 C305.32441698 -0.19242444 316.79917794 -0.19816758 328.27397346 -0.21632767 C338.04548156 -0.23173771 347.8169272 -0.23684376 357.58844514 -0.22858956 C362.57217631 -0.22468628 367.55578173 -0.22559703 372.53949738 -0.23964691 C377.10680307 -0.25240488 381.67388876 -0.25117165 386.24119423 -0.2390562 C387.8885951 -0.23710249 389.53601166 -0.24016248 391.18339051 -0.24890056 C411.27695022 -0.3486862 427.14282732 4.83304985 441.81010246 19.03377151 C452.49214473 30.46379048 457.94183843 45.59464056 458.15775871 61.06892776 C458.18676262 61.72699417 458.21576653 62.38506058 458.24564934 63.06306839 C458.43584271 78.76133712 450.54100249 95.45405365 445.63432121 110.09236526 C444.8212543 112.52849616 444.00854825 114.96474752 443.19618034 117.4011116 C441.49259245 122.50728787 439.78620591 127.61251441 438.07719231 132.71687698 C435.93061051 139.12818257 433.7893537 145.54125216 431.64990425 151.9549408 C423.83614783 175.37716831 415.99105819 198.78736906 407.97958565 222.14276123 C402.7905514 237.27848726 397.71209537 252.45023816 392.65775871 267.63142776 C392.25862644 268.83024204 391.85949417 270.02905632 391.44826698 271.2641983 C388.5784417 279.88589151 385.71154953 288.50855899 382.84525871 297.13142776 C379.57638554 306.96541398 376.30619763 316.79896029 373.03275871 326.63142776 C372.63481731 327.82691805 372.23687592 329.02240833 371.82687569 330.2541256 C366.52540068 346.17397009 361.1576142 362.06914988 355.7088871 377.93914986 C351.57116196 389.9962567 347.52417649 402.0807043 343.54152489 414.18991852 C342.64223467 416.92377695 341.74140002 419.6571216 340.84007072 422.39030838 C340.24412139 424.19788766 339.64819445 426.00547432 339.05228996 427.81306839 C338.75765484 428.70679468 338.46301971 429.60052097 338.15945625 430.52132988 C336.64820803 435.10836792 335.14157234 439.69684943 333.64262199 444.28792191 C332.14585822 448.87104778 330.63693926 453.45001959 329.12023354 458.02658272 C328.55861141 459.72841974 328.00122108 461.43166085 327.44867134 463.13646507 C322.67583201 477.85184259 317.22298016 492.38181137 306.84525871 504.13142776 C306.1685009 504.94998245 305.49174309 505.76853714 304.79447746 506.61189651 C291.81041388 521.85606352 272.55941771 531.82389887 252.84525871 535.13142776 C250.46391235 535.22511287 248.0801907 535.26406475 245.69700623 535.26844215 C244.62888533 535.27241989 244.62888533 535.27241989 243.53918624 535.27647799 C241.14682247 535.28415348 238.75451018 535.2847295 236.36213493 535.28532791 C234.63196809 535.2893437 232.90180219 535.29378212 231.17163742 535.29860747 C226.41183147 535.31056605 221.65203566 535.31621978 216.89221764 535.32078862 C211.76040292 535.3267475 206.6286003 535.33835671 201.49679375 535.34907913 C189.09973879 535.37359774 176.70267983 535.38823009 164.30560809 535.4011392 C160.8033515 535.40485172 157.3010953 535.40882491 153.79883909 535.41289186 C132.04490777 535.43813047 110.29097581 535.46018109 88.53703308 535.47262001 C83.49849889 535.47554966 78.45996473 535.47851132 73.42143059 535.48152542 C71.54300061 535.4826445 71.54300061 535.4826445 69.62662254 535.48378618 C49.34830421 535.49643503 29.07007366 535.52965204 8.79179634 535.57132725 C-12.0334335 535.61377519 -32.85861844 535.63731841 -53.68389142 535.64254057 C-65.37403194 535.64595158 -77.06403533 535.65767016 -88.75413322 535.69064331 C-98.711888 535.71868431 -108.66947753 535.72962536 -118.62726872 535.71844785 C-123.70461194 535.7132715 -128.7816093 535.71608146 -133.85890198 535.74091339 C-138.51534529 535.76349609 -143.17119612 535.76259635 -147.82765044 535.74370952 C-149.50407721 535.7409221 -151.18054494 535.74643735 -152.85690616 535.76152246 C-170.86607529 535.91355434 -184.83870146 531.23840825 -198.49458504 519.04158401 C-210.20851494 506.96791731 -214.38759219 491.04810169 -214.65083504 474.67439651 C-213.90081846 463.2501015 -209.06294509 451.42066868 -205.44380379 440.67049026 C-204.98945718 439.31053256 -204.5354779 437.95045209 -204.08183479 436.59025955 C-203.13150683 433.7438422 -202.17828581 430.89841806 -201.22261238 428.05379105 C-200.0447912 424.54789859 -198.87179768 421.04041977 -197.70082664 417.53223419 C-193.51238586 404.98555891 -189.29835283 392.44779272 -185.00923347 379.9351387 C-184.74087118 379.15224409 -184.47250889 378.36934948 -184.1960144 377.56273079 C-183.92340349 376.76752085 -183.65079258 375.97231091 -183.36992073 375.15300369 C-176.99999146 356.57131003 -170.73479348 337.95634472 -164.52974129 319.31892776 C-164.31979766 318.68840484 -164.10985404 318.05788192 -163.89354849 317.40825224 C-160.64459837 307.65020224 -157.39933239 297.89092785 -154.15474129 288.13142776 C-150.6983799 277.73493768 -147.24078879 267.33885888 -143.77974129 256.94392776 C-143.56870026 256.30999698 -143.35765924 255.67606619 -143.14022303 255.02292538 C-137.61665423 238.43243963 -132.0387179 221.8626113 -126.3592205 205.32488632 C-121.13666298 190.10764704 -116.0428817 174.84830524 -110.97133541 159.58018303 C-110.32106062 157.62259672 -109.67057644 155.66508012 -109.02002907 153.70758438 C-105.03541052 141.71747761 -101.05359392 129.7264432 -97.07905769 117.73299026 C-95.08927248 111.72876703 -93.09609854 105.72567915 -91.09938276 99.72375703 C-90.05723978 96.59069115 -89.01725126 93.45695257 -87.98050499 90.32209396 C-84.09978814 78.58911527 -80.16706486 66.8889752 -75.79683113 55.32771683 C-75.31824119 54.05521387 -75.31824119 54.05521387 -74.82998276 52.75700378 C-72.34982573 46.310286 -69.3920712 40.61801033 -65.15474129 35.13142776 C-64.56934578 34.35944046 -64.56934578 34.35944046 -63.9721241 33.57185745 C-48.91508692 13.93674479 -25.19516261 0.02520901 0 0 Z " fill="#000000" transform="translate(3338.1547412872314,2520.8685722351074)"/>
</svg>