<?xml version="1.0" encoding="UTF-8"?>
<svg version="1.1" xmlns="http://www.w3.org/2000/svg" width="64" height="64">
<path d="M0 0 C7.04133662 4.94029263 11.28955656 10.29852186 13.75 18.5 C14.672411 27.72410997 13.40651562 35.8244795 7.66015625 43.36328125 C1.72420352 49.2154323 -5.35145429 52.14065621 -13.5625 52.375 C-21.78557782 52.28184464 -27.09135917 50.39417015 -33.28515625 45.015625 C-39.2745358 38.88493523 -41.48953871 32.84938228 -42.375 24.4375 C-41.34557579 15.00111143 -37.38952177 7.33344743 -29.9765625 1.32421875 C-21.17200838 -4.5744845 -9.32803859 -4.87602017 0 0 Z " fill="#BD8318" transform="translate(46,7)"/>
<path d="M0 0 C3.06288286 3.06288286 4.8376433 6.37327382 5.625 10.625 C2.97784193 12.79945127 0.98992939 13.99407574 -2.375 14.625 C-3.1175 14.810625 -3.86 14.99625 -4.625 15.1875 C-5.2025 15.331875 -5.78 15.47625 -6.375 15.625 C-6.705 17.605 -7.035 19.585 -7.375 21.625 C-4.48924181 21.22696439 -3.55310487 20.83490931 -1.625 18.5625 C-1.00625 17.6034375 -1.00625 17.6034375 -0.375 16.625 C-1.125 21.375 -1.125 21.375 -3.375 23.625 C-6 24.25 -6 24.25 -8.375 24.625 C-8.705 26.275 -9.035 27.925 -9.375 29.625 C-11.86618953 25.8882157 -11.5815226 23.88048181 -11.5 19.4375 C-11.48195312 18.16519531 -11.46390625 16.89289062 -11.4453125 15.58203125 C-11.42210937 14.60621094 -11.39890625 13.63039063 -11.375 12.625 C-12.365 12.625 -13.355 12.625 -14.375 12.625 C-14.375 18.565 -14.375 24.505 -14.375 30.625 C-15.365 30.625 -16.355 30.625 -17.375 30.625 C-17.87 25.675 -17.87 25.675 -18.375 20.625 C-19.695 23.265 -21.015 25.905 -22.375 28.625 C-23.365 28.625 -24.355 28.625 -25.375 28.625 C-26.365 25.985 -27.355 23.345 -28.375 20.625 C-28.705 23.925 -29.035 27.225 -29.375 30.625 C-30.695 30.625 -32.015 30.625 -33.375 30.625 C-33.57061869 28.5424133 -33.75619313 26.45888144 -33.9375 24.375 C-34.04191406 23.21484375 -34.14632812 22.0546875 -34.25390625 20.859375 C-34.35698087 18.10628523 -34.23713473 16.205018 -33.375 13.625 C-34.365 13.955 -35.355 14.285 -36.375 14.625 C-34.82981803 8.78764591 -30.47018713 5.60136408 -25.5703125 2.47265625 C-19.94363645 0.30007849 -12.34166499 0.63611167 -6.6796875 2.5234375 C-4.5 3.625 -4.5 3.625 -1.375 5.625 C-6.68457666 1.13228129 -12.07204021 0.18741138 -18.859375 0.390625 C-26.71700383 1.12270222 -30.61285778 4.3629148 -35.7109375 10.2734375 C-38.99479073 14.91400005 -39.7690002 19.35057298 -40.5 24.9375 C-40.66757812 26.19175781 -40.83515625 27.44601563 -41.0078125 28.73828125 C-41.12898438 29.69089844 -41.25015625 30.64351562 -41.375 31.625 C-42.035 31.625 -42.695 31.625 -43.375 31.625 C-45.54898251 22.65732216 -43.9883734 15.38507297 -39.625 7.4375 C-29.49632302 -5.22334622 -14.23543275 -8.24156633 0 0 Z " fill="#DAA228" transform="translate(48.375,8.375)"/>
<path d="M0 0 C0.33 0 0.66 0 1 0 C1.46559623 8.44970933 1.16830851 17.06433071 -2 25 C-4.67338683 27.83821993 -7.44166153 29.46317608 -11 31 C-11.78246094 31.36738281 -12.56492188 31.73476563 -13.37109375 32.11328125 C-20.33827022 34.46327985 -28.68357373 34.07104825 -35.375 31.0625 C-41.02689529 27.78346654 -46.86682005 22.8173284 -48.7734375 16.39453125 C-49.05374507 13.43197019 -48.28571869 11.6470679 -47 9 C-45.99269171 10.96644097 -45.03465988 12.91369346 -44.2109375 14.96484375 C-41.78210844 20.69642635 -38.57189179 23.3341873 -33 26 C-27.01224217 27.99591928 -19.44952104 28.23883728 -13.4765625 26.09375 C-8.24266067 22.96544086 -4.28566827 18.82847019 -1.75 13.25 C-0.73765994 8.86319307 -0.33672737 4.48379071 0 0 Z " fill="#D39C28" transform="translate(55,26)"/>
<path d="M0 0 C0 0.66 0 1.32 0 2 C-3.71208305 2.78149117 -7.10548495 3.00297736 -10.875 2.875 C-17.10204392 2.86567808 -21.52985354 3.7269397 -26.203125 8.02734375 C-31.92175475 14.20881224 -34.0286804 18.93348592 -35.125 27.3125 C-35.29257812 28.56675781 -35.46015625 29.82101563 -35.6328125 31.11328125 C-35.75398438 32.06589844 -35.87515625 33.01851562 -36 34 C-36.66 34 -37.32 34 -38 34 C-40.17398251 25.03232216 -38.6133734 17.76007297 -34.25 9.8125 C-25.68906226 -0.88867217 -13.17406752 -5.5469758 0 0 Z " fill="#DFAC39" transform="translate(43,6)"/>
<path d="M0 0 C1.98 0 3.96 0 6 0 C6.99 2.97 7.98 5.94 9 9 C9.66 9 10.32 9 11 9 C11.99 6.03 12.98 3.06 14 0 C15.65 0 17.3 0 19 0 C19 5.94 19 11.88 19 18 C18.01 18 17.02 18 16 18 C15.505 13.05 15.505 13.05 15 8 C13.68 10.64 12.36 13.28 11 16 C10.01 16 9.02 16 8 16 C7.01 13.36 6.02 10.72 5 8 C4.67 11.3 4.34 14.6 4 18 C2.68 18 1.36 18 0 18 C-0.19620767 15.93831015 -0.38160753 13.87559002 -0.5625 11.8125 C-0.66691406 10.66394531 -0.77132813 9.51539063 -0.87890625 8.33203125 C-0.98859985 5.31368801 -0.74002389 2.91076064 0 0 Z " fill="#EAB93B" transform="translate(15,21)"/>
<path d="M0 0 C5.50019576 3.66679717 7.89197025 8.30656751 9.75 14.5 C10.4644883 21.64488304 10.08179516 27.43667893 7 34 C4.8125 36.5625 4.8125 36.5625 3 38 C3.14168137 36.56208484 3.28851043 35.1246763 3.4375 33.6875 C3.51871094 32.88699219 3.59992187 32.08648437 3.68359375 31.26171875 C4 29 4 29 5 26 C5.17466964 23.21387601 5.27697439 20.47507588 5.3125 17.6875 C5.34150391 16.94048828 5.37050781 16.19347656 5.40039062 15.42382812 C5.46140834 10.07773771 4.35167423 7.33859169 1 3 C0.67 2.01 0.34 1.02 0 0 Z " fill="#BA8427" transform="translate(50,11)"/>
<path d="M0 0 C0.495 1.485 0.495 1.485 1 3 C-6.21395231 9.33953385 -12.00415681 10.62384527 -21.4765625 10.421875 C-27.48693224 9.70222984 -32.88553292 7.59523995 -36.76953125 2.828125 C-37.17558594 2.22484375 -37.58164062 1.6215625 -38 1 C-35.49160981 2.00335608 -32.98649705 3.00573875 -30.5 4.0625 C-22.97393762 6.88477339 -13.76032969 6.94008242 -6 5 C-3.75395924 3.49599931 -1.97156499 1.87539109 0 0 Z " fill="#BD841E" transform="translate(50,49)"/>
<path d="M0 0 C0 0.66 0 1.32 0 2 C-0.9178125 2.08636719 -1.835625 2.17273438 -2.78125 2.26171875 C-12.32001459 3.35386722 -17.97824531 5.06761763 -24.8125 11.75 C-28.57140589 17.33466017 -30.14737375 23.34951528 -31 30 C-31.33 30 -31.66 30 -32 30 C-32.6713805 22.01803181 -31.98910225 16.41801988 -27 10 C-19.34003723 1.44082421 -11.20131081 -0.63138913 0 0 Z " fill="#F5D060" transform="translate(37,4)"/>
<path d="M0 0 C2.52742845 1.89557134 2.97169284 2.80589378 3.4375 6 C3 9 3 9 1.3125 10.875 C-1.33270547 12.16185671 -3.09433826 12.24213848 -6 12 C-6 13.98 -6 15.96 -6 18 C-7.32 18 -8.64 18 -10 18 C-9.38722388 15.03824877 -8.74627478 13.61941217 -7 11 C-3.875 9.8125 -3.875 9.8125 -1 9 C-1 8.67 -1 8.34 -1 8 C-2.65 8.33 -4.3 8.66 -6 9 C-6 7.02 -6 5.04 -6 3 C-4.02 2.01 -2.04 1.02 0 0 Z " fill="#D49B21" transform="translate(47,21)"/>
<path d="M0 0 C1.65 0 3.3 0 5 0 C5 5.94 5 11.88 5 18 C4.01 18 3.02 18 2 18 C1.67 14.7 1.34 11.4 1 8 C0.34 8.66 -0.32 9.32 -1 10 C-1.33 9.67 -1.66 9.34 -2 9 C-1.30232558 2.60465116 -1.30232558 2.60465116 0 0 Z " fill="#E5B132" transform="translate(29,21)"/>
<path d="M0 0 C2.97 0 5.94 0 9 0 C8.67 0.66 8.34 1.32 8 2 C5.9375 2.625 5.9375 2.625 4 3 C3.67 4.98 3.34 6.96 3 9 C5.88575819 8.60196439 6.82189513 8.20990931 8.75 5.9375 C9.1625 5.298125 9.575 4.65875 10 4 C9.25 8.75 9.25 8.75 7 11 C4.375 11.625 4.375 11.625 2 12 C1.67 13.65 1.34 15.3 1 17 C0.67 17 0.34 17 0 17 C0 11.39 0 5.78 0 0 Z " fill="#E3AE2E" transform="translate(38,21)"/>
<path d="M0 0 C4.75519272 2.42245667 7.73411745 3.96470544 10 9 C10.6875 11.3125 10.6875 11.3125 11 13 C10.01 13 9.02 13 8 13 C8 12.34 8 11.68 8 11 C7.01 10.67 6.02 10.34 5 10 C3.31237149 8.3545622 1.6459651 6.68711423 0 5 C-0.99 4.34 -1.98 3.68 -3 3 C-2.01 2.67 -1.02 2.34 0 2 C0 1.34 0 0.68 0 0 Z " fill="#CD9527" transform="translate(43,6)"/>
<path d="M0 0 C0.66 0 1.32 0 2 0 C1.51353056 2.18911248 0.94166441 4.13172552 0.03125 6.1875 C-1.20360058 9.55527431 -1.65996961 12.75833916 -2.125 16.3125 C-2.29257813 17.56675781 -2.46015625 18.82101563 -2.6328125 20.11328125 C-2.75398437 21.06589844 -2.87515625 22.01851562 -3 23 C-3.66 23 -4.32 23 -5 23 C-5.98248524 18.9472484 -6.08159574 15.16138263 -6 11 C-5.34 11 -4.68 11 -4 11 C-3.79503906 10.37351562 -3.59007812 9.74703125 -3.37890625 9.1015625 C-3.10949219 8.28429688 -2.84007812 7.46703125 -2.5625 6.625 C-2.29566406 5.81289063 -2.02882813 5.00078125 -1.75390625 4.1640625 C-1 2 -1 2 0 0 Z " fill="#E4B23E" transform="translate(10,17)"/>
<path d="M0 0 C0.33 0 0.66 0 1 0 C1.47273445 8.57925475 0.529188 16.76273633 -2 25 C-2.66 25.33 -3.32 25.66 -4 26 C-4.33 25.34 -4.66 24.68 -5 24 C-6.98 25.65 -8.96 27.3 -11 29 C-11.66 28.67 -12.32 28.34 -13 28 C-12.38511719 27.53851563 -11.77023438 27.07703125 -11.13671875 26.6015625 C-3.08146567 20.10083194 -1.40224303 14.39497484 -0.3125 4.375 C-0.19813688 2.91743083 -0.09004029 1.45927364 0 0 Z " fill="#C99329" transform="translate(55,26)"/>
<path d="M0 0 C0.66 0.33 1.32 0.66 2 1 C2.25 4.3125 2.25 4.3125 2 8 C0.3125 9.9375 0.3125 9.9375 -2 11 C-4.75 11.1875 -4.75 11.1875 -7 11 C-7 12.65 -7 14.3 -7 16 C-8.65 16.33 -10.3 16.66 -12 17 C-11.01 16.67 -10.02 16.34 -9 16 C-9 14.02 -9 12.04 -9 10 C-7.865625 9.690625 -6.73125 9.38125 -5.5625 9.0625 C-2.21224901 8.37075469 -2.21224901 8.37075469 -1 7 C-0.63239269 4.67182036 -0.29758419 2.3381615 0 0 Z " fill="#9E650B" transform="translate(50,23)"/>
<path d="M0 0 C5 2 5 2 7.1875 3 C11.35704095 4.48250345 15.65391117 5.2067333 20 6 C20 6.33 20 6.66 20 7 C14.56033213 8.1258329 10.38476117 8.75807903 5.5 5.75 C2.90285564 3.94051418 1.81095013 2.7164252 0 0 Z " fill="#C48B22" transform="translate(12,50)"/>
<path d="M0 0 C0.33 0.99 0.66 1.98 1 3 C-5.09300258 8.07750215 -8.15925337 9.26135822 -16 9 C-12.44579608 7.17836929 -8.80622717 5.63261064 -5.12109375 4.09765625 C-2.96349372 2.98110817 -1.60753833 1.80270273 0 0 Z " fill="#B57C1B" transform="translate(50,49)"/>
<path d="M0 0 C0 0.66 0 1.32 0 2 C-5.22745859 3.2063366 -9.76528314 2.75612577 -15 2 C-10.00217593 -1.33188271 -5.76283205 -1.23489258 0 0 Z " fill="#DBA532" transform="translate(43,6)"/>
<path d="M0 0 C1.65 0 3.3 0 5 0 C5 1.65 5 3.3 5 5 C3.35 5.33 1.7 5.66 0 6 C0 4.02 0 2.04 0 0 Z " fill="#B87D14" transform="translate(41,24)"/>
<path d="M0 0 C0.66 0 1.32 0 2 0 C2.25 2.75 2.25 2.75 2 6 C0 8.375 0 8.375 -2 10 C-1.85950482 8.52031676 -1.71245174 7.04125484 -1.5625 5.5625 C-1.48128906 4.73878906 -1.40007813 3.91507813 -1.31640625 3.06640625 C-1 1 -1 1 0 0 Z " fill="#B27A1B" transform="translate(55,39)"/>
<path d="M0 0 C1.57035335 2.49409061 2.0274945 3.70443416 1.75 6.6875 C1.5025 7.450625 1.255 8.21375 1 9 C0.01 9.495 0.01 9.495 -1 10 C-2.15837626 5.94568308 -1.83691257 3.78187881 0 0 Z " fill="#D8A333" transform="translate(8,35)"/>
<path d="M0 0 C-0.33 0.66 -0.66 1.32 -1 2 C-3.3140622 2.73075648 -5.64828869 3.40138258 -8 4 C-8.66 3.34 -9.32 2.68 -10 2 C-6.49223216 0.39644899 -3.85645121 -0.22036864 0 0 Z " fill="#F6CF5B" transform="translate(28,5)"/>
</svg>
