<svg width="3069" height="247" viewBox="0 0 3069 247" fill="none" xmlns="http://www.w3.org/2000/svg">
<path d="M1492.94 44.0004C1494.9 42.0384 1496.26 42.0014 1564.19 42.0164C1638.77 42.0334 1640.37 42.1315 1649.14 47.2745C1655.16 50.8035 1661.58 58.0064 1664.78 64.8254C1667.41 70.4294 1667.44 70.8164 1667.76 95.8194C1668.06 119.071 1667.92 121.685 1666.04 127.82C1662.35 139.801 1653.37 149.03 1641.58 152.955C1638.02 154.138 1634.85 155.794 1634.53 156.635C1633.21 160.057 1631.83 157.924 1655.22 188.646C1659.46 194.227 1662.94 199.482 1662.94 200.325C1662.94 201.168 1662.23 202.564 1661.37 203.428C1660.08 204.71 1657.16 205 1645.47 205C1640.69 205 1635.91 205 1631.14 205C1630.24 203.917 1629.34 202.833 1628.44 201.75C1626.96 199.962 1620.43 190.625 1613.93 181C1607.43 171.375 1600.71 161.587 1598.99 159.25C1597.95 157.833 1596.92 156.417 1595.88 155C1583.58 155 1571.28 155 1558.98 155C1526.77 155 1521.88 155.2 1520.51 156.572C1519.18 157.905 1518.94 161.463 1518.94 180C1518.94 198.537 1518.7 202.095 1517.37 203.428C1516.13 204.664 1513.48 205 1504.94 205C1496.4 205 1493.75 204.664 1492.51 203.428C1491.11 202.026 1490.94 193.439 1490.94 123.928C1490.94 47.3334 1490.97 45.9664 1492.94 44.0004ZM1637.88 79.2524C1635.24 74.0394 1631.08 70.4104 1626.16 69.0444C1623.83 68.3974 1603.72 68.0094 1572.34 68.0064C1525.08 68.0014 1522.16 68.1044 1520.59 69.8294C1519.14 71.4364 1518.94 74.9484 1518.94 98.8064C1518.94 107.855 1518.94 116.906 1518.94 125.955C1519.73 126.475 1520.52 126.993 1521.32 127.512C1523.41 128.881 1529.87 129.035 1574.57 128.785C1623.93 128.508 1625.56 128.438 1629.44 126.411C1631.64 125.262 1634.79 122.412 1636.44 120.078C1639.44 115.839 1639.44 115.815 1639.73 99.6674C1640 84.7824 1639.86 83.1644 1637.88 79.2524Z" fill="currentColor"/>
<path d="M1221.05 75.618C1223.52 65.11 1232.87 53.078 1242.74 47.704C1253.08 42.078 1254.12 42 1319.08 42C1338.98 42 1358.89 42 1378.79 42C1379.48 42.878 1380.17 43.757 1380.87 44.635C1384.45 49.194 1383.55 64.557 1379.54 67.235C1378.93 67.639 1353.43 67.977 1322.87 67.985C1259.47 68.002 1259.68 67.98 1253.48 75.226C1251.51 77.527 1249.43 81.005 1248.86 82.955C1248.2 85.219 1247.93 100.651 1248.13 125.665C1248.23 138.72 1248.34 151.776 1248.44 164.831C1249.45 166.276 1250.47 167.72 1251.48 169.165C1253.16 171.549 1256.53 174.625 1258.98 176C1260.47 176.833 1261.95 177.667 1263.44 178.5C1277.11 178.601 1290.77 178.702 1304.44 178.803C1326.99 178.97 1346.9 178.838 1348.69 178.509C1354.2 177.494 1355.14 174.217 1354.76 157.319C1354.32 137.527 1356.72 139 1324.88 139C1300.36 139 1300.03 138.973 1298.5 136.778C1295.78 132.896 1296.65 130.478 1303.54 122.829C1315.46 109.59 1310.29 111 1346.92 111C1357.55 111 1368.17 111 1378.79 111C1379.48 111.878 1380.17 112.757 1380.87 113.635C1382.89 116.205 1382.94 117.294 1382.94 158.18C1382.94 172.15 1382.94 186.121 1382.94 200.091C1382.12 200.909 1381.3 201.727 1380.48 202.545C1379.67 203.363 1378.85 204.182 1378.03 205C1358.6 204.994 1339.17 204.989 1319.73 204.983C1257.52 204.964 1253.09 204.671 1243.87 199.964C1237.88 196.91 1229.47 188.67 1225.81 182.28C1220.12 172.331 1219.95 170.622 1220.05 123C1220.1 99.075 1220.55 77.753 1221.05 75.618Z" fill="currentColor"/>
<path d="M593.573 183C596.067 176.125 600.055 165.1 602.437 158.5C604.819 151.9 609.548 138.85 612.945 129.5C616.342 120.15 620.623 108.225 622.458 103C626.181 92.398 636.179 64.766 640.73 52.5C642.879 46.707 644.421 44.086 646.318 43C647.191 42.5 648.065 42 648.938 41.5C649.825 42 650.712 42.5 651.599 43C653.565 44.108 655.407 47.243 658.65 55C661.064 60.775 665.225 70.675 667.895 77C677.895 100.686 684.223 115.825 688.585 126.5C691.057 132.55 693.998 138.288 695.12 139.25C698.188 141.882 702.562 141.502 704.576 138.429C706.019 136.226 714.932 115.409 733.446 71C743.148 47.728 744.745 44.513 747.353 43C751.393 40.656 754.944 43.157 757.343 50.038C759.765 56.984 767.55 78.572 773.918 96C776.631 103.425 780.862 115.125 783.32 122C797.712 162.251 801.473 172.664 805.487 183.361C812.708 202.605 811.731 205 796.65 205C786.822 205 784.346 204.141 782.771 200.189C781.46 196.898 772.25 170.56 762.773 143C758.896 131.725 755.326 121.749 754.839 120.831C753.594 118.482 748.316 117.501 745.849 119.16C744.753 119.897 734.912 137.6 723.981 158.5C702.865 198.875 702.175 199.856 696.728 197.271C695.103 196.5 688.63 185.078 674.449 157.961C660.488 131.266 653.791 119.434 652.244 118.729C649.164 117.326 644.395 119.456 643.048 122.836C642.464 124.301 636.12 142.6 628.951 163.5C619.939 189.774 615.269 202.04 613.817 203.25C612.153 204.637 609.813 205 602.55 205C587.066 205 586.286 203.089 593.573 183Z" fill="currentColor"/>
<path d="M2327.36 187.493C2330.34 182.547 2350.84 148.35 2372.91 111.5C2394.99 74.6497 2413.79 43.9377 2414.69 43.2497C2417.17 41.3487 2420.36 41.7497 2422.64 44.2497C2424.34 46.1037 2510.12 188.617 2513.8 195.684C2515.43 198.812 2515.24 199.787 2512.48 202.545C2510.17 204.857 2509.38 205 2498.91 205C2487.98 205 2487.74 204.95 2485.11 202.159C2483.64 200.597 2480.6 195.984 2478.34 191.909C2474.06 184.168 2472.07 180.638 2454.42 149.5C2428.68 104.116 2423.66 95.4217 2422.43 94.1247C2420.56 92.1607 2416.05 92.4267 2413.97 94.6247C2410.89 97.8707 2389.94 139.184 2389.94 142.002C2389.94 147.686 2391.34 148 2416.7 148C2429.41 148 2440.85 148.397 2442.12 148.882C2444.66 149.848 2453.94 165.466 2453.94 168.765C2453.94 169.824 2453.12 171.435 2452.11 172.345C2450.47 173.825 2446.16 174.002 2411.36 174.015C2382.46 174.026 2371.82 174.348 2370.03 175.265C2368.63 175.983 2364.35 181.941 2359.83 189.478C2355.54 196.616 2351.25 203.029 2350.3 203.728C2349.13 204.58 2344.82 205 2337.25 205C2327.27 205 2325.7 204.764 2323.94 203C2320.88 199.941 2321.47 197.263 2327.36 187.493Z" fill="currentColor"/>
<path d="M2070.94 44.0002C2072.67 42.2702 2074.27 42.0002 2082.83 42.0002C2098.61 42.0002 2096.91 33.7372 2097.2 112C2097.28 134.167 2097.36 156.333 2097.44 178.5C2114.99 178.667 2132.55 178.833 2150.11 179C2179.07 179.275 2202.99 179.725 2203.25 180C2204.76 181.561 2213.94 197.711 2213.94 198.795C2213.94 199.508 2212.83 201.195 2211.48 202.545C2210.67 203.363 2209.85 204.182 2209.03 205C2186.5 205 2163.97 205 2141.44 205C2118.91 205 2096.38 205 2073.85 205C2073.03 204.182 2072.21 203.363 2071.39 202.545C2070.58 201.727 2069.76 200.909 2068.94 200.091C2068.94 174.409 2068.94 148.727 2068.94 123.045C2068.94 47.3331 2068.97 45.9652 2070.94 44.0002Z" fill="currentColor"/>
<path d="M249.933 229C275.428 151.593 324.453 6.85511 325.805 5.00011C329.076 0.511112 332.262 0.116142 365.739 0.0561425C391.78 0.00914245 397.529 0.253122 399.959 1.51012C403.126 3.14812 404.939 5.78306 404.939 8.74706C404.939 9.78006 396.611 35.5731 386.433 66.0631C376.255 96.5531 359.095 147.974 348.3 180.331C334.828 220.714 327.911 240.068 326.242 242.052C324.905 243.641 322.152 245.402 320.125 245.965C314.986 247.392 257.19 247.332 253.067 245.895C247.537 243.967 246.624 239.045 249.933 229Z" fill="currentColor"/>
<path d="M126.983 227C128.55 222.325 145.614 171.25 164.902 113.5C184.19 55.75 200.488 7.49204 201.119 6.26004C201.75 5.02804 204.171 3.097 206.5 1.97C210.544 0.0119996 212.195 -0.0670102 243.258 0.20999C254.099 0.30699 264.94 0.403029 275.781 0.500029C276.641 1.30803 277.5 2.11598 278.36 2.92398C280.042 4.50498 280.942 6.41798 280.947 8.42398C280.959 13.407 205.044 239.595 202.403 242.444C198.504 246.651 194.15 247.101 160.345 246.79C149.818 246.693 139.291 246.597 128.764 246.5C127.96 245.565 127.155 244.629 126.351 243.694C123.319 240.167 123.415 237.643 126.983 227Z" fill="currentColor"/>
<path d="M38.5387 121.546C59.6917 58.321 77.7727 5.72196 78.7187 4.65796C82.5747 0.322959 85.2787 0 117.758 0C137.108 0 149.787 0.399946 151.709 1.06995C153.629 1.73895 155.369 3.38502 156.357 5.46802C158.329 9.62402 160.85 1.5079 115.4 137.306C81.3677 238.99 80.5847 241.168 77.1277 243.806C75.9507 244.704 74.7747 245.602 73.5977 246.5C62.6707 246.6 51.7437 246.701 40.8167 246.801C12.3417 247.062 7.62869 246.89 4.94369 245.502C2.07569 244.019 -0.157311 240.483 0.00868933 237.685C0.0476893 237.033 17.3857 184.771 38.5387 121.546Z" fill="currentColor"/>
<path d="M382.072 204.009C388.118 186.139 393.824 170.663 394.752 169.62C398.581 165.315 401.287 165 434.456 165C469.159 165 470.54 165.212 472.897 170.902C474.04 173.661 473.253 176.553 462.949 207.466C452.28 239.472 451.594 241.161 448.179 243.767C446.985 244.678 445.792 245.589 444.598 246.5C434.238 246.603 423.878 246.707 413.518 246.81C396.424 246.98 380.925 246.837 379.076 246.493C374.944 245.724 370.914 241.878 371.008 238.795C371.047 237.533 376.026 221.879 382.072 204.009Z" fill="currentColor"/>
<path d="M964.811 119.71C989.913 78.0248 1011.12 43.4938 1011.94 42.9748C1014.46 41.3848 1017.49 41.8878 1019.63 44.2498C1021.36 46.1558 1041.92 79.8278 1052.46 97.9998C1054.21 101.025 1068.31 124.56 1083.79 150.301C1099.27 176.042 1111.94 197.947 1111.94 198.979C1111.94 200.011 1110.75 201.787 1109.3 202.927C1107.01 204.733 1105.28 205 1095.86 205C1086.03 205 1084.83 204.796 1082.63 202.75C1081.3 201.512 1075.14 191.5 1068.94 180.5C1062.74 169.5 1053.06 152.4 1047.44 142.5C1041.82 132.6 1033.53 117.975 1029.01 110C1024.5 102.025 1020.2 94.8808 1019.46 94.1248C1017.62 92.2408 1013.26 92.3968 1011.02 94.4278C1008.34 96.8548 986.938 139.349 986.938 142.248C986.938 147.686 988.446 148 1014.58 148C1032.27 148 1038.96 148.328 1040.1 149.25C1042.68 151.34 1050.94 165.915 1050.94 168.38C1050.94 169.65 1050.12 171.435 1049.11 172.345C1047.47 173.825 1043.16 174.002 1008.36 174.015C979.46 174.026 968.818 174.348 967.031 175.265C965.629 175.984 961.396 181.899 956.894 189.43C952.643 196.542 948.352 202.954 947.36 203.68C946.123 204.585 942.071 205 934.469 205C921.513 205 918.864 203.915 919.055 198.693C919.14 196.375 931.683 174.724 964.811 119.71Z" fill="currentColor"/>
<path d="M2901.34 74.5C2906.53 58.157 2919.02 46.421 2934.74 43.115C2938.28 42.37 2959.16 42 2997.77 42C3048.4 42 3055.77 42.192 3057.72 43.557C3059.76 44.985 3059.94 45.921 3059.94 54.902C3059.94 63.115 3059.64 64.956 3058.11 66.345C3056.45 67.843 3051.06 68.001 3001.36 68.006C2966.12 68.01 2945.09 68.3871 2942.66 69.0601C2937.75 70.4251 2932.09 75.449 2929.8 80.491C2925.69 89.541 2928.99 101.355 2937.13 106.745C2938.51 107.663 2939.9 108.582 2941.29 109.5C2957.48 109.679 2973.67 109.857 2989.86 110.036C3041.78 110.609 3040.05 110.444 3050.65 115.852C3056.27 118.721 3063.42 127.051 3066.05 133.798C3067.89 138.514 3068.36 142.084 3068.72 154.452C3069.21 170.71 3068.26 177.397 3064.43 185.002C3061.16 191.475 3052.54 199.223 3045.41 202.094C3043.42 202.896 3041.43 203.698 3039.44 204.5C3017.7 204.595 2995.96 204.689 2974.22 204.784C2909.78 205.065 2908.98 205.044 2906.97 203.034C2905.85 201.915 2904.94 200.066 2904.94 198.925C2904.94 196.873 2911.8 184.133 2914.73 180.75C2916.14 179.125 2919.99 179 2968.65 179C3004.96 179 3022.46 178.645 3025.64 177.845C3031.86 176.278 3038.34 170.015 3039.95 164C3042.66 153.886 3038.63 143.867 3030.03 139.327C3025.63 137.002 3025.59 137 2985.03 136.992C2961.9 136.988 2941.64 136.539 2937.94 135.948C2920.42 133.155 2906.48 120.948 2901.53 104.068C2899.6 97.492 2899.49 80.324 2901.34 74.5Z" fill="currentColor"/>
<path d="M1778.86 70C1781.64 61.104 1788.03 52.604 1795.75 47.521C1803.82 42.2 1806.49 42 1869.44 42C1932.09 42 1934.52 42.177 1942.69 47.347C1948.26 50.874 1954.77 58.412 1957.78 64.825C1958.67 66.717 1959.55 68.608 1960.44 70.5C1960.44 88.174 1960.44 105.847 1960.44 123.521C1960.44 141.195 1960.44 158.868 1960.44 176.542C1959.35 178.759 1958.26 180.976 1957.16 183.193C1953.11 191.431 1945.21 198.939 1937.19 202.179C1935.27 202.952 1933.35 203.727 1931.44 204.5C1910.77 204.5 1890.11 204.5 1869.44 204.5C1848.77 204.5 1828.11 204.5 1807.44 204.5C1805.45 203.698 1803.46 202.896 1801.46 202.094C1793.89 199.046 1786.25 191.895 1781.81 183.723C1780.69 181.649 1779.56 179.574 1778.44 177.5C1778.38 160 1778.32 142.5 1778.26 125C1778.16 96.125 1778.43 71.375 1778.86 70ZM1931.19 76.071C1930.23 74.185 1928.17 71.71 1926.62 70.571C1923.86 68.546 1922.61 68.494 1870.62 68.238C1811.25 67.945 1812.98 67.7609 1808.21 74.8979C1807.45 76.0309 1806.7 77.163 1805.94 78.296C1805.94 93.33 1805.94 108.364 1805.94 123.398C1805.95 166.339 1806.04 168.654 1807.89 171.696C1812.22 178.788 1809.53 178.469 1867.89 178.777C1885.41 178.869 1902.92 178.961 1920.44 179.053C1921.91 178.294 1923.39 177.536 1924.86 176.777C1933.11 172.534 1932.94 173.683 1932.94 123.516C1932.94 83.5871 1932.77 79.182 1931.19 76.071Z" fill="currentColor"/>
<path d="M2624.94 44C2626.9 42.041 2628.27 42 2691.89 42C2736.13 42 2758.53 42.358 2762.14 43.123C2769.64 44.714 2774.52 47.447 2780.4 53.359C2788.45 61.45 2791.87 70.41 2791.91 83.54C2791.97 100.281 2784.16 114.255 2770.98 120.977C2768.76 122.112 2766.94 123.225 2766.94 123.45C2766.94 123.675 2769.01 124.894 2771.54 126.159C2777.93 129.351 2786.25 138.634 2789.07 145.715C2791.01 150.606 2791.37 153.353 2791.39 163.5C2791.41 174.528 2791.18 175.98 2788.65 181.43C2782.89 193.781 2774.55 200.847 2762.59 203.488C2756.4 204.853 2746.7 205.028 2690.61 204.783C2627.76 204.509 2625.73 204.441 2624.36 202.559C2623.16 200.923 2622.94 188.49 2622.94 123.309C2622.94 47.3341 2622.97 45.965 2624.94 44ZM2761.75 76.105C2757.26 67.749 2759.04 68 2704.34 68C2657.16 68 2656.16 68.041 2653.57 70.073C2652.7 70.764 2651.82 71.454 2650.94 72.145C2650.94 77.787 2650.94 83.43 2650.94 89.073C2650.94 104.667 2651.1 106.158 2652.94 108C2654.88 109.942 2656.27 110 2700.97 110C2740.26 110 2747.55 109.773 2750.71 108.452C2758.77 105.083 2763.03 98.209 2763.68 87.5C2764.05 81.545 2763.76 79.844 2761.75 76.105ZM2762.97 146.643C2762.46 145.071 2761.24 142.887 2760.25 141.79C2755.9 136.984 2756.09 137 2703.99 137C2656.27 137 2654.88 137.054 2652.94 139C2651.1 140.837 2650.94 142.333 2650.94 157.389C2650.94 172.036 2651.14 174.029 2652.85 176.139C2653.49 176.926 2654.12 177.713 2654.76 178.5C2671.27 178.5 2687.77 178.5 2704.28 178.5C2752.73 178.5 2753.85 178.455 2756.55 176.438C2762.37 172.092 2763.35 169.715 2763.62 159.222C2763.76 153.875 2763.47 148.215 2762.97 146.643Z" fill="currentColor"/>
</svg>
