<?xml version="1.0" encoding="UTF-8"?>
<svg version="1.1" xmlns="http://www.w3.org/2000/svg" width="256" height="256">
<path d="M0 0 C0.77472656 0.61101563 1.54945313 1.22203125 2.34765625 1.8515625 C23.82833729 19.65741803 35.88234587 47.74279532 39 75 C40.90590203 107.93578435 30.53550726 137.86045985 8.6484375 162.52294922 C-11.3751967 184.60310433 -39.58189778 196.12951466 -68.875 198.28515625 C-100.21234978 199.06183626 -128.7440177 186.48579232 -151.28369141 165.18505859 C-172.37122137 144.49599391 -184.12340192 115.6519068 -184.4375 86.25 C-184.29879857 59.13066915 -175.06577152 35.10219748 -158 14 C-157.35160156 13.19691406 -156.70320313 12.39382812 -156.03515625 11.56640625 C-116.94144556 -34.56257344 -45.4886647 -37.44534955 0 0 Z " fill="#AAA8A6" transform="translate(201,41)"/>
<path d="M0 0 C0.77472656 0.61101563 1.54945313 1.22203125 2.34765625 1.8515625 C23.82833729 19.65741803 35.88234587 47.74279532 39 75 C40.90590203 107.93578435 30.53550726 137.86045985 8.6484375 162.52294922 C-11.3751967 184.60310433 -39.58189778 196.12951466 -68.875 198.28515625 C-100.21234978 199.06183626 -128.7440177 186.48579232 -151.28369141 165.18505859 C-172.37122137 144.49599391 -184.12340192 115.6519068 -184.4375 86.25 C-184.29879857 59.13066915 -175.06577152 35.10219748 -158 14 C-157.35160156 13.19691406 -156.70320313 12.39382812 -156.03515625 11.56640625 C-116.94144556 -34.56257344 -45.4886647 -37.44534955 0 0 Z M-146 27 C-159.17689966 44.02911164 -166.37267175 62.70851257 -166.3125 84.25 C-166.32861328 85.38824219 -166.34472656 86.52648437 -166.36132812 87.69921875 C-166.37466549 111.19966022 -156.35739788 132.62625312 -141 150 C-140.44828125 150.63550781 -139.8965625 151.27101562 -139.328125 151.92578125 C-126.54586391 165.6888594 -108.07028739 174.10421332 -90 178 C-89.22084229 178.1750708 -88.44168457 178.3501416 -87.63891602 178.53051758 C-63.94495744 182.74584576 -40.06705583 176.83372897 -20.1875 163.8125 C1.25039314 148.05172862 15.81882754 125.31197366 20.34375 99.0012207 C23.97512171 72.78725621 17.35555439 48.9777762 1.65234375 27.83984375 C-14.37924019 7.74319891 -37.59185514 -4.82336339 -63 -8 C-95.23058478 -10.92036798 -125.08038369 2.37509171 -146 27 Z " fill="#444342" transform="translate(201,41)"/>
<path d="M0 0 C0.87205078 -0.02449219 1.74410156 -0.04898438 2.64257812 -0.07421875 C3.48111328 -0.07808594 4.31964844 -0.08195312 5.18359375 -0.0859375 C6.33492798 -0.09826416 6.33492798 -0.09826416 7.50952148 -0.11083984 C10.3785841 0.56812729 10.95374205 1.95579968 12.5625 4.375 C13.5239563 6.39907837 13.5239563 6.39907837 14.35595703 8.56103516 C14.67283478 9.37512848 14.98971252 10.1892218 15.31619263 11.02798462 C15.81323196 12.33284317 15.81323196 12.33284317 16.3203125 13.6640625 C16.6688327 14.5636972 17.01735291 15.46333191 17.37643433 16.39022827 C18.48604125 19.25790804 19.58700621 22.1288122 20.6875 25 C21.79696307 27.87759482 22.90816239 30.75451273 24.01998901 33.63119507 C24.71067093 35.42008069 25.39962522 37.20963447 26.08670044 38.99990845 C26.39727386 39.80769745 26.70784729 40.61548645 27.02783203 41.44775391 C27.30080109 42.15960846 27.57377014 42.87146301 27.85501099 43.60488892 C28.55873116 45.43689154 28.55873116 45.43689154 29.5625 47.375 C29.89459473 46.51447021 30.22668945 45.65394043 30.56884766 44.76733398 C31.83179869 41.49605862 33.09557426 38.22510408 34.35986328 34.9543457 C34.9011964 33.55342668 35.44222453 32.15238975 35.98291016 30.7512207 C38.925564 23.12607577 41.88587009 15.50798889 44.8984375 7.91015625 C45.15154694 7.26670761 45.40465637 6.62325897 45.66543579 5.96031189 C47.44638985 1.49111015 47.44638985 1.49111015 48.5625 0.375 C49.96598735 0.27639869 51.37430477 0.24421063 52.78125 0.2421875 C54.05548828 0.24025391 54.05548828 0.24025391 55.35546875 0.23828125 C56.24878906 0.24214844 57.14210938 0.24601562 58.0625 0.25 C58.95582031 0.24613281 59.84914063 0.24226563 60.76953125 0.23828125 C61.61902344 0.23957031 62.46851563 0.24085937 63.34375 0.2421875 C64.12814453 0.24331543 64.91253906 0.24444336 65.72070312 0.24560547 C67.5625 0.375 67.5625 0.375 68.5625 1.375 C68.6628188 3.83405221 68.6986818 6.26503428 68.69189453 8.72460938 C68.69452301 9.87821709 68.69452301 9.87821709 68.69720459 11.05513 C68.7016234 13.60969263 68.69868502 16.16418661 68.6953125 18.71875 C68.69598553 20.48612481 68.69695555 22.25349953 68.69821167 24.02087402 C68.69968868 27.72990803 68.69753398 31.438918 68.69287109 35.14794922 C68.6871738 39.91322493 68.69045279 44.67844432 68.69644356 49.44371796 C68.70004908 53.09471057 68.69891062 56.74568973 68.69631577 60.39668274 C68.69564647 62.15424099 68.696475 63.91180045 68.69879532 65.6693573 C68.70132171 68.12140154 68.69748146 70.57335331 68.69189453 73.02539062 C68.69391876 73.75893265 68.69594299 74.49247467 68.69802856 75.24824524 C68.67676264 80.26073736 68.67676264 80.26073736 67.5625 81.375 C65.23089945 81.47409302 62.89620058 81.50470504 60.5625 81.5 C59.28375 81.50257813 58.005 81.50515625 56.6875 81.5078125 C53.5625 81.375 53.5625 81.375 52.5625 80.375 C52.4400669 78.87183231 52.38473715 77.36311833 52.35717773 75.85522461 C52.3272599 74.41384377 52.3272599 74.41384377 52.29673767 72.94334412 C52.28002518 71.898564 52.26331268 70.85378387 52.24609375 69.77734375 C52.22531265 68.71334854 52.20453156 67.64935333 52.18312073 66.55311584 C52.11750746 63.1396456 52.05868577 59.72609571 52 56.3125 C51.95682597 54.00454891 51.91321206 51.696606 51.86914062 49.38867188 C51.76181416 43.71753318 51.66007008 38.04631448 51.5625 32.375 C51.11639122 33.44451149 51.11639122 33.44451149 50.66127014 34.53562927 C50.26266281 35.49123245 49.86405548 36.44683563 49.45336914 37.43139648 C49.03588409 38.43226288 48.61839905 39.43312927 48.18826294 40.46432495 C47.29446828 42.60668214 46.40016635 44.7488277 45.50561523 46.89086914 C43.45220728 51.81323709 41.40722466 56.73806382 39.41015625 61.68359375 C39.0944165 62.4629126 38.77867676 63.24223145 38.45336914 64.04516602 C37.87146197 65.48534241 37.29363997 66.92717805 36.72045898 68.37084961 C35.58354398 71.17892687 34.7285066 73.2089934 32.5625 75.375 C29.87410615 75.64491906 27.27108064 75.46237357 24.5625 75.375 C20.48435895 66.48753604 16.92633873 57.39546386 13.3125 48.3125 C12.65641114 46.66725344 12.00016249 45.02207059 11.34375 43.37695312 C9.74815567 39.3770347 8.15473046 35.37625859 6.5625 31.375 C6.55441315 31.97190643 6.54632629 32.56881287 6.53799438 33.18380737 C6.45212803 39.3804097 6.35263307 45.57668548 6.24511719 51.77294922 C6.20676599 54.08734669 6.1719241 56.40180502 6.140625 58.71630859 C6.0951076 62.03765664 6.03709157 65.35858341 5.9765625 68.6796875 C5.95923569 70.23911575 5.95923569 70.23911575 5.94155884 71.83004761 C5.92168915 72.79089264 5.90181946 73.75173767 5.88134766 74.74169922 C5.86802399 75.58997284 5.85470032 76.43824646 5.8409729 77.31222534 C5.5625 79.375 5.5625 79.375 3.5625 81.375 C0.59375 81.640625 0.59375 81.640625 -2.9375 81.625 C-4.1028125 81.63015625 -5.268125 81.6353125 -6.46875 81.640625 C-9.4375 81.375 -9.4375 81.375 -11.4375 79.375 C-11.63569282 76.91657078 -11.71031958 74.57080401 -11.69628906 72.11132812 C-11.6997937 71.36322372 -11.70329834 70.61511932 -11.70690918 69.84434509 C-11.7157309 67.36488641 -11.70987589 64.88571172 -11.703125 62.40625 C-11.70447153 60.68754013 -11.70641195 58.96883063 -11.70892334 57.25012207 C-11.7118752 53.6453896 -11.70757501 50.04075614 -11.69824219 46.43603516 C-11.68684759 41.8087094 -11.69340674 37.18161564 -11.70538712 32.5542984 C-11.71260407 29.00447838 -11.71031855 25.45471363 -11.70513153 21.90489197 C-11.70379458 20.19839958 -11.70544435 18.49190223 -11.71009064 16.78541565 C-11.71515322 14.40303195 -11.70744966 12.02102725 -11.69628906 9.63867188 C-11.70033752 8.92899765 -11.70438599 8.21932343 -11.70855713 7.48814392 C-11.6346971 -0.99514157 -7.03849182 0.01035834 0 0 Z " fill="#343332" transform="translate(71.4375,81.625)"/>
<path d="M0 0 C0.75410156 -0.00807175 1.50820312 -0.01614349 2.28515625 -0.02445984 C3.88913665 -0.03832469 5.49314685 -0.04903605 7.09716797 -0.05688477 C9.52500755 -0.07395514 11.95143383 -0.11779798 14.37890625 -0.16210938 C29.59071253 -0.31486934 29.59071253 -0.31486934 36.5625 4.23828125 C37.12751221 4.59656006 37.69252441 4.95483887 38.2746582 5.32397461 C43.54694039 9.15975093 46.28952392 14.96947454 47.5625 21.23828125 C48.51177378 29.96848766 46.6124306 38.54333228 41.3125 45.67578125 C34.14930322 52.35057825 25.28112249 54.53418607 15.625 54.36328125 C14.94115234 54.35425781 14.25730469 54.34523437 13.55273438 54.3359375 C11.88916713 54.31267083 10.22578369 54.27681292 8.5625 54.23828125 C8.57035522 55.41185181 8.57035522 55.41185181 8.57836914 56.60913086 C8.59907106 60.13133958 8.61213838 63.65353555 8.625 67.17578125 C8.63337891 68.40748047 8.64175781 69.63917969 8.65039062 70.90820312 C8.65522461 72.66293945 8.65522461 72.66293945 8.66015625 74.453125 C8.66801147 76.07915649 8.66801147 76.07915649 8.67602539 77.73803711 C8.5625 80.23828125 8.5625 80.23828125 7.5625 81.23828125 C5.25256618 81.36385287 2.93831464 81.41403854 0.625 81.42578125 C-0.64214844 81.43996094 -1.90929687 81.45414062 -3.21484375 81.46875 C-6.4375 81.23828125 -6.4375 81.23828125 -8.4375 79.23828125 C-8.63050258 76.74418478 -8.6998746 74.36163972 -8.68041992 71.86694336 C-8.68231827 71.1074791 -8.68421661 70.34801483 -8.68617249 69.5655365 C-8.68988496 67.04879518 -8.67917036 64.53234078 -8.66796875 62.015625 C-8.66677721 60.27210016 -8.66632373 58.52857467 -8.6665802 56.78504944 C-8.66501457 53.12903838 -8.65671823 49.47312513 -8.64331055 45.81713867 C-8.62630801 41.12026558 -8.62249651 36.42349995 -8.62325573 31.72659969 C-8.62298441 28.12621527 -8.61750962 24.52585455 -8.61025429 20.92547798 C-8.60706233 19.1930414 -8.60509899 17.46060213 -8.60436058 15.72816277 C-8.60220328 13.31213636 -8.59347277 10.89622622 -8.58276367 8.48022461 C-8.58321686 7.75760437 -8.58367004 7.03498413 -8.58413696 6.29046631 C-8.53795542 -0.79962732 -6.39215914 0.06448956 0 0 Z " fill="#2F2E2D" transform="translate(158.4375,81.76171875)"/>
<path d="M0 0 C1.87109375 1.578125 1.87109375 1.578125 2.87109375 4.578125 C-1.33462833 3.64934936 -4.89535921 1.73999683 -8.69140625 -0.234375 C-33.628018 -12.88085966 -58.20782561 -14.5847127 -84.75390625 -6.2890625 C-107.38123002 1.76925328 -125.66730452 19.67351503 -136.76171875 40.66796875 C-142.79109362 53.53905941 -145.48106985 65.6285573 -145.44140625 79.828125 C-145.45751953 80.96636719 -145.47363281 82.10460937 -145.49023438 83.27734375 C-145.50009955 100.65977655 -139.88715414 117.44991031 -130.546875 132.02734375 C-129.11655783 134.60033856 -128.53107005 136.67941191 -128.12890625 139.578125 C-132.47171849 135.67189177 -135.04177088 131.63109544 -137.69140625 126.453125 C-138.08271729 125.69974854 -138.47402832 124.94637207 -138.87719727 124.17016602 C-141.79221104 118.46040186 -144.2866836 112.72910175 -146.12890625 106.578125 C-146.3403125 105.87558594 -146.55171875 105.17304688 -146.76953125 104.44921875 C-152.98458774 81.76426258 -148.97545592 56.62165788 -138.37890625 36.015625 C-128.74549014 19.18147361 -115.1953547 4.87266042 -98.12890625 -4.421875 C-97.5349707 -4.74768555 -96.94103516 -5.07349609 -96.32910156 -5.40917969 C-66.07659054 -21.6164626 -28.55823053 -18.60414409 0 0 Z " fill="#1E1D1D" transform="translate(181.12890625,45.421875)"/>
<path d="M0 0 C14.31742174 -0.57354657 14.31742174 -0.57354657 19 3 C22.63873371 6.88131595 22.55007971 11.314168 22.43359375 16.3984375 C21.80456205 20.17262767 20.02061086 21.78979693 17 24 C16.67 24.33 16.34 24.66 16 25 C13.48863896 25.09975032 11.01096585 25.13882183 8.5 25.125 C7.79746094 25.12886719 7.09492188 25.13273437 6.37109375 25.13671875 C1.12661378 25.12661378 1.12661378 25.12661378 0 24 C-0.08726223 22.21928754 -0.10699041 20.4351686 -0.09765625 18.65234375 C-0.09443359 17.57275391 -0.09121094 16.49316406 -0.08789062 15.38085938 C-0.07951172 14.24455078 -0.07113281 13.10824219 -0.0625 11.9375 C-0.05798828 10.79732422 -0.05347656 9.65714844 -0.04882812 8.48242188 C-0.03699747 5.65489649 -0.0205141 2.8274736 0 0 Z " fill="#A5A2A1" transform="translate(167,97)"/>
<path d="M0 0 C0.33 0 0.66 0 1 0 C2.38760384 25.78630471 -6.2837334 50.35509614 -23 70 C-23.53109375 70.67675781 -24.0621875 71.35351562 -24.609375 72.05078125 C-38.01624669 88.61025891 -58.7944391 98.66220066 -79.3828125 102.65625 C-84.24417685 103.11823711 -89.05774931 103.10586074 -93.9375 103.0625 C-94.90751953 103.05798828 -95.87753906 103.05347656 -96.87695312 103.04882812 C-99.2513676 103.0371315 -101.62565021 103.02074086 -104 103 C-101.62377183 100.23779482 -101.18708604 100.02052421 -97.296875 99.59375 C-95.78147108 99.55317085 -94.26577981 99.5225225 -92.75 99.5 C-67.31935872 98.50645676 -45.32742087 88.81607813 -27.78515625 70.1640625 C-13.60393054 54.4287966 -5.22397524 34.96214962 -3 14 C-2.67 14 -2.34 14 -2 14 C-1.34 9.38 -0.68 4.76 0 0 Z " fill="#686766" transform="translate(224,120)"/>
<path d="M0 0 C2 2 2 2 2 5 C2.66 5 3.32 5 4 5 C6.4915181 13.55196754 6.16974318 20.0415054 2 28 C-2.10624215 33.61746138 -6.97701746 39.99036964 -14.14379883 41.4309082 C-17.52751206 41.90778913 -20.91474652 42.29686284 -24.31445312 42.640625 C-26.64003057 42.93743021 -28.77362137 43.26476781 -31 44 C-34.39427067 48.56470884 -32.99952981 54.98707779 -32.77734375 60.40625 C-33.01474301 64.23795739 -33.70451137 65.97844441 -36 69 C-39.4290052 71.5717539 -42.83830511 71.28701344 -47 71 C-50.4375 70 -50.4375 70 -53 69 C-52.67 68.01 -52.34 67.02 -52 66 C-47.38 66 -42.76 66 -38 66 C-37.67 57.42 -37.34 48.84 -37 40 C-34.7725 39.9175 -32.545 39.835 -30.25 39.75 C-21.90457605 39.28332112 -14.43167502 37.4515649 -7.0625 33.375 C-0.22598698 25.50265167 1.40088762 17.06844667 1 7 C0.7573684 4.63643353 0.40743702 2.34276288 0 0 Z " fill="#8C8A89" transform="translate(204,96)"/>
<path d="M0 0 C-3.61987714 1.20662571 -5.10465738 0.66360062 -8.75 -0.3125 C-9.82121094 -0.59480469 -10.89242187 -0.87710938 -11.99609375 -1.16796875 C-14.27424617 -1.79897846 -16.54522256 -2.45596731 -18.8125 -3.125 C-22.19698031 -4.05407303 -25.51936831 -4.5738002 -29 -5 C-29 -5.66 -29 -6.32 -29 -7 C-29.83917969 -6.8246875 -30.67835938 -6.649375 -31.54296875 -6.46875 C-35.283324 -5.96158319 -38.5588885 -6.15119555 -42.3125 -6.5 C-44.53849732 -6.70468941 -46.76774215 -6.88173468 -49 -7 C-49.33 -6.67 -49.66 -6.34 -50 -6 C-51.72694675 -5.86390087 -53.45704722 -5.76750772 -55.1875 -5.6875 C-61.28242787 -5.2314662 -66.7551862 -3.83691258 -72.58203125 -2.0390625 C-76.6441346 -0.80418308 -80.74946656 0.16260195 -84.890625 1.09375 C-87.18035551 1.80682094 -87.18035551 1.80682094 -88.0078125 4.046875 C-88.33523437 4.69140625 -88.66265625 5.3359375 -89 6 C-91.1640625 6.609375 -91.1640625 6.609375 -93.625 6.75 C-94.44226563 6.80671875 -95.25953125 6.8634375 -96.1015625 6.921875 C-96.72804688 6.94765625 -97.35453125 6.9734375 -98 7 C-73.66202714 -19.13662213 -28.75853948 -14.12143456 0 0 Z " fill="#908E8C" transform="translate(173,44)"/>
<path d="M0 0 C-1.19542907 4.0092852 -2.75634922 7.53642645 -4.76733398 11.20117188 C-13.75372825 27.74235076 -16.19011725 45.40714795 -16.0625 64 C-16.05798828 65.25167969 -16.05347656 66.50335938 -16.04882812 67.79296875 C-16.03711415 70.86202941 -16.02071073 73.93098907 -16 77 C-18 74 -18 74 -18 71 C-18.66 71 -19.32 71 -20 71 C-20.84241046 45.97392916 -18.07693633 22.45460778 -4 1 C-2 0 -2 0 0 0 Z " fill="#464544" transform="translate(37,68)"/>
<path d="M0 0 C0.78062302 -0.00191345 1.56124603 -0.0038269 2.36552429 -0.00579834 C3.99995246 -0.00714906 5.63439176 -0.00353112 7.26879883 0.00488281 C9.77254034 0.01567163 12.27557626 0.00491289 14.77929688 -0.0078125 C16.3736995 -0.00649213 17.96810168 -0.00393226 19.5625 0 C20.30937576 -0.00404846 21.05625153 -0.00809692 21.82575989 -0.01226807 C25.57648253 0.02176935 27.24839205 0.13174054 30.44921875 2.265625 C29.50828369 2.2749707 28.56734863 2.28431641 27.59790039 2.29394531 C2.38302407 2.60880329 -18.5759765 4.07037462 -41.078125 16.93359375 C-43.51693373 18.24739119 -45.96118833 19.28815791 -48.55078125 20.265625 C-47.61975357 16.43511111 -46.72268446 15.37631389 -43.34765625 13.203125 C-42.00795442 12.538303 -40.65822515 11.89342699 -39.30078125 11.265625 C-38.58857422 10.9238623 -37.87636719 10.58209961 -37.14257812 10.22998047 C-25.35701917 4.69014031 -13.14819497 -0.07224925 0 0 Z " fill="#676564" transform="translate(115.55078125,16.734375)"/>
<path d="M0 0 C0.33 0 0.66 0 1 0 C1 16.17 1 32.34 1 49 C0.67 49 0.34 49 0 49 C-0.33 37.78 -0.66 26.56 -1 15 C-4.27458318 18.27458318 -4.59530536 19.70787748 -6 24 C-6.83798407 25.65413142 -7.69364545 27.29937308 -8.5625 28.9375 C-10.66470342 33.01932938 -11.46141864 36.42205846 -12 41 C-13.56650041 44.82922321 -14.73889498 45.85010638 -18.375 47.9375 C-22 49 -22 49 -24.9375 48.1875 C-25.618125 47.795625 -26.29875 47.40375 -27 47 C-27 46.34 -27 45.68 -27 45 C-25.80375 45.103125 -24.6075 45.20625 -23.375 45.3125 C-21.08578125 45.13500914 -21.08578125 45.13500914 -19 44 C-17.38283588 41.54923097 -17.38283588 41.54923097 -16.15625 38.4375 C-15.39320557 36.67369995 -15.39320557 36.67369995 -14.61474609 34.87426758 C-14.07592632 33.58308322 -13.53769225 32.29165431 -13 31 C-12.43553042 29.67489547 -11.86992255 28.35027529 -11.30322266 27.02612305 C-9.55440947 22.92263998 -7.83810595 18.80598785 -6.125 14.6875 C-5.52626356 13.25316256 -4.92730634 11.81891726 -4.328125 10.38476562 C-2.88288138 6.92423077 -1.44058958 3.46247532 0 0 Z " fill="#82807E" transform="translate(123,112)"/>
<path d="M0 0 C0.99 0 1.98 0 3 0 C4.15321805 3.45965416 4.06253317 6.10744285 4 9.75 C3.9646036 13.58067678 4.01148299 17.07910507 4.5625 20.875 C4.9993964 23.99568859 4.67193549 26.53773455 4.25363159 29.63555908 C3.76967274 34.14718997 3.80111648 38.67743442 3.75390625 43.2109375 C3.72101073 45.36328597 3.68779846 47.51562962 3.65429688 49.66796875 C3.606649 53.03887057 3.56209898 56.40974711 3.52319336 59.78076172 C3.48366745 63.0493412 3.43212976 66.31755649 3.37890625 69.5859375 C3.3704921 70.6004599 3.36207794 71.6149823 3.35340881 72.6602478 C3.33676682 73.5952713 3.32012482 74.5302948 3.30297852 75.49365234 C3.28751732 76.72986832 3.28751732 76.72986832 3.27174377 77.99105835 C3 80 3 80 1 82 C-2.2578125 82.1953125 -2.2578125 82.1953125 -6.125 82.125 C-8.04699219 82.09792969 -8.04699219 82.09792969 -10.0078125 82.0703125 C-10.99523437 82.04710937 -11.98265625 82.02390625 -13 82 C-13 81.67 -13 81.34 -13 81 C-6.565 80.505 -6.565 80.505 0 80 C0 53.6 0 27.2 0 0 Z " fill="#82807F" transform="translate(139,82)"/>
<path d="M0 0 C3.28330144 2.92348758 3.95866933 5.75457495 5 10 C4.34 10 3.68 10 3 10 C3.02618408 11.1552417 3.05236816 12.3104834 3.0793457 13.50073242 C3.17000348 17.79627026 3.22730551 22.09172394 3.2746582 26.38793945 C3.29976702 28.24550609 3.33386134 30.10297427 3.37719727 31.96020508 C3.43801124 34.63387358 3.4662452 37.30623365 3.48828125 39.98046875 C3.51408768 40.80773972 3.5398941 41.63501068 3.56648254 42.48735046 C3.56859545 46.85371363 3.41860816 48.47611289 0.59545898 52.00927734 C-3.05429301 54.80864502 -3.05429301 54.80864502 -6 55 C-8.359375 54.66015625 -8.359375 54.66015625 -10.75 54.0625 C-11.54921875 53.86785156 -12.3484375 53.67320312 -13.171875 53.47265625 C-14.07679687 53.23869141 -14.07679687 53.23869141 -15 53 C-15 52.34 -15 51.68 -15 51 C-14.07316406 50.93941406 -13.14632812 50.87882812 -12.19140625 50.81640625 C-10.99386719 50.73261719 -9.79632813 50.64882812 -8.5625 50.5625 C-7.36753906 50.48128906 -6.17257813 50.40007812 -4.94140625 50.31640625 C-2.11429756 50.32343886 -2.11429756 50.32343886 -1 49 C-0.8774645 47.46617321 -0.82222062 45.92689481 -0.79467773 44.38842773 C-0.77473251 43.40748642 -0.75478729 42.4265451 -0.73423767 41.4158783 C-0.71752518 40.3492244 -0.70081268 39.2825705 -0.68359375 38.18359375 C-0.66281265 37.0974025 -0.64203156 36.01121124 -0.62062073 34.8921051 C-0.55500558 31.40730373 -0.49618489 27.92242432 -0.4375 24.4375 C-0.39432615 22.08137199 -0.35071224 19.72525201 -0.30664062 17.36914062 C-0.19931208 11.57951063 -0.09756835 5.78980225 0 0 Z " fill="#9A9796" transform="translate(77,112)"/>
<path d="M0 0 C0.66 0.33 1.32 0.66 2 1 C1.17757812 1.72703125 0.35515625 2.4540625 -0.4921875 3.203125 C-15.3814465 15.78484776 -15.3814465 15.78484776 -23.9375 32.375 C-24.70564767 36.08267338 -25.64108468 38.95306771 -28 42 C-28.66 42 -29.32 42 -30 42 C-30 43.32 -30 44.64 -30 46 C-30.99 46.495 -30.99 46.495 -32 47 C-32.39368517 48.92469088 -32.39368517 48.92469088 -32.5 51.1875 C-32.84415806 55.05927815 -33.63829521 58.34041837 -35 62 C-35.9111904 65.09386647 -36.18539212 67.98392069 -36.31640625 71.203125 C-36.35830078 72.1828125 -36.40019531 73.1625 -36.44335938 74.171875 C-36.48267578 75.18765625 -36.52199219 76.2034375 -36.5625 77.25 C-36.60568359 78.28125 -36.64886719 79.3125 -36.69335938 80.375 C-36.79925682 82.9165387 -36.90133443 85.45817196 -37 88 C-37.33 88 -37.66 88 -38 88 C-38.82899536 58.73965223 -38.82899536 58.73965223 -34 46 C-33.649375 44.98679688 -33.29875 43.97359375 -32.9375 42.9296875 C-28.19569742 30.31780982 -20.35951451 19.5819527 -11 10 C-10.34644531 9.319375 -9.69289063 8.63875 -9.01953125 7.9375 C-6.17779714 5.02911541 -3.37610327 2.29575022 0 0 Z " fill="#727170" transform="translate(73,51)"/>
<path d="M0 0 C0.99 0.33 1.98 0.66 3 1 C3.03738281 2.29292969 3.07476562 3.58585937 3.11328125 4.91796875 C3.80501475 24.68287203 7.8094295 42.63635023 18.58203125 59.44921875 C20.01234842 62.02221356 20.5978362 64.10128691 21 67 C16.65718776 63.09376677 14.08713537 59.05297044 11.4375 53.875 C11.04618896 53.12162354 10.65487793 52.36824707 10.25170898 51.59204102 C7.33669521 45.88227686 4.84222265 40.15097675 3 34 C2.78859375 33.29746094 2.5771875 32.59492188 2.359375 31.87109375 C-0.51390799 21.38361085 -0.11118398 10.76013836 0 0 Z " fill="#2D2C2C" transform="translate(32,118)"/>
<path d="M0 0 C5.70693684 1.54764389 10.15048553 3.59659015 15.125 6.8125 C28.6327195 15.31331654 42.43405742 18.49451524 58 21 C56.68334961 22.50024414 56.68334961 22.50024414 55 24 C46.0415273 23.98807127 37.28728805 21.17808117 29 18 C28.00097656 17.62875 27.00195312 17.2575 25.97265625 16.875 C16.37903045 13.12150934 7.60515333 7.98851928 0 1 C0 0.67 0 0.34 0 0 Z " fill="#4C4A4A" transform="translate(65,199)"/>
<path d="M0 0 C0.75410156 -0.00807175 1.50820312 -0.01614349 2.28515625 -0.02445984 C3.88913665 -0.03832469 5.49314685 -0.04903605 7.09716797 -0.05688477 C9.52500755 -0.07395514 11.95143383 -0.11779798 14.37890625 -0.16210938 C29.9759676 -0.31831379 29.9759676 -0.31831379 36.5625 4.23828125 C37.2225 4.89828125 37.8825 5.55828125 38.5625 6.23828125 C35.04180015 5.65149794 32.84950157 4.88178204 29.5625 3.23828125 C17.6825 3.23828125 5.8025 3.23828125 -6.4375 3.23828125 C-6.7675 28.31828125 -7.0975 53.39828125 -7.4375 79.23828125 C-7.7675 79.23828125 -8.0975 79.23828125 -8.4375 79.23828125 C-8.46062392 69.08561974 -8.47841534 58.93296445 -8.48931217 48.78028202 C-8.49454089 44.06648392 -8.50163834 39.35270378 -8.51293945 34.63891602 C-8.52376873 30.09372721 -8.52977692 25.54855573 -8.53237724 21.00335503 C-8.53423142 19.26533167 -8.53785189 17.52730931 -8.54323006 15.78929329 C-8.55044103 13.3634953 -8.55149092 10.93776979 -8.55102539 8.51196289 C-8.55462067 7.78620056 -8.55821594 7.06043823 -8.56192017 6.31268311 C-8.54705859 -0.79752086 -6.40890637 0.06465852 0 0 Z " fill="#4B4A49" transform="translate(158.4375,81.76171875)"/>
<path d="M0 0 C9.71816187 8.16094899 13.03380966 28.58882091 14.6953125 40.3359375 C15.32234337 47.87638569 15.14367717 55.44098425 15 63 C14.01 63 13.02 63 12 63 C11.98541748 62.41734375 11.97083496 61.8346875 11.95581055 61.234375 C11.43807181 42.61773397 10.12281436 23.67445964 1.34375 6.8203125 C0 4 0 4 0 0 Z " fill="#272626" transform="translate(225,72)"/>
<path d="M0 0 C0.33 0 0.66 0 1 0 C1.02312428 9.89189376 1.04091552 19.78378114 1.05181217 29.67569637 C1.05704082 34.2684264 1.06413812 38.861138 1.07543945 43.45385742 C1.086269 47.88233688 1.09227698 52.31079856 1.09487724 56.73929024 C1.09673137 58.43265628 1.10035175 60.12602129 1.10573006 61.81937981 C1.1129414 64.18291232 1.1139909 66.54637045 1.11352539 68.90991211 C1.11712067 69.61697296 1.12071594 70.32403381 1.12442017 71.05252075 C1.11405216 75.88594784 1.11405216 75.88594784 0 77 C-2.35313555 77.07271741 -4.70833668 77.08370868 -7.0625 77.0625 C-8.99802734 77.04896484 -8.99802734 77.04896484 -10.97265625 77.03515625 C-11.97167969 77.02355469 -12.97070312 77.01195312 -14 77 C-14 76.34 -14 75.68 -14 75 C-9.71 75 -5.42 75 -1 75 C-1.00222061 74.07514297 -1.00444122 73.15028595 -1.00672913 72.19740295 C-1.02672913 63.50047413 -1.04197264 54.80355298 -1.05181217 46.10660648 C-1.05704074 41.63494451 -1.06413789 37.16330147 -1.07543945 32.69165039 C-1.08626929 28.37988027 -1.09227704 24.06812841 -1.09487724 19.75634575 C-1.09673132 18.10763702 -1.1003516 16.45892934 -1.10573006 14.81022835 C-1.11294178 12.50896128 -1.11399089 10.2077706 -1.11352539 7.90649414 C-1.115746 6.5941127 -1.11796661 5.28173126 -1.12025452 3.92958069 C-1 1 -1 1 0 0 Z " fill="#21201F" transform="translate(139,86)"/>
<path d="M0 0 C5.55679478 0.50516316 10.40597867 2.06451364 15.64453125 3.96484375 C23.83287497 6.49093349 32.11106663 7.4316089 40.625 8.125 C41.62917969 8.21136719 42.63335937 8.29773438 43.66796875 8.38671875 C46.11159966 8.59617283 48.55553841 8.80051757 51 9 C51 9.99 51 10.98 51 12 C33.88282195 12.82973754 15.27775808 10.14563515 0 2 C0 1.34 0 0.68 0 0 Z " fill="#2B2929" transform="translate(83,227)"/>
<path d="M0 0 C19.94616931 0.51625379 38.97239234 11.62957705 54 24 C55.16208984 24.91652344 55.16208984 24.91652344 56.34765625 25.8515625 C64.28802785 32.43352838 72.39717949 41.68170254 77 51 C76.67 51.99 76.34 52.98 76 54 C75.55011719 53.27296875 75.10023438 52.5459375 74.63671875 51.796875 C69.46032421 43.7055168 63.72900803 36.82378279 57 30 C56.20851562 29.195625 55.41703125 28.39125 54.6015625 27.5625 C39.6057556 13.21435253 19.89889713 5.66335144 0 1 C0 0.67 0 0.34 0 0 Z " fill="#333231" transform="translate(147,17)"/>
<path d="M0 0 C1.25459341 3.76378023 0.58205649 6.07505153 0 10 C-0.86837062 23.96314791 -0.52841793 38.95114309 5 52 C5.38396602 53.32505921 5.7406481 54.65849966 6.0625 56 C6.22621094 56.680625 6.38992187 57.36125 6.55859375 58.0625 C7.08361776 60.36703019 7.56441882 62.67690039 8 65 C4.65973946 61.20890675 3.14889387 56.77771316 1.375 52.125 C1.06304687 51.33480469 0.75109375 50.54460937 0.4296875 49.73046875 C-2.93850585 41.00510581 -3.18249718 32.97773921 -3.1875 23.6875 C-3.19974609 22.50220703 -3.21199219 21.31691406 -3.22460938 20.09570312 C-3.23573899 13.40680433 -2.82744276 7.44700067 -1 1 C-0.67 0.67 -0.34 0.34 0 0 Z " fill="#969492" transform="translate(39,107)"/>
<path d="M0 0 C1.20995254 0.89364515 2.41786111 1.79005779 3.625 2.6875 C4.29789063 3.18636719 4.97078125 3.68523438 5.6640625 4.19921875 C18.20694288 13.86856299 28.76550654 27.91234239 34 43 C34.1875 45.9375 34.1875 45.9375 34 48 C31.0573799 44.46885588 29.25613949 40.4996958 27.3125 36.375 C23.9754372 29.48469891 20.06936202 23.76160683 15 18 C14.37867188 17.18273437 13.75734375 16.36546875 13.1171875 15.5234375 C10.76519938 12.72014538 8.23892871 10.58588815 5.375 8.3125 C0.12582781 4.12582781 0.12582781 4.12582781 -2 2 C-1.34 2 -0.68 2 0 2 C0 1.34 0 0.68 0 0 Z " fill="#313030" transform="translate(184,48)"/>
<path d="M0 0 C2.20599054 3.30898581 2.63914287 5.55477149 3.375 9.4375 C7.4010593 28.68402741 15.81139749 47.08960538 30 61 C32 63 32 63 32 65 C32.8971875 65.37125 32.8971875 65.37125 33.8125 65.75 C36.28647521 67.16370012 37.43370255 68.65055383 39 71 C35.34899981 71 34.45364815 69.86203448 31.92675781 67.39550781 C31.41467773 66.87311523 30.90259766 66.35072266 30.375 65.8125 C29.84229492 65.27077148 29.30958984 64.72904297 28.76074219 64.17089844 C13.77949811 48.54259402 0.63285591 24.35282131 -0.125 2.375 C-0.08375 1.59125 -0.0425 0.8075 0 0 Z " fill="#2B2A2A" transform="translate(18,139)"/>
<path d="M0 0 C0.66 0 1.32 0 2 0 C2.24586722 6.15370522 1.45000356 11.32956309 -0.1875 17.25 C-0.41163574 18.07975342 -0.63577148 18.90950684 -0.86669922 19.7644043 C-3.3228719 28.58554365 -6.7276552 36.90503091 -11 45 C-11.99 45 -12.98 45 -14 45 C-12.42276103 40.01924537 -10.69672181 35.26906355 -8.5625 30.5 C-5.85518356 24.14759185 -4.3536471 17.70143693 -2.89453125 10.98046875 C-2.0876472 7.2666287 -1.0810182 3.64307896 0 0 Z " fill="#232222" transform="translate(237,136)"/>
<path d="M0 0 C0.66 0.33 1.32 0.66 2 1 C0.5004155 5.23131168 -2.5351005 7.04335179 -6.1875 9.3125 C-6.80101318 9.69913818 -7.41452637 10.08577637 -8.04663086 10.48413086 C-12.58996862 13.28025208 -17.24759781 15.76800585 -22.0625 18.0625 C-22.68084717 18.3613208 -23.29919434 18.6601416 -23.9362793 18.96801758 C-27.42609424 20.56435633 -30.1607603 21.34110447 -34 21 C-31.08843874 17.73905139 -28.65196797 16.23707926 -24.5625 14.75 C-15.56437113 11.18824066 -7.46243061 6.1705918 0 0 Z " fill="#222121" transform="translate(196,211)"/>
<path d="M0 0 C6.47560347 0.50009611 11.86337884 1.70069501 17.875 4.125 C18.65222412 4.4334082 19.42944824 4.74181641 20.23022461 5.05957031 C26.54554234 7.64784753 32.74439997 10.56730185 38 15 C38.495 16.485 38.495 16.485 39 18 C34.79454532 17.07128341 31.2328591 15.16294052 27.4375 13.1875 C19.5617583 9.16860669 11.75162573 5.60109671 3 4 C3.33 3.34 3.66 2.68 4 2 C2.68 1.34 1.36 0.68 0 0 Z " fill="#232222" transform="translate(145,32)"/>
<path d="M0 0 C0.33 0 0.66 0 1 0 C1.76888156 14.28838235 0.35657335 32.35588955 -7 45 C-9.125 46.27734375 -9.125 46.27734375 -11 47 C-10.82984375 46.45214844 -10.6596875 45.90429688 -10.484375 45.33984375 C-5.61486925 29.90752753 -5.61486925 29.90752753 -3 14 C-2.67 14 -2.34 14 -2 14 C-1.34 9.38 -0.68 4.76 0 0 Z " fill="#626160" transform="translate(224,120)"/>
<path d="M0 0 C1.80273438 0.47614206 3.61694034 0.90985248 5.4375 1.3125 C12.16171161 2.93558556 18.73021729 5.05466022 25 8 C25.495 8.99 25.495 8.99 26 10 C22.39152179 9.38239508 19.00127497 8.38762583 15.52929688 7.23510742 C7.71480942 4.64500721 0.20003818 2.9407578 -8 2 C-7.67 1.34 -7.34 0.68 -7 0 C-21.85 -0.495 -21.85 -0.495 -37 -1 C-37 -1.33 -37 -1.66 -37 -2 C-25.48105085 -3.58882057 -10.6688716 -5.3848558 0 0 Z " fill="#4D4C4B" transform="translate(150,18)"/>
<path d="M0 0 C-3.47440612 1.20360489 -5.48429284 0.75702881 -8.9375 -0.375 C-18.2366406 -3.06169102 -27.69802651 -3.08175957 -37.3125 -3.1875 C-38.05314697 -3.20063232 -38.79379395 -3.21376465 -39.55688477 -3.22729492 C-44.70105276 -3.23477944 -49.03367893 -2.32331439 -54 -1 C-56.72061968 -0.79007564 -59.263957 -0.90228418 -62 -1 C-46.19095827 -11.53936115 -16.37690232 -7.22797677 0 0 Z " fill="#6A6867" transform="translate(162,39)"/>
<path d="M0 0 C2.0622048 -0.054348 4.12482816 -0.09294961 6.1875 -0.125 C7.33605469 -0.14820312 8.48460937 -0.17140625 9.66796875 -0.1953125 C12.91740372 -0.00484152 15.08660521 0.60639873 18 2 C15.10471229 3.08573289 12.9223448 2.91023785 9.9375 2.4375 C5.95214345 1.56737675 5.95214345 1.56737675 3 4 C2.49297483 6.12106795 2.49297483 6.12106795 2.48828125 8.5703125 C2.45283203 9.46621094 2.41738281 10.36210938 2.38085938 11.28515625 C2.35830078 12.22230469 2.33574219 13.15945312 2.3125 14.125 C2.27833984 15.06988281 2.24417969 16.01476562 2.20898438 16.98828125 C2.12635888 19.32540253 2.05726012 21.66214191 2 24 C10.35349665 24.10623328 10.35349665 24.10623328 17.625 20.625 C20.07590019 18.04529527 20.07590019 18.04529527 22 15 C21.75208211 18.6361291 21.47681978 20.4961394 18.93359375 23.18359375 C15.29703944 25.4352552 12.38552669 25.49178584 8.25 25.3125 C7.56550781 25.30283203 6.88101563 25.29316406 6.17578125 25.28320312 C1.16919168 25.16919168 1.16919168 25.16919168 0 24 C-0.08726223 22.21928754 -0.10699041 20.4351686 -0.09765625 18.65234375 C-0.09443359 17.57275391 -0.09121094 16.49316406 -0.08789062 15.38085938 C-0.07951172 14.24455078 -0.07113281 13.10824219 -0.0625 11.9375 C-0.05798828 10.79732422 -0.05347656 9.65714844 -0.04882812 8.48242188 C-0.03699747 5.65489649 -0.0205141 2.8274736 0 0 Z " fill="#7D7B7A" transform="translate(167,97)"/>
<path d="M0 0 C0.66 0.33 1.32 0.66 2 1 C1.55429589 5.93988717 -0.9709492 9.03185919 -4 12.75 C-4.48895752 13.36182129 -4.97791504 13.97364258 -5.48168945 14.60400391 C-9.65352371 19.74595356 -14.15821552 24.48100115 -19 29 C-19.66 28.01 -20.32 27.02 -21 26 C-20.443125 25.47792969 -19.88625 24.95585937 -19.3125 24.41796875 C-11.70238087 17.07780317 -5.73626566 8.84340955 0 0 Z " fill="#222121" transform="translate(221,182)"/>
<path d="M0 0 C0.33 0 0.66 0 1 0 C1.64260637 11.11938528 2.12729343 22.23667203 2.25 33.375 C2.27126953 34.33027588 2.29253906 35.28555176 2.31445312 36.26977539 C2.3427997 41.97907892 1.65587143 45.92588774 -1 51 C-7.26039609 51.93213141 -12.02197063 52.20927172 -18 50 C-16 48 -16 48 -12.77734375 47.83984375 C-11.51019531 47.87207031 -10.24304688 47.90429688 -8.9375 47.9375 C-6.62553635 47.99148494 -4.31250329 48.02046463 -2 48 C-0.41523948 46.41523948 -0.83572683 44.77107999 -0.79467773 42.57202148 C-0.77473251 41.63112167 -0.75478729 40.69022186 -0.73423767 39.72080994 C-0.71752518 38.69790359 -0.70081268 37.67499725 -0.68359375 36.62109375 C-0.66281265 35.57929459 -0.64203156 34.53749542 -0.62062073 33.46412659 C-0.55500943 30.12198753 -0.49618669 26.77976715 -0.4375 23.4375 C-0.39432578 21.17772582 -0.35071186 18.91795999 -0.30664062 16.65820312 C-0.19931633 11.10555579 -0.09757188 5.55282679 0 0 Z " fill="#999695" transform="translate(142,115)"/>
<path d="M0 0 C-2.64 0.99 -5.28 1.98 -8 3 C-8 3.66 -8 4.32 -8 5 C-9.08539063 5.45890625 -10.17078125 5.9178125 -11.2890625 6.390625 C-12.73450973 7.01010239 -14.17981472 7.62991175 -15.625 8.25 C-16.33785156 8.55035156 -17.05070312 8.85070313 -17.78515625 9.16015625 C-21.18873773 10.6277556 -24.34134644 12.1269335 -27.3984375 14.234375 C-30 16 -30 16 -32 16 C-31.07154756 12.07455768 -30.14059438 11.08819998 -26.65625 8.90234375 C-25.27945419 8.22946233 -23.89340727 7.57527134 -22.5 6.9375 C-21.78038086 6.59533447 -21.06076172 6.25316895 -20.31933594 5.90063477 C-18.2216565 4.91314583 -16.11382053 3.95235793 -14 3 C-12.96359375 2.525625 -11.9271875 2.05125 -10.859375 1.5625 C-4.57967033 -1.14491758 -4.57967033 -1.14491758 0 0 Z " fill="#5D5B5A" transform="translate(99,21)"/>
<path d="M0 0 C-1.70465295 5.67039996 -4.27474432 10.67288424 -6.99023438 15.90234375 C-9.34668524 20.50873922 -11.26057279 25.1252416 -13 30 C-13.33 30 -13.66 30 -14 30 C-13.48681649 25.63794018 -12.67454451 22.03860734 -11 18 C-10.731875 16.7625 -10.46375 15.525 -10.1875 14.25 C-9.03327688 9.4022629 -6.80383234 5.10689545 -4 1 C-2 0 -2 0 0 0 Z " fill="#605E5E" transform="translate(37,68)"/>
<path d="M0 0 C-1.32 0.33 -2.64 0.66 -4 1 C-4 1.66 -4 2.32 -4 3 C-8.66059868 4.4679051 -13.57795646 4.37671448 -18.41992188 4.60546875 C-22.01098053 4.47601838 -22.01098053 4.47601838 -25 6 C-25.14552732 7.76733176 -25.22722469 9.54000994 -25.28125 11.3125 C-25.31863281 12.38757813 -25.35601562 13.46265625 -25.39453125 14.5703125 C-25.42933594 15.70210937 -25.46414062 16.83390625 -25.5 18 C-25.56855494 20.22930507 -25.6412424 22.45848824 -25.71875 24.6875 C-25.76418945 26.17830078 -25.76418945 26.17830078 -25.81054688 27.69921875 C-26 30 -26 30 -27 31 C-29.69654854 31.07319621 -32.36691458 31.09242537 -35.0625 31.0625 C-36.20041992 31.05573242 -36.20041992 31.05573242 -37.36132812 31.04882812 C-39.24091871 31.0370068 -41.12046899 31.01907078 -43 31 C-42.67 30.34 -42.34 29.68 -42 29 C-37.38 29 -32.76 29 -28 29 C-27.67 20.42 -27.34 11.84 -27 3 C-23.596875 2.8453125 -23.596875 2.8453125 -20.125 2.6875 C-14.37926038 2.37061868 -9.29770863 1.51072107 -3.85546875 -0.4765625 C-2 -1 -2 -1 0 0 Z " fill="#757372" transform="translate(194,133)"/>
<path d="M0 0 C0.33 0 0.66 0 1 0 C1 16.17 1 32.34 1 49 C0.67 49 0.34 49 0 49 C-0.33 37.78 -0.66 26.56 -1 15 C-1.99 15.495 -1.99 15.495 -3 16 C-3.37952295 9.80112515 -2.8352113 5.5522888 0 0 Z " fill="#9A9897" transform="translate(123,112)"/>
<path d="M0 0 C0.66 0.33 1.32 0.66 2 1 C-4.38491664 8.32438666 -9.39020036 11.60344365 -19.09375 12.35546875 C-21.96803899 12.54757815 -24.84034547 12.67843416 -27.71875 12.7890625 C-30.84771948 12.62762383 -30.84771948 12.62762383 -32 14 C-32.15714654 15.63256758 -32.25085414 17.27135338 -32.31640625 18.91015625 C-32.35830078 19.89951172 -32.40019531 20.88886719 -32.44335938 21.90820312 C-32.48267578 22.94912109 -32.52199219 23.99003906 -32.5625 25.0625 C-32.60568359 26.10728516 -32.64886719 27.15207031 -32.69335938 28.22851562 C-32.79981225 30.81886884 -32.9018276 33.40932186 -33 36 C-33.33 36 -33.66 36 -34 36 C-34.05786668 32.20839703 -34.09355054 28.41690689 -34.125 24.625 C-34.14175781 23.54476562 -34.15851563 22.46453125 -34.17578125 21.3515625 C-34.18222656 20.3203125 -34.18867188 19.2890625 -34.1953125 18.2265625 C-34.20578613 17.27346191 -34.21625977 16.32036133 -34.22705078 15.33837891 C-34 13 -34 13 -32 11 C-29.93701172 10.68115234 -29.93701172 10.68115234 -27.4296875 10.5859375 C-26.08583984 10.52792969 -26.08583984 10.52792969 -24.71484375 10.46875 C-23.77769531 10.4378125 -22.84054688 10.406875 -21.875 10.375 C-20.93011719 10.33632812 -19.98523438 10.29765625 -19.01171875 10.2578125 C-16.67467625 10.16338654 -14.33764499 10.07781606 -12 10 C-12 9.34 -12 8.68 -12 8 C-11.38511719 7.67386719 -10.77023438 7.34773437 -10.13671875 7.01171875 C-8.92435547 6.35623047 -8.92435547 6.35623047 -7.6875 5.6875 C-6.88699219 5.25824219 -6.08648437 4.82898438 -5.26171875 4.38671875 C-3.16212728 3.09940446 -1.64552279 1.81593292 0 0 Z " fill="#918F8D" transform="translate(202,126)"/>
<path d="M0 0 C2.18977601 3.28466401 2.24786375 4.26183095 2.23046875 8.0703125 C2.22853516 9.04871094 2.22660156 10.02710938 2.22460938 11.03515625 C2.20624023 12.56462891 2.20624023 12.56462891 2.1875 14.125 C2.18685547 15.15238281 2.18621094 16.17976563 2.18554688 17.23828125 C2.14024086 24.85975914 2.14024086 24.85975914 1 26 C-1.35313555 26.07271741 -3.70833668 26.08370868 -6.0625 26.0625 C-7.35285156 26.05347656 -8.64320313 26.04445312 -9.97265625 26.03515625 C-10.97167969 26.02355469 -11.97070312 26.01195312 -13 26 C-13.33 25.34 -13.66 24.68 -14 24 C-9.38 24 -4.76 24 0 24 C0 16.08 0 8.16 0 0 Z " fill="#232221" transform="translate(165,137)"/>
<path d="M0 0 C-1.21320551 3.63961652 -2.46802804 4.35102103 -5.5 6.625 C-13.25024724 12.67262516 -19.77097074 19.32642824 -25.58984375 27.25 C-27 29 -27 29 -29 30 C-27.60633871 25.80403053 -25.64159779 23.20701426 -22.625 20 C-20.31135569 17.52385893 -18.06607927 15.08415876 -15.97265625 12.41796875 C-14.06824045 10.08364523 -12.12013748 8.23913917 -9.8125 6.3125 C-6.96918383 4.00313468 -6.96918383 4.00313468 -5 1 C-2 0 -2 0 0 0 Z " fill="#7F7D7B" transform="translate(66,37)"/>
<path d="M0 0 C0.99 0.99 1.98 1.98 3 3 C2.67 3.99 2.34 4.98 2 6 C1.89620454 7.44673609 1.84435643 8.89755666 1.82641602 10.34790039 C1.81292618 11.2221315 1.79943634 12.09636261 1.78553772 12.99708557 C1.77509933 13.9377739 1.76466095 14.87846222 1.75390625 15.84765625 C1.72098452 17.83398906 1.68777261 19.82031708 1.65429688 21.80664062 C1.60676129 24.94275797 1.5622961 28.07885359 1.52319336 31.21508789 C1.48361863 34.23864482 1.43205734 37.26181188 1.37890625 40.28515625 C1.3704921 41.2278688 1.36207794 42.17058136 1.35340881 43.14186096 C1.32844582 44.44847939 1.32844582 44.44847939 1.30297852 45.78149414 C1.29267105 46.54965958 1.28236359 47.31782501 1.27174377 48.10926819 C1 50 1 50 -1 52 C-4.0390625 52.1953125 -4.0390625 52.1953125 -7.625 52.125 C-9.40777344 52.09792969 -9.40777344 52.09792969 -11.2265625 52.0703125 C-12.59941406 52.03550781 -12.59941406 52.03550781 -14 52 C-14 51.67 -14 51.34 -14 51 C-13.14535156 50.93941406 -12.29070312 50.87882812 -11.41015625 50.81640625 C-10.30542969 50.73261719 -9.20070313 50.64882812 -8.0625 50.5625 C-6.96035156 50.48128906 -5.85820313 50.40007812 -4.72265625 50.31640625 C-2.08890097 50.29581916 -2.08890097 50.29581916 -1 49 C-0.8774645 47.46617321 -0.82222062 45.92689481 -0.79467773 44.38842773 C-0.77473251 43.40748642 -0.75478729 42.4265451 -0.73423767 41.4158783 C-0.71752518 40.3492244 -0.70081268 39.2825705 -0.68359375 38.18359375 C-0.66281265 37.0974025 -0.64203156 36.01121124 -0.62062073 34.8921051 C-0.55500558 31.40730373 -0.49618489 27.92242432 -0.4375 24.4375 C-0.39432615 22.08137199 -0.35071224 19.72525201 -0.30664062 17.36914062 C-0.19931208 11.57951063 -0.09756835 5.78980225 0 0 Z " fill="#848180" transform="translate(77,112)"/>
<path d="M0 0 C0.66 0.33 1.32 0.66 2 1 C1.01 1.33 0.02 1.66 -1 2 C-1.33 2.99 -1.66 3.98 -2 5 C-4.25325403 5.91276631 -6.51709989 6.45781522 -8.87109375 7.05859375 C-11.17801895 7.80470036 -11.17801895 7.80470036 -11.99609375 10.05078125 C-12.32738281 10.69402344 -12.65867187 11.33726563 -13 12 C-15.1640625 12.609375 -15.1640625 12.609375 -17.625 12.75 C-18.44226563 12.80671875 -19.25953125 12.8634375 -20.1015625 12.921875 C-20.72804688 12.94765625 -21.35453125 12.9734375 -22 13 C-16.24875103 6.76386821 -7.92372712 2.86602896 0 0 Z " fill="#716F6E" transform="translate(97,38)"/>
<path d="M0 0 C0 0.66 0 1.32 0 2 C-1.56159059 2.48212214 -3.12431928 2.96055873 -4.6875 3.4375 C-5.55761719 3.70433594 -6.42773438 3.97117188 -7.32421875 4.24609375 C-11.56028982 5.4396145 -15.40593574 6.12826962 -19.8125 6.0625 C-20.60269531 6.05347656 -21.39289063 6.04445312 -22.20703125 6.03515625 C-22.79871094 6.02355469 -23.39039063 6.01195312 -24 6 C-24 5.34 -24 4.68 -24 4 C-21.12666819 3.32533928 -18.25168518 2.6600766 -15.375 2 C-14.56675781 1.80921875 -13.75851563 1.6184375 -12.92578125 1.421875 C-8.52795831 0.42074457 -4.54438961 -0.2353082 0 0 Z " fill="#242323" transform="translate(160,232)"/>
<path d="M0 0 C10.77882239 5.02222054 20.77610918 17.40558284 26 28 C25.67 28.99 25.34 29.98 25 31 C24.55011719 30.27296875 24.10023438 29.5459375 23.63671875 28.796875 C19.14459183 21.77511349 14.28272463 15.74728118 8.56640625 9.71484375 C5.59099722 6.56734104 2.78681159 3.31404622 0 0 Z " fill="#272625" transform="translate(198,40)"/>
<path d="M0 0 C-0.72703125 0.35449219 -1.4540625 0.70898438 -2.203125 1.07421875 C-10.19218077 5.30432136 -15.45850657 10.22687614 -21.30859375 17.01171875 C-23.63296588 19.68992788 -26.15083328 21.87475949 -29 24 C-27.38374294 20.12098306 -24.76529838 17.28415775 -21.9375 14.25 C-21.45015381 13.7243042 -20.96280762 13.1986084 -20.46069336 12.65698242 C-6.5394411 -2.1798137 -6.5394411 -2.1798137 0 0 Z " fill="#969492" transform="translate(82,51)"/>
<path d="M0 0 C2.88958069 1.37352266 5.48857623 2.94049882 8.125 4.75 C12.3227259 7.59497038 16.63430193 10.17895111 21.03125 12.703125 C23 14 23 14 24 16 C14.90096431 14.71680266 6.44241566 8.29599713 0 2 C0 1.34 0 0.68 0 0 Z " fill="#252424" transform="translate(58,211)"/>
<path d="M0 0 C6.53415179 6.01716396 13.60598548 16.82710588 14.1875 25.9375 C14.125625 26.618125 14.06375 27.29875 14 28 C10.45953244 23.75143892 8.34410614 18.7892729 5.9609375 13.84375 C4.54041432 10.9376415 3.24240784 8.31166723 1.25 5.75 C0 4 0 4 0 0 Z " fill="#373535" transform="translate(204,68)"/>
<path d="M0 0 C0.66 0.33 1.32 0.66 2 1 C1.17757812 1.72703125 0.35515625 2.4540625 -0.4921875 3.203125 C-9.59537404 11.35903258 -18.78722466 19.74438955 -24 31 C-24.66 31 -25.32 31 -26 31 C-21.62045624 18.88037147 -10.47106623 7.37960858 0 0 Z " fill="#6B6968" transform="translate(73,51)"/>
<path d="M0 0 C1.10647487 2.71589286 1.08305152 3.78718048 0 6.5625 C-2.66811016 9.81425926 -4.9869943 10.82377419 -9 12 C-11.9375 11.1875 -11.9375 11.1875 -14 10 C-14 9.34 -14 8.68 -14 8 C-12.741875 7.95875 -11.48375 7.9175 -10.1875 7.875 C-7.98241044 7.68886047 -7.98241044 7.68886047 -6 7 C-4.1244258 4.08289958 -4.1244258 4.08289958 -3 1 C-2.01 0.67 -1.02 0.34 0 0 Z " fill="#868482" transform="translate(110,149)"/>
<path d="M0 0 C3.78226536 3.78226536 2.97432945 9.89156129 3 15 C2.61118521 20.36757018 1.8255951 25.68480513 1 31 C0.67 31 0.34 31 0 31 C-0.19832847 27.1463114 -0.38171343 23.29204822 -0.5625 19.4375 C-0.61857422 18.35146484 -0.67464844 17.26542969 -0.73242188 16.14648438 C-0.98524927 10.60113681 -1.05710499 5.4577939 0 0 Z " fill="#4F4E4D" transform="translate(222,105)"/>
<path d="M0 0 C0.84755859 0.14179688 1.69511719 0.28359375 2.56835938 0.4296875 C3.8899707 0.66945312 3.8899707 0.66945312 5.23828125 0.9140625 C6.13095703 1.06617188 7.02363281 1.21828125 7.94335938 1.375 C10.14793494 1.75225357 12.34995017 2.14063891 14.55078125 2.5390625 C13.24951172 4.04370117 13.24951172 4.04370117 11.55078125 5.5390625 C8.37109375 5.46484375 8.37109375 5.46484375 4.67578125 4.8515625 C3.46148437 4.66207031 2.2471875 4.47257813 0.99609375 4.27734375 C-2.02882041 3.62914786 -4.63361252 2.79698543 -7.44921875 1.5390625 C-4.09537183 -0.69683545 -3.73286066 -0.65137166 0 0 Z " fill="#585756" transform="translate(108.44921875,217.4609375)"/>
<path d="M0 0 C0.33 0 0.66 0 1 0 C1.21767642 8.96101244 1.04404545 17.2215548 -1 26 C-1.99 26.33 -2.98 26.66 -4 27 C-3.67 22.71 -3.34 18.42 -3 14 C-2.67 14 -2.34 14 -2 14 C-1.34 9.38 -0.68 4.76 0 0 Z " fill="#5C5A59" transform="translate(224,120)"/>
<path d="M0 0 C2.29633824 3.44450737 2.54016485 5.93812283 3 10 C3.99 10.33 4.98 10.66 6 11 C6.9140625 13.546875 6.9140625 13.546875 7.625 16.75 C7.86476563 17.79671875 8.10453125 18.8434375 8.3515625 19.921875 C8.91816327 22.61152201 9.47055191 25.3028116 10 28 C6.66522896 24.20349144 5.11059105 19.77225829 3.3125 15.125 C2.99216797 14.33480469 2.67183594 13.54460937 2.34179688 12.73046875 C0.62341768 8.32643507 -0.40989778 4.81049849 0 0 Z " fill="#898685" transform="translate(37,144)"/>
<path d="M0 0 C2 0 2 0 3.65625 1.609375 C4.2646875 2.31578125 4.873125 3.0221875 5.5 3.75 C6.1084375 4.44609375 6.716875 5.1421875 7.34375 5.859375 C9 8 9 8 10.09765625 10.203125 C11.2878798 12.57326714 12.65345991 12.86228359 15 14 C16.75 16.125 16.75 16.125 18 18 C15 18 15 18 12.1875 15.515625 C11.11723822 14.43471385 10.05501957 13.34579328 9 12.25 C8.46632813 11.71117187 7.93265625 11.17234375 7.3828125 10.6171875 C0 3.08745336 0 3.08745336 0 0 Z " fill="#242323" transform="translate(39,192)"/>
<path d="M0 0 C4.56244637 -0.05813173 9.12479724 -0.09364122 13.6875 -0.125 C14.98107422 -0.14175781 16.27464844 -0.15851562 17.60742188 -0.17578125 C18.85458984 -0.18222656 20.10175781 -0.18867188 21.38671875 -0.1953125 C23.10701294 -0.21102295 23.10701294 -0.21102295 24.86206055 -0.22705078 C27.99191655 -0.00058489 30.18079905 0.66543968 33 2 C33 2.33 33 2.66 33 3 C28.80219717 3.08230986 25.09793686 2.81958737 21 2 C19.30842606 1.86081463 17.61369627 1.7564164 15.91796875 1.68359375 C14.98662109 1.64169922 14.05527344 1.59980469 13.09570312 1.55664062 C12.13599609 1.51732422 11.17628906 1.47800781 10.1875 1.4375 C9.20845703 1.39431641 8.22941406 1.35113281 7.22070312 1.30664062 C4.81392973 1.2009774 2.40706017 1.09887673 0 1 C0 0.67 0 0.34 0 0 Z " fill="#151414" transform="translate(117,32)"/>
<path d="M0 0 C8.52984971 1.48345212 16.2114543 3.03740657 24 7 C16.80901827 9.39699391 6.95292509 4.43352378 0 2 C0 1.34 0 0.68 0 0 Z " fill="#888684" transform="translate(149,37)"/>
<path d="M0 0 C-0.33 0.66 -0.66 1.32 -1 2 C-3.31312122 2.60430292 -5.65236404 3.11048541 -8 3.5625 C-12.32673606 4.06104207 -12.32673606 4.06104207 -16 6 C-17.66617115 6.04063832 -19.33388095 6.042721 -21 6 C-15.94499431 0.94499431 -6.95115593 -0.63192327 0 0 Z " fill="#7A7977" transform="translate(110,19)"/>
<path d="M0 0 C2 2 2 2 2 5 C2.66 5 3.32 5 4 5 C4.39143394 6.74639757 4.76254287 8.49735918 5.125 10.25 C5.33382812 11.22453125 5.54265625 12.1990625 5.7578125 13.203125 C6.0202996 16.23442766 5.61988849 17.48017346 4 20 C3.67 20 3.34 20 3 20 C2.92652344 18.78763672 2.92652344 18.78763672 2.8515625 17.55078125 C2.73941406 15.94783203 2.73941406 15.94783203 2.625 14.3125 C2.55539063 13.25675781 2.48578125 12.20101562 2.4140625 11.11328125 C2.01076889 8.08096989 1.17411898 5.80165788 0 3 C0 2.01 0 1.02 0 0 Z " fill="#908E8C" transform="translate(204,96)"/>
<path d="M0 0 C0.99 0 1.98 0 3 0 C1.95902388 3.86648272 0.96301592 7.49461443 -1 11 C-1.66 11 -2.32 11 -3 11 C-3.32136655 6.39374606 -2.91033076 3.66486096 0 0 Z " fill="#868483" transform="translate(46,82)"/>
<path d="M0 0 C0.66 0 1.32 0 2 0 C2.07654536 4.51617599 2.10228696 8.59085217 1 13 C0.01 12.34 -0.98 11.68 -2 11 C-1.85957123 9.35369672 -1.71250671 7.70795821 -1.5625 6.0625 C-1.48128906 5.14597656 -1.40007812 4.22945312 -1.31640625 3.28515625 C-1 1 -1 1 0 0 Z " fill="#292828" transform="translate(237,136)"/>
<path d="M0 0 C0.8125 1.6875 0.8125 1.6875 1 4 C-1.375 6.6875 -1.375 6.6875 -4 9 C-4.33 9.33 -4.66 9.66 -5 10 C-7.53049402 10.07313567 -10.03304837 10.09247527 -12.5625 10.0625 C-13.62887695 10.05573242 -13.62887695 10.05573242 -14.71679688 10.04882812 C-16.47790013 10.03700864 -18.23896036 10.01907263 -20 10 C-20 9.67 -20 9.34 -20 9 C-19.13117188 8.98582031 -18.26234375 8.97164062 -17.3671875 8.95703125 C-9.80767679 8.87596192 -9.80767679 8.87596192 -3.25 5.625 C-0.83922008 3.14648837 -0.83922008 3.14648837 0 0 Z " fill="#5E5D5C" transform="translate(188,112)"/>
<path d="M0 0 C0.66 1.32 1.32 2.64 2 4 C1 5 1 5 -2.16015625 5.09765625 C-4.09181641 5.08025391 -4.09181641 5.08025391 -6.0625 5.0625 C-7.35285156 5.05347656 -8.64320313 5.04445312 -9.97265625 5.03515625 C-10.97167969 5.02355469 -11.97070312 5.01195312 -13 5 C-13 4.34 -13 3.68 -13 3 C-8.71 3 -4.42 3 0 3 C0 2.01 0 1.02 0 0 Z " fill="#262525" transform="translate(138,158)"/>
<path d="M0 0 C-1.45449401 1.0055761 -2.91372443 2.00430435 -4.375 3 C-5.59316406 3.8353125 -5.59316406 3.8353125 -6.8359375 4.6875 C-9 6 -9 6 -11 6 C-10.375 3.625 -10.375 3.625 -9 1 C-5.37169613 -0.69835501 -3.84489875 -1.28163292 0 0 Z " fill="#72716F" transform="translate(78,31)"/>
<path d="M0 0 C4.3177458 0.50797009 8.03302114 1.19682779 12 3 C11.34 3.66 10.68 4.32 10 5 C6.24438133 4.67342446 3.26397448 3.8830622 0 2 C0 1.34 0 0.68 0 0 Z " fill="#232222" transform="translate(83,227)"/>
<path d="M0 0 C4.13621084 3.3810038 7.81316569 6.66590534 11 11 C6.296847 9.6167197 2.89806188 6.91387738 0 3 C0 2.01 0 1.02 0 0 Z " fill="#3B3939" transform="translate(56,187)"/>
<path d="M0 0 C-0.33 1.32 -0.66 2.64 -1 4 C-5.455 4.495 -5.455 4.495 -10 5 C-6.82795656 1.48809477 -4.74687042 0 0 0 Z " fill="#82807F" transform="translate(85,46)"/>
<path d="M0 0 C0 0.33 0 0.66 0 1 C-1.36125 0.9071875 -1.36125 0.9071875 -2.75 0.8125 C-6.36245621 1.02091094 -7.48163975 1.48163975 -10 4 C-11.2516467 6.08334635 -11.2516467 6.08334635 -12 8 C-12.47840532 2.6179402 -12.47840532 2.6179402 -10.5 0.0625 C-6.74062617 -1.53523388 -3.98734193 -0.73101269 0 0 Z " fill="#979594" transform="translate(181,99)"/>
<path d="M0 0 C3.29907353 3.29907353 4.89128726 7.29683373 5.1875 11.9375 C5.125625 12.618125 5.06375 13.29875 5 14 C1.95728687 10.52261356 0.12093988 6.46443297 -1 2 C-0.67 1.34 -0.34 0.68 0 0 Z " fill="#3D3C3B" transform="translate(213,82)"/>
<path d="M0 0 C1.16835309 3.50505927 0.75193262 4.66433282 -0.3125 8.125 C-0.57675781 9.01445313 -0.84101563 9.90390625 -1.11328125 10.8203125 C-2 13 -2 13 -4 14 C-3.46148032 8.72250715 -2.22656164 4.74354436 0 0 Z " fill="#6B6A69" transform="translate(27,84)"/>
<path d="M0 0 C6.4 0.49230769 6.4 0.49230769 9.4375 3.0625 C10.2109375 4.0215625 10.2109375 4.0215625 11 5 C6.87248551 4.39301257 3.6678852 2.96189209 0 1 C0 0.67 0 0.34 0 0 Z " fill="#31302F" transform="translate(71,222)"/>
<path d="M0 0 C2.91227269 3.28804981 4.49701212 5.59885603 5 10 C-0.73529412 4.70588235 -0.73529412 4.70588235 -1 1 C-0.67 0.67 -0.34 0.34 0 0 Z " fill="#343232" transform="translate(48,175)"/>
<path d="M0 0 C0.66 0.33 1.32 0.66 2 1 C2 4.3 2 7.6 2 11 C0 8 0 8 0 5 C-0.66 4.67 -1.32 4.34 -2 4 C-1.34 4 -0.68 4 0 4 C0 2.68 0 1.36 0 0 Z " fill="#575655" transform="translate(19,134)"/>
<path d="M0 0 C0.33 0 0.66 0 1 0 C1 2.64 1 5.28 1 8 C-0.32 8.33 -1.64 8.66 -3 9 C-2.01 6.03 -1.02 3.06 0 0 Z " fill="#757372" transform="translate(119,121)"/>
<path d="M0 0 C0.33 0 0.66 0 1 0 C1 2.97 1 5.94 1 9 C-0.32 9 -1.64 9 -3 9 C-2.01 6.03 -1.02 3.06 0 0 Z " fill="#72706F" transform="translate(123,112)"/>
<path d="M0 0 C0.33 0 0.66 0 1 0 C1 2.64 1 5.28 1 8 C-0.98 8.99 -0.98 8.99 -3 10 C-2.01 6.7 -1.02 3.4 0 0 Z " fill="#6E6C6B" transform="translate(42,89)"/>
<path d="M0 0 C1.45922693 0.11409593 2.91740598 0.24165544 4.375 0.375 C5.59316406 0.47941406 5.59316406 0.47941406 6.8359375 0.5859375 C9 1 9 1 11 3 C8.36 3.33 5.72 3.66 3 4 C3.33 3.34 3.66 2.68 4 2 C2.68 1.34 1.36 0.68 0 0 Z " fill="#252424" transform="translate(145,32)"/>
<path d="M0 0 C0.33 0 0.66 0 1 0 C0.67 2.97 0.34 5.94 0 9 C-0.99 9.33 -1.98 9.66 -3 10 C-2.01 6.7 -1.02 3.4 0 0 Z " fill="#716F6E" transform="translate(111,140)"/>
<path d="M0 0 C-2.96178773 1.67110042 -5.37071192 2.32682752 -8.75 2.625 C-9.54921875 2.69976562 -10.3484375 2.77453125 -11.171875 2.8515625 C-11.77515625 2.90054688 -12.3784375 2.94953125 -13 3 C-9.21656826 -0.94792877 -5.07874402 -0.29300446 0 0 Z " fill="#989694" transform="translate(117,37)"/>
<path d="M0 0 C-3.22515763 1.73662334 -6.51329166 2.8905928 -10 4 C-9.67 3.01 -9.34 2.02 -9 1 C-3.79245283 -1.26415094 -3.79245283 -1.26415094 0 0 Z " fill="#9A9896" transform="translate(95,44)"/>
<path d="M0 0 C0.99 0.99 1.98 1.98 3 3 C1.93453047 5.13093906 0.70840281 6.36587557 -1 8 C-1.04241723 5.66705225 -1.04092937 3.33297433 -1 1 C-0.67 0.67 -0.34 0.34 0 0 Z " fill="#969392" transform="translate(79,117)"/>
<path d="M0 0 C0.66 0 1.32 0 2 0 C2 1.32 2 2.64 2 4 C1.34 4 0.68 4 0 4 C-0.33 4.99 -0.66 5.98 -1 7 C-1.625 5.1875 -1.625 5.1875 -2 3 C-1.34 2.01 -0.68 1.02 0 0 Z " fill="#1C1B1B" transform="translate(123,108)"/>
</svg>
